<svg width="237" height="88" viewBox="0 0 237 88" fill="none" xmlns="http://www.w3.org/2000/svg">
<g clip-path="url(#clip0)">
<path d="M0 84.2002C0 84.2002 8.4 83.4002 13.4 82.6002C18.5 81.8002 29.7 77.6002 34.3 76.9002C38.9 76.2002 45.6 78.9002 49.6 79.0002C53.6 79.1002 66.3 75.4002 66.3 75.4002L50.6 65.2002L27.8 74.0002L16.3 72.5002L0 84.2002Z" fill="#90ABC3"/>
<path d="M24.1998 0C24.1998 0 23.7998 8.7 23.7998 14.1C23.7998 19.4 25.2998 31.6 25.2998 36.4C25.2998 41.3 22.8998 47.8 22.3998 51.9C21.8998 56 22.9998 69.6 22.9998 69.6L31.6998 57.9L27.8998 30.1L29.9998 18.5L24.1998 0Z" fill="#7B732C"/>
<path d="M50.8001 57.9C50.8001 57.9 50.2001 50.6 50.1001 46.2C50.0001 41.8 51.2001 31.6 51.1001 27.5C51.0001 23.5 48.4001 18.1 47.8001 14.7C47.2001 11.4 47.9001 0 47.9001 0L56.4001 11.8L53.7001 32.6L56.1001 42.2L50.8001 57.9Z" fill="#BCCF00"/>
<path d="M17.6 60.4002C16.9 57.4002 16.1 54.5002 15.5 51.5002C15.3 50.3002 15.4 49.1002 15.6 47.8002C15.9 45.6002 16.3 43.3002 16.9 41.1002C17.7 38.0002 17.3 35.0002 16.3 32.0002C15.1 28.5002 14.2 24.9002 13.3 21.3002C12.9 19.6002 12.4 17.9002 11.8 16.2002L8.99998 40.0002C11.5 57.2002 5.19998 52.2002 7.79998 69.3002C7.79998 69.3002 17.9 61.6002 17.6 60.4002Z" fill="#ADA81D"/>
<path d="M33.6001 19.4999C34.6001 22.4999 35.5001 25.4999 36.3001 28.5999C36.6001 29.7999 36.6001 31.0999 36.5001 32.3999C36.3001 34.6999 36.1001 37.0999 35.7001 39.3999C35.2001 42.6999 35.7001 45.6999 36.9001 48.6999C38.3001 52.2999 39.5001 55.8999 40.7001 59.5999C41.3001 61.3999 41.9001 63.0999 42.6001 64.7999L43.6001 40.1999C39.8001 22.5999 46.5001 27.4999 42.7001 9.99991C42.8001 9.89991 33.2001 18.2999 33.6001 19.4999Z" fill="#7E7F3E"/>
<path d="M227.5 56.7998H216.9L222.3 44.6998L227.5 56.7998ZM228.9 59.8998L232.6 68.4998H236.5L222.4 36.7998L207.9 68.4998H211.7L215.5 59.8998H228.9ZM184.7 68.4998H201V65.3998H188.2V53.4998H200.6V50.3998H188.2V41.3998H201V38.2998H184.7V68.4998ZM156.1 65.2998V41.2998H158.6C162.3 41.2998 165.5 41.7998 168.4 44.1998C171.1 46.4998 172.5 49.7998 172.5 53.2998C172.5 56.6998 171.2 59.7998 168.6 62.1998C165.7 64.7998 162.5 65.2998 158.7 65.2998H156.1ZM152.6 68.4998H158.4C163.3 68.4998 167.1 67.8998 170.8 64.6998C174.3 61.6998 175.9 57.7998 175.9 53.3998C175.9 48.8998 174.3 44.8998 170.7 41.8998C167 38.8998 163.2 38.2998 158.4 38.2998H152.5V68.4998H152.6ZM142.4 38.2998H138.9V68.4998H142.4V38.2998ZM109.9 38.2998H106.1L118.9 70.2998L131.7 38.2998H127.9L118.9 61.2998L109.9 38.2998ZM96.9998 56.7998H86.3998L91.7998 44.6998L96.9998 56.7998ZM98.3998 59.8998L102.1 68.4998H106L91.7998 36.7998L77.2998 68.4998H81.0998L84.8998 59.8998H98.3998Z" fill="#706F6F"/>
<path d="M82.4 13.8V1.5H79V31.8H82.4V16.9H97.9V31.8H101.2V1.5H97.9V13.8H82.4Z" fill="#C6C6C6"/>
<path d="M144.5 16.6C144.5 23.4 139 29.1 132.1 29.1C125.2 29.1 119.7 23.4 119.7 16.6C119.7 9.7 125.2 4.1 132.1 4.1C139.1 4.1 144.5 9.8 144.5 16.6ZM147.9 16.7C147.9 8 140.8 1 132.1 1C123.5 1 116.3 8 116.3 16.7C116.3 25.4 123.4 32.3 132.1 32.3C140.8 32.3 147.9 25.4 147.9 16.7Z" fill="#C6C6C6"/>
<path d="M168.8 4.7H176.2V1.5H158.1V4.7H165.4V31.8H168.8V4.7Z" fill="#C6C6C6"/>
<path d="M191.5 31.8H207.1V28.6H194.8V16.8H206.8V13.6H194.8V4.7H207.1V1.5H191.5V31.8Z" fill="#C6C6C6"/>
<path d="M227.4 1.5H224V31.8H235.7V28.6H227.4V1.5Z" fill="#C6C6C6"/>
<path d="M181.1 82.2V83.3H183.4C183.4 84.9 181.9 86.2 180.5 86.2C178.6 86.2 177.1 84.3 177.1 82.2C177.1 80 178.6 78.3 180.6 78.3C181.7 78.3 182.7 78.9 183.3 79.9L184.1 79.1C183.2 77.9 181.9 77.2 180.5 77.2C178 77.2 176 79.5 176 82.3C176 85 178 87.3 180.4 87.3C182.8 87.3 184.5 85.3 184.5 82.6V82.2H181.1ZM163.6 87.1H164.7V79.9L171.3 87.5V77.4H170.2V84.6L163.6 77V87.1ZM158.3 77.4H157.2V87.1H158.3V77.4ZM150.1 77.4H149V87.1H152.7V86H150V77.4H150.1ZM139.2 87.1H143.9V86H140.3V82.3H143.8V81.2H140.3V78.5H143.9V77.4H139.2V87.1ZM129.4 87.1H134.1V86H130.5V82.3H134V81.2H130.5V78.5H134.1V77.4H129.4V87.1ZM124.3 78.5V77.4H120.1V87.1H121.2V82.3H124.2V81.2H121.2V78.5H124.3ZM113 77.4H111.9V87.1H115.6V86H113V77.4ZM104.7 77.4H103.6V87.1H107.3V86H104.6V77.4H104.7ZM93.8002 87.1H98.5002V86H94.9002V82.3H98.4002V81.2H94.9002V78.5H98.5002V77.4H93.8002V87.1ZM78.4002 77.4H77.2002L80.8002 87.5L83.3002 80.4L85.8002 87.5L89.4002 77.4H88.2002L85.8002 84.3L83.3002 77.1L80.8002 84.3L78.4002 77.4Z" fill="#B2B2B2"/>
<path d="M196.1 77.3999L197.3 81.0999L201.2 80.9999L198 83.2999L199.3 86.9999L196.1 84.5999L193 86.9999L194.3 83.2999L191.1 80.9999L195 81.0999L196.1 77.3999Z" fill="#B2B2B2"/>
<path d="M207.9 77.3999L209.1 81.0999L212.9 80.9999L209.8 83.2999L211 86.9999L207.9 84.5999L204.8 86.9999L206 83.2999L202.8 80.9999L206.7 81.0999L207.9 77.3999Z" fill="#B2B2B2"/>
<path d="M219.7 77.3999L220.8 81.0999L224.7 80.9999L221.5 83.2999L222.8 86.9999L219.7 84.5999L216.5 86.9999L217.8 83.2999L214.6 80.9999L218.5 81.0999L219.7 77.3999Z" fill="#B2B2B2"/>
<path d="M231.4 77.3999L232.6 81.0999L236.5 80.9999L233.3 83.2999L234.5 86.9999L231.4 84.5999L228.3 86.9999L229.5 83.2999L226.4 80.9999L230.3 81.0999L231.4 77.3999Z" fill="#B2B2B2"/>
</g>
<defs>
<clipPath id="clip0">
<rect width="236.5" height="87.5" fill="white"/>
</clipPath>
</defs>
</svg>
