<?xml version="1.0" encoding="UTF-8"?><svg id="Ebene_1" xmlns="http://www.w3.org/2000/svg" viewBox="0 0 207.64 57.63"><g><path d="M47.38,57.24v-23.85h3.36l7.64,12.07c1.77,2.79,3.15,5.31,4.28,7.75l.07-.04c-.28-3.18-.35-6.09-.35-9.8v-9.98h2.9v23.85h-3.11l-7.57-12.1c-1.66-2.65-3.26-5.38-4.46-7.96l-.11,.04c.18,3.01,.25,5.87,.25,9.84v10.19h-2.9Z" fill="#807060"/><path d="M72.79,57.24v-23.85h3.36l7.64,12.07c1.77,2.79,3.15,5.31,4.28,7.75l.07-.04c-.28-3.18-.35-6.09-.35-9.8v-9.98h2.9v23.85h-3.11l-7.57-12.1c-1.66-2.65-3.26-5.38-4.46-7.96l-.11,.04c.18,3.01,.25,5.87,.25,9.84v10.19h-2.9Z" fill="#807060"/><path d="M110.54,46.06h-9.27v8.6h10.33v2.58h-13.41v-23.85h12.88v2.58h-9.8v7.54h9.27v2.55Z" fill="#807060"/><path d="M117.73,57.24v-23.85h3.36l7.64,12.07c1.77,2.79,3.15,5.31,4.28,7.75l.07-.04c-.28-3.18-.35-6.09-.35-9.8v-9.98h2.9v23.85h-3.11l-7.57-12.1c-1.66-2.65-3.26-5.38-4.46-7.96l-.11,.04c.18,3.01,.25,5.87,.25,9.84v10.19h-2.9Z" fill="#807060"/><path d="M146.21,33.39v9.98h11.54v-9.98h3.11v23.85h-3.11v-11.18h-11.54v11.18h-3.08v-23.85h3.08Z" fill="#807060"/><path d="M188.71,45.07c0,8.21-4.99,12.56-11.08,12.56s-10.72-4.88-10.72-12.1c0-7.57,4.71-12.53,11.08-12.53s10.72,4.99,10.72,12.07Zm-18.51,.39c0,5.1,2.76,9.66,7.61,9.66s7.64-4.49,7.64-9.91c0-4.74-2.48-9.7-7.61-9.7s-7.64,4.71-7.64,9.94Z" fill="#807060"/><path d="M194.79,33.39h12.84v2.58h-9.77v7.93h9.02v2.55h-9.02v10.79h-3.08v-23.85Z" fill="#807060"/></g><path d="M6.4,35.94H0v-2.55H15.78v2.55h-6.4v21.3h-2.97v-21.3Z" fill="#807060"/><polygon points="84.78 0 84.52 0 84.09 3.13 81.57 1.23 81.36 1.42 83.26 3.95 80.14 4.39 80.14 4.66 83.23 5.13 81.36 7.61 81.57 7.8 84.06 5.94 84.52 9.05 84.78 9.05 85.23 5.9 87.75 7.8 87.94 7.61 86.02 5.09 89.16 4.66 89.16 4.39 86.02 3.95 87.94 1.42 87.75 1.23 85.23 3.13 84.78 0" fill="#cec3b9"/><polygon points="97.88 0 97.62 0 97.19 3.13 94.67 1.23 94.46 1.42 96.36 3.95 93.24 4.39 93.24 4.66 96.33 5.13 94.46 7.61 94.67 7.8 97.15 5.94 97.62 9.05 97.88 9.05 98.33 5.9 100.85 7.8 101.04 7.61 99.12 5.09 102.26 4.66 102.26 4.39 99.12 3.95 101.04 1.42 100.85 1.23 98.33 3.13 97.88 0" fill="#cec3b9"/><polygon points="110.98 0 110.72 0 110.29 3.13 107.77 1.23 107.56 1.42 109.46 3.95 106.33 4.39 106.33 4.66 109.42 5.13 107.56 7.61 107.77 7.8 110.25 5.94 110.72 9.05 110.98 9.05 111.42 5.9 113.94 7.8 114.13 7.61 112.22 5.09 115.36 4.66 115.36 4.39 112.22 3.95 114.13 1.42 113.94 1.23 111.42 3.13 110.98 0" fill="#cec3b9"/><path d="M28.57,32.86s-3.47,6.49-8.28,8.11c1.23,1.45,3.24,1.29,3.24,1.29,0,0-.95,4.08-6.54,5.87,1.85,2.01,3.3,2.07,3.3,2.07,0,0-2.57,3.91-7.49,4.81l1.34,2.24h29.08l1.34-2.01s-5.54-1.51-8-5.31c1.79,0,3.3-1.85,3.3-1.85,0,0-5.37-2.74-6.93-6.09,2.96,0,3.35-1.4,3.35-1.4,0,0-5.26-1.45-7.72-7.72" fill="#cec3b9"/><path d="M116.08,24.75h.75V13.43h-.75v11.32Zm-9.16-4.5c.13-1.18,.86-2.69,2.55-2.69,1.85,0,2.29,1.63,2.28,2.69h-4.83Zm5.59,.6c.03-.13,.03-.25,.03-.46,0-1.1-.48-3.46-2.98-3.46-1.98,0-3.44,1.59-3.44,4.14,0,2.25,1.37,3.85,3.57,3.85,1.34,0,2.12-.33,2.4-.49l-.19-.6c-.43,.21-1,.43-2.12,.43-1.58,0-2.91-.96-2.91-3.41h5.64Zm-11.88-5.14v1.4h-1.29v.6h1.29v4.84c0,.78,.13,1.42,.48,1.82,.29,.37,.75,.56,1.3,.56,.46,0,.81-.08,1.07-.19l-.1-.59c-.19,.06-.48,.13-.88,.13-.81,0-1.12-.62-1.12-1.59v-4.97h2.18v-.6h-2.18v-1.69l-.76,.29Zm-7.39,1.85c2.01,0,2.8,1.94,2.8,3.35,0,1.96-1.26,3.39-2.85,3.39s-2.79-1.43-2.79-3.35c0-1.64,.89-3.39,2.84-3.39m.02-.62c-1.9,0-3.61,1.43-3.61,4.06,0,2.39,1.53,3.93,3.5,3.93,1.7,0,3.66-1.21,3.66-4.08,0-2.34-1.43-3.92-3.55-3.92m-14.58-2.91v10.73h.75v-5.37h5.93v5.37h.75V14.02h-.75v4.71h-5.93v-4.71h-.75Z" fill="#807060"/></svg>