<?xml version="1.0" encoding="UTF-8"?><svg id="a" xmlns="http://www.w3.org/2000/svg" viewBox="0 0 683.94 517.74"><defs><style>.b{fill:#fff;}</style></defs><path class="b" d="M342.66,96.02c-.92,.46-2.3,.23-1.85-1.38,.46-2.54-.92-4.15-2.76-5.76-2.77-2.08-5.76-4.38-8.76-6.45-2.08-1.38-2.08-1.15-2.99,.92-1.15,3.69-1.39,7.38-1.15,11.06,.46,4.38,0,8.76,0,13.13,0,.46-.46,1.39-.92,1.61-1.84,1.15-5.3,.46-6.68-.92-.23-.23-.46-.92-.69-.92-2.08,0-1.84-1.61-1.84-2.99,0-.23-.23-.69-.23-.92-.23,.23-.69,.23-.92,.7-.92,2.3-2.08,1.84-3.92,1.15-4.37-1.61-5.07-2.77-2.99-7.15,1.84-3.22,3.68-6.91,5.99-9.9,1.84-2.99,1.61-5.76,1.61-8.99,0-.46-.69-1.15-1.15-1.15-1.61,0-3.46-.23-5.3,0-3.68,.23-7.14,.23-10.6,.7-1.38,.23-2.77-.23-2.53-1.61,0-.92,1.15-2.3,2.3-2.53,2.07-.7,4.6-.92,6.68-1.39,2.53-.23,4.84-.46,7.37-.92,.7-.23,1.39-.46,1.85-.69-.46-.7-.46-1.39-.92-1.61-5.07-3.46-9.91-6.69-14.74-10.14-.46-.23-.92-.7-.69-.92,.46-.92,1.15-2.07,1.61-2.3,1.61,0,3.23,0,4.38,.69,3.68,1.84,6.91,3.92,10.14,5.99,1.61,.92,1.84,.7,2.08-1.15,.23-3,.46-6.45,.69-9.45,0-1.85,0-3.69,.23-5.53,.23-2.53,2.3-3.68,4.38-2.53,3.45,1.61,5.3,4.61,5.53,8.52v10.83c0,.69,0,1.15,.23,1.84,.23-.46,.92-.92,1.15-1.39,2.77-3.91,5.76-7.83,8.53-11.74,1.15-1.39,2.53-2.08,4.15-1.39,1.84,.69,2.07,2.08,2.07,3.68,0,2.99-.46,5.76-2.76,7.84-1.15,1.15-1.84,2.76-2.77,3.91-.92,1.15-.46,1.61,.92,1.39,3.22-.23,6.45-.46,9.67-.92v4.15c-1.15-.46-2.3-.23-3.23,.69-.92,.46-2.07,1.15-3.22,1.15-2.3,.23-4.61,0-6.68,.23-.92,.23-2.3,.92-2.77,1.84-.92,.92,.23,1.61,.92,2.3,5.06,4.15,11.05,7.14,14.97,12.67v3.46c-1.38,.92-2.99,1.61-4.37,2.3Zm-28.11-5.07s-.23-.23-.46-.23-.46,0-.46,.23c-.69,.92-.92,1.84-1.15,2.77,0,0-.23,.23-.23,.46,.23,0,.46,0,.69,.23,.46-1.15,1.15-2.07,1.61-3.46Z"/><path class="b" d="M453.05,96.02c-.92,.46-2.3,.23-1.85-1.38,.46-2.54-.92-4.15-2.76-5.76-2.77-2.08-5.76-4.38-8.76-6.45-2.08-1.38-2.08-1.15-2.99,.92-1.15,3.69-1.39,7.38-1.15,11.06,.46,4.38,0,8.76,0,13.13,0,.46-.46,1.39-.92,1.61-1.84,1.15-5.3,.46-6.68-.92-.23-.23-.46-.92-.69-.92-2.08,0-1.84-1.61-1.84-2.99,0-.23-.23-.69-.23-.92-.23,.23-.69,.23-.92,.7-.92,2.3-2.08,1.84-3.92,1.15-4.37-1.61-5.07-2.77-2.99-7.15,1.84-3.22,3.68-6.91,5.99-9.9,1.84-2.99,1.61-5.76,1.61-8.99,0-.46-.69-1.15-1.15-1.15-1.61,0-3.46-.23-5.3,0-3.68,.23-7.14,.23-10.6,.7-1.38,.23-2.77-.23-2.53-1.61,0-.92,1.15-2.3,2.3-2.53,2.07-.7,4.6-.92,6.68-1.39,2.53-.23,4.84-.46,7.37-.92,.7-.23,1.39-.46,1.85-.69-.46-.7-.46-1.39-.92-1.61-5.07-3.46-9.91-6.69-14.74-10.14-.46-.23-.92-.7-.69-.92,.46-.92,1.15-2.07,1.61-2.3,1.61,0,3.23,0,4.38,.69,3.68,1.84,6.91,3.92,10.14,5.99,1.61,.92,1.84,.7,2.08-1.15,.23-3,.46-6.45,.69-9.45,0-1.85,0-3.69,.23-5.53,.23-2.53,2.3-3.68,4.38-2.53,3.45,1.61,5.3,4.61,5.53,8.52v10.83c0,.69,0,1.15,.23,1.84,.23-.46,.92-.92,1.15-1.39,2.77-3.91,5.76-7.83,8.53-11.74,1.15-1.39,2.53-2.08,4.15-1.39,1.84,.69,2.07,2.08,2.07,3.68,0,2.99-.46,5.76-2.76,7.84-1.15,1.15-1.84,2.76-2.77,3.91-.92,1.15-.46,1.61,.92,1.39,3.22-.23,6.45-.46,9.67-.92v4.15c-1.15-.46-2.3-.23-3.23,.69-.92,.46-2.07,1.15-3.22,1.15-2.3,.23-4.61,0-6.68,.23-.92,.23-2.3,.92-2.77,1.84-.92,.92,.23,1.61,.92,2.3,5.06,4.15,11.05,7.14,14.97,12.67v3.46c-1.38,.92-2.99,1.61-4.37,2.3Zm-28.11-5.07s-.23-.23-.46-.23-.46,0-.46,.23c-.69,.92-.92,1.84-1.15,2.77,0,0-.23,.23-.23,.46,.23,0,.46,0,.69,.23,.46-1.15,1.15-2.07,1.61-3.46Z"/><path class="b" d="M563.44,96.02c-.92,.46-2.3,.23-1.85-1.38,.46-2.54-.92-4.15-2.76-5.76-2.77-2.08-5.76-4.38-8.76-6.45-2.08-1.38-2.08-1.15-2.99,.92-1.15,3.69-1.39,7.38-1.15,11.06,.46,4.38,0,8.76,0,13.13,0,.46-.46,1.39-.92,1.61-1.84,1.15-5.3,.46-6.68-.92-.23-.23-.46-.92-.69-.92-2.08,0-1.84-1.61-1.84-2.99,0-.23-.23-.69-.23-.92-.23,.23-.69,.23-.92,.7-.92,2.3-2.08,1.84-3.92,1.15-4.37-1.61-5.07-2.77-2.99-7.15,1.84-3.22,3.68-6.91,5.99-9.9,1.84-2.99,1.61-5.76,1.61-8.99,0-.46-.69-1.15-1.15-1.15-1.61,0-3.46-.23-5.3,0-3.68,.23-7.14,.23-10.6,.7-1.38,.23-2.77-.23-2.53-1.61,0-.92,1.15-2.3,2.3-2.53,2.07-.7,4.6-.92,6.68-1.39,2.53-.23,4.84-.46,7.37-.92,.7-.23,1.39-.46,1.85-.69-.46-.7-.46-1.39-.92-1.61-5.07-3.46-9.91-6.69-14.74-10.14-.46-.23-.92-.7-.69-.92,.46-.92,1.15-2.07,1.61-2.3,1.61,0,3.23,0,4.38,.69,3.68,1.84,6.91,3.92,10.14,5.99,1.61,.92,1.84,.7,2.08-1.15,.23-3,.46-6.45,.69-9.45,0-1.85,0-3.69,.23-5.53,.23-2.53,2.3-3.68,4.38-2.53,3.45,1.61,5.3,4.61,5.53,8.52v10.83c0,.69,0,1.15,.23,1.84,.23-.46,.92-.92,1.15-1.39,2.77-3.91,5.76-7.83,8.53-11.74,1.15-1.39,2.53-2.08,4.15-1.39,1.84,.69,2.07,2.08,2.07,3.68,0,2.99-.46,5.76-2.76,7.84-1.15,1.15-1.84,2.76-2.77,3.91-.92,1.15-.46,1.61,.92,1.39,3.22-.23,6.45-.46,9.67-.92v4.15c-1.15-.46-2.3-.23-3.23,.69-.92,.46-2.07,1.15-3.22,1.15-2.3,.23-4.61,0-6.68,.23-.92,.23-2.3,.92-2.77,1.84-.92,.92,.23,1.61,.92,2.3,5.06,4.15,11.05,7.14,14.97,12.67v3.46c-1.38,.92-2.99,1.61-4.37,2.3Zm-28.11-5.07s-.23-.23-.46-.23-.46,0-.46,.23c-.69,.92-.92,1.84-1.15,2.77,0,0-.23,.23-.23,.46,.23,0,.46,0,.69,.23,.46-1.15,1.15-2.07,1.61-3.46Z"/><path class="b" d="M673.82,96.02c-.92,.46-2.3,.23-1.85-1.38,.46-2.54-.92-4.15-2.76-5.76-2.77-2.08-5.76-4.38-8.76-6.45-2.08-1.38-2.08-1.15-2.99,.92-1.15,3.69-1.39,7.38-1.15,11.06,.46,4.38,0,8.76,0,13.13,0,.46-.46,1.39-.92,1.61-1.84,1.15-5.3,.46-6.68-.92-.23-.23-.46-.92-.69-.92-2.08,0-1.84-1.61-1.84-2.99,0-.23-.23-.69-.23-.92-.23,.23-.69,.23-.92,.7-.92,2.3-2.08,1.84-3.92,1.15-4.37-1.61-5.07-2.77-2.99-7.15,1.84-3.22,3.68-6.91,5.99-9.9,1.84-2.99,1.61-5.76,1.61-8.99,0-.46-.69-1.15-1.15-1.15-1.61,0-3.46-.23-5.3,0-3.68,.23-7.14,.23-10.6,.7-1.38,.23-2.77-.23-2.53-1.61,0-.92,1.15-2.3,2.3-2.53,2.07-.7,4.6-.92,6.68-1.39,2.53-.23,4.84-.46,7.37-.92,.7-.23,1.39-.46,1.85-.69-.46-.7-.46-1.39-.92-1.61-5.07-3.46-9.91-6.69-14.74-10.14-.46-.23-.92-.7-.69-.92,.46-.92,1.15-2.07,1.61-2.3,1.61,0,3.23,0,4.38,.69,3.68,1.84,6.91,3.92,10.14,5.99,1.61,.92,1.84,.7,2.08-1.15,.23-3,.46-6.45,.69-9.45,0-1.85,0-3.69,.23-5.53,.23-2.53,2.3-3.68,4.38-2.53,3.45,1.61,5.3,4.61,5.53,8.52v10.83c0,.69,0,1.15,.23,1.84,.23-.46,.92-.92,1.15-1.39,2.77-3.91,5.76-7.83,8.53-11.74,1.15-1.39,2.53-2.08,4.15-1.39,1.84,.69,2.07,2.08,2.07,3.68,0,2.99-.46,5.76-2.76,7.84-1.15,1.15-1.84,2.76-2.77,3.91-.92,1.15-.46,1.61,.92,1.39,3.22-.23,6.45-.46,9.67-.92v4.15c-1.15-.46-2.3-.23-3.23,.69-.92,.46-2.07,1.15-3.22,1.15-2.3,.23-4.61,0-6.68,.23-.92,.23-2.3,.92-2.77,1.84-.92,.92,.23,1.61,.92,2.3,5.06,4.15,11.05,7.14,14.97,12.67v3.46c-1.38,.92-2.99,1.61-4.37,2.3Zm-28.11-5.07s-.23-.23-.46-.23-.46,0-.46,.23c-.69,.92-.92,1.84-1.15,2.77,0,0-.23,.23-.23,.46,.23,0,.46,0,.69,.23,.46-1.15,1.15-2.07,1.61-3.46Z"/><path class="b" d="M305.88,413.64c.93,.46,1.86,1.51,2.32,2.55,.58,1.28,.93,2.79,.7,4.41-.23,.93,.12,1.97-.58,2.79v.23c.81,1.4,0,2.55-.23,3.83-.12,.81-.12,1.63-.12,2.44-.12,1.05-.12,2.09-.23,3.14v2.2c.23,1.51,0,3.14-.12,4.76,0,.81,.12,1.75,.12,2.55,0,.35-.12,.81-.23,1.28,0,.12-.12,.47-.12,.81,.12,.81,.23,1.63,.23,2.44,0,.34-.12,.69-.35,1.05-.12,.11-.35,.34-.35,.58,.12,.47,.23,.93,.46,1.4,.12-.35,.47-.69,.7-1.05,1.28-2.09,2.55-4.29,3.72-6.38,1.28-2.32,2.67-4.76,3.95-7.08,.47-.81,1.05-1.63,1.62-2.32,1.63-1.86,3.37-3.37,4.99-5,.23-.23,.58-.46,.81-.46,1.05,0,2.09-.58,3.02-.81,1.16-.23,2.32,.12,3.48,0,1.16,0,2.21,.23,3.14,.93,.23,.12,.46,.35,.58,.35,.93,2.67,2.32,5.23,1.28,8.12-.23,.35,.23,1.16,.35,1.63,.23,.69,.35,1.28,.46,1.86,0,.81-.12,1.62-.12,2.32,0,1.74,.12,3.6,0,5.34,0,.46-.23,.81-.46,1.16-.58,.81-.81,1.51-.23,2.55,.35,.81,.12,1.75,0,2.67-.12,.81-.46,1.74-.69,2.67,0,.11,.12,.34,.12,.58,0,.35,.12,.7,0,.81-.93,.69-.81,1.86-1.39,2.79-.23,.58-.35,1.28-1.28,1.16-.12,0-.35,.34-.35,.46,.35,.69-.12,1.28-.47,1.74-.12,.23-.23,.58-.23,.69,0,1.4-1.05,2.09-1.97,2.79-.35,.23-.69,.46-.93,.81-1.16,1.98-3.25,2.67-5.34,2.21-1.62-.46-3.25-.58-4.88-.93-1.16-.34-2.2-.81-3.25-1.62-1.86-1.16-2.44-3.25-3.02-5.34-.12-.35-.35-.58-.46-.93-.23,.35-.81,.69-.81,.93,.12,1.16-.69,2.08-1.05,3.13,0,0-.12,.23-.12,.35,.12,1.86-.69,3.48-1.05,5.23-.35,1.74-.46,3.48-.69,5.22-.12,1.51,0,2.9-.12,4.29,0,.23,.12,.47,.12,.58,.46,1.28,.12,2.09-1.05,2.79-1.39,.58-2.67,.7-4.06,0-.93-.58-1.86-.81-2.9-1.16-.12-.12-.35,.23-.58,.23-1.16,.35-1.62-.93-2.67-.81-.12-.46-.23-1.05-.12-1.4,0-.81,.23-1.74,.23-2.55,.23-4.18,.35-8.36,.35-12.65,.12-1.97,.23-4.06,.35-6.04,.12-3.6,.23-7.19,.46-10.79,.12-3.37,.35-6.74,.46-10.1,.12-1.74,.23-3.48,.23-5.23,.23-3.48,.35-7.08,.58-10.68,0-2.32,.23-4.64,.35-7.08,.23-2.32,1.51-3.49,3.83-3.6,1.16,.23,2.55,.46,3.6,1.16Zm-6.73,32.98c0,.93,.81,1.74,0,2.67,0,.12,0,.69,.58,.58,.23-.12,.47-.12,.58-.23-.12,.23-.23,.46-.47,.58-.69,0-1.05,.47-.81,1.05,.23,.81,.35,1.51,.12,2.21,0,.58,.12,1.16,.12,1.86-.12,.81-.35,1.62,.46,2.2,0,0-.12,.58-.35,.81-.58,.46-.23,1.16-.23,1.74,0,.11,.35,.35,.35,.35,.81-.47,1.62-1.05,2.67-.7,0,.12,.12-.23,.35-.46h-.58c-.46,.23-.23,0-.35-.23-.35-.69-.23-.81,.46-1.05,.35-.23,.7-.58,0-.81-.35-.11-.58-.34-.81-.58,0-.24-.69-.47-.12-.93,.35-.23,.58-.46,1.05-.69,.81-.58,.81-.81-.12-1.4,0-.11-.12-.23-.23-.23,.58,0-.12-1.05,.69-.93,.23,0,.35-.12,.58-.12-.12-.11-.23-.34-.35-.34-.81-.35-1.63-.7-2.55-.35h-.23v-.35c.47-.11,.93-.93,1.51-.11,.23,.11,.58,0,.81-.12-.69-.46,.12-.58,.12-.81,.23-.69,1.05-1.51,.35-2.08-.47-.58-.47-.93-.12-1.28,.12-.12,.12-.23,.12-.35-.12,0-.35-.12-.35,0-.23,.46-.46,.81-.81,1.28-.23,.23-.35,.35-.58,.46-.23,0-.69-.11-.69-.23,0-.23,.12-.58,.23-.69,.69-.69,1.39-1.4,2.21-2.09,.81-.69,.81-1.28-.12-1.86-.23-.11-.35-.23-.35-.34,.12-.12,.23-.12,.47-.12,.58-.12,.58-.35,.35-.69-.12-.23-.12-.35-.23-.46v-.47c-.12,.12-.23,.12-.35,.23-.23,.35-.69,.58-1.04,.24-.12-.12,.23-.81,.46-1.05,0-.12,.23-.23,.35-.23-.12-.12-.46-.35-.58-.35-.81,.35-1.86,.11-2.21,1.39-.35,.7-.23,1.4,.12,2.21,.46,.46,1.05,.58,1.62,.23h.23c.23,0,.35,.11,.58,.23-.23,.12-.35,.35-.46,.35h-1.28q-1.16-.12-1.16,.93v1.16Zm.12,23.45c.23-.35,.46-.69,.46-1.05,0-.23-.23-.46-.35-.81-.23,.35-.23,.58-.35,.81,.12,.35,.12,.69,.23,1.05Zm2.09-8.48c.23,0,.46-.23,.69-.46,.12,0,.23-.12,.23-.23v-.35c0-.11-.12-.11-.35-.11v.46c0,.11,.12,.23,.12,.34-.46-.23-.81-.34-1.16-.46-.81-.11-1.62,.23-1.74,1.05,0,.81-.23,1.51,.46,2.09,.58,.35,.81,.81-.23,.93-.12,0-.23,.23-.23,.35,.12,.12,.35,.23,.46,.12,.46-.12,.7-.35,1.16-.47,.46,0,.58-.11,.12-.58-.58-.47-.69-1.16,0-1.75q0,.24,.12,.35c0,.12,.12,.23,.23,.35v-.46c-.12,0-.23-.12-.46-.24,0-.46,.12-.81,.58-.93Zm-.7,5.34c-.35-.23-.58-.58-.81-.58s-.58,.35-.69,.58c0,.12,.23,.35,.46,.58,.46-.35,.7-.46,1.05-.58Zm-.7-28.67c0,.93,.58,.81,1.16,.81,1.05,.12-.12-.35,.12-.58,0,0,.12-.11,.12-.23,.23-.34,.81-.58-.12-.93,0,0-.12-.7,0-.81,.23-.58,.93-.93,.12-1.51,.81-.46-.12-.69-.23-.93-.23-.23-.58-.34-.81-.46-.12,.35-.12,.7-.23,.93,0,.23,.12,.58,.12,.81-.23,.35-.47,.93-.58,1.28,.12,.7,.35,1.05,.35,1.63Zm.47-5.69c.46-.34,.81-.93,1.16-1.51,.35-.69-.35-.46-.58-.69-.23,0-.35-.35-.46-.58,0-.11-.12-.11-.12-.23-.12,.12-.23,.23-.23,.35,0,.69-.12,1.51-.12,2.55,.12,0,.35,.23,.35,.11Zm.46-5.34c.12-.23,.23-.34,.35-.46,0-.12-.12-.23-.23-.23-.23,0-.35,.11-.58,.23,.35,.23,.35,.35,.46,.46Zm23.8,11.61c-.12-1.28-.12-2.67-.46-3.95,0-.34-.58-.93-1.05-1.05-.58-.11-1.39,0-1.86,.7-.23,.58-.23,1.16,.35,1.74,.23,.11,.35,.34,.35,.58,0,.81-1.39,2.08-2.09,2.2-.23,.12-.47,.23-.58,.46v1.28c.23,.93,.7,1.86-.46,2.44-.12,.11-.12,.23-.23,.34-.47,1.05-.93,2.09-1.4,3.14-.35,.69-.35,1.63-.93,2.2-1.4,1.51-2.09,3.37-2.55,5.35-.23,.69-.58,1.51-1.05,1.97-1.05,.81-.93,1.86-.81,2.67,.12,1.28,.81,2.67,1.62,3.72,.47,.58,1.05,1.16,1.63,1.74,.69,.46,1.62,.58,2.2,1.05,.7,.46,1.28,.35,1.63-.23,.69-.81,1.51-1.63,1.97-2.55,1.39-3.37,3.02-6.85,3.48-10.57,.23-1.97,.35-3.94,.47-6.03v-7.2h-.23Zm-10.45,1.51s.12,0,.12-.12c.12,0,0-.11,0-.11q-.12,0-.23,.11c.12,0,.12,.12,.12,.12Zm.58,9.75v0s0,.11-.12,.11h.12v-.11Zm2.55-14.98s-.12-.11-.23-.11c0,.11-.12,.23-.12,.34,0,0,.12,0,.23,.12,0-.12,.12-.23,.12-.35Zm.23,9.29c0-.11-.12-.23-.12-.23v.23h.12Zm3.13,20.32v0Zm2.79-.93c.23-.69,.58-1.04,1.4-.93,.23,0,.46-.23,.58-.46,0-.23-.23-.58-.46-.69-.93-.35-1.63,0-2.09,.93-.35,.46-.58,1.05-.81,1.51-.35,.58-.12,.69,.47,.69,.35-.23,.81-.58,.93-1.05Zm.93,2.9l-.12-.11c-.12,.34-.35,.69-.58,1.05,.35-.35,.46-.7,.69-.93Zm1.05-1.63c.46-.11,.7-.69,.93-1.04-.23,0-.7,0-1.05,.11h-.23c-.23-.23-.47-.35-.7-.46,0,0-.12,.11-.23,.11,.23,.24,.46,.47,.7,.58,.12,.46,0,1.05,.58,.69Zm.58-5.45c.12,0-.47-.46-.58-.46-.35,.23-.93,.46-1.16,.93-.12,.11,.35,.58,.7,1.28,.35-.69,.81-1.16,1.05-1.74Zm.23-3.72c0,.12-.35,.23-.47,.46-.12,.7-.46,1.16-1.05,1.63-.12,.12-.12,.58-.12,.69,.12,.12,1.63-.58,1.63-.81,.12-.47,.12-.93,.23-1.51-.12,0-.12-.23-.23-.46Zm-.12-9.75c.12,0,0-.11-.12-.11,0,0-.12,0-.23,.11,0,.12,.12,.12,.12,.35,.12-.12,.23-.23,.23-.35Zm.23,8.59c-.12-.12-.12-.23-.12-.23-.12,0-.23,0-.35,.11q.12,.12,.23,.23c.12,0,.12-.11,.23-.11Zm-.12-3.72s-.12,0-.12-.11c-.12,.11-.12,.23-.12,.34h.12c.12,0,.12-.11,.12-.23Zm2.09,2.55l-.23-.11c-.23,.46-.35,.93-.58,1.28,0,0,.12,.11,.35,.46,.23-.69,.46-1.16,.46-1.63Zm.23,5.34c-.12-.11-.23-.34-.23-.34-.23,.23-.58,.58-.81,.81,0,.11,.23,.23,.35,.34,.35-.23,.46-.58,.7-.81Zm-.12-10.45s-.12,0-.12,.12c0,0,0,.11,.12,.11v-.23Zm-.12,3.14v0Zm.23-7.2v-.11h-.12v.11h.12Zm.35,10.22c-.12,.23-.23,.35-.35,.58,0,.12,.23,.23,.35,.23,.12-.11,.23-.35,.35-.58-.12-.11-.23-.23-.35-.23Zm.23-7.66v-.11h-.12l.12,.11Zm.23-8.59l.12,.11-.12-.11Zm3.95,12.65h.12v-.11l-.12,.11Z"/><path class="b" d="M388.78,460.51c-1.62,.7-3.25,1.28-4.76,1.98-.35,.11-.81,.58-.81,.93,0,1.05-.23,2.21,0,3.25,.47,4.76,.93,9.18,.23,13.7-.12,.81,.12,1.63,.23,2.43v2.67c0,.23-.23,.58-.12,.81,.81,2.9,.23,5.8-.12,8.82-.23,3.84-.23,7.9-1.63,11.73-.46,1.28-.81,2.67-1.51,3.94-1.16,2.67-3.02,4.53-5.69,5.11-2.79,.58-5.69,1.28-8.36,1.63-3.6,.46-7.2,.23-10.91-.93-.93-.47-2.21-1.05-3.02-1.63-.47-.58-1.05-1.63-1.16-2.67-.23-3.02-.47-6.03-.35-9.05,0-1.86,.35-3.72,.58-5.46,0-.12,.35-.35,.46-.35s.35,.23,.35,.35c0,.46,.23,1.05,0,1.4-.58,2.08-.12,4.06-.23,6.15,0,.34,.12,.58,.35,.93,.12-.35,.46-.69,.46-.93,.12-1.86,0-3.49,0-5.46,0-.46,0-1.16,.81-1.05,.69,.12,.58,.69,.35,1.28-.12,.46-.12,.93-.12,1.4-.12,1.74,.23,2.08,1.86,1.85-.69,.93-.23,2.44-1.16,3.02-.12,0-.12,.47,0,.58,.47,.7,.93,1.51,1.63,2.44,.12,.23,.35,.58,.58,.58,1.39,.24,1.97,1.75,2.55,3.02,.93,1.51,1.39,1.85,3.02,1.28,2.55-.93,4.99-1.98,7.08-3.95,.23-.35,.7-.46,1.16-.69-.23,.46-.58,.81-.81,1.28-.12,.34-.35,.81-.23,.93,.12,.35,.58,.81,1.05,.93,.47,.11,2.09-1.75,2.09-2.32-.12-1.05,.12-1.63,1.16-1.75,.69-.23,1.51-1.51,1.05-2.2-1.16-1.16,0-1.4,.46-1.97-.23-.35-.46-.46-.46-.93-.12-.58,0-1.05,0-1.51,0-.23-.23-.81-.47-.93-.23,0-.69,.35-.81,.69-.47,1.28-.81,2.79-1.16,4.41,0,.11,0,.23-.12,.35-.47,.58-.81,1.05-1.4,1.62,.23-.69,.47-1.28,.7-1.97,.46-1.97,1.05-3.83,1.39-5.69,.35-1.51,.47-2.79,.7-4.29,0-.46,.23-.58,.35-.81v-.11c.12-.12,.23-.24,.35-.47h.12c0-.11,.12-.46,0-.46-1.04-.69-.69-1.86-.69-2.67,0-1.28,.23-1.86,1.39-1.86,.23,0,.46-.46,.7-.58-.12-.11-.23-.35-.47-.46-1.39-.81-1.74-1.97-1.62-3.95,.12-.93,0-1.97,.12-3.13,0-.35-.12-.93,.12-1.16,.81-.69,.46-1.51,.12-2.43-.12-.23-.35-.81-.23-1.05,.7-1.28-.12-2.55-.12-3.95-.12-.81,0-1.74,0-2.79v-.93c-.35,0-.7-.12-.93,.11-2.32,1.28-4.53,3.14-6.38,5.23-.81,1.05-1.62,2.2-2.44,3.14-.12,.46-.58,1.39-.81,.11h-.12c-.81,1.05-1.51,1.97-2.21,2.79-.46,.69-.58,1.4-.69,2.32-.23,.46-.46,1.05-.58,1.63-.12,1.05-.46,2.2-1.51,2.67,.93,.93,0,1.86-.23,2.79-.12,.12-.23,.24-.46,.24-.12-.12-.12-.35-.12-.58,0-.93,.12-1.74,.12-2.55,0-.23-.35-.58-.35-.46-1.39,.11-.69-.58-.35-1.05,.35-.46,.7-1.05,1.16-1.05,1.51-.23,1.16-1.16,.46-1.86-.69-.93-.69-1.63-.23-2.67,0-.11-.12-.34-.12-.69-.12,.12-.35,.35-.35,.46-.47,1.05-.81,1.98-1.28,3.14-.35,.58,1.51,1.05,.12,1.97-.7,.47-.93,1.63-1.28,2.44-.23,.35-.12,.81,0,1.28,0,.23,.12,.46,.35,.58-.46,0-.81,.46-1.16,.34-.35-.46-.69-.93-.81-1.51-.7-2.09-.12-3.83,1.28-5.57,1.28-1.63,2.2-3.72,3.13-5.8,.7-1.05,1.28-2.09,1.97-3.14,1.28-2.09,3.36-3.49,5.34-5,1.86-1.28,3.83-2.32,5.81-3.37,1.16-.69,2.09-1.28,1.86-3.13,0-.23,.12-.58,.23-.81h-.12c.23-.35,.58-.81,.47-1.05-1.28-1.97-.7-4.06-.58-6.15,0-1.4,0-2.67-.12-4.06,0-.23-.12-.35-.12-.46-.12,.11-.35,.23-.46,.34-1.51,2.21-3.37,4.06-4.3,6.27-1.86,4.06-4.76,6.5-7.78,9.05-1.28,.93-2.55,2.09-4.06,2.79-.81,.34-1.74,.34-2.67,.23-1.28-.12-2.32-.81-3.48-1.05-.47-.23-.81-.58-1.28-.7-2.44-.58-3.83-2.08-3.72-4.99,.23-3.48,.81-6.74,1.39-10.33,.23-2.2,.69-7.89,1.28-9.98,.12-1.16,.58-2.2,1.05-3.25,.69-2.32,3.13-3.02,4.99-1.97,.23,0,.23,.11,.35,.23,4.06,2.32,3.6,8.36,2.55,12.19-.81,2.32-1.62,4.88-1.51,7.55,.12,.93-.23,1.97-.23,2.9v1.4c.23-.12,.69-.35,.93-.58,2.55-3.71,5.23-7.31,7.66-11.03,2.09-2.67,4.07-5.69,6.15-8.59,1.74-2.44,3.72-5,4.64-8.24,.23-.69,.81-1.05,1.51-1.51,.47-.35,1.16-.23,1.4,.58,.12,0,.58-.12,.81-.12,2.55-.69,5.34,.46,6.27,2.55,0,.12,.12,.35,.12,.46-.23,2.32,.93,4.76-.35,7.09-.81,1.28-1.16,2.43-.58,4.06,.12,.46,.12,.81,.12,1.39-.23,3.37-.47,6.97-.7,10.57,0,.35,.12,1.05,.12,1.4,.12,2.43,6.38-.81,6.97-1.16,1.86-.81,3.83-1.86,5.69-2.79,2.21-1.28,3.83-3.25,5.57-5.11,.46-.58,.93-.81,1.39-.69,.46,.34,.35,1.28,0,1.97-1.16,2.32-3.95,5.46-6.04,6.74-.46,.34-.81,.69-1.51,.69-1.86,.93-4.18,1.63-6.27,2.43Zm-40.29-8.82c-.12,.11-.46,.11-.46,.23v.46c.23-.11,.46-.11,.46-.11v-.58Zm4.41,41.56c-.23-.7,.23-1.51-.12-2.21-.12-.11,.23-.58,.46-.81,.7,.24,1.16,.24,1.51,.7,.12,.23-.12,.81-.23,1.28-.23,.46-.58,1.05,.35,1.39,.12,0,.46,.47,.81,.7-.23,.34-.58,1.05-.81,1.39-.12,.23-.7,.23-.93,.69-.23,.35-.35,.7-.81,1.28-.12-.69-.12-1.04-.23-1.51,0-.34-.23-.46-.46-.58-.35-.12-.58-.12-.7-.23,.12-.24,.35-.58,.7-.7,.46-.23,.69-.46,.46-1.39Zm1.16-7.55l-.12,.12h.12v-.12Zm.35,19.39v-.11h-.23c0,.11,.12,.11,.12,.11h.12Zm2.09-4.99c.12,.35,.35,.58,.35,.81-.23,.34-.46,.93-.81,1.39-.35-.34-.58-.58-.46-.81,.23-.47,.58-.81,.93-1.4Zm-.7,3.25h0Zm1.05-8.24q0,.12-.12,.12h-.12v-.12h.23Zm2.32-14.28c0-.11-.12-.23-.12-.46-.23,.23-.58,.46-.81,.69l.58,.58c.23-.35,.35-.58,.35-.81Zm.93,5.69c.12-.35,.23-.81,.35-1.16,.12,.11,.12,.23,.35,.46-.23,.34-.46,.69-.58,1.05,0-.12-.12-.35-.12-.35Zm.93-8.71c-.23-.12-.35-.35-.47-.35-.23,0-.23,.35-.35,.47,.12,0,.12,.23,.23,.23,.23,0,.35-.23,.58-.35Zm-.47-3.25l.12,.11c.23-.58,.47-.81,.58-1.05-.23,.12-.47,.46-.7,.93Zm4.3-4.3c-1.16,1.16-2.21,2.09-3.25,3.02,1.51-.47,2.44-1.63,3.25-3.02Zm-1.4,5.23l.12-.23h-.12v.23Zm3.02-1.86c-.46,.12-.93,.12-1.28,.35-.35,.11-.81,.69-1.05,.81h.58c.93,.93,1.16-.23,1.51-.81,.12,0,.12-.23,.23-.35Zm.12-4.29v0Zm1.39-15.21c-.23,.24-.46,.47-.46,.81,.12-.11,.35-.46,.46-.81Zm.81-1.05h-.12c-.12,.12-.12,.35-.12,.47,0-.12,.12-.23,.23-.47Zm.81,17.42c-.12,0-.12-.12-.12-.12-.12,0-.12,.12-.23,.12,0,0,0,.11,.12,.11,0,0,.12-.11,.23-.11Zm1.86-30.65c-.46,.58-.81,1.4-1.28,1.97,.46-.46,1.05-1.04,1.51-1.62,.12-.12,.12-.35,.12-.46-.12,0-.23,0-.35,.11Zm-1.05,8.83c.23-.58,.35-1.05,.58-1.4-.23,.35-.47,.69-.7,1.28l.12,.12Zm2.32-3.02c-.23,0-.7-.11-.81,0-.35,.24-.35,.81-.58,1.16,.23-.12,.69-.23,1.05-.23,.23-.12,.35-.69,.35-.93Zm-.58,22.99c-.12-.12-.23-.12-.23-.12-.23,0-.35,0-.46,.12,0,.11,0,.34,.12,.58,.23-.24,.46-.47,.58-.58Zm.93,44.12c-.12,0-.35,0-.35,.11-.12,0-.23,.23-.35,.23,.23,0,.35,.12,.46,0,.12-.11,.12-.23,.23-.34Zm-.23-74.19s-.12-.23-.12-.35c-.12,.12-.12,.47-.23,.47h.23s.12,0,.12-.12Zm1.62,60.25c-.12-.35-.12-.69-.12-.93-.23,.34-.46,.69-.46,.93-.12,.23,0,.69,.12,1.05,.12-.46,.35-.93,.46-1.05Zm.58-3.14c-.23-.11-.35-.34-.58-.58-.12,.12-.23,.24-.46,.35,.23,.23,.46,.46,.7,.81,.12-.12,.35-.58,.35-.58Zm1.05,11.84s-.12-.12-.23-.23c-.12,.23-.23,.35-.35,.58,0,.23,.12,.34,.23,.46,.12-.23,.23-.58,.35-.81Zm.12-48.53q-.12-.11-.23-.23s0,.12-.12,.12c.12,0,.12,.11,.23,.23,0-.12,.12-.12,.12-.12Zm.12,19.04c.12,.12,.35,.35,.35,.35,.12,0,.23-.35,.35-.46-.12,0-.23-.12-.35-.12s-.23,.12-.35,.23Zm1.51,25.54c-.12-.11-.35-.46-.46-.34-.23,.11-.47,.34-.7,.69,0,.12,.12,.12,.23,.35,.23-.23,.58-.35,.93-.7Zm-1.05-6.03c0,.11,.23,.23,.23,.23,.23-.23,.7-.69,1.16-1.05-.23,0-.35-.23-.46-.11-.35,.11-.58,.34-.93,.93Zm.35-18.11q-.12,0-.23,.11s.12,0,.12,.12l.12-.12v-.11Zm.81,14.97c.35-.81,.58-1.28,.81-1.86l-.58-.23c-.23,.23-.46,.58-.81,.93,0,0,.23,.34,.58,1.16Zm-.23-3.71l.12,.11c0,.12,.12,0,.12,0l-.12-.11h-.12Zm.93,9.52c-.23-.12-.58-.24-.58-.24-.12,.24-.23,.58-.35,.93,0,0,.23,.23,.35,.34,.12-.23,.35-.58,.58-1.04Zm-.81-42.96c0-.11,.12-.11,.12-.11,0-.12-.12-.12-.12-.12v.23Zm.46,15.44q.12,0,.23,.11c0-.11,.12-.11,.12-.11,0-.12-.12-.23-.12-.23-.12,.11-.23,.23-.23,.23Zm.35,2.2s-.12,0-.23-.11c0,.11-.12,.11-.12,.23,0,0,.12,.11,.23,.11,0,0,.12-.11,.12-.23Zm.35,19.74c0-.11-.23-.23-.35-.34-.12,.11-.23,.34-.35,.34,0,.12,.23,.23,.35,.58,.23-.35,.35-.58,.35-.58Zm-.23-13.58h-.23c0,.12,.12,.23,.12,.23h.23c0-.11,0-.23-.12-.23Zm.46,6.62q-.12,0-.12-.11l-.12,.11v.24c0-.12,.12-.12,.23-.24Zm8.48-27.74c-.12-.12-.23-.23-.23-.23-.46,.11-.81,.23-1.16,.46,.12,0,.23,.11,.35,.34,.35-.23,.7-.46,1.05-.58Zm4.53-2.79v0Z"/><path class="b" d="M475.24,454.39c.23,.69,.23,1.4-.12,2.09-.23,.58-.93,.58-1.39,0-.23-.35-.35-.46-.58-.58-.23,.23-.35,.58-.35,.81v.93c0,.12-.23,.35-.35,.47,.35-.12,.69-.12,.93-.23,.58-.58,1.74,.11,1.74,.81,.12,.7-.35,.81-.81,.81-1.05-.11-1.97-.34-3.14-.46-.12-.12-.23,0-.23,0-.12,.12,0,.35,0,.35,.35,.23,.7,.46,1.05,.69,.35,.11,.47,.23,.58,.35-.12,.11-.47,.23-.58,.23-1.05-.81-1.86-.12-2.44,.69-.23,.23-.69,.35-.93,.46-.12,.12-.12,.35-.35,.46,.23,0,.35,.12,.47,0,.46-.34,.93-.58,1.28-.81h.35c-.12,.11-.12,.34-.12,.34-.23,.35-.58,.35-.58,.58-.46,.11-.93,.35-.12,.58,.12,0,.12,.46,.12,.69,.12,.23,.35,.81,.47,.81,1.04,.23,.69,.46,.23,.81-.12,.11-.23,.11-.23,.34-.23,.23-.58,.93-.47,1.16,.23,.34,.7,.81,1.51,.58h1.16c.47,.12,.93,.35,.47,1.16-.35,.35-.35,.69,0,.69q.58,.12,.35,.58c-.35,.69-1.39,1.05-1.16,1.97,.35,1.4,.47,2.44,.81,3.72,.46,1.51,1.05,2.79,1.51,4.29,.35,1.16,1.28,1.74,2.55,2.09h.23c.35,.11,.7,.23,1.05,.46-.35,.23-.69,.81-1.05,.81-.93,.11-1.16,.81-1.51,1.51-.35,.23,.23,1.05,.35,1.74,0,.35,0,.46,.12,.81-1.39,.11-1.62,.46-1.39,1.74,.12,.46,.12,.93,0,1.28-.23,.69-.46,1.63-.81,2.44,0,.58-.47,1.05-1.16,.58-1.16-.23-1.74-1.16-2.32-2.08-1.16-2.21-2.32-4.41-3.72-6.62-1.16-1.97-2.67-3.48-4.3-5.34,0-.23-.23-.81-.35-1.16,.12-.12,.35-.23,.35-.35v-.11c-.23,.11-.23,.34-.35,.46-.81-.35-1.51-.93-1.97-1.74-.93-1.16-1.86-2.44-2.9-3.84-.58-.58-1.05-1.39-1.39-2.08-.46-.58-.58-1.16-.93-1.63-1.16-1.86-3.02-3.14-3.6-5.23-.12-.23-.35-.58-.46-.81-.23-.12-.35-.35-.23-.58,0-.35,.35-.46,.58-.69-.35,0-.81,0-1.05-.12-.35-.23-.69-.69-1.04-.93-.47-.93-.81-1.75-1.16-2.55-.23-.7-.47-1.16,.12-1.51v-.58c0-.12-.12-.12-.35-.12-1.39,.12-2.09-.93-1.51-1.97,.58-.69,0-.81-.46-1.16-.58-.11-1.05-.46-1.16-.93-.81-1.97-1.74-3.83-2.67-5.69-.12-.34-.12-.58-.35-.69-.12-.12-.35-.23-.46-.23-.12,.11-.12,.34-.12,.46,.12,.81,0,1.51-.93,1.63-.12,0-.23,.11-.35,.23,.12,0,.23,.23,.35,.23,.93,.11,1.16,.93,1.16,1.74,.12,.81-.12,1.63-.23,2.55-.12,.69-.12,1.63-.12,2.55-.12,.35-.12,.93-.35,1.4v.23c.93,.46,.46,1.74,1.04,2.32,.23,1.05,.7,2.09,.47,3.02-.47,1.4,0,2.67,.58,3.83,.58,1.4,0,2.44-.23,3.72,0,.11-.35,.11-.46,.23-.7,.34-.35,.81,0,1.16,1.28,.46,1.28,1.28,.93,2.2-.35,1.75,0,3.25,.58,4.88,.35,1.63,.46,3.14-.23,4.76-.58,1.05-.81,2.2,.23,3.37,.23,.23,0,1.16,.12,1.74,0,.46,.12,1.05-.69,.23-.12-.12-.35,.12-.58,.12-.7,0-1.05,0-1.51-.12-.81,0-.93-.23-.23-.81,.46-.58,.46-1.74-.12-2.32-.23-.34-.47-.69-.81,0,0,.12-.46,.23-.7,.23-.12,.12-.35,.12-.46,.12,.12,.11,.35,.23,.58,.23,1.05-.23,.58,.81,1.05,1.05-.12,.23-.35,.35-.46,.69-.12,.12-.58,.58-.46,.69,.46,.35,.81,.81,1.28,1.05,.35,.12,.58-.11,.93,0,.23,0,.58,.12,.7,.35,.23,.12,0,.69-.23,.69-.58,.35-.23,.81-.23,1.16-.12,.93-.23,1.62-.35,2.43,0,1.05-.69,1.05-1.28,1.05s-1.28-.69-1.51,.12c-.23,.11-.46,.11-.81,0-.12,0-.23-.12-.23-.12-2.21-.34-2.21-2.32-2.32-4.18-.23-1.16-.69-2.32-.81-3.48-.23-1.28-.7-2.67-.81-3.94-.35-2.44-.81-5-1.05-7.32-.12-1.97-.93-3.95-.46-5.8-.81-2.21-.23-4.53-.7-6.74-.35-2.32-.23-4.76-.35-7.08-.12-2.44-.46-5-.7-7.43v-.47c.58-3.02-.12-6.03-.12-9.17-.12-.34-.12-.69,0-.81,.58-2.08,.23-4.18,.23-6.15-.12-1.16,.35-2.32,.35-3.6,0-2.2,.35-3.94,1.16-6.03,.93-1.97-.12-3.48-.93-5.11-.58-.93-.81-2.09-1.86-2.9-.58-.34,.23-2.32,.93-2.9,1.74-1.16,3.6-1.4,5.69-.7,.23,0,.58,.12,.81,.12,2.09-.58,3.48,.58,4.76,1.97,.58,.35,.81,1.4,1.28,2.21,.23,.58,.58,1.39,.81,2.2,.46,1.4,1.16,2.9,1.39,4.18,.46,1.74,.93,3.25,1.28,4.76,.12,.46,.23,.93,.7,1.16,.58,.58,.58,1.28,.46,1.97-.23,.58-.12,1.05,.23,1.51,.7,1.16,1.16,2.43,1.62,3.71,.7,1.28,1.28,2.55,1.97,3.6,.7,1.98,1.62,4.07,2.44,6.15,.93,2.09,1.86,4.18,2.79,6.27,1.05,2.32,2.44,4.99,3.6,7.43,.81,1.51,1.63,3.14,2.67,4.76,.35,.7,.93,1.63,1.63,2.44,.46,.69,.35,1.62-.35,2.32-.23,.23-.23,.46-.35,.69,.12,0,.58,0,.93,.23h.69c.58,0,.81-.34,.7-.93-.23-2.79-.7-5.57-1.05-8.36-.12-1.85-.23-3.83-.23-5.57-.12-2.55,0-5.11,0-7.66,0-3.14,0-6.27,.12-9.4v-5.46c.12-1.16,.23-2.2,.46-3.37,.23-2.43,.23-5.11,.35-7.54,.12-3.25,.23-6.27,.35-9.52,0-3.02,.12-6.04,.12-9.06-.12-1.39-.23-2.67-.46-3.94-.7-1.75,.93-3.6,2.67-3.6,2.44,.11,4.76,1.28,6.27,3.02,1.74,2.09,2.79,4.53,2.79,7.43,0,.58-.69,1.39-1.05,2.2-.23,.46-.69,1.16,0,1.86,0,0,.12,.23,.12,.35,.23,2.32,.7,4.64,.93,7.08v.93c-.93,.81-.69,1.86-.69,2.79,.12,1.51,.12,2.9,.12,4.41,0,.46-.12,.58-.23,.93-.23,1.05-.35,2.08-.23,3.13,.23,1.05,0,1.86,0,2.9,.12,1.51,0,2.9-.23,4.41-.23,.58,.12,1.05,.12,1.74-.12,1.16-.69,2.67-.23,3.72,.35,1.04,.12,1.85,.12,2.67,0,1.16,.23,2.67-.46,3.83,0,.12,.23,.35,.35,.58,.46,1.39,.35,3.25-.81,4.29-.23,.12-.81,.23-.93,.12-1.05-.81-.7,.23-.93,.58,1.86-.23,2.21,0,2.32,1.86Zm-41.79-10.45c.7-.46,.93-1.28,1.74-1.97,.23-.35,.35-.58,0-1.16,0-.23,0-.58,.12-.81,.23-.23,.69-.46,.81-.69s-.12-.58-.12-.93c-.35,.11-.69,.11-.81,.46-.12,.46-.46,1.05-.93,1.63-.35,1.04-1.05,2.08-1.39,3.25,0,.11,.12,.34,.12,.93,.23-.46,.46-.58,.46-.69Zm2.67,6.5c.23,0,.47,0,.58-.24,.46,0,1.39-1.97,1.28-2.43,0-.12-.23-.12-.47-.12-.58,.12-.81,0-.46-.69,0-.23-.12-.46-.12-.58-.23,.12-.7,.24-.7,.24,.12,.58,.23,1.04,.35,1.39,.12,.35,.23,.58,.35,.81-.23,.11-.58,.23-.93,.23-.81-.12-1.51-.35-2.09-.35-.46,0-1.04,.35-1.04,.35,.23,.93-.23,1.97,.46,2.79,.12,.12,.35,.12,.58,.23,0-.11,.23-.34,.12-.46-.12-.81,.35-.93,1.05-1.05,.23,0,.58-.11,1.16-.11h-.12Zm-2.21-14.86c-.46,.11-.81,.34-.93,.58,0,.46,.23,.81,.46,.93,.7,.11,.81-.23,.7-1.16l-.23-.34Zm-.81-1.05v.11c.12,0,.23,0,.23-.11h-.23Zm.35,26.93c.23,.23,.46,.69,.58,.69,.93-.35,1.63-.58,2.56-.93,.69-.34,.93-.93,1.39-1.74,.46-.81,.35-.93-.58-.93-.12,0-.12-.35-.12-.35,1.05-.58,0-.58-.23-.58-.46,.12-1.05,.24-1.51,.47-.35,.11-.47,.58-.81,.69-.81,.11-.93,.81-1.28,1.51-.12,.23,.23,.69,.35,1.05-.12,0-.12,.12-.35,.12Zm.7,3.02c.12-.23,.35-.46,.35-.58,0-.23-.23-.35-.35-.58-.12,.12-.23,.35-.7,.58,.46,.23,.58,.35,.7,.58Zm.81-18.46h-1.16c.12,.11,.35,.23,.35,.23,.23,0,.35-.12,.81-.23Zm-1.05,11.26h0Zm1.16,10.68c-.58,.35-.81,.46-1.05,.81,0,0,.12,.35,.23,.58,.46-.35,.93-.58,1.16-.93-.12-.11-.23-.46-.35-.46Zm1.05-2.9c-.12,0-.58,0-.69,.12-.23,.46-.35,.69-.7,1.16-.23,.24-.23,.58-.35,.7,.58,0,.93,0,1.16-.12,.46-.34,.58-.81,.93-1.16-.12-.35-.23-.7-.35-.7Zm-.93,8.94c.12,.11,.47,0,.93-.12-.12-.12-.46-.35-.58-.58-.35-.23-.47-.81-.81-1.28-.46,1.05-.35,1.74,.46,1.98Zm.12-13.58c-.12-.12-.35-.47-.81-.81,.46-.12,.69-.35,.69-.35,.23,0,.47,.23,.93,.69-.46,.23-.69,.47-.81,.47Zm2.55,9.98h-.35c-.23-.12-.58-.47-.93-.58l.69-.69c0-.23,.12-.47,.12-.7,0-.11-.12-.46-.23-.46,0-.23-.35,0-.35,.23-.47,.46-1.05,1.05-1.51,1.63,0,.11-.12,.46-.12,.58,0,.34,1.4,.81,1.74,.69,.35-.12,.46-.46,.81-.69h.12Zm-2.32-33.79c0-.11,0-.46-.12-.58,0,0-.12,.11-.12,.46-.12,0,0,.11,0,.23,.12-.12,.23-.12,.23-.12Zm0,40.87c.12,0,.23-.12,.23-.12q-.12,0-.23-.23,0,.23-.12,.23c.12,0,.12,.12,.12,.12Zm0-31.92v.23c.23-.23,.58-.35,.93-.47-.35,.12-.69,.24-.93,.24Zm.58,4.88c.12-.24,.12-.35,.23-.58h-.35c.12,.23,.12,.34,.23,.58h-.12Zm.58,1.74c-.12,0-.23-.12-.35-.12-.12,.12-.23,.23-.35,.23,0,.12,.12,.12,.23,.23,.12-.11,.23-.23,.47-.34Zm.23,3.14c-.23-.24-.47-.58-.7-.7,0-.11-.12,.12-.23,.23,.23,.35,.46,.47,.7,.81,.12-.23,.23-.34,.23-.34Zm-.47,16.83h0Zm.23,10.57h-.12v.11s.12,0,.12-.11Zm4.29-2.79c-.23,0-.35-.11-.58-.11-1.39-.35-2.32,.23-3.14,1.16-.23,.23-.46,.47-.35,.58,.12,.12,.23,.46,.35,.46,.23,0,.7-.34,.7-.46,.46-1.05,.93-1.39,2.09-1.05,.23,.35,.58-.11,.93-.23v-.35Zm-3.83-39h0Zm1.62,34.48c-.35,0-.69,0-.93,.12-.35,.11-.58,.58-.58,.81-.12,0,0,.11,0,.34,.58-.34,1.16-.46,1.97-.81-.35-.23-.35-.46-.47-.46Zm.7-2.43h-.46c-.12,.58-.7,.58-1.28,.58-.23,0-.35,.47-.35,.58,0,.12,.12,.23,.47,.23,.46,.23,1.62-.58,1.74-1.16-.12,0-.12-.12-.12-.23Zm-1.74-11.15q0-.11-.23-.23v.23h.23Zm.35,3.83c0-.23-.12-.34-.12-.34-.12,0-.12,.11-.23,.34q.12,0,.12,.12,.12-.12,.23-.12Zm.23,13.81c.23-.69,.58-1.51,.93-2.09-.23,0-.35-.23-.47,0-.23,.47-.46,1.05-.93,1.75,0,.11,.12,.23,.12,.34h.35Zm0-10.22q0-.11-.23-.11,0,.11-.12,.23c.12,0,.12,.11,.35,.11v-.23Zm1.86,21.01h0Zm.7-47.6c-.23,0-.23,.35-.46,.46,.23,.12,.35,.46,.46,.46,.23,0,.46-.34,.81-.58-.47-.12-.58-.35-.81-.35Zm.93-2.2s0,.11-.12,.11c.12,0,.12,.23,.23,.23,0,0,0-.23,.23-.34h-.35Zm1.28,2.2c.12,.23,.58,.23,.58,.23,.58-.58,.81-1.05,.93-1.51,.12-.12,.12-.46,.35-.58q-.35,0-.46,.12c-.35,.46-.81,.58-1.39,.34-.12-.11-.35,.12-.58,.12,.23,.46,.23,.93,.58,1.28Zm-.47,47.25h0Zm4.07-44.58c-.12,.12-.58,.24-.93,.47-1.05,.34-1.16,.69-.46,1.62,.12,.12,.35,.23,.46,.35,.12-.23,.46-.69,.35-.69-.46-.7-.12-.81,.58-.93,.12-.11,.35-.23,.93-.58-.58-.12-.81-.24-.93-.24Zm.12,3.72c0-.23-.12-.58-.58-.81-.23,.23-.46,.46-.58,.69,0,.35,.12,.58,.23,1.05,.35-.46,.81-.58,.93-.93Zm.35,1.4s-.12-.24-.23-.24c-.12,.35-.12,.58-.23,.81v.12c.12-.23,.35-.46,.46-.69Zm1.16-1.51s-.12-.11-.12-.23c-.12,.12-.23,.12-.23,.23,0,0,0,.12,.12,.47,.12-.12,.23-.35,.23-.47Zm6.27,11.26v0Zm2.32,.7c.12,0,.23-.23,.23-.23,0,0,0-.12-.12-.12,0-.11-.12,0-.58,.12,.23,0,.46,.23,.46,.23Zm.35,7.66c.12,.11,.23,.23,.35,.35,.12-.24,.35-.47,.35-.58-.35-.35-.7-.58-.81-.69-.12,0-.23,.11-.46,.11,.35,.23,.46,.58,.58,.81Zm.93-9.64c0-.11-.23-.23-.23-.23-.23,.12-.35,.12-.35,.23,0,0,.12,.12,.35,.35q.23-.23,.23-.35Zm.23,4.88l-.12-.11s-.12,0-.12,.11c0,0,0,.12,.12,.12,0,0,.12,0,.12-.12Zm.23,.93q.12,0,.23-.12h-.12s-.12,0-.12,.12Zm.81-2.09c0-.12-.12-.23-.12-.23-.12,0-.23,.11-.23,.11,0,.12,0,.24,.12,.24s.23-.12,.23-.12Zm1.16,1.86l-.46-.46c-.23,.23-.35,.58-.47,.81,0,0,.23,.23,.35,.23,.23-.11,.46-.23,.93-.23-.12-.11-.35-.23-.35-.34Zm1.51,7.54c-.23,.12-.35,.12-.46,.35l.12,.11c.23-.11,.35-.34,.58-.34l-.23-.12Zm.23-3.37s0-.11-.23-.23c-.12,.12-.23,.23-.23,.35s.12,.23,.23,.35c.23-.23,.23-.35,.23-.47Zm2.79,4.18l-.23-.11c-.23,0-.23,.11-.35,.23h.35l.23-.12Zm.35-32.04h.58c.23,0,.47,0,.7,.12-.12,.23-.23,.46-.23,.58-.93,.58-.93,.81,.12,1.16,.81,.23,.93,.23,.81-.69,0-.81,0-1.75,.12-2.67,0-.23,.12-.46,.35-.58,.69-.69,1.62-1.28,2.21-1.85,.12-.12,.23-.24,.12-.35-.23-.46-.35-.81-.7-.35-.46,.46-.93,.46-1.51,.7-.46,.23-1.16,.46-1.51,.81,0,0,.12,.58,.23,1.05,0,.12,0,.35-.12,.47-.35,.58-.81,1.04-1.16,1.62-.12,0-.23,.12-.23,.35l-.12-.23c.12,0,.23-.12,.35-.12Zm.58,33.44c-.12,0-.35-.12-.46,0-.12,0-.23,0-.46,.11,.12,.23,.35,.35,.35,.35,.23,0,.46-.12,.69-.35l-.12-.11Zm3.14-26.24c.93-.58,1.86-1.05,2.67-1.74,0,0-.12-.23-.23-.35-.93-.11-1.97-.34-2.55,.81-.12,.35-.47,.46-.81,.58-.35,.34-.81,.58-.81-.23,0-.12-.47-.35-.7-.35-.7,.35-1.05,2.09-.23,2.79,.58,.69,.81,1.4,.35,2.32-.12,.35-.23,.46-.23,.93-.12,.11,0,.34,0,.46,.23,0,.46,0,.69-.12,.23-.23,.35-.69,.7-.93,.23-.23,.81-.58-.12-.46-.23,0-.35-.47-.35-.58,.35-.69,.93-.69,1.39-.46,.81,.46,2.44,.11,2.9-.47,.46-.34,.46-.46-.12-.46-1.28-.11-2.44-.23-3.6-.34-.46,0-.69-.35-1.28-.47,.46-.23,.7-.69,1.16-.93s.7-.23,1.05-.35c.12,.12,.12,.24,.12,.35Zm3.6-5.69c.12-.34,.12-.46,.35-.69-.23,.12-.46,.12-.58,.23-.47,.46-.7,1.05-1.05,1.4-.7,.23-1.63-.12-2.21,.69-.23,.23-.7,.23-.7-.23-.12-.81,.58-1.63,1.28-1.4,1.51,.23,2.44-.34,2.21-1.74,0-.23-.35-.46-.46-.81-.23,.23-.47,.58-.47,.7,0,.81-.23,1.04-1.04,1.16-.81,.12-1.63,.23-2.09,1.4-.12,.23-.46,.58-.93,.69-.58,.23-1.05,.58-1.05,1.39,0,.23,.23,.7,.47,.81,.58,.12,.58-.34,.58-.93,0-.23,.23-.58,.35-.93,.12,.12,.23,.35,.58,.58,.7,0,1.28,.12,1.86,0,.35,0,.58-.34,1.05-.46q1.16,0,.58-1.05c.35-.23,.93-.46,1.28-.81Zm-5.81-6.38c-.12-.11-.23-.34-.35-.34s-.47,.11-.47,.34c-.12,.12,.12,.23,.35,.69,.23-.46,.35-.58,.46-.69Zm.58-10.8c0,.35-.12,.93,0,1.16,.35,1.39,.12,1.62-.93,2.43-.12,.12-.12,.23-.12,.35,0,.11,.12,.35,.23,.35,.23,.11,.58,0,.7,0,.12,.11,.46,.23,.58,.23-.12,.23-.35,.34-.46,.58-.12,.12-.47,.12-.7,.35-.58,.46-.81,.81-.23,1.51,.46,.46,.69,1.16,.35,1.74-.23,.93,.35,1.16,1.05,1.05,.46-.11,.93-1.39,1.28,0,.35-.11,.58-.23,.7-.34,.12-.12,.12-.7,.12-.93s-.12-.81,0-1.05c.35-.69,.93-1.28,1.39-1.85,.23-.35,.46-.7,.81-.93-.46,0-.93,.12-1.28,.12-.12,0-.35-.12-.58-.12,.23-.11,.35-.23,.46-.23,.93-.58,1.97-1.05,1.74-2.55,0-.23,.12-.46,.12-.69v-.93c0-.11,0-.23-.12-.23s-.23,.12-.23,.23c-.58,.81-.81,1.28-1.28,1.86-.12,.23-.35,.23-.46,.35-.23-.12-.35-.35-.23-.35,.46-.93-.23-.81-.7-.69-.12,.11-.46,.23-.81,.35-.35,.11-.7,.11-.35-.47,.23-1.05,.35-2.08,1.05-2.55,.7-.93,.7-1.85,1.05-2.9,.12-.7-.35-1.75,.81-2.09,0-.23-.12-.46-.23-.46-.81-.23-1.4,0-1.63,.69,0,.11-.35,.23-.46,.23v-.46c.35-.35,.58-.58,.81-.93,.12-.11,.23-.46,.12-.46-.23-.46-1.86-.23-2.09,.35-.46,.58-1.39,1.28-.12,2.09v.34c-.81,.7,.81,1.16,.12,1.86h.58c0,.12,.23,.12,.35,.35-.12,.11-.12,.34-.23,.46-.12,.12-.47,.35-.81,.46-.46,.46-1.16,.58-.35,1.05,.12,0,0,.58,0,.69-.23,0-.47,.12-.7,.12-.23,.11-.35,.23-.7,.23,.35,0,.47-.12,.7-.23,.23,0,.46-.12,.7-.12Zm0,51.2s-.47-.24-.47-.12c-.23,.12-.46,.23-.58,.58,0,.11,.12,.11,.35,.34,.23-.34,.46-.46,.7-.81Zm4.41-19.74c-.12-.12-.23-.58-.35-.7-.47-.23-.93-.23-1.39-.34-.23-.12-.47-.23-.58-.35,0-.12,.12-.58,.23-.69,.35-.12,.93-.23,1.28-.46,.12-.24,.47-.58,.35-.7-.7-.93-.12-1.16,.46-1.62,.12,0,.12-.12,.12-.35-.12,0-.12-.12-.23-.12-.58,.35-1.51,.12-1.62,1.05,0,.23-.12,.7-.23,.7-1.28,.23-2.32,.81-2.32,2.32-.12,.23-.23,.34-.58,.58,.35,0,.58,0,.93-.11h.58c.47,.11,1.05,.34,1.4,.58-.23,.24-.35,.7-.7,.93-.35,.34-.7,1.16-1.62,.69-.12-.11-.23,0-.35,.23-.35,.35-.58,.81-.69,1.28s.12,.93,.12,1.16c.35,0,.81-.12,1.16-.47,.23-.34,.58-.58,.81-.23,.81,.35,.93,0,1.04-.69,.12-.58,.35-1.16,.47-1.97,.12-.46,.46-.69,1.28-.46,.12,0,.35-.12,.46-.23Zm-4.88,.46c-.12,0-.12,.11-.23,.11,0,.12,.12,.35,.12,.35q.12-.23,.35-.35l-.23-.11Zm4.41-42.61s-.12-.12-.23-.35c-.12-.11-.23-.34-.47-.46-.12,0-.58-.11-.69,0-.47,.12-1.05,.35-1.51,.69-.69,.12-1.51,1.4-1.16,1.86,0,.12,.12,.23,.12,.23,.93,0,3.6-1.62,3.95-1.97Zm-2.67,52.82c0-.23-.23-.35-.35-.46-.35,.11-.81,.34-.93,.69,0,.12,.35,.46,.69,.81,.35-.35,.47-.81,.58-1.05Zm3.13-58.05c-.23-.11-.46-.11-.69-.46-.12-.11-.12-.34-.23-.46-.12-.11-.35-.23-.58-.23-1.28,.12-3.02,2.43-2.79,3.71,0,.24,.23,.47,.35,.58,.12-.23,.23-.34,.23-.58-.12-.46,.23-.93,.7-1.28,.12,0,.35,0,.35-.11,.35-1.05,.81-1.16,1.86-.81,.23-.11,.47-.23,.81-.35Zm-3.83,53.87v-.11h-.12v.11h.12Zm0-25.43h.46c0-.23-.12-.23-.12-.23q-.23,0-.35,.23Zm.46,19.5v0Zm.35,22.29v-.11h-.23q.12,.11,.12,.23c.12,0,.12-.12,.12-.12Zm0-58.74h-.12c.12-.12,.23-.24,.23-.35,0,.11,0,.23-.12,.35Zm.35,48.06s0,.12,.23,.12q0-.12,.12-.12l-.12-.12-.23,.12Zm1.86-44.7h-.93c-.23,.24-.35,.81-.47,1.05,0,.12,.12,.23,.23,.35,.46-.35,1.04-.58,1.62-1.05-.23-.23-.35-.35-.47-.35Zm-.46-7.31c.12,0,.23-.12,.23-.46,0,0-.12-.12-.23-.12-.23,0-.23,.12-.46,.46,.23,0,.46,.12,.46,.12Zm-.46,53.17v0Zm.23-6.5c0-.12-.12-.35-.12-.35,.69-.34,1.16-.69,1.74-1.16l.35,.34c0,.47-1.51,1.28-1.97,1.16Zm.46-15.21c-.12,0-.23,.12-.23,.12,0,.11,.12,.23,.12,.23,.12,0,.23-.12,.35-.23-.12-.12-.23-.23-.23-.12Zm.47-36.11c.46-.58,.46-1.63,0-1.63-1.39,0,.58,1.16-.47,1.28v.7c.23-.23,.35-.23,.47-.35Zm-.35,56.42c0-.12-.12-.12-.12-.12,0,0-.12,.12,0,.12h.12Zm.23,18.11c.12-.23,.12-.34,.12-.46,0,0,0-.12-.12-.23-.12,.11-.12,.23-.23,.46,.12,0,.23,.23,.23,.23Zm0-25.43q.12,0,.23-.11v.11h-.23Zm.12,8.24h-.12v.23h.12v-.23Zm.93-34.48c0-.12-.23-.35-.35-.46-.23,.23-.46,.46-.58,.81,0,.12,.23,.24,.35,.58,.23-.34,.35-.58,.58-.93Zm.47,2.09c-.47,0-1.16,.34-1.28,.69-.23,.46,.23,.58,.81,.69,.23,0,.35,.46,.47,.7,0,.11,.46,.11,.46,0,.12-.24,.23-.7,.58-1.28-.47-.24-.7-.81-1.05-.81Zm-.23-19.86c0-.11-.12-.23-.23-.23-.35,.12-.58,.46-.81,.58q.12,.11,.35,.34c.23-.23,.46-.46,.7-.69Zm-.47,5.23l-.23-.35c-.12,.12-.23,.12-.35,.35,0,0,.12,.11,.23,.34,.12-.23,.23-.23,.35-.34Zm1.16,42.37c-.35,.23-.46,.47-.58,.81-.35-.34-.81-.58-1.05-.81-.12-.11,.12-.58,.23-.81,0-.12,.12-.12,.23-.24,.35-.23,.58-.46,.81-.69,.23,.35,.35,.69,.35,.93v.81Zm-.81,19.86c.12,0,.23-.12,.35-.12-.12-.11-.23-.23-.23-.23-.12,0-.23,.12-.47,.23,.23,0,.35,.12,.35,.12Zm.69-38.08v-.24h-.35v.24h.35Zm.23,8.24h-.12v.23s0-.23,.12-.23Zm-.12,6.85c.12,0,.12-.23,.23-.23,.23,0,.35,.23,.35,.34,0,.12,0,.46-.12,.81-.35-.46-.47-.81-.47-.93Zm1.28-33.32l-.23-.12c-.12,.12-.35,.23-.46,.35,0,0,.12,.11,.35,.23,.12-.12,.23-.23,.35-.46Zm1.63,59.32l.12-.11c0-.12-.12-.24-.23-.35,0,.11,.12,.23,.12,.46Z"/><path class="b" d="M489.85,419.68c.35-2.55,.35-5.11,.58-7.78,0-.35-.23-.93-.47-1.16-1.05-.81-.46-1.4,.23-2.09,.35-.23,.81-.35,1.16-.46,1.63-.24,4.18,1.62,4.88,3.02,1.74,4.18,1.16,8.48,.47,12.77-.23,1.28-.23,2.79-.58,4.18-.23,.81-.81,1.85-1.51,2.2-1.16,.46-1.97-.58-2.55-1.51-2.09-2.67-2.79-5.8-2.21-9.17Z"/><path class="b" d="M504.13,453.81c-.12,.12-.35,.24-.47,.35,0-.11-.12-.35,0-.58,.12-3.48,1.16-6.85,2.21-10.22,1.05-2.55,1.97-4.99,3.02-7.43,1.16-2.32,2.67-4.29,4.53-6.03,2.09-2.09,4.76-3.02,7.31-3.95,2.32-.81,4.76-1.05,7.08,.46,1.05,.81,1.16,1.86,1.51,2.9,.58,1.16,.58,2.67,.93,4.06,.35,1.28,.81,2.79,1.05,4.18,.35,1.51,.69,3.25,.46,4.76-.23,1.98-2.32,2.67-3.72,3.95-.12,.11-.7,0-.93-.23-.58-.7-1.39-1.4-1.74-2.21-.47-1.28-.7-2.67-.93-4.06-.12-.23-.23-.69-.46-1.05-.58-.93-1.63-.93-2.09,0-.58,1.4-1.16,2.79-1.74,4.18-.12,.12-.23,.46-.35,.69-1.62,1.98-1.74,4.53-2.32,6.74-.58,2.67-1.16,5.34-1.62,8.01-.35,1.74-.46,3.37-.58,5.22-.12,1.28-.35,2.55-.35,3.95-.12,1.16,.12,2.32,.23,3.48,.12,1.16,.58,2.32-.7,3.25-.12,.11,0,.81,.23,1.05,.58,1.05,1.39,1.85,1.97,2.79,.46,.81,.81,.34,1.16,0,1.62-1.51,3.48-2.9,4.88-4.64,1.74-1.63,3.02-3.49,4.64-5.34,.35-.23,.93-.7,1.16-.58,.47,.35,1.05,.69,.58,1.63-1.51,3.6-2.9,7.2-4.53,10.56-.58,.81-1.05,1.75-1.39,2.67,0,.23-.35,.58-.58,.69-2.32,1.28-4.64,2.67-7.43,1.86-1.05-.23-2.32-.23-3.48-.23-2.67-.35-4.76-1.4-6.38-3.72-1.97-2.67-2.79-5.68-2.9-8.82-.12-.58-.58-1.05-.58-1.74-.12-1.51-.12-3.14-.12-4.53,.35-3.13,.93-6.03,1.28-9.05,.12-.47-.23-1.4,.93-1.05,.12-.58,.23-1.16,.35-1.63,.12-.23,.12-.46,.23-.81,0,0,0-.11,.12-.23,.12-.34,.23-.81,.23-1.16,0-.23-.12-.47-.12-.7-.12,.7-.23,1.4-.23,2.09-.12,.23-.23,.35-.35,.46Zm-1.16,13.7l.12-.12c-.12,0-.12-.11-.12-.11l-.12,.11c.12,0,.12,.12,.12,.12Zm1.74,3.14c.12,.34,.12,.69,.23,.93,.23,.23,.58,.35,.93,.35,0,0,.35-.46,.35-.58-.35-1.16-.23-2.32,.23-3.37,.12-.23-.23-.81-.47-.81-.46-.23-1.05-.23-1.05,.7v2.79h-.23Zm1.05-4.76c.35,.46,1.39-.69,1.51-1.51v-.34c.23-.35,.47-.7,.7-1.16,0-.11,.23-.35,.12-.46-.12-.23-.35-.35-.58-.35-1.16-.23-2.32,.93-2.44,2.55,.12,.23,.23,1.05,.7,1.28Zm-.58-16.14c.12-.23,.35-.34,.35-.58,.69-2.09,1.39-4.18,1.97-6.39v-.34c-.12,.11-.35,.11-.46,.34-.58,2.09-1.16,4.3-1.86,6.15v.81Zm.58,25.43c0-.12,.12-.23,.12-.35-.12-.23-.23-.34-.35-.46-.12,0-.23,.12-.35,.23,.23,.23,.35,.46,.58,.58Zm2.09-18.69c-.35-.23-.58-.58-.93-.93,0,.23-.35,.46-.23,.46,.23,.34,.35,.58,.69,1.05,.23-.35,.47-.46,.47-.58Zm.58,10.57c0-.12-.12-.46-.12-.7-.23,0-.35,0-.35,.12-.47,.81-1.05,1.51-.7,2.55,.23,.58,.35,1.05,1.05,.58,.58-.23,.93-.35,.35-1.05-.23-.35-.23-.93-.35-1.4l.12-.11Zm.35-13.47c-.23-.23-.58-.46-.69-.34-.23,.11-.58,.46-.81,.81,.23,.11,.35,.34,.7,.58,.35-.34,.58-.69,.81-1.05Zm-.81-3.37c.23,0,.46-.11,.58-.34,.23-.23,.47-.58,.58-.81,.23-.23,.46-.58,.58-.93,0,0-.23-.12-.35-.12-.35,.12-.81,.12-1.16,.46-.23,.23-.23,.7-.35,1.16,.12,.23,.12,.46,.12,.58Zm.23-9.75h.12v-.12l-.12,.12Zm1.05,5.68c-.12,0-.23,.12-.23,.12,0,.11,.12,.23,.12,.35,.12-.12,.23-.12,.23-.24,0,0,0-.23-.12-.23Z"/><path class="b" d="M583.64,458.91c-1.62,.7-3.25,1.28-4.76,1.98-.35,.11-.81,.58-.81,.93,0,1.05-.23,2.21,0,3.25,.47,4.76,.93,9.18,.23,13.7-.12,.81,.12,1.63,.23,2.43v2.67c0,.23-.23,.58-.12,.81,.81,2.9,.23,5.8-.12,8.82-.23,3.84-.23,7.9-1.63,11.73-.46,1.28-.81,2.67-1.51,3.94-1.16,2.67-3.02,4.53-5.69,5.11-2.79,.58-5.69,1.28-8.36,1.63-3.6,.46-7.2,.23-10.91-.93-.93-.47-2.21-1.05-3.02-1.63-.47-.58-1.05-1.63-1.16-2.67-.23-3.02-.47-6.03-.35-9.05,0-1.86,.35-3.72,.58-5.46,0-.12,.35-.35,.46-.35s.35,.23,.35,.35c0,.46,.23,1.05,0,1.4-.58,2.08-.12,4.06-.23,6.15,0,.34,.12,.58,.35,.93,.12-.35,.46-.69,.46-.93,.12-1.86,0-3.49,0-5.46,0-.46,0-1.16,.81-1.05,.69,.12,.58,.69,.35,1.28-.12,.46-.12,.93-.12,1.4-.12,1.74,.23,2.08,1.86,1.85-.69,.93-.23,2.44-1.16,3.02-.12,0-.12,.47,0,.58,.47,.7,.93,1.51,1.63,2.44,.12,.23,.35,.58,.58,.58,1.39,.24,1.97,1.75,2.55,3.02,.93,1.51,1.39,1.85,3.02,1.28,2.55-.93,4.99-1.98,7.08-3.95,.23-.35,.7-.46,1.16-.69-.23,.46-.58,.81-.81,1.28-.12,.34-.35,.81-.23,.93,.12,.35,.58,.81,1.05,.93,.47,.11,2.09-1.75,2.09-2.32-.12-1.05,.12-1.63,1.16-1.75,.69-.23,1.51-1.51,1.05-2.2-1.16-1.16,0-1.4,.46-1.97-.23-.35-.46-.46-.46-.93-.12-.58,0-1.05,0-1.51,0-.23-.23-.81-.47-.93-.23,0-.69,.35-.81,.69-.47,1.28-.81,2.79-1.16,4.41,0,.11,0,.23-.12,.35-.47,.58-.81,1.05-1.4,1.62,.23-.69,.47-1.28,.7-1.97,.46-1.97,1.05-3.83,1.39-5.69,.35-1.51,.47-2.79,.7-4.29,0-.46,.23-.58,.35-.81v-.11c.12-.12,.23-.24,.35-.47h.12c0-.11,.12-.46,0-.46-1.04-.69-.69-1.86-.69-2.67,0-1.28,.23-1.86,1.39-1.86,.23,0,.46-.46,.7-.58-.12-.11-.23-.35-.47-.46-1.39-.81-1.74-1.97-1.62-3.95,.12-.93,0-1.97,.12-3.13,0-.35-.12-.93,.12-1.16,.81-.69,.46-1.51,.12-2.43-.12-.23-.35-.81-.23-1.05,.7-1.28-.12-2.55-.12-3.95-.12-.81,0-1.74,0-2.79v-.93c-.35,0-.7-.12-.93,.11-2.32,1.28-4.53,3.14-6.38,5.23-.81,1.05-1.62,2.2-2.44,3.14-.12,.46-.58,1.39-.81,.11h-.12c-.81,1.05-1.51,1.97-2.21,2.79-.46,.69-.58,1.4-.69,2.32-.23,.46-.46,1.05-.58,1.63-.12,1.05-.46,2.2-1.51,2.67,.93,.93,0,1.86-.23,2.79-.12,.12-.23,.24-.46,.24-.12-.12-.12-.35-.12-.58,0-.93,.12-1.74,.12-2.55,0-.23-.35-.58-.35-.46-1.39,.11-.69-.58-.35-1.05,.35-.46,.7-1.05,1.16-1.05,1.51-.23,1.16-1.16,.46-1.86-.69-.93-.69-1.63-.23-2.67,0-.11-.12-.34-.12-.69-.12,.12-.35,.35-.35,.46-.47,1.05-.81,1.98-1.28,3.14-.35,.58,1.51,1.05,.12,1.97-.7,.47-.93,1.63-1.28,2.44-.23,.35-.12,.81,0,1.28,0,.23,.12,.46,.35,.58-.46,0-.81,.46-1.16,.34-.35-.46-.69-.93-.81-1.51-.7-2.09-.12-3.83,1.28-5.57,1.28-1.63,2.2-3.72,3.13-5.8,.7-1.05,1.28-2.09,1.97-3.14,1.28-2.09,3.36-3.49,5.34-5,1.86-1.28,3.83-2.32,5.81-3.37,1.16-.69,2.09-1.28,1.86-3.13,0-.23,.12-.58,.23-.81h-.12c.23-.35,.58-.81,.47-1.05-1.28-1.97-.7-4.06-.58-6.15,0-1.4,0-2.67-.12-4.06,0-.23-.12-.35-.12-.46-.12,.11-.35,.23-.46,.34-1.51,2.21-3.37,4.06-4.3,6.27-1.86,4.06-4.76,6.5-7.78,9.05-1.28,.93-2.55,2.09-4.06,2.79-.81,.34-1.74,.34-2.67,.23-1.28-.12-2.32-.81-3.48-1.05-.47-.23-.81-.58-1.28-.7-2.44-.58-3.83-2.08-3.72-4.99,.23-3.48,.81-6.74,1.39-10.33,.23-2.2,.69-7.89,1.28-9.98,.12-1.16,.58-2.2,1.05-3.25,.69-2.32,3.13-3.02,4.99-1.97,.23,0,.23,.11,.35,.23,4.06,2.32,3.6,8.36,2.55,12.19-.81,2.32-1.62,4.88-1.51,7.55,.12,.93-.23,1.97-.23,2.9v1.4c.23-.12,.69-.35,.93-.58,2.55-3.71,5.23-7.31,7.66-11.03,2.09-2.67,4.07-5.69,6.15-8.59,1.74-2.44,3.72-5,4.64-8.24,.23-.69,.81-1.05,1.51-1.51,.47-.35,1.16-.23,1.4,.58,.12,0,.58-.12,.81-.12,2.55-.69,5.34,.46,6.27,2.55,0,.12,.12,.35,.12,.46-.23,2.32,.93,4.76-.35,7.09-.81,1.28-1.16,2.43-.58,4.06,.12,.46,.12,.81,.12,1.39-.23,3.37-.47,6.97-.7,10.57,0,.35,.12,1.05,.12,1.4,.12,2.43,6.38-.81,6.97-1.16,1.86-.81,3.83-1.86,5.69-2.79,2.21-1.28,3.83-3.25,5.57-5.11,.46-.58,.93-.81,1.39-.69,.46,.34,.35,1.28,0,1.97-1.16,2.32-3.95,5.46-6.04,6.74-.46,.34-.81,.69-1.51,.69-1.86,.93-4.18,1.63-6.27,2.43Zm-40.29-8.82c-.12,.11-.46,.11-.46,.23v.46c.23-.11,.46-.11,.46-.11v-.58Zm4.41,41.56c-.23-.7,.23-1.51-.12-2.21-.12-.11,.23-.58,.46-.81,.7,.24,1.16,.24,1.51,.7,.12,.23-.12,.81-.23,1.28-.23,.46-.58,1.05,.35,1.39,.12,0,.46,.47,.81,.7-.23,.34-.58,1.05-.81,1.39-.12,.23-.7,.23-.93,.69-.23,.35-.35,.7-.81,1.28-.12-.69-.12-1.04-.23-1.51,0-.34-.23-.46-.46-.58-.35-.12-.58-.12-.7-.23,.12-.24,.35-.58,.7-.7,.46-.23,.69-.46,.46-1.39Zm1.16-7.55l-.12,.12h.12v-.12Zm.35,19.39v-.11h-.23c0,.11,.12,.11,.12,.11h.12Zm2.09-4.99c.12,.35,.35,.58,.35,.81-.23,.34-.46,.93-.81,1.39-.35-.34-.58-.58-.46-.81,.23-.47,.58-.81,.93-1.4Zm-.7,3.25h0Zm1.05-8.24q0,.12-.12,.12h-.12v-.12h.23Zm2.32-14.28c0-.11-.12-.23-.12-.46-.23,.23-.58,.46-.81,.69l.58,.58c.23-.35,.35-.58,.35-.81Zm.93,5.69c.12-.35,.23-.81,.35-1.16,.12,.11,.12,.23,.35,.46-.23,.34-.46,.69-.58,1.05,0-.12-.12-.35-.12-.35Zm.93-8.71c-.23-.12-.35-.35-.47-.35-.23,0-.23,.35-.35,.47,.12,0,.12,.23,.23,.23,.23,0,.35-.23,.58-.35Zm-.47-3.25l.12,.11c.23-.58,.47-.81,.58-1.05-.23,.12-.47,.46-.7,.93Zm4.3-4.3c-1.16,1.16-2.21,2.09-3.25,3.02,1.51-.47,2.44-1.63,3.25-3.02Zm-1.4,5.23l.12-.23h-.12v.23Zm3.02-1.86c-.46,.12-.93,.12-1.28,.35-.35,.11-.81,.69-1.05,.81h.58c.93,.93,1.16-.23,1.51-.81,.12,0,.12-.23,.23-.35Zm.12-4.29v0Zm1.39-15.21c-.23,.24-.46,.47-.46,.81,.12-.11,.35-.46,.46-.81Zm.81-1.05h-.12c-.12,.12-.12,.35-.12,.47,0-.12,.12-.23,.23-.47Zm.81,17.42c-.12,0-.12-.12-.12-.12-.12,0-.12,.12-.23,.12,0,0,0,.11,.12,.11,0,0,.12-.11,.23-.11Zm1.86-30.65c-.46,.58-.81,1.4-1.28,1.97,.46-.46,1.05-1.04,1.51-1.62,.12-.12,.12-.35,.12-.46-.12,0-.23,0-.35,.11Zm-1.05,8.83c.23-.58,.35-1.05,.58-1.4-.23,.35-.47,.69-.7,1.28l.12,.12Zm2.32-3.02c-.23,0-.7-.11-.81,0-.35,.24-.35,.81-.58,1.16,.23-.12,.69-.23,1.05-.23,.23-.12,.35-.69,.35-.93Zm-.58,22.99c-.12-.12-.23-.12-.23-.12-.23,0-.35,0-.46,.12,0,.11,0,.34,.12,.58,.23-.24,.46-.47,.58-.58Zm.93,44.12c-.12,0-.35,0-.35,.11-.12,0-.23,.23-.35,.23,.23,0,.35,.12,.46,0,.12-.11,.12-.23,.23-.34Zm-.23-74.19s-.12-.23-.12-.35c-.12,.12-.12,.47-.23,.47h.23s.12,0,.12-.12Zm1.62,60.25c-.12-.35-.12-.69-.12-.93-.23,.34-.46,.69-.46,.93-.12,.23,0,.69,.12,1.05,.12-.46,.35-.93,.46-1.05Zm.58-3.14c-.23-.11-.35-.34-.58-.58-.12,.12-.23,.24-.46,.35,.23,.23,.46,.46,.7,.81,.12-.12,.35-.58,.35-.58Zm1.05,11.84s-.12-.12-.23-.23c-.12,.23-.23,.35-.35,.58,0,.23,.12,.34,.23,.46,.12-.23,.23-.58,.35-.81Zm.12-48.53q-.12-.11-.23-.23s0,.12-.12,.12c.12,0,.12,.11,.23,.23,0-.12,.12-.12,.12-.12Zm.12,19.04c.12,.12,.35,.35,.35,.35,.12,0,.23-.35,.35-.46-.12,0-.23-.12-.35-.12s-.23,.12-.35,.23Zm1.51,25.54c-.12-.11-.35-.46-.46-.34-.23,.11-.47,.34-.7,.69,0,.12,.12,.12,.23,.35,.23-.23,.58-.35,.93-.7Zm-1.05-6.03c0,.11,.23,.23,.23,.23,.23-.23,.7-.69,1.16-1.05-.23,0-.35-.23-.46-.11-.35,.11-.58,.34-.93,.93Zm.35-18.11q-.12,0-.23,.11s.12,0,.12,.12l.12-.12v-.11Zm.81,14.97c.35-.81,.58-1.28,.81-1.86l-.58-.23c-.23,.23-.46,.58-.81,.93,0,0,.23,.34,.58,1.16Zm-.23-3.71l.12,.11c0,.12,.12,0,.12,0l-.12-.11h-.12Zm.93,9.52c-.23-.12-.58-.24-.58-.24-.12,.24-.23,.58-.35,.93,0,0,.23,.23,.35,.34,.12-.23,.35-.58,.58-1.04Zm-.81-42.96c0-.11,.12-.11,.12-.11,0-.12-.12-.12-.12-.12v.23Zm.46,15.44q.12,0,.23,.11c0-.11,.12-.11,.12-.11,0-.12-.12-.23-.12-.23-.12,.11-.23,.23-.23,.23Zm.35,2.2s-.12,0-.23-.11c0,.11-.12,.11-.12,.23,0,0,.12,.11,.23,.11,0,0,.12-.11,.12-.23Zm.35,19.74c0-.11-.23-.23-.35-.34-.12,.11-.23,.34-.35,.34,0,.12,.23,.23,.35,.58,.23-.35,.35-.58,.35-.58Zm-.23-13.58h-.23c0,.12,.12,.23,.12,.23h.23c0-.11,0-.23-.12-.23Zm.46,6.62q-.12,0-.12-.11l-.12,.11v.24c0-.12,.12-.12,.23-.24Zm8.48-27.74c-.12-.12-.23-.23-.23-.23-.46,.11-.81,.23-1.16,.46,.12,0,.23,.11,.35,.34,.35-.23,.7-.46,1.05-.58Zm4.53-2.79v0Z"/><path class="b" d="M617.06,466.46c0-1.16-.12-2.32-.23-3.48,0-.23-.23-.47-.35-.7-.23,.12-.46,.23-.58,.47-.58,.81-.93,1.51-1.39,2.2-1.28,1.97-2.44,4.06-3.72,6.03-.23,.23-.47,.47-.7,.58-.46,.46-1.05,.69-1.28,1.51-.23,.23-.93,.35-1.28,.69-1.86,1.51-3.83,1.75-6.04,1.4-.93-.23-1.97-.46-3.02-.58-1.16-.23-2.09-.81-2.55-2.09-.58-1.85-1.16-3.48-1.63-5.45-.23-.7-.12-1.63-.23-2.44-.12-1.85-.46-3.6-.46-5.45,0-.93,.23-1.86,.35-2.79,.12-.93,0-1.97,.23-2.79,.12-1.28,.35-2.43,.7-3.71,.12-.23,.23-.69,.46-.69,.46-.58,1.05-1.05,.23-1.75-.12-.11,0-.34,.12-.58,.23-.93,.58-1.86,.7-2.79v-.11c.69-1.63,1.16-3.14,1.86-4.76,.7-1.51,1.97-2.67,2.9-4.07,1.74-2.67,4.29-3.83,7.31-4.53,2.67-.58,4.99,.23,7.2,1.74,.93,.58,1.74,1.4,2.67,2.21,.69,.46,1.04,.58,1.74,0,.46-.47,1.05-.35,1.39-.58,1.05-.35,2.09,0,3.02-.12,1.86-.11,3.25,.81,3.95,2.55,.23,.47,.12,1.28-.12,1.98-.35,1.39-.47,2.79-.47,4.29,0,.93-.12,1.86-.23,2.79,0,1.16,.12,2.2,.12,3.37v1.05c-.35,1.28,0,2.43,.12,3.71,.12,.7,.12,1.28-.12,1.86-.23,1.28,0,2.44,.35,3.6v.35c-.12,.46-.47,1.16-.35,1.51,.23,.58,.47,.93,.12,1.51-.12,.11,0,.35,0,.46,.58,1.74,.7,3.37,.7,5.11-.12,1.28-.12,2.55,.35,3.72,.7,1.62,1.05,3.48,1.05,5.34,0,.58,.46,1.28,.81,1.86,.35,.69,.93,1.51,1.39,2.2,0,.11,.12,.23,.12,.35-.12,1.05-1.39,2.08-2.32,1.97-1.39-.12-2.9-.35-4.29-.23-1.63,0-2.9-.46-3.83-1.63-.58-.93-1.39-1.63-1.86-2.32-.35-.46-.58-.93-.7-1.51-.81-3.02-1.51-6.03-2.09-9.06-.12-.34,0-.69,0-.81h.12c-.12-.58-.12-.93-.23-1.4Zm-21.94-12.31c.12,0,0-.11,0-.23,0,.12-.12,.12-.12,.12v.23l.12-.12Zm.23,2.32h-.23s.12,0,.23,.12v-.12Zm.23-6.15v-.12h-.12v.12h.12Zm.12,3.83s0-.11-.12-.11c0,.11,0,.23-.12,.34l.12,.12c.12-.12,.12-.23,.12-.35Zm1.28,6.5l.12,.11c.12-.11,.12-.23,.23-.34-.12,.11-.23,.23-.35,.23Zm.47,3.6q.12,0,.23-.12h-.12c-.12,0,0,.12-.12,.12Zm1.39-.7c-.23,.12-.35,.23-.35,.35s.12,.23,.23,.35c.12-.12,.23-.35,.58-.58-.23,0-.46-.23-.46-.12Zm3.95-1.16c.35,1.86,.7,3.71,1.05,5.57,0,.23,.23,.46,.23,.46,.23,0,.58-.11,.7-.34,.35-.58,.93-1.16,1.28-1.98,.93-1.51,1.86-3.13,2.9-4.64,1.28-1.98,2.09-4.07,2.9-6.27,.58-1.97,1.28-3.95,1.86-6.03,.81-3.02,1.74-5.92,2.55-8.94,.12-.34,0-.58,0-.93-.35,0-.81,0-1.05,.12-.81,.34-1.74,.34-2.09-.35-.69-.81-1.39-1.63-1.51-2.79,0-.35-.58-.81-.93-1.05-.23-.12-.69,.35-.93,.46-.23,.23-.35,.58-.58,.81-1.05,1.63-1.97,3.25-3.02,4.99-.12,.24-.12,.47-.12,.7-.12,.46,0,.69-.12,1.05-.23,.93-.81,1.85-.93,2.79-.23,.93-.12,1.62-.7,2.32-.23,.23-.35,.69-.46,1.05-.35,2.9-.7,6.03-1.05,8.94-.12,1.28,0,2.43,0,3.71,0,.12-.12,.23,0,.35Zm11.96-1.16c.12,.12,.35,.24,.35,.24,.12-.58,.81-.93,0-1.51h.12c-.35,.47-.58,.7-.46,1.28Zm3.13-1.62q-.12,0-.12,.11c0,.12,.12,.12,.12,.12,.12,0,.23,0,.35-.12-.23-.11-.35-.11-.35-.11Zm.7,1.16l-.23-.11c-.12,.11-.23,.23-.47,.46,.12,0,.23,.11,.47,.35,0-.35,.12-.47,.23-.7Zm-.23,1.98c0-.12,0-.24-.12-.35,0,.11-.23,.23-.23,.23,0,.12,.12,.23,.23,.58,.12-.35,.12-.46,.12-.46Zm0,1.97v-.35c0-.11-.12-.23-.12-.34,0,.11-.12,.23-.12,.34,0,.12,.12,.23,.23,.35Zm.23,1.51c-.12,.11-.23,.35-.23,.58,0,0,.12,.11,.12,0,.12-.12,.23-.35,.35-.47,.12-.11,0-.23,0-.34-.12,0-.23,.11-.23,.23Zm0,1.05c-.12,0-.23,.11-.23,.23s.12,.12,.23,.12,.23-.12,.35-.35c-.12,0-.23-.12-.35,0Zm.46,2.09c-.12,0-.23,.11-.46,.23,.12,0,.23,.23,.23,.23,.23-.12,.35-.12,.58-.23-.23-.12-.35-.35-.35-.23Zm1.86-16.49c0-.35,.12-.58,0-.93,0-.23-.12-.35-.23-.58-.23,.11-.35,.23-.58,.46-.23,.46-.58,.81-.7,1.4-.23,.34-.69,.93,.12,1.16,.12,0,.12,.23,.12,.35,.12,.34,.12,.58,.12,.69,.23,0,.58,0,.69-.11,.35-.35,.7-.81,.81-1.16,0-.46-.35-.81-.46-1.16,0-.12,.12-.12,.12-.12Zm1.74,13.58s-.12,0-.12-.12v1.05c-.23-.11-.93-.34-1.05-.46,0-.58,.12-1.05,1.05-1.16,0,0,.35-.46,.35-.58,0-.35-.23-.58-.35-.93-.23,.11-.46,.34-.81,.46-.23,.11-.35,.11-.58,.11,0-.11,0-.46,.12-.69,.23-.35,.46-.69,.12-1.05-.46-.23-.81-.34-.58-1.05,0,0-.35-.34-.7-.34-.23,0-.7,.23-.7,.46,0,.58,.12,1.16,.47,1.51,.69,.58,.46,1.16,.35,1.86-.23,.93-.46,1.85-.46,2.79-.12,2.2,1.28,4.06,1.51,6.27,.12,.23,.12,.35,.23,.58,0,.12,.12,.12,.23,.12,.47,0,.93-1.16,.81-1.51-.46-.58-.58-1.51-.46-2.2,0-.23,0-.46-.12-.58q-.12-1.28,1.04-1.39c.23,0,.47,0,.58-.12,0,0,.12-.23,.12-.34,0,0-.12-.12-.23-.12s-.35,.23-.58,.12c-.35,0-.58-.12-.93-.12,.12-.23,.35-.46,.46-.81,.12-.23,.12-.46,.12-.81s.12-.58,.12-.93Zm-1.16-9.06c.12,0,.23,0,.35-.11-.12,0-.23-.12-.23-.23-.46-.23-1.05-.46-1.28-.7-.46-.46-.58-.11-.58,.12-.23,1.05-.47,2.09,0,3.14,0,.23,.23,.46,.35,.69,.23-.23,.58-.46,.7-.69,.12-.46-.12-1.05-.12-1.51-.23-.7,.23-.7,.81-.7Zm.93,5.58c-.12,.11-.35,.23-.35,.46,0,0,.23,.34,.35,.34,.12-.11,.23-.34,.46-.58-.23-.12-.35-.23-.46-.23Zm.23,14.28c0-.12-.12-.23-.12-.35-.12,.12-.23,.23-.23,.23,.12,.12,.12,.23,.23,.35q.12-.12,.12-.23Zm0-8.71c0,.11-.12,.11-.12,.11,0,.12,.12,.24,.12,.24,.12,0,.12-.12,.23-.24-.12,0-.12-.11-.23-.11Zm.23,3.6c0,.11,.12,.11,.23,.23,0-.12,.12-.23,.23-.23-.12,0-.23-.12-.35-.12,0,.12-.12,.12-.12,.12Zm4.07,2.09c0-.12-.23-.23-.23-.35-.12,0-.23,.12-.35,.23,.12,.12,.23,.12,.35,.46,.12-.23,.35-.34,.23-.34Zm2.55,7.77c0-.11-.12-.34-.23-.46h-.23c.12,.35,.23,.58,.35,.93,.12-.24,.12-.35,.12-.47Z"/><path class="b" d="M638.52,438.83c.23-2.79,.81-5.57,1.28-8.48,.47-2.09,2.21-3.25,4.53-3.25,2.32,.11,4.64,.23,6.73,1.51,1.4,.93,1.86,1.74,1.74,3.37-.23,1.28-.23,2.55-.47,3.71-.12,.58-.12,1.16-.35,1.51-1.51,3.37-1.16,6.74-1.28,10.1-.12,1.74-.58,3.48-.69,5.22-.12,.93,.23,1.86,.35,2.79,.12,.11,.23,.34,.23,.46,0,.69-.12,1.16-.12,1.85,.23-.69,.35-1.16,.58-1.85,1.16-3.49,2.09-6.85,3.25-10.33,1.05-2.9,2.55-5.69,4.88-7.89,2.09-2.32,4.88-2.79,7.78-2.44,1.05,0,2.09,.23,3.14,.35,.23,.12,.58,.12,.69,.23,1.86,2.09,4.07,4.06,3.83,7.2,0,.58,.23,1.05,.23,1.63,.35,1.62,.93,3.48,1.28,5.22v.7c-.81,2.55-.12,4.53,1.39,6.5,.12,.12,.12,.23,.23,.35,.46,2.67,1.51,5.46,.81,8.24-.47,1.85,.35,3.48,.35,5.22,.12,.35,.12,.81,.12,1.05-.93,2.09-.12,4.06,0,6.04v.58c.23,1.05,1.05,2.21-.81,3.14-1.16,.46-1.97,1.05-3.36,.93-1.63-.12-3.14,0-4.76-.58-1.16-.35-1.74-1.16-1.97-2.44-.58-4.29-.81-8.82-1.51-13.35-.23-3.36-.93-7.08-1.28-10.56-.46-2.32-.93-4.53-1.28-6.85-.35-1.85-.7-3.71-1.39-5.57-.35-1.51-1.05-1.63-2.21-.58-1.28,1.16-2.09,2.44-2.32,4.3-.58,3.25-1.39,6.27-2.09,9.51-.35,1.86-.58,3.72-.69,5.46-.12,.35,.12,.81-.12,.93-1.16,1.16-.7,3.02-1.05,4.41-.23,.81,0,1.28,.69,1.51,.23,.24,.58,.24,.81,.35-.23,.35-.46,.69-.69,.93-.58,.24-1.63,.24-1.63,.47-.23,1.74-1.86,2.79-1.51,4.64,.23,1.28,.35,2.44,.58,3.72,.12,1.16-.58,1.86-1.63,2.32-1.28,.46-2.67,.93-3.95-.35-.23-.23-.7-.23-1.16-.23-1.39,0-3.02,0-4.53-.23-1.04,0-2.09-1.63-2.32-3.14-.35-2.55-.58-4.99-.93-7.43-.35-3.6-.7-6.96-1.05-10.33,.58-7.09,.93-13.81,1.62-20.55Zm32.74,18.11v-.34c-.23,.11-.47,.23-.58,.23,0,.11,.12,.34,.23,.58,.23-.23,.35-.34,.35-.46Zm1.05,5.34c0-.11-.12-.34-.35-.46-.23,.35-.35,.69-.46,.93-.12,0,.12,.23,.35,.69,.23-.58,.35-.69,.47-1.16Zm.58,2.44c0-.23-.23-.58-.35-.93-.35,.24-.58,.47-.81,.81,0,.23,.23,.35,.35,.93,.35-.47,.7-.7,.81-.81Zm.35,7.89c-.46,.12-.81,.46-1.16,.58,.12,.11,.12,.46,.23,.34,.46-.23,.81-.34,1.28-.69-.23-.23-.35-.35-.35-.23Zm.7-3.37c0-.58-.47-1.28-.81-1.86,0,0-.35,0-.58,.12-.12,0-.23,.35-.12,.46,.81,.69,.23,1.28-.12,1.97-.12,.12,.12,.35,.23,1.05,.69-.81,1.28-1.28,1.39-1.74Zm-.35,1.97h.12q.12,0,.12-.11c-.12,0-.12,.11-.23,.11Z"/><path class="b" d="M67.28,110.2c1.68,2.08,4.61,3.12,8.76,3.12v3.12c-3.07-.3-6.14-.45-9.21-.45-6.24,0-11.38,.69-15.44,2.08v-13.22c-1.78,4.45-4.45,7.85-8.02,10.17-3.56,2.32-7.92,3.49-13.07,3.49-9.51,0-16.96-3.42-22.35-10.25C2.55,101.44-.1,91.44,0,78.27c0-8.62,1.51-15.97,4.53-22.06,3.02-6.09,7.08-10.67,12.18-13.74,5.1-3.06,10.72-4.6,16.86-4.6,3.76,0,7.2,.72,10.32,2.15,3.12,1.44,5.62,3.64,7.5,6.61V17.82c0-4.55-.84-7.87-2.52-9.95-1.69-2.08-4.61-3.12-8.76-3.12V1.64c3.17,.3,6.24,.44,9.21,.44,6.24,0,11.38-.69,15.44-2.08V100.25c0,4.55,.84,7.87,2.52,9.95Zm-22.28-.59c3.07-2.97,5.2-7.18,6.39-12.62V52.72c-2.67-7.62-8.22-11.44-16.63-11.44-6.14,0-11.09,3.15-14.85,9.43-3.76,6.29-5.59,15.47-5.49,27.55-.1,11.88,1.58,20.82,5.05,26.8,3.46,5.99,8.51,8.99,15.15,8.99,3.86,0,7.33-1.49,10.39-4.46Z"/><path class="b" d="M96.99,112.79c-3.02-3.12-4.53-7.45-4.53-12.99,0-4.45,1.21-8.12,3.64-10.99,2.43-2.87,5.29-5.14,8.61-6.83,3.32-1.68,7.7-3.47,13.14-5.35,5.54-1.88,9.65-3.61,12.33-5.2,2.67-1.58,4.01-3.71,4.01-6.38v-9.21c0-5.74-1.21-9.68-3.64-11.81-2.43-2.13-5.82-3.19-10.17-3.19-6.93,0-11.83,1.78-14.7,5.35,1.98,.49,3.64,1.54,4.98,3.12,1.34,1.59,2,3.57,2,5.94,0,2.47-.79,4.43-2.38,5.86-1.58,1.44-3.62,2.16-6.09,2.16-2.77,0-4.85-.86-6.24-2.6-1.39-1.73-2.08-3.83-2.08-6.31,0-2.38,.57-4.36,1.71-5.94,1.14-1.58,2.85-3.16,5.12-4.75,2.38-1.68,5.4-3.06,9.06-4.16,3.66-1.09,7.67-1.63,12.03-1.63,7.72,0,13.56,1.83,17.52,5.49,2.47,2.28,4.13,5.03,4.97,8.24,.84,3.22,1.26,7.45,1.26,12.7v41.29c0,2.47,.35,4.26,1.04,5.35,.69,1.09,1.88,1.64,3.56,1.64,1.19,0,2.3-.27,3.34-.82,1.04-.54,2.15-1.31,3.34-2.3l1.63,2.53c-2.57,1.98-4.78,3.39-6.61,4.23-1.83,.84-4.14,1.27-6.91,1.27-4.75,0-8.07-1.19-9.95-3.57-1.88-2.38-2.82-5.59-2.82-9.65-2.97,4.95-6.39,8.39-10.25,10.32-3.86,1.93-8.22,2.9-13.07,2.9-6.24,0-10.87-1.56-13.89-4.68Zm37.2-12.55v-29.11c-.89,1.39-2.13,2.53-3.71,3.42-1.58,.89-4.01,2.08-7.28,3.56-3.76,1.58-6.81,3.1-9.13,4.53-2.33,1.44-4.33,3.4-6.02,5.87-1.69,2.48-2.52,5.64-2.52,9.51,0,4.45,1.09,7.82,3.27,10.1,2.18,2.28,5.05,3.41,8.61,3.41,6.54,0,12.13-3.76,16.78-11.29Z"/><path class="b" d="M208.05,39.5c2.77,1.09,5,2.38,6.68,3.86,1.09,.8,1.98,1.19,2.67,1.19,1.78,0,2.87-2.17,3.27-6.53h3.42c-.4,4.85-.59,13.27-.59,25.25h-3.42c-1.09-6.53-3.19-11.93-6.31-16.19-3.12-4.26-7.75-6.39-13.89-6.39-3.57,0-6.49,1.02-8.76,3.05-2.28,2.03-3.42,4.83-3.42,8.39s1.19,6.36,3.56,8.69c2.38,2.33,6.19,5.13,11.44,8.39,.89,.49,2.23,1.33,4.01,2.52,4.55,2.97,8.22,5.59,10.99,7.87,2.77,2.28,5.03,4.9,6.76,7.87,1.73,2.97,2.6,6.38,2.6,10.25,0,6.53-2.45,11.63-7.35,15.29-4.9,3.66-10.92,5.5-18.04,5.5-4.46,0-8.37-.69-11.73-2.08-2.18-1.09-4.21-2.42-6.09-4.01-.4-.39-.84-.59-1.34-.59-.7,0-1.31,.5-1.86,1.49-.54,.99-.96,2.38-1.26,4.16h-3.42c.4-5.65,.59-15.54,.59-29.7h3.42c1.09,9.31,3.07,16.26,5.94,20.87,2.87,4.6,7.77,6.9,14.7,6.9,3.46,0,6.53-1.14,9.21-3.42,2.67-2.27,4.01-5.84,4.01-10.69,0-3.86-1.31-7.13-3.94-9.8-2.62-2.67-6.9-5.89-12.85-9.65-4.85-3.07-8.59-5.59-11.21-7.57-2.62-1.98-4.82-4.41-6.61-7.28-1.78-2.87-2.68-6.24-2.67-10.1,0-6.24,2.08-10.99,6.24-14.26,4.16-3.27,9.4-4.9,15.74-4.9,3.57,0,6.73,.54,9.51,1.63Z"/><path class="b" d="M132.02,165.52c-.7,6.68-1.18,13.12-1.45,19.34-.26,6.23-.4,11.01-.4,14.34,0,4.21,.09,8.15,.26,11.84,.18,3.68,.35,6.93,.53,9.74h-6.05c-1.23-12.27-2.9-21.97-5-29.07-2.11-7.11-5.79-12.24-11.05-15.39-5.26-3.16-13.42-4.74-24.48-4.74h-16.58c-5.96,0-10.49,.49-13.55,1.45-3.07,.97-5.13,2.98-6.19,6.05-1.05,3.07-1.58,7.85-1.58,14.34v130.52c0,6.32,.66,11.05,1.98,14.21,1.32,3.15,3.9,5.26,7.76,6.31,3.86,1.05,9.47,1.76,16.84,2.11v5.26c-4.56-.35-10.35-.56-17.37-.66-7.02-.09-14.12-.14-21.32-.14s-13.25,.05-19.21,.14c-5.97,.09-10.79,.3-14.47,.66v-5.26c5.96-.35,10.48-1.06,13.55-2.11,3.07-1.05,5.13-3.16,6.18-6.31,1.05-3.16,1.58-7.89,1.58-14.21V193.42c0-6.49-.53-11.27-1.58-14.34-1.05-3.07-3.12-5.18-6.18-6.32-3.07-1.14-7.59-1.8-13.55-1.97v-5.27c6.49,.18,13.33,.31,20.52,.4,7.19,.09,14.29,.18,21.31,.27,7.02,.09,13.55,.13,19.61,.13h14.87c8.07,0,17.24-.04,27.5-.13,10.26-.08,19.43-.3,27.5-.66Zm-40.79,92.63v5.26H38.6v-5.26h52.63Zm5-34.74c-.7,10-1.01,17.63-.92,22.89,.09,5.26,.13,10.09,.13,14.47s.08,9.21,.26,14.47c.17,5.27,.61,12.9,1.32,22.9h-6.05c-.7-5.62-1.54-11.1-2.5-16.45-.97-5.35-3.07-9.74-6.32-13.16-3.25-3.42-8.73-5.13-16.45-5.13v-5.26c5.79,0,10.22-1.19,13.29-3.55,3.07-2.37,5.3-5.4,6.71-9.08,1.4-3.68,2.37-7.5,2.89-11.44,.53-3.95,1.05-7.5,1.58-10.66h6.05Z"/><path class="b" d="M199.09,212.63c11.23,0,21.32,2.46,30.26,7.37,8.95,4.91,16.09,12.63,21.45,23.15,5.35,10.53,8.03,24.21,8.03,41.06s-2.68,30.48-8.03,40.92c-5.35,10.44-12.5,18.11-21.45,23.02-8.95,4.91-19.04,7.37-30.26,7.37s-21.1-2.46-30.13-7.37c-9.04-4.91-16.23-12.58-21.58-23.02-5.36-10.44-8.03-24.08-8.03-40.92s2.67-30.53,8.03-41.06c5.35-10.52,12.54-18.24,21.58-23.15,9.04-4.91,19.08-7.37,30.13-7.37Zm0,5.26c-10,0-18.2,5.18-24.61,15.52-6.41,10.35-9.6,27.28-9.6,50.79s3.2,40.39,9.6,50.66c6.4,10.26,14.61,15.39,24.61,15.39s18.2-5.13,24.61-15.39c6.4-10.27,9.6-27.15,9.6-50.66s-3.2-40.44-9.6-50.79c-6.41-10.35-14.61-15.52-24.61-15.52Z"/><path class="b" d="M341.14,165.52v5.27c-5.96,.18-10.49,.83-13.55,1.97-3.07,1.14-5.13,3.25-6.19,6.32-1.05,3.07-1.58,7.85-1.58,14.34v130.52c0,6.32,.53,11.05,1.58,14.21,1.05,3.15,3.11,5.26,6.19,6.31,3.07,1.05,7.59,1.76,13.55,2.11v5.26c-4.04-.35-9.08-.56-15.13-.66-6.05-.09-12.15-.14-18.29-.14-6.84,0-13.25,.05-19.21,.14-5.97,.09-10.79,.3-14.47,.66v-5.26c5.96-.35,10.48-1.06,13.55-2.11,3.07-1.05,5.13-3.16,6.18-6.31,1.05-3.16,1.58-7.89,1.58-14.21V193.42c0-6.49-.53-11.27-1.58-14.34-1.05-3.07-3.12-5.18-6.18-6.32-3.07-1.14-7.59-1.8-13.55-1.97v-5.27c3.68,.18,8.5,.36,14.47,.53,5.96,.18,12.37,.26,19.21,.26,6.14,0,12.24-.08,18.29-.26,6.05-.18,11.09-.35,15.13-.53Zm83.68,0v5.27c-5.44,.7-10.7,2.46-15.79,5.26-5.09,2.81-10.18,7.46-15.26,13.95l-50.79,65,5.79-12.9,63.15,88.42c2.98,4.39,6.23,7.81,9.74,10.26,3.51,2.46,7.98,4.39,13.42,5.79v5.26c-4.21-.35-9.43-.56-15.66-.66-6.23-.09-11.54-.14-15.92-.14-2.98,0-6.62,.05-10.92,.14-4.3,.09-9.69,.3-16.18,.66v-5.26c5.96-.35,9.74-1.4,11.31-3.16,1.58-1.75,.96-4.64-1.84-8.69l-38.42-57.89c-3.51-5.44-6.62-9.52-9.34-12.24-2.72-2.72-5.53-4.51-8.42-5.39-2.9-.88-6.54-1.4-10.92-1.58v-5.26c7.37-.17,13.55-1.62,18.55-4.34,5-2.72,9.16-6.18,12.5-10.4l25.26-32.1c5.79-7.36,9.74-13.59,11.84-18.68,2.11-5.09,2.01-8.98-.26-11.71-2.28-2.72-7.11-4.16-14.47-4.34v-5.27c3.33,.18,6.75,.31,10.26,.4,3.51,.09,6.97,.18,10.39,.27,3.42,.09,6.62,.13,9.61,.13,4.56,0,8.77-.08,12.63-.26,3.86-.18,7.11-.35,9.74-.53Z"/><path class="b" d="M551.11,212.11v110c0,7.89,1.45,13.73,4.34,17.5,2.9,3.77,8.11,5.66,15.66,5.66v5.53c-5.44-.53-10.88-.79-16.31-.79-5.09,0-9.96,.26-14.6,.79-4.65,.53-8.91,1.49-12.76,2.89v-31.05c-4.39,11.4-10.57,19.52-18.55,24.34-7.99,4.83-16.19,7.24-24.61,7.24-6.14,0-11.49-.88-16.05-2.63-4.56-1.75-8.34-4.21-11.32-7.37-3.33-3.5-5.61-8.06-6.84-13.68-1.23-5.61-1.84-12.54-1.84-20.79v-66.05c0-7.89-1.4-13.72-4.21-17.5-2.81-3.78-8.07-5.66-15.79-5.66v-5.53c5.61,.53,11.05,.78,16.31,.78s9.95-.3,14.61-.92c4.65-.61,8.9-1.53,12.76-2.76v103.42c0,5.44,.35,10.44,1.05,15,.7,4.57,2.46,8.24,5.26,11.05,2.81,2.81,7.37,4.21,13.68,4.21,6.84,0,12.94-2.11,18.29-6.32,5.35-4.21,9.56-9.91,12.63-17.11,3.07-7.19,4.61-15.26,4.61-24.21v-54.47c0-7.89-1.41-13.72-4.21-17.5-2.81-3.78-8.07-5.66-15.79-5.66v-5.53c5.61,.53,11.05,.78,16.31,.78s9.95-.3,14.61-.92c4.64-.61,8.9-1.53,12.76-2.76Z"/><path class="b" d="M633.41,212.63c7.02,0,12.98,1.14,17.89,3.42,4.91,2.28,8.51,4.39,10.79,6.32,5.79,4.74,9.3,1.58,10.53-9.48h6.05c-.35,4.92-.62,10.75-.79,17.5-.18,6.75-.27,15.83-.27,27.23h-6.05c-1.05-6.49-2.85-12.8-5.39-18.94-2.54-6.14-6.27-11.18-11.18-15.13-4.91-3.94-11.32-5.92-19.21-5.92-6.14,0-11.27,1.71-15.4,5.14-4.12,3.42-6.18,8.47-6.18,15.13,0,5.26,1.58,9.78,4.74,13.55,3.16,3.78,7.28,7.28,12.37,10.53,5.09,3.25,10.61,6.8,16.58,10.66,6.66,4.21,12.72,8.51,18.16,12.89,5.44,4.39,9.78,9.21,13.03,14.48,3.24,5.26,4.87,11.49,4.87,18.68,0,8.07-2.11,14.82-6.32,20.26-4.21,5.44-9.69,9.57-16.44,12.37-6.76,2.8-14.17,4.21-22.24,4.21-3.86,0-7.5-.31-10.92-.92-3.42-.62-6.71-1.54-9.87-2.76-1.76-.88-3.55-1.93-5.39-3.16-1.84-1.23-3.65-2.54-5.4-3.94-1.75-1.4-3.33-1.36-4.74,.13-1.41,1.49-2.46,4.43-3.16,8.82h-6.05c.35-5.61,.61-12.46,.79-20.52,.17-8.07,.26-18.77,.26-32.1h6.05c1.23,9.83,2.98,18.42,5.26,25.79,2.28,7.37,5.87,13.12,10.79,17.24,4.91,4.13,11.75,6.19,20.52,6.19,3.51,0,7.06-.79,10.66-2.37,3.59-1.58,6.62-4.22,9.08-7.89,2.46-3.68,3.68-8.6,3.68-14.74,0-7.72-2.81-14.03-8.42-18.95-5.62-4.91-12.72-10.09-21.32-15.52-6.32-4.03-12.24-8.07-17.76-12.1-5.53-4.03-10-8.6-13.42-13.69-3.42-5.09-5.13-11.22-5.13-18.42,0-7.89,1.8-14.34,5.39-19.34,3.59-5,8.37-8.69,14.34-11.05,5.96-2.37,12.37-3.55,19.21-3.55Z"/></svg>