<?xml version="1.0" encoding="UTF-8"?><svg id="Ebene_1" xmlns="http://www.w3.org/2000/svg" xmlns:xlink="http://www.w3.org/1999/xlink" viewBox="0 0 500 500"><defs><clipPath id="clippath"><rect width="500" height="500" fill="none"/></clipPath></defs><g clip-path="url(#clippath)"><g id="wappen"><g id="Logo_Bergkoenig_negativ"><g id="Gruppe_32228"><path id="Pfad_795" d="M249.42,217.68c-.66-.03-1.24,.43-1.35,1.08-2.97-.27-5.95-.54-8.92-.68-2.43-.14-2.43,3.92,.14,4.06,2.97,.14,5.81,.41,8.79,.68v14.2c-1.49,1.08-2.84,2.03-4.33,3.11-1.76,1.22-.68,4.6,1.62,3.65,.14-.14,.41-.14,.54-.27v.14c.14,0,.14-.14,.27-.14,.68-.27,1.22-.54,1.89-.81v7.84c-.01,.75,.59,1.36,1.33,1.37,.75,.01,1.36-.59,1.37-1.33,0-.01,0-.03,0-.04v-8.92c3.65-1.35,7.44-2.7,11.22-3.38,.27,0,.81-.14,1.22-.14,0,.14-.14,.14-.14,.27-2.16,2.43-4.06,5.41-6.22,7.98-7.98,9.46-16.22,18.79-24.47,27.85-1.76,1.89,1.08,4.87,2.84,2.84,10.28-11.22,20.82-22.44,29.88-34.61,2.03-2.7,5.81-7.84-.14-8.52-2.16-.27-4.46,0-6.9,.68,.14-.14,.27-.14,.41-.27,2.43-1.89,9.33-6.49,7.98-10.41-1.35-3.79-9.06-4.06-12.17-4.46-1.22-.14-2.3-.27-3.52-.41,.04-.7-.49-1.31-1.2-1.35-.05,0-.1,0-.16,0Zm13.12,7.57c.27,.41-8.52,7.57-10.28,8.79-.41,.27-.95,.68-1.35,.95v-12.03c3.65,.14,10.14,.41,11.63,2.3h0Z" fill="#ad905a"/></g></g></g></g></svg>