<?xml version="1.0" encoding="UTF-8"?><svg id="Ebene_1" xmlns="http://www.w3.org/2000/svg" xmlns:xlink="http://www.w3.org/1999/xlink" viewBox="0 0 500 500"><defs><clipPath id="clippath"><rect width="500" height="500" fill="none"/></clipPath></defs><g clip-path="url(#clippath)"><g id="wappen"><g id="Logo_Bergkoenig_negativ"><g id="Gruppe_32228"><path id="Pfad_794" d="M343.58,216.67c-3,4.89-5.98,9.61-8.91,14.17l-26.8-20.96-26.8-16.08-2.92,.98c-1.58-.51-3.22-.84-4.87-.98-3.41,0-5.85,1.95-7.8,3.41-2.44,1.95-4.39,3.41-8.29,2.92-4.39-.49-5.36-2.44-6.82-5.36-.85-2.08-2.18-3.92-3.9-5.36-.81-1.03-2.18-1.42-3.41-.98-4.87,.49-9.75,8.29-10.72,10.23-.98,.98-19.01,22.42-26.8,29.24-2.44,1.95-2.92,1.95-3.41,2.44v-.49c-1.46-1.46-3.41-2.92-7.8-.98-8.29,3.9-11.21,14.13-11.21,17.55-.49,.49-1.95,1.46-3.9,2.92-7.57-10.6-14.81-21.43-21.69-32.48-2.66,1.09-5.33,2.18-8.03,3.25,25.66,41.47,50.33,70.35,68.21,88.22,9.05,9.19,18.65,17.82,28.75,25.83l3.9,2.92,3.9-2.92c10.1-8.01,19.71-16.64,28.75-25.83,18-17.61,42.6-46.22,67.49-86.84-2.32-1.6-4.63-3.21-6.92-4.82Zm-58.14,7.35c-2.92,3.9-22.91,12.67-23.39,17.06-.49,5.36,13.16,4.87,13.65,9.26,.49,4.39-5.85,6.82-10.23,10.72s-1.95,13.16,1.46,23.88c.98,3.9,2.92,10.72,5.36,17.55-7.31,7.31-14.62,15.11-21.93,22.42-14.13-14.13-31.68-31.19-46.3-45.81,1.91-1.94,4.62-2.84,7.31-2.44,3.9,1.46,16.57,12.67,22.91,13.65,6.34,.98,10.23-.49,10.23-3.41s-3.41-11.7-8.77-15.6c-5.36-3.9-11.7-9.75-10.72-14.62,.98-4.39,5.85-12.67,5.85-16.08-.49-2.44-1.46-5.85-1.46-5.85,0,0-1.95-5.36-5.85-.49-3.41,4.39-14.13,21.44-20.47,28.75-2.13,2.72-4.41,5.32-6.82,7.8-1.46-1.46-2.92-3.41-4.39-4.87-3.41-4.39-7.31-9.26-10.72-14.13,2.92-1.95,5.85-3.9,5.85-5.36s2.44-11.21,9.26-14.62c2.44-.98,2.92-.98,3.41,0,2.44,2.92,4.87,1.46,8.77-1.46,8.29-6.82,26.32-28.75,27.29-29.73,1.95-3.41,5.85-8.29,8.29-8.29h.98c1.46,.98,1.95,2.44,2.92,4.39,1.46,3.41,3.9,7.31,10.23,7.8,5.36,.49,8.29-1.95,10.72-3.9,1.95-1.46,3.41-2.43,4.87-2.43v-.02c3.41,0,6.82,1.46,12.18,4.87,8.77,10.23,1.95,17.55-.49,20.96Z" fill="#F3EFE8"/></g></g></g></g></svg>