<svg xmlns="http://www.w3.org/2000/svg" xmlns:xlink="http://www.w3.org/1999/xlink" width="500" height="500" viewBox="0 0 500 500">
  <defs>
    <clipPath id="clip-wappen">
      <rect width="500" height="500"/>
    </clipPath>
  </defs>
  <g id="wappen" clip-path="url(#clip-wappen)">
    <g id="Logo_Bergkoenig_negativ" transform="translate(63.734 35.756)">
      <g id="Gruppe_32228" data-name="Gruppe 32228" transform="translate(11.173)">
        <path id="Pfad_793" data-name="Pfad 793" d="M360.252,0,358.79.487c0,.487-60.92,26.317-169.113,26.317C80.509,26.8,14.229.487,13.254.487L11.792,0V1.462c0,1.462-9.26,169.113,43.862,268.534,60.92,114.042,129.15,157.416,130.124,157.9l.487.487.487-.487c.487-.487,68.717-43.375,130.124-157.9C370,170.575,360.74,2.924,360.74,1.462V0Zm-46.3,269.509C256.445,378.677,191.627,422.051,186.266,425.95c-5.848-3.9-70.179-47.274-128.662-156.442-38.989-73.1-44.35-183.734-44.35-236.856,0-15.108.487-25.343.487-29.241C23.488,6.823,87.82,29.729,189.19,29.729,289.1,29.729,349.043,7.31,358.3,3.412c0,3.412.487,14.133.487,29.241C358.79,85.775,352.942,196.4,313.953,269.509Z" transform="translate(-11.173)" fill="#fff"/>
        <path id="Pfad_794" data-name="Pfad 794" d="M178.627,24.669c-65.793,0-125.251-6.823-158.878-18.52L14.387,4.2,13.9,10.048c0,36.552,2.437,161.315,42.887,237.83,31.678,58,63.844,96.5,85.775,118.428a315.314,315.314,0,0,0,28.754,25.83l3.9,2.924,3.9-2.924a315.316,315.316,0,0,0,28.754-25.83c22.418-21.931,55.071-60.92,85.775-118.915C333.119,173.8,336.531,53.91,336.531,13.947V4.687L331.17,6.637C299.491,17.846,243.933,24.669,178.627,24.669Zm19.982,231.495c3.411,0,6.823,1.462,12.184,4.874,8.772,10.234,1.949,17.545-.487,20.956-2.924,3.9-22.906,12.671-23.393,17.057-.487,5.361,13.159,4.874,13.646,9.26s-5.848,6.823-10.234,10.722-1.949,13.159,1.462,23.881c.975,3.9,2.924,10.722,5.361,17.545-7.31,7.31-14.621,15.108-21.931,22.418-14.133-14.133-31.678-31.191-46.3-45.812a8.483,8.483,0,0,1,7.31-2.437c3.9,1.462,16.57,12.671,22.906,13.646s10.234-.487,10.234-3.411-3.412-11.7-8.772-15.6-11.7-9.747-10.722-14.621c.975-4.386,5.848-12.671,5.848-16.083-.487-2.437-1.462-5.848-1.462-5.848s-1.949-5.361-5.848-.487c-3.412,4.386-14.133,21.444-20.469,28.754a97.59,97.59,0,0,1-6.823,7.8c-1.462-1.462-2.924-3.411-4.386-4.874-3.411-4.386-7.31-9.26-10.722-14.133,2.924-1.949,5.848-3.9,5.848-5.361s2.437-11.209,9.26-14.621c2.437-.975,2.924-.975,3.411,0,2.437,2.924,4.874,1.462,8.772-1.462,8.285-6.823,26.317-28.754,27.292-29.729,1.949-3.412,5.848-8.285,8.285-8.285h.975c1.462.975,1.949,2.437,2.924,4.386,1.462,3.411,3.9,7.31,10.234,7.8,5.361.487,8.285-1.949,10.722-3.9C195.684,257.138,197.146,256.164,198.608,256.164Zm87.724-12.671c-8.772,16.57-18.032,31.678-26.8,45.324l-26.8-20.956-26.8-16.083-2.924.975a21.45,21.45,0,0,0-4.874-.975c-3.411,0-5.848,1.949-7.8,3.411-2.437,1.949-4.386,3.411-8.285,2.924-4.386-.487-5.361-2.437-6.823-5.361a13.822,13.822,0,0,0-3.9-5.361,3.014,3.014,0,0,0-3.411-.975c-4.874.487-9.747,8.285-10.722,10.234-.975.975-19.007,22.418-26.8,29.241-2.437,1.949-2.924,1.949-3.412,2.437v-.487c-1.462-1.462-3.411-2.924-7.8-.975-8.285,3.9-11.209,14.133-11.209,17.545-.487.487-1.949,1.462-3.9,2.924A617.3,617.3,0,0,1,64.1,243.492C26.084,172.338,22.185,57.322,22.185,15.409,57.762,26.131,115.27,32.954,178.139,32.954c62.382,0,116.478-5.848,149.619-16.57C327.758,58.3,323.859,172.826,286.333,243.492Z" transform="translate(-0.61 16.269)" fill="#fff"/>
        <path id="Pfad_795" data-name="Pfad 795" d="M96.792,14.2a4.746,4.746,0,0,0-4.874,3.9c-10.722-.975-21.444-1.949-32.166-2.437-8.772-.487-8.772,14.133.487,14.621,10.722.487,20.956,1.462,31.678,2.437V83.892c-5.361,3.9-10.234,7.31-15.6,11.209-6.336,4.386-2.437,16.57,5.848,13.159.487-.487,1.462-.487,1.949-.975v.487c.487,0,.487-.487.975-.487,2.437-.975,4.386-1.949,6.823-2.924v28.267a4.874,4.874,0,1,0,9.747,0V100.462c13.159-4.874,26.8-9.747,40.451-12.184.975,0,2.924-.487,4.386-.487,0,.487-.487.487-.487.975-7.8,8.772-14.621,19.494-22.418,28.754-28.754,34.115-58.483,67.743-88.212,100.4-6.336,6.823,3.9,17.545,10.234,10.234,37.039-40.451,75.053-80.9,107.706-124.763,7.31-9.747,20.956-28.267-.487-30.7-7.8-.975-16.083,0-24.855,2.437.487-.487.975-.487,1.462-.975,8.772-6.823,33.628-23.393,28.754-37.527C153.325,22.972,125.546,22,114.336,20.536c-4.386-.487-8.285-.975-12.671-1.462A4.6,4.6,0,0,0,96.792,14.2Zm47.274,27.292c.975,1.462-30.7,27.292-37.039,31.678-1.462.975-3.411,2.437-4.874,3.412V33.207C115.311,33.694,138.7,34.669,144.065,41.492Z" transform="translate(74.89 55.005)" fill="#fff"/>
      </g>
    </g>
  </g>
</svg>
