<?xml version="1.0" standalone="no"?>
<!DOCTYPE svg PUBLIC "-//W3C//DTD SVG 1.1//EN" "http://www.w3.org/Graphics/SVG/1.1/DTD/svg11.dtd" >
<svg xmlns="http://www.w3.org/2000/svg" xmlns:xlink="http://www.w3.org/1999/xlink" version="1.1">
<metadata>
Created by FontForge 20170731 at Fri Oct 11 22:59:37 2019
 By Aleksey,,,
Copyright (c) 2019 by Eli Hernandez. All rights reserved.
</metadata>
<defs>
<font id="JazminAlt-SemiBoldIt" horiz-adv-x="0" >
  <font-face 
    font-family="JazminAlt-SemiBoldIt"
    font-weight="600"
    font-style="italic"
    font-stretch="normal"
    units-per-em="1000"
    panose-1="1 0 0 0 0 0 0 0 0 0"
    ascent="800"
    descent="-200"
    x-height="507"
    cap-height="728"
    bbox="-662 -277 2243 967"
    underline-thickness="50"
    underline-position="-200"
    slope="-8"
    unicode-range="U+0020-FB02"
  />
<missing-glyph horiz-adv-x="632" 
d="M117 730h430v-730h-430v730zM182 695l150 -287l150 287h-300zM310 365l-153 292v-584zM355 365l152 -292v584zM332 322l-150 -287h300z" />
    <glyph glyph-name="fi" unicode="fi" horiz-adv-x="655" 
d="M321 745q69 0 104.5 -29t35.5 -70q0 -33 -20 -55t-55 -22q-36 0 -53 32q30 24 30 59q0 57 -49 57q-43 0 -68.5 -36t-25.5 -87q0 -46 25 -71t76 -25h61l-6 -37h-130l-49 -368q-9 -69 10 -93h-189q25 22 34 93l50 368h-57l5 37h58l7 56q13 84 66 137.5t140 53.5zM586 733
q36 0 57 -23.5t17 -57.5q-4 -36 -31 -59t-63 -23t-57 23t-17 59q5 35 31.5 58t62.5 23zM575 93q-10 -66 11 -93h-190q25 22 36 93l42 316q7 67 -13 90q115 6 170 13z" />
    <glyph glyph-name="fl" unicode="fl" horiz-adv-x="655" 
d="M321 745q69 0 104.5 -29t35.5 -70q0 -33 -20 -55t-55 -22q-36 0 -53 32q30 24 30 59q0 57 -49 57q-43 0 -68.5 -36t-25.5 -87q0 -46 25 -71t76 -25h61l-6 -37h-130l-49 -368q-9 -69 10 -93h-189q25 22 34 93l50 368h-57l5 37h58l7 56q13 84 66 137.5t140 53.5zM397 0
q25 21 34 93l74 544q9 66 -11 90q117 6 169 13l-87 -647q-10 -68 10 -93h-189z" />
    <glyph glyph-name=".notdef" horiz-adv-x="632" 
d="M117 730h430v-730h-430v730zM182 695l150 -287l150 287h-300zM310 365l-153 292v-584zM355 365l152 -292v584zM332 322l-150 -287h300z" />
    <glyph glyph-name=".null" 
 />
    <glyph glyph-name="nonmarkingreturn" horiz-adv-x="333" 
 />
    <glyph glyph-name="space" unicode=" " horiz-adv-x="223" 
 />
    <glyph glyph-name="exclam" unicode="!" horiz-adv-x="267" 
d="M115 664q-2 52 21 82.5t70 30.5q92 0 59 -113l-128 -485h-17zM104 -50q-35 0 -57.5 22t-22.5 54q0 39 27.5 66t68.5 27q35 0 57 -21t22 -53q0 -39 -27.5 -67t-67.5 -28z" />
    <glyph glyph-name="quotedbl" unicode="&#x22;" horiz-adv-x="348" 
d="M150 579h-29l-10 253h118zM323 579h-29l-9 253h117z" />
    <glyph glyph-name="numbersign" unicode="#" horiz-adv-x="780" 
d="M785 486h-146l-108 -206h190l-6 -44h-207l-125 -236h-48l124 236h-241l-125 -236h-46l124 236h-144l7 44h160l108 206h-205l7 44h221l102 194h49l-103 -194h241l102 194h49l-102 -194h129zM482 280l109 206h-241l-109 -206h241z" />
    <glyph glyph-name="dollar" unicode="$" horiz-adv-x="539" 
d="M380 733q113 -8 176 -62l-29 -61h-1q-57 77 -153 84l-47 -257q4 -3 26.5 -18.5t28.5 -20.5t25.5 -20t26 -22.5t21 -23t20.5 -27.5t13.5 -28.5t10.5 -34.5t3 -37q0 -95 -69.5 -151t-185.5 -61l-13 -70h-31l13 70q-62 2 -120 20t-86 43l26 60h1q29 -36 79 -59t107 -25
l47 260q-7 5 -34 25.5t-36.5 28.5t-31 27t-30.5 33t-21.5 34t-17 42t-4.5 47q0 94 71.5 149t183.5 56l11 62h31zM218 585q0 -66 81 -128l43 238q-58 -2 -91 -31.5t-33 -78.5zM368 140q0 67 -72 130l-43 -237q54 4 84.5 32t30.5 75z" />
    <glyph glyph-name="percent" unicode="%" horiz-adv-x="944" 
d="M244 341q-76 0 -125.5 48t-49.5 126q0 93 65 156t153 63q75 0 124.5 -47.5t49.5 -122.5q0 -92 -64.5 -157.5t-152.5 -65.5zM232 0h-48l561 724h49zM243 371q50 0 82 70t32 151q0 53 -19 83t-51 30q-54 0 -84 -69.5t-30 -152.5q0 -53 18.5 -82.5t51.5 -29.5zM690 -7
q-77 0 -126 47.5t-49 126.5q0 93 64.5 156t153.5 63q75 0 124 -47t49 -123q0 -92 -64 -157.5t-152 -65.5zM688 22q50 0 82 70.5t32 151.5q0 53 -19 83t-50 30q-37 0 -64.5 -36t-39 -85.5t-11.5 -101.5t19 -82t51 -30z" />
    <glyph glyph-name="ampersand" unicode="&#x26;" horiz-adv-x="741" 
d="M664 103q39 0 78 13q-6 -48 -48 -84.5t-102 -36.5q-73 0 -136 55q-105 -54 -218 -54q-230 0 -230 163q0 44 18 82t43 62.5t64.5 46.5t68.5 33.5t70 24.5q-16 70 -16 119q0 100 60 153t161 53q81 0 120.5 -33t39.5 -86q0 -71 -63 -125.5t-148 -85.5q14 -56 26 -85
q46 -105 93 -155q51 62 51 119q0 55 -27 75q35 61 82 61q53 0 53 -57q0 -51 -38.5 -112t-94.5 -109q42 -34 93 -37zM494 694q-43 0 -65 -40.5t-22 -98.5q0 -44 12 -113q54 22 91 76t37 111q0 65 -53 65zM153 187q0 -141 149 -141q63 0 124 35q-52 58 -97 156q-30 62 -49 138
q-127 -53 -127 -188z" />
    <glyph glyph-name="quotesingle" unicode="'" horiz-adv-x="176" 
d="M154 579h-30l-13 253h120z" />
    <glyph glyph-name="parenleft" unicode="(" horiz-adv-x="320" 
d="M269 -83q-105 70 -161 157t-56 219q0 165 88 288t240 201l11 -22q-95 -75 -152.5 -206t-57.5 -268q0 -219 109 -347z" />
    <glyph glyph-name="parenright" unicode=")" horiz-adv-x="321" 
d="M88 782q68 -45 112.5 -92.5t74.5 -120.5t30 -163q0 -164 -88 -287t-240 -202l-12 23q95 75 153 205.5t58 267.5q0 220 -109 347z" />
    <glyph glyph-name="asterisk" unicode="*" horiz-adv-x="446" 
d="M423 672q18 0 27.5 -11t7.5 -27q0 -32 -33 -48q-9 -4 -22.5 -7t-46 -10t-67.5 -15q34 -9 63.5 -16.5t41 -10t18.5 -5.5q28 -10 26 -40q0 -18 -13.5 -32.5t-33.5 -14.5q-12 0 -22.5 6.5t-19 16t-30.5 34t-44 47.5q4 -33 8 -64t5.5 -44t1.5 -21q-2 -21 -15 -33.5t-35 -12.5
q-20 0 -30.5 12t-9.5 31q0 10 6 24.5t20 46t25 60.5q-27 -22 -55.5 -46.5t-39.5 -34t-23.5 -16t-24.5 -6.5q-17 0 -26.5 11t-8.5 27q0 32 35 48q7 4 20 7t46.5 10t68.5 16q-33 8 -64 15t-43 10t-19 6q-26 13 -24 40q0 18 13.5 32.5t33.5 14.5q9 0 16.5 -3t17.5 -12
t18.5 -19.5t27.5 -31t38 -40.5q-4 37 -9 69t-7 46.5t-2 20.5q1 25 15.5 39t36.5 14q20 0 30 -10.5t9 -28.5q0 -13 -10 -36.5t-25 -57t-23 -58.5q25 20 50 41.5t36.5 31.5t24 19.5t21 12.5t18.5 3z" />
    <glyph glyph-name="plus" unicode="+" horiz-adv-x="378" 
d="M359 326l-6 -44h-137l-20 -145h-49l20 145h-129l6 44h129l19 138h48l-19 -138h138z" />
    <glyph glyph-name="comma" unicode="," horiz-adv-x="254" 
d="M0 -172l-8 18v1q89 34 121 144q-9 -4 -26 -4q-30 0 -51 21.5t-21 56.5q0 39 26.5 66.5t68.5 27.5q35 0 57.5 -23.5t22.5 -65.5q0 -74 -54.5 -143.5t-135.5 -98.5z" />
    <glyph glyph-name="hyphen" unicode="-" horiz-adv-x="454" 
d="M67 325l6 39h347l-6 -39h-347z" />
    <glyph glyph-name="period" unicode="." horiz-adv-x="248" 
d="M89 -13q-35 0 -57 22t-22 54q0 39 27.5 66t67.5 27q35 0 57 -22t22 -54q0 -39 -27.5 -66t-67.5 -27z" />
    <glyph glyph-name="slash" unicode="/" horiz-adv-x="540" 
d="M25 0h-48l562 724h49z" />
    <glyph glyph-name="zero" unicode="0" horiz-adv-x="689" 
d="M310 -7q-115 0 -187.5 81.5t-72.5 224.5q0 114 45.5 213.5t130 160.5t187.5 61q114 0 186.5 -80.5t72.5 -221.5q0 -115 -45 -215t-129 -162t-188 -62zM315 30q46 0 85 48t63 121.5t37.5 154t13.5 152.5q0 191 -106 191q-47 0 -86.5 -47t-63.5 -119t-37 -152.5t-13 -152.5
q0 -99 28.5 -147.5t78.5 -48.5z" />
    <glyph glyph-name="one" unicode="1" horiz-adv-x="316" 
d="M211 96q-7 -72 18 -96h-205q29 22 39 96l66 471q6 42 3.5 67t-17.5 40v5l182 61h4z" />
    <glyph glyph-name="two" unicode="2" horiz-adv-x="577" 
d="M465 167q55 20 68 46h3l-69 -213h-459l8 60q76 63 142 125.5t130 136t101.5 146t37.5 132.5q0 46 -25 70.5t-71 24.5q-58 0 -92.5 -34.5t-34.5 -89.5q0 -36 21 -63q-29 -37 -76 -37q-32 0 -51 20.5t-19 57.5q0 86 79.5 135.5t190.5 49.5t169 -43.5t58 -125.5
q0 -53 -30 -108t-74 -101t-114 -100t-128 -92.5t-139 -89.5q-14 -9 -21 -13q230 21 395 106z" />
    <glyph glyph-name="three" unicode="3" horiz-adv-x="565" 
d="M363 400q75 -15 120 -60t45 -113q0 -110 -80 -172t-219 -62q-90 0 -146.5 36.5t-56.5 107.5q0 43 23.5 71.5t60.5 28.5q45 0 65 -39q-41 -35 -41 -81q0 -38 27 -59.5t71 -21.5q72 0 110.5 51.5t38.5 144.5q0 71 -40 107t-117 30l-29 -2v7l54 27q161 76 161 206
q0 88 -83 88q-49 0 -79.5 -30.5t-30.5 -79.5q0 -34 22 -56q-30 -39 -75 -39q-28 0 -45.5 19t-17.5 53q0 73 72.5 122.5t176.5 49.5q98 0 152 -40t54 -106q0 -69 -55 -117t-138 -71z" />
    <glyph glyph-name="four" unicode="4" horiz-adv-x="536" 
d="M427 154l-8 -58q-9 -69 13 -96h-196q25 24 34 93l9 61l-276 1l11 58q107 72 200 188.5t93 209.5q0 59 -46 74q24 49 71 49q26 0 41.5 -18t15.5 -50q0 -111 -107.5 -247t-229.5 -217h233l17 121q47 53 79 103.5t63 135.5h39l-49 -360h94l-6 -48h-95z" />
    <glyph glyph-name="five" unicode="5" horiz-adv-x="554" 
d="M350 577q-80 0 -141 25l-55 -212q81 37 173 37q86 0 140.5 -49.5t54.5 -136.5q0 -114 -84.5 -181t-209.5 -67q-98 0 -152.5 41t-54.5 112q0 49 29 81.5t75 32.5q53 0 73 -50q-62 -29 -62 -95q0 -37 24.5 -60t68.5 -23q69 0 106 56.5t37 139.5q0 68 -33.5 109t-95.5 41
q-59 0 -148 -42l-1 1l98 393h2q92 -50 181 -50q126 0 200 47h3q-21 -83 -71 -116.5t-157 -33.5z" />
    <glyph glyph-name="six" unicode="6" horiz-adv-x="615" 
d="M449 519q19 15 30 43t11 53q0 39 -21 60.5t-61 21.5q-81 0 -128.5 -86.5t-72.5 -278.5q30 50 81 77.5t110 27.5q76 0 128.5 -46.5t52.5 -131.5q0 -118 -80.5 -192t-207.5 -74q-123 0 -183.5 72.5t-60.5 205.5q0 119 44 223.5t128.5 172t191.5 67.5q90 1 143 -38t53 -109
q0 -46 -25.5 -77.5t-67.5 -31.5q-46 0 -65 41zM340 380q-84 0 -138 -95q-7 -60 -7 -89q0 -166 98 -166q64 0 101.5 71t37.5 159q0 56 -24.5 88t-67.5 32z" />
    <glyph glyph-name="seven" unicode="7" horiz-adv-x="514" 
d="M115 729h458l-8 -63q-136 -126 -211 -272.5t-76 -266.5q-1 -56 14 -107q-38 -27 -89 -27q-42 0 -64 24t-22 69q0 115 115.5 282.5t283.5 297.5q-161 -7 -294 -49t-171 -97h-4z" />
    <glyph glyph-name="eight" unicode="8" horiz-adv-x="581" 
d="M451 393q58 -41 84 -77t26 -92q0 -105 -83 -168t-208 -63q-101 0 -160.5 42.5t-59.5 118.5q0 132 179 211l-10 7q-88 61 -88 152q0 94 74 152t186 58q98 0 148 -40t50 -106q0 -116 -157 -184zM379 696q-56 0 -93 -35.5t-37 -87.5q0 -59 53 -91l109 -65q34 32 54.5 79.5
t20.5 92.5q0 46 -28 76.5t-79 30.5zM282 32q67 0 108 37.5t41 97.5q0 64 -66 108l-115 77q-43 -40 -67.5 -93.5t-24.5 -106.5q0 -58 33.5 -89t90.5 -31z" />
    <glyph glyph-name="nine" unicode="9" horiz-adv-x="621" 
d="M363 734q123 0 183 -72.5t60 -205.5q0 -119 -43.5 -223.5t-128 -172t-191.5 -67.5q-90 -1 -143 38t-53 109q0 46 25.5 77.5t66.5 31.5q46 0 65 -41q-19 -15 -29.5 -43t-10.5 -53q0 -39 21 -60.5t60 -21.5q82 0 129 86.5t73 279.5q-31 -52 -81.5 -79t-109.5 -27
q-77 0 -129 46t-52 132q0 118 80.5 192t207.5 74zM314 347q82 0 137 94q7 50 7 90q0 166 -97 166q-64 0 -101.5 -71t-37.5 -159q0 -56 24.5 -88t67.5 -32z" />
    <glyph glyph-name="colon" unicode=":" horiz-adv-x="277" 
d="M150 292q-35 0 -57 21.5t-22 53.5q0 39 27.5 66t67.5 27q35 0 57 -21.5t22 -54.5q0 -38 -27.5 -65t-67.5 -27zM107 -13q-35 0 -57 21.5t-22 54.5q0 39 27.5 66t67.5 27q35 0 57 -22t22 -54q0 -39 -27.5 -66t-67.5 -27z" />
    <glyph glyph-name="semicolon" unicode=";" horiz-adv-x="254" 
d="M138 286q-35 0 -57 22t-22 54q0 39 27.5 66t67.5 27q35 0 57 -22t22 -54q0 -39 -27.5 -66t-67.5 -27zM0 -172l-8 18v1q89 34 121 144q-9 -4 -26 -4q-30 0 -51 21.5t-21 56.5q0 39 26.5 66.5t68.5 27.5q35 0 57.5 -23.5t22.5 -65.5q0 -74 -54.5 -143.5t-135.5 -98.5z" />
    <glyph glyph-name="less" unicode="&#x3c;" horiz-adv-x="412" 
d="M394 463l-7 -45l-276 -127l243 -127l-7 -46l-305 152l7 43z" />
    <glyph glyph-name="equal" unicode="=" horiz-adv-x="426" 
d="M71 366h315l-5 -45h-315zM57 255h315l-6 -45h-316z" />
    <glyph glyph-name="greater" unicode="&#x3e;" horiz-adv-x="412" 
d="M88 465l305 -151l-7 -43l-345 -151l7 45l275 128l-241 126z" />
    <glyph glyph-name="question" unicode="?" horiz-adv-x="536" 
d="M217 180q6 55 26.5 105.5t45.5 88.5t49.5 73.5t40.5 75.5t16 81q0 40 -23 65.5t-67 25.5q-50 0 -80.5 -31.5t-30.5 -76.5q0 -39 18 -66q-28 -37 -75 -37q-30 0 -49 20t-19 55q0 82 75 128.5t181 46.5q114 0 172.5 -44.5t58.5 -117.5q0 -39 -21 -74t-53 -60t-70 -54
t-71.5 -55.5t-59 -65.5t-30.5 -83h-34zM206 -50q-36 0 -58 22t-22 54q0 39 27.5 66t68.5 27q35 0 57 -21t22 -53q0 -39 -27.5 -67t-67.5 -28z" />
    <glyph glyph-name="at" unicode="@" horiz-adv-x="824" 
d="M687 24h2l22 -24q-3 -3 -27 -32t-37.5 -42.5t-46.5 -40t-63.5 -39.5t-78.5 -24.5t-101 -11.5q-154 0 -244 97t-90 256q0 130 57.5 242t163.5 181t236 69q142 0 232.5 -84.5t90.5 -226.5q0 -135 -82.5 -226.5t-207.5 -91.5q-61 0 -103 45q-38 -24 -63 -34.5t-61 -10.5
q-55 0 -84 34.5t-29 90.5q0 105 89 197.5t184 92.5q38 0 61.5 -17.5t30.5 -42.5l31 64l85 -1l-141 -315q-20 -50 38 -50q80 0 142.5 79t62.5 169q0 78 -45.5 135.5t-108.5 83t-131 25.5q-175 0 -287 -111.5t-112 -278.5q0 -141 80.5 -214.5t215.5 -73.5q113 0 185.5 33
t133.5 98zM270 139q0 -35 14 -55.5t40 -20.5q49 0 90 55l100 217q8 25 -9 47t-44 22q-43 0 -88.5 -44t-74 -106.5t-28.5 -114.5z" />
    <glyph glyph-name="A" unicode="A" horiz-adv-x="635" 
d="M397 0q19 11 21.5 31t-3.5 50l-19 119h-281l-53 -118q-11 -25 -15 -38t-2.5 -24.5t11.5 -19.5h-94q10 5 17 11.5t13 16t9 15t9 19.5t9 20l289 647h153l112 -646q0 -1 1.5 -10.5t2 -11t2 -9.5t2.5 -10.5t3 -9t4 -9.5l5 -7.5t7 -8.5t9 -7h-212zM132 239h258l-67 430z" />
    <glyph glyph-name="B" unicode="B" horiz-adv-x="637" 
d="M461 419q63 -15 102 -61t39 -116q0 -118 -84 -180t-229 -62h-266q30 22 40 96l74 536q9 72 -14 96h310q93 0 141.5 -36t48.5 -104q0 -63 -45 -108.5t-117 -60.5zM354 703h-59l-38 -273h74q68 0 102.5 44.5t34.5 117.5q0 59 -28.5 85t-85.5 26zM270 25q88 0 133 64.5
t45 163.5q0 72 -31.5 112.5t-90.5 40.5h-72l-53 -381h69z" />
    <glyph glyph-name="C" unicode="C" horiz-adv-x="619" 
d="M439 694q-75 0 -129 -68.5t-78 -166t-24 -205.5q0 -112 43.5 -166.5t120.5 -54.5q48 0 84 17t82 55h1l19 -50q-83 -62 -197 -62q-155 0 -233.5 90.5t-78.5 226.5q0 175 114 299.5t280 124.5q86 0 144 -34t58 -88q0 -41 -21 -65t-57 -24q-45 0 -69 37q23 25 23 61
q0 33 -21.5 53t-60.5 20z" />
    <glyph glyph-name="D" unicode="D" horiz-adv-x="694" 
d="M367 728q148 0 229 -79.5t81 -220.5q0 -192 -113 -310t-299 -118h-243q31 26 41 96l74 536q9 71 -14 96h244zM265 38q63 0 113 37.5t80 99t45.5 135t15.5 151.5q0 116 -43 172.5t-119 56.5h-64l-90 -652h62z" />
    <glyph glyph-name="E" unicode="E" horiz-adv-x="552" 
d="M582 728l-9 -77h-2q-21 38 -100 38h-178l-38 -272h136q63 0 89 23l-10 -83q-22 23 -83 23h-137l-47 -341h185q80 0 110 38h2l-10 -77h-467q29 23 39 96l74 536q11 71 -13 96h459z" />
    <glyph glyph-name="F" unicode="F" horiz-adv-x="526" 
d="M572 728l-9 -77h-2q-21 38 -100 38h-168l-38 -275h131q61 0 90 23l-11 -83q-22 23 -84 23h-131l-39 -281q-10 -70 15 -96h-201q28 23 38 96l74 536q10 72 -14 96h449z" />
    <glyph glyph-name="G" unicode="G" horiz-adv-x="690" 
d="M449 697q-78 0 -134.5 -69t-81 -169.5t-24.5 -217.5q0 -211 143 -211q66 0 125 46l23 159q11 77 -21 105h195q-40 -28 -50 -105l-23 -163q-119 -79 -262 -79q-144 0 -217 90.5t-73 223.5q0 113 53.5 211.5t147 157t204.5 58.5q92 0 149 -34t57 -91q0 -38 -21 -61.5
t-58 -23.5q-43 0 -66 36q25 24 25 57q0 34 -23.5 57t-67.5 23z" />
    <glyph glyph-name="H" unicode="H" horiz-adv-x="743" 
d="M551 728h200q-30 -26 -40 -96l-74 -536q-10 -71 14 -96h-201q28 24 38 96l40 288h-279l-40 -288q-10 -70 14 -96h-201q29 24 39 96l74 536q10 73 -12 96h200q-30 -26 -40 -96l-29 -211h279l30 211q10 71 -12 96z" />
    <glyph glyph-name="I" unicode="I" horiz-adv-x="322" 
d="M212 96q-7 -72 18 -96h-205q29 23 39 96l75 536q8 71 -15 96h203q-30 -24 -40 -96z" />
    <glyph glyph-name="J" unicode="J" horiz-adv-x="459" 
d="M470 728q-30 -26 -40 -96l-62 -456q-11 -89 -63.5 -136t-141.5 -47q-80 0 -120 44.5t-29 122.5l23 11h1q-5 -41 16 -73.5t71 -32.5q42 0 64 23t30 80l63 464q10 72 -13 96h201z" />
    <glyph glyph-name="K" unicode="K" horiz-adv-x="640" 
d="M561 111q1 -3 7.5 -18t10 -22l10.5 -21t12 -21.5t12.5 -16t14.5 -12.5h-182l-139 335l-76 -83l-21 -156q-10 -71 14 -96h-201q29 24 39 96l73 536q12 70 -12 96h201q-32 -27 -41 -96l-42 -309l322 346q14 14 15.5 31t-11.5 28h100l-254 -277z" />
    <glyph glyph-name="L" unicode="L" horiz-adv-x="529" 
d="M494 77h1l-10 -77h-462q29 24 39 96l73 536q10 73 -12 96h200q-29 -25 -39 -96l-81 -593h180q81 0 111 38z" />
    <glyph glyph-name="M" unicode="M" horiz-adv-x="851" 
d="M707 728h153q-29 -24 -39 -96l-74 -536q-10 -71 12 -96h-201q31 24 41 96l64 466l-301 -562h-42l-148 590l-68 -494q-9 -69 13 -96h-95q29 24 39 96l75 536q10 72 -13 96h162l136 -535z" />
    <glyph glyph-name="N" unicode="N" horiz-adv-x="689" 
d="M602 728h96q-28 -24 -38 -96l-88 -632h-62l-344 537l-61 -441q-8 -70 13 -96h-95q29 24 39 96l75 536q10 72 -14 96h93l343 -523l58 427q10 72 -15 96z" />
    <glyph glyph-name="O" unicode="O" horiz-adv-x="768" 
d="M451 734q135 0 218.5 -83t83.5 -221q0 -181 -116 -309t-287 -128q-135 0 -218.5 85t-83.5 227q0 179 116 304t287 125zM446 695q-58 0 -105 -43.5t-74.5 -112t-42 -143.5t-14.5 -147q0 -110 39.5 -163.5t106.5 -53.5q57 0 103.5 44.5t74.5 113.5t42.5 145t14.5 147
q0 107 -39.5 160t-105.5 53z" />
    <glyph glyph-name="P" unicode="P" horiz-adv-x="637" 
d="M357 728q288 0 288 -205q0 -133 -94.5 -198.5t-260.5 -65.5h-58l-22 -163q-9 -71 13 -96h-201q30 24 40 96l73 536q11 72 -12 96h234zM272 282q107 0 161.5 70.5t54.5 188.5q0 88 -39 124.5t-119 36.5h-38l-57 -420h37z" />
    <glyph glyph-name="Q" unicode="Q" horiz-adv-x="769" 
d="M748 368q-17 -128 -89.5 -221.5t-178.5 -131.5q18 -44 39.5 -68.5t54.5 -24.5q32 0 59 16h1q-15 -126 -113 -126q-26 0 -46 10.5t-32.5 27t-22.5 42t-15 49t-9 55.5q-22 -3 -46 -3q-150 0 -235 104t-62 271q22 163 135 264.5t263 101.5t235 -101.5t62 -264.5zM583 368
q23 169 -17 254t-120 85t-142.5 -84.5t-85.5 -254.5q-19 -147 6 -232q13 40 40 62.5t63 22.5q22 0 41 -10t31 -22.5t25 -37t19.5 -40.5t17.5 -47q92 84 122 304zM356 20q16 0 36 5l-5.5 44t-5.5 37.5t-8.5 36t-11.5 25t-16.5 20t-22.5 5.5q-56 0 -70 -92q-2 -14 -2 -23
q38 -58 106 -58z" />
    <glyph glyph-name="R" unicode="R" horiz-adv-x="660" 
d="M568 117q7 -24 27 -63t42 -54h-209q6 9 8.5 19t0 23t-4.5 19t-9 24t-9 22l-90 231h-24h-56l-33 -242q-10 -70 13 -96h-201q30 22 40 96l74 536q10 72 -14 96h233q154 0 219.5 -39t65.5 -130q0 -68 -45.5 -119t-125.5 -77zM294 362q88 0 138.5 53t50.5 145
q0 76 -38.5 108.5t-129.5 32.5h-21l-46 -339h46z" />
    <glyph glyph-name="S" unicode="S" horiz-adv-x="538" 
d="M352 734q93 0 140.5 -29t47.5 -75q0 -33 -21 -54.5t-54 -21.5q-43 0 -68 37q20 18 22 42q2 27 -19 44.5t-65 17.5q-57 0 -89.5 -30t-32.5 -83q0 -32 16 -60t41.5 -49t56 -41t61 -42t56 -47t41.5 -61t16 -78q0 -101 -75.5 -156t-193.5 -55q-99 0 -159 31.5t-60 89.5
q0 34 21 56t53 22q42 0 67 -36q-21 -17 -21 -45q-2 -32 25 -55.5t80 -23.5q60 0 96 31t36 85q0 44 -29 79.5t-70 63t-82 57t-70 75t-29 103.5q0 95 74 151.5t188 56.5z" />
    <glyph glyph-name="T" unicode="T" horiz-adv-x="573" 
d="M626 728l-9 -77h-3q-20 38 -98 38h-93l-82 -593q-10 -70 13 -96h-201q29 23 39 96l82 593h-93q-79 0 -109 -38h-1l9 77h546z" />
    <glyph glyph-name="U" unicode="U" horiz-adv-x="679" 
d="M695 728q-30 -26 -40 -96l-51 -370q-37 -269 -275 -269q-285 0 -246 284l49 355q10 71 -14 96h202q-30 -26 -40 -96l-50 -359q-17 -123 15 -177.5t119 -54.5q167 0 197 223l51 368q10 71 -15 96h98z" />
    <glyph glyph-name="V" unicode="V" horiz-adv-x="621" 
d="M598 728h99q-12 -6 -22 -18.5t-15 -20.5t-12.5 -25t-8.5 -19l-290 -645h-147l-112 644q-8 68 -32 84h209q-20 -10 -23.5 -30.5t2.5 -47.5l95 -575l259 575q25 58 -2 78z" />
    <glyph glyph-name="W" unicode="W" horiz-adv-x="937" 
d="M929 728h84q-6 -4 -11.5 -8.5t-10 -11t-7.5 -10.5t-7 -13t-5.5 -12t-5.5 -13t-5 -11l-272 -649h-144l-44 382l-167 -382h-146l-101 646q0 1 -1 9.5t-1.5 10.5t-1.5 10t-2.5 11t-3.5 10t-4.5 11t-6.5 9.5t-9 10.5h200q-31 -18 -21 -77l88 -608l171 391l-25 214
q-8 58 -34 80h200q-25 -16 -18 -77l62 -602l252 602q10 23 13 34.5t0 23.5t-16 19z" />
    <glyph glyph-name="X" unicode="X" horiz-adv-x="624" 
d="M571 728h107q-14 -6 -27.5 -18t-21 -20.5t-20.5 -25.5t-17 -22l-191 -245l131 -303q2 -5 7.5 -19t9.5 -21.5t10 -18.5t14 -19.5t18 -15.5h-220q12 10 13.5 25t-2 25t-13.5 32l-96 224l-173 -220q-46 -60 -21 -86h-115q36 21 90 91l201 255l-128 298q-2 5 -7.5 17.5
t-8.5 18.5t-9 15.5t-14 17.5t-18 15h220q-12 -10 -13.5 -24t2 -24.5t14.5 -33.5l91 -209l164 207q11 14 17.5 24t11.5 21.5t3.5 21t-9.5 17.5z" />
    <glyph glyph-name="Y" unicode="Y" horiz-adv-x="628" 
d="M591 728h110q-7 -3 -13 -7.5t-12.5 -11.5t-11 -11.5t-11 -14.5t-9 -13.5t-9.5 -14.5t-8 -12l-233 -363l-26 -184q-10 -70 12 -96h-213q29 24 39 96l26 184l-122 364q-20 64 -48 84h217q-20 -14 -21.5 -36.5t8.5 -44.5l109 -321l209 320q37 55 7 82z" />
    <glyph glyph-name="Z" unicode="Z" horiz-adv-x="561" 
d="M597 728l-5 -40l-429 -648l259 -1q67 0 95 28h1l-9 -67h-516l6 40l429 648l-238 1q-68 0 -95 -27h-1l9 66h494z" />
    <glyph glyph-name="bracketleft" unicode="[" horiz-adv-x="370" 
d="M438 746h-127l-104 -792h126l-4 -33h-255l112 859l255 -1z" />
    <glyph glyph-name="backslash" unicode="\" horiz-adv-x="541" 
d="M131 724l363 -724h-49l-363 724h49z" />
    <glyph glyph-name="bracketright" unicode="]" horiz-adv-x="370" 
d="M-37 -46h127l103 793h-126l5 32h255l-113 -858l-254 1z" />
    <glyph glyph-name="asciicircum" unicode="^" horiz-adv-x="406" 
d="M445 559h-96l-54 115l-85 -115h-98l128 183h126z" />
    <glyph glyph-name="underscore" unicode="_" horiz-adv-x="484" 
d="M-12 -51l6 40h429l-6 -40h-429z" />
    <glyph glyph-name="grave" unicode="`" horiz-adv-x="220" 
d="M273 579h-24l-140 167v1h143z" />
    <glyph glyph-name="a" unicode="a" horiz-adv-x="529" 
d="M490 309l-33 -241q-7 -51 5 -68h-145l2 68q-78 -75 -167 -75q-64 0 -102 34.5t-38 100.5q0 75 53.5 121t148.5 46q73 0 124 -41l14 106q9 68 -6 98t-64 30q-38 0 -61.5 -24t-23.5 -59q0 -17 11 -34q-31 -36 -76 -36q-23 0 -39 14t-16 41q0 57 62.5 91.5t146.5 34.5
q120 0 169 -48t35 -159zM156 146q-2 -38 18.5 -62t56.5 -24q46 0 86 36l15 117q-23 36 -77 36q-48 0 -73.5 -29.5t-25.5 -73.5z" />
    <glyph glyph-name="b" unicode="b" horiz-adv-x="580" 
d="M393 516q74 0 118 -56t44 -150q0 -140 -60.5 -228.5t-166.5 -88.5q-110 0 -145 102l-24 -95h-156q26 25 35 93l76 545q5 29 3 52.5t-15 37.5q146 11 170 14l-44 -321q60 95 165 95zM273 66q67 0 101.5 72t34.5 171q0 134 -85 134q-29 0 -56.5 -17t-45.5 -46l-34 -243
q22 -71 85 -71z" />
    <glyph glyph-name="c" unicode="c" horiz-adv-x="505" 
d="M324 516q86 0 133 -30.5t47 -77.5q0 -30 -20 -49.5t-50 -19.5q-44 0 -68 37q23 17 23 54q0 25 -16 41t-48 16q-46 0 -81 -44.5t-50.5 -108.5t-15.5 -134q0 -84 32.5 -124.5t80.5 -40.5q70 0 143 71h1l16 -46q-87 -67 -198 -67q-105 0 -166 58t-61 158q0 128 85.5 217.5
t212.5 89.5z" />
    <glyph glyph-name="d" unicode="d" horiz-adv-x="578" 
d="M499 93q-9 -68 8 -93h-159l5 89q-60 -96 -163 -96q-74 0 -119 57t-45 153q0 137 61 225t166 88q107 0 145 -99l31 221q7 67 -11 90q143 11 169 14zM257 66q29 0 56.5 17t44.5 45l35 248q-23 67 -86 67q-66 0 -100.5 -71.5t-34.5 -167.5q0 -138 85 -138z" />
    <glyph glyph-name="e" unicode="e" horiz-adv-x="533" 
d="M321 516q102 0 149 -61t43 -158q-3 -36 -5 -48h-329q-3 -29 -3 -54q0 -79 30.5 -119.5t84.5 -40.5q83 0 161 76h1l16 -46q-85 -72 -212 -72q-107 0 -169 57.5t-62 157.5q0 129 85.5 218.5t209.5 89.5zM185 287h197q5 34 5 65q5 62 -11.5 98.5t-56.5 36.5q-48 0 -83 -58.5
t-51 -141.5z" />
    <glyph glyph-name="f" unicode="f" horiz-adv-x="339" 
d="M321 745q69 0 104.5 -29t35.5 -70q0 -33 -20 -55t-55 -22q-36 0 -53 32q30 24 30 59q0 57 -49 57q-43 0 -68.5 -36t-25.5 -87q0 -46 25 -71t76 -25h61l-6 -37h-130l-49 -368q-9 -69 10 -93h-189q25 22 34 93l50 368h-57l5 37h58l7 56q13 84 66 137.5t140 53.5z" />
    <glyph glyph-name="g" unicode="g" horiz-adv-x="530" 
d="M582 563q0 -37 -37.5 -65t-95.5 -39q42 -45 42 -114q0 -100 -70.5 -167t-179.5 -67q-47 0 -86 14q-47 -34 -47 -84q0 -64 68 -64q38 0 103.5 24t104.5 24q49 0 79.5 -28t30.5 -75q0 -42 -26 -74t-64 -32q-21 0 -31 11q19 16 19 36q0 42 -47 42q-35 0 -112 -25t-128 -25
q-53 0 -86 31.5t-33 80.5q0 55 37 94t102 79q-77 46 -77 147q0 100 69.5 164.5t178.5 64.5q77 0 129 -36q21 6 34 22t13 34q0 25 -16 34q33 40 76 40q50 0 50 -47zM245 138q50 0 81.5 80t31.5 163q0 51 -17.5 79.5t-47.5 28.5q-49 0 -80.5 -80.5t-31.5 -161.5
q0 -52 17 -80.5t47 -28.5z" />
    <glyph glyph-name="h" unicode="h" horiz-adv-x="576" 
d="M531 315l-30 -222q-9 -68 8 -93h-188q26 23 35 93l32 239q16 110 -66 110q-34 0 -60.5 -16t-37.5 -35l-42 -298q-9 -69 10 -93h-188q26 26 35 93l75 551q7 66 -11 89q93 5 162 14l-45 -323q69 92 171 92q167 0 140 -201z" />
    <glyph glyph-name="i" unicode="i" horiz-adv-x="261" 
d="M192 733q36 0 57.5 -23t17.5 -58q-4 -36 -31 -59t-64 -23q-36 0 -56.5 23t-16.5 59q4 35 30 58t63 23zM181 93q-9 -68 12 -93h-190q26 23 35 93l43 316q7 67 -13 90q117 6 170 13z" />
    <glyph glyph-name="j" unicode="j" horiz-adv-x="258" 
d="M189 734q34 0 55.5 -20t20.5 -53q-1 -39 -28 -64.5t-66 -25.5q-33 0 -54 20t-20 53q1 37 26.5 63.5t65.5 26.5zM66 492q90 3 169 20l-74 -559q-21 -160 -156 -160q-31 0 -54.5 9.5t-37.5 27t-21 31t-13 33.5l5 4q25 -31 64 -31q30 0 46.5 18.5t21.5 60.5l63 463
q7 57 -13 83z" />
    <glyph glyph-name="k" unicode="k" horiz-adv-x="537" 
d="M454 111q3 -6 11 -28t13.5 -33.5t16 -26.5t22.5 -23h-204q4 3 6.5 6.5t3.5 8t1.5 8.5t-0.5 10.5t-2.5 11.5t-4 13t-4.5 13t-5.5 14.5t-5.5 15.5l-52 141l-53 -49l-13 -100q-10 -67 10 -93h-189q24 20 35 93l73 544q9 66 -11 90q115 6 169 13l-65 -485l210 193
q47 41 31 60h109q-11 -3 -21 -8t-21.5 -14t-16.5 -13.5t-18.5 -17t-14.5 -13.5l-105 -98z" />
    <glyph glyph-name="l" unicode="l" horiz-adv-x="264" 
d="M5 0q24 20 35 93l73 544q9 66 -11 90q115 6 169 13l-87 -647q-10 -67 10 -93h-189z" />
    <glyph glyph-name="m" unicode="m" horiz-adv-x="882" 
d="M839 329l-33 -236q-7 -68 9 -93h-187q23 23 34 93l33 239q15 110 -64 110q-33 0 -60 -22.5t-40 -47.5q-2 -29 -4 -43l-32 -236q-10 -67 7 -93h-187q24 23 35 93l32 239q15 110 -63 110q-34 0 -59.5 -18t-37.5 -40l-41 -291q-10 -68 8 -93h-187q23 23 34 93l42 311
q10 63 -8 89q129 10 161 15l-13 -89q72 97 178 97q119 0 132 -106q77 106 181 106q157 0 130 -187z" />
    <glyph glyph-name="n" unicode="n" horiz-adv-x="575" 
d="M530 315l-30 -222q-9 -68 8 -93h-188q26 23 35 93l32 239q15 110 -66 110q-34 0 -60.5 -16t-37.5 -35l-42 -298q-9 -69 10 -93h-188q25 25 35 93l42 311q8 64 -10 89q130 10 161 15l-11 -84q69 92 170 92q167 0 140 -201z" />
    <glyph glyph-name="o" unicode="o" horiz-adv-x="573" 
d="M325 516q108 0 167 -58.5t59 -157.5q0 -130 -85 -218.5t-213 -88.5q-108 0 -167.5 57.5t-59.5 156.5q0 131 85.5 220t213.5 89zM321 487q-35 0 -64 -35.5t-46.5 -89t-27 -109t-9.5 -100.5q0 -131 84 -131q34 0 63 36.5t46 90.5t26.5 110.5t9.5 101.5q0 126 -82 126z" />
    <glyph glyph-name="p" unicode="p" horiz-adv-x="578" 
d="M391 516q74 0 118 -56t44 -150q0 -140 -60.5 -228.5t-165.5 -88.5q-108 0 -146 101l-27 -199q-9 -69 8 -93h-189q26 26 34 91l71 511q8 63 -8 90q142 11 161 14l-13 -99q63 107 173 107zM271 66q67 0 101.5 72t34.5 171q0 134 -85 134q-62 0 -102 -62l-34 -245
q23 -70 85 -70z" />
    <glyph glyph-name="q" unicode="q" horiz-adv-x="571" 
d="M539 415l-70 -510q-11 -74 13 -103h-194q25 25 34 93l26 185q-62 -87 -158 -87q-74 0 -119.5 56.5t-45.5 153.5q0 137 61 225t167 88q104 0 143 -91l19 83h157q-24 -24 -33 -93zM256 66q58 0 97 55l36 262q-10 28 -32.5 44t-49.5 16q-45 0 -77 -37t-45.5 -89t-13.5 -113
q0 -138 85 -138z" />
    <glyph glyph-name="r" unicode="r" horiz-adv-x="461" 
d="M369 516q52 0 82 -30.5t30 -71.5q0 -46 -24 -71.5t-58 -25.5q-47 0 -68 34q22 18 24 45q2 20 -9 33t-34 13q-30 0 -54.5 -19.5t-36.5 -42.5l-39 -287q-9 -70 9 -93h-188q25 24 34 93l42 311q9 63 -9 89q123 10 161 15l-13 -88q63 96 151 96z" />
    <glyph glyph-name="s" unicode="s" horiz-adv-x="462" 
d="M279 516q85 0 130 -28.5t45 -74.5q0 -33 -20 -52t-51 -19q-46 0 -68 36q23 21 23 54q0 25 -15.5 41t-44.5 16q-40 -1 -61 -23.5t-21 -58.5q0 -32 23.5 -57t56.5 -42.5t66 -37.5t56.5 -53t23.5 -77q0 -71 -60.5 -109t-176.5 -38q-89 0 -135 28.5t-46 74.5q0 31 20 51
t53 20q42 0 65 -36q-23 -18 -23 -52q0 -25 19 -42t54 -17q38 0 62.5 21t24.5 59q0 34 -23 60t-56 43.5t-66.5 37t-56.5 51t-23 73.5q0 71 60.5 111t164.5 40z" />
    <glyph glyph-name="t" unicode="t" horiz-adv-x="328" 
d="M209 468l-42 -314q-11 -87 53 -87q34 0 66 33l5 -6q-32 -55 -63.5 -78t-84.5 -23q-68 0 -99 42.5t-20 125.5l62 455q70 4 144 14l-17 -131h126l-3 -31h-127z" />
    <glyph glyph-name="u" unicode="u" horiz-adv-x="564" 
d="M486 93q-10 -65 9 -93h-153l4 84q-68 -91 -171 -91q-155 0 -131 185l33 236q4 35 1 49.5t-14 28.5q82 5 170 15l-46 -332q-15 -108 65 -108q52 0 91 52l40 295q4 35 2 49.5t-12 28.5q84 5 169 15z" />
    <glyph glyph-name="v" unicode="v" horiz-adv-x="488" 
d="M441 508h92q-26 -17 -54 -76l-204 -432h-130l-87 431q-13 56 -36 77h189q-7 -7 -9.5 -17.5t-2 -16t4.5 -22t5 -20.5l66 -344l161 345q27 54 5 75z" />
    <glyph glyph-name="w" unicode="w" horiz-adv-x="774" 
d="M732 508h88q-26 -15 -53 -77l-191 -431h-115l-61 311l-143 -311h-120l-82 431q0 2 -2 10.5t-2.5 12t-2.5 11.5t-4 12.5t-5.5 10.5t-8 11t-9.5 9h187q-8 -11 -9 -25.5t0.5 -21t6.5 -28.5l60 -331l122 271l-12 58q-1 3 -3.5 14.5t-4 17.5t-5.5 15.5t-9.5 16.5t-12.5 13h189
q-6 -8 -8 -18t-1.5 -17t3.5 -20.5t4 -20.5l58 -321l139 321q24 54 7 76z" />
    <glyph glyph-name="x" unicode="x" horiz-adv-x="503" 
d="M436 73q2 -3 7.5 -15t9 -17t9.5 -14.5t13 -15.5t16 -11h-207q4 5 5.5 11.5t-1 14.5t-4.5 13t-8 16t-7 14l-72 139l-116 -140q-38 -42 -39 -56q-1 -7 4 -12h-90q30 10 80 73l142 171l-100 190q-1 3 -9 19t-12 22t-13 16.5t-20 16.5h207q-5 -7 -6 -15t3.5 -19.5t7 -16.5
t9.5 -18l56 -108l89 108q3 3 9 10t9 11t8 10.5t7.5 11t4 10t0.5 9.5t-4 7h88q-26 -9 -78 -74l-114 -140z" />
    <glyph glyph-name="y" unicode="y" horiz-adv-x="492" 
d="M446 508h92q-9 -7 -16.5 -13.5t-14.5 -16.5t-9.5 -14.5t-9.5 -18t-8 -14.5l-244 -458l-45 -81q-31 -54 -64 -77.5t-79 -23.5q-45 0 -68.5 21t-23.5 55q0 33 21 53.5t51 20.5q34 0 51 -32q-20 -15 -20 -42q0 -30 31 -30q35 0 77 72l14 26l-125 496q-15 55 -38 77h188
q-3 -5 -5.5 -9.5t-3 -10.5t-0.5 -10t1 -11.5t2 -10.5t3 -12t3 -12l70 -312l165 312q29 55 5 76z" />
    <glyph glyph-name="z" unicode="z" horiz-adv-x="446" 
d="M462 508l-3 -22l-302 -448h163q66 0 92 23h2l-8 -61h-417l3 23l298 447h-139q-70 0 -93 -23h-2l7 61h399z" />
    <glyph glyph-name="braceleft" unicode="{" horiz-adv-x="324" 
d="M157 595q21 147 246 191l-5 -32q-48 -13 -77 -56.5t-35 -83.5q-5 -32 1 -75.5t4 -63.5q-6 -44 -40.5 -72t-106.5 -51q62 -25 90 -55.5t22 -74.5q-3 -16 -21.5 -64.5t-24.5 -93.5q0 -17 -0.5 -43.5t15 -54.5t45.5 -35l-5 -32q-195 44 -176 192q4 29 21.5 78.5t19.5 63.5
q6 40 -30 74t-77 34l4 32q47 0 88 24.5t47 67.5q3 19 -2.5 62t-2.5 68z" />
    <glyph glyph-name="bar" unicode="|" horiz-adv-x="205" 
d="M69 -169h-52l136 978h53z" />
    <glyph glyph-name="braceright" unicode="}" horiz-adv-x="324" 
d="M231 461q-5 -41 31 -65.5t78 -24.5l-4 -32q-44 0 -87 -34t-48 -77q-2 -16 2.5 -63t0.5 -74q-20 -150 -233 -192l4 32q32 8 56 36t33 53.5t11 45.5q5 41 0 86.5t-2 65.5q11 89 143 135q-62 18 -88.5 46t-22.5 72q3 18 21 63.5t22 81.5q3 23 -0.5 48.5t-21 53.5t-47.5 36
l6 32q205 -47 186 -191q-3 -27 -20 -72.5t-20 -61.5z" />
    <glyph glyph-name="asciitilde" unicode="~" horiz-adv-x="493" 
d="M194 374q29 0 105 -21.5t92 -21.5q19 0 35.5 15.5t18.5 32.5h27q-3 -43 -29 -71t-74 -28q-28 0 -108.5 23.5t-97.5 23.5q-23 0 -39 -15.5t-21 -36.5h-26q5 38 34 68.5t83 30.5z" />
    <glyph glyph-name="exclamdown" unicode="&#xa1;" horiz-adv-x="264" 
d="M169 567q36 0 58.5 -22t22.5 -54q0 -39 -28 -66t-69 -27q-34 0 -56 20.5t-22 52.5q0 40 27 68t67 28zM157 -115q3 -52 -20.5 -82.5t-69.5 -30.5q-49 0 -63.5 31t4.5 82l124 452h17z" />
    <glyph glyph-name="cent" unicode="&#xa2;" horiz-adv-x="524" 
d="M396 601q69 -6 133 -42l-24 -54h-1q-46 69 -111 73l-62 -473q68 3 137 86h1l16 -45q-72 -54 -157 -65l-7 -49h-31l6 47h-9q-117 0 -178.5 71t-45.5 191q16 111 100 185.5t202 75.5l7 53h31zM217 340q-13 -104 11 -162t72 -70l62 468q-115 -16 -145 -236z" />
    <glyph glyph-name="sterling" unicode="&#xa3;" horiz-adv-x="560" 
d="M383 97q88 0 131 71l18 -17q-53 -158 -179 -158q-30 0 -59 12.5t-45.5 25t-41.5 35.5q-61 -73 -132 -73q-32 0 -53 20.5t-21 56.5q0 43 34.5 72.5t83.5 29.5q39 0 73 -13q5 25 5 45q0 41 -21 115h-87l8 45h67q-17 63 -17 123q0 110 67.5 178.5t183.5 68.5q98 0 156 -53
l-27 -49h-2q-46 63 -111 63q-64 0 -94 -53t-30 -138q0 -32 10 -139h147l-8 -45h-138v-11q-2 -88 -50 -177q70 -35 132 -35zM85 32q53 0 87 67q-36 31 -66 31t-47.5 -16t-17.5 -40q0 -42 44 -42z" />
    <glyph glyph-name="currency" unicode="&#xa4;" horiz-adv-x="595" 
d="M521 351q0 -75 -43 -139l46 -55l-90 -82l-45 55q-47 -26 -103 -26q-55 0 -99 26l-61 -55l-71 82l64 56q-14 36 -14 76q0 73 42 136l-46 53l93 82l44 -52q49 26 104 26q56 0 100 -27l59 53l69 -82l-61 -55q12 -33 12 -72zM153 291q0 -63 35.5 -107.5t100.5 -44.5
q78 0 130.5 63t52.5 145q0 64 -34.5 108t-99.5 44q-78 0 -131.5 -63.5t-53.5 -144.5z" />
    <glyph glyph-name="yen" unicode="&#xa5;" horiz-adv-x="652" 
d="M598 728h108q-29 -13 -73 -85l-204 -335h111l-7 -45h-126l-8 -62h127l-7 -45h-126l-8 -60q-10 -70 13 -96h-214q29 24 39 96l8 60h-118l7 45h118l8 62h-117l5 45h106l-102 336q-1 2 -3 8.5t-3 9t-3.5 9t-4 9.5t-4 9t-4.5 9t-5.5 8t-6.5 8.5t-6.5 7t-7.5 6.5h217
q-20 -14 -21 -36.5t8 -44.5l99 -318l196 318q12 18 17 29.5t4.5 26t-12.5 25.5z" />
    <glyph glyph-name="brokenbar" unicode="&#xa6;" horiz-adv-x="205" 
d="M154 809h53l-61 -429h-53zM70 -169h-53l59 427h53z" />
    <glyph glyph-name="section" unicode="&#xa7;" horiz-adv-x="546" 
d="M336 736q63 1 104.5 -10t85.5 -35l-28 -58h-2q-48 64 -130 64q-58 0 -93.5 -27.5t-35.5 -73.5q0 -27 14.5 -51t43.5 -44.5t52.5 -34t63 -32.5t54.5 -27q45 -27 45 -66q0 -31 -19 -55.5t-50 -31.5q-17 9 -65 34.5t-72.5 38.5t-60.5 35.5t-64 42.5q-48 33 -69.5 63.5
t-21.5 68.5q0 92 70.5 145t177.5 54zM219 -120q-112 0 -191 47l27 58h1q33 -33 69 -48.5t88 -15.5q55 -1 89 24t35 67q2 31 -25.5 62t-61.5 51.5t-85 49.5t-74 45q-38 30 -38 72q0 33 20.5 56.5t49.5 23.5q11 0 22 -6q185 -92 264.5 -158.5t79.5 -140.5q0 -63 -42 -107
t-101 -62t-127 -18z" />
    <glyph glyph-name="dieresis" unicode="&#xa8;" horiz-adv-x="354" 
d="M174 695q26 0 42.5 -18.5t12.5 -44.5q-4 -27 -24.5 -45t-46.5 -18q-28 0 -44.5 18t-12.5 45q4 26 24.5 44.5t48.5 18.5zM365 695q26 0 42.5 -18.5t13.5 -44.5q-4 -27 -25 -45t-48 -18t-43.5 18t-12.5 45q3 26 24 44.5t49 18.5z" />
    <glyph glyph-name="copyright" unicode="&#xa9;" horiz-adv-x="723" 
d="M330 -5q-145 0 -222.5 98.5t-57.5 249.5q22 151 126.5 249.5t249.5 98.5q144 0 220.5 -98.5t56.5 -249.5t-124 -249.5t-249 -98.5zM334 31q122 0 216.5 88t113.5 224t-50 224t-193 88q-125 0 -219 -88.5t-112 -221.5q-18 -132 50 -223t194 -91zM534 430q-3 -21 -17 -34.5
t-33 -13.5q-29 0 -49 28q17 12 19 32q4 49 -44 49q-36 0 -58 -33t-33 -109q-11 -81 5 -119t65 -38q47 0 99 51l15 -18q-35 -36 -67.5 -51t-73.5 -15q-81 0 -123.5 48t-31.5 125q10 79 67.5 131.5t137.5 52.5q50 0 89 -22.5t33 -63.5z" />
    <glyph glyph-name="ordfeminine" unicode="&#xaa;" horiz-adv-x="372" 
d="M396 599l-23 -175q-5 -36 3 -48h-82l2 42q-50 -47 -105 -47q-42 0 -67.5 24t-25.5 69q0 54 37 85t97 31q42 0 77 -26l9 69q13 87 -48 87q-28 0 -45 -14t-17 -36q0 -13 7 -27q-13 -25 -46 -25q-17 0 -27.5 11t-10.5 30q0 35 41 60t106 25q67 0 97 -35.5t21 -99.5zM183 477
q0 -59 56 -59q31 0 55 21l12 90q-20 18 -51 18q-34 0 -53 -19.5t-19 -50.5z" />
    <glyph glyph-name="guillemotleft" unicode="&#xab;" horiz-adv-x="580" 
d="M337 456l-189 -151l150 -151l-4 -30l-230 156l8 50l270 156zM578 486l-5 -30l-189 -152l150 -150l-4 -30l-230 156l7 50z" />
    <glyph glyph-name="registered" unicode="&#xae;" horiz-adv-x="723" 
d="M426 691q144 0 220.5 -98.5t56.5 -249.5t-124 -249.5t-249 -98.5t-222.5 98.5t-57.5 249.5q22 151 126.5 249.5t249.5 98.5zM664 343q19 136 -50 224t-193 88q-125 0 -219 -88.5t-112 -221.5q-18 -132 50 -223t194 -91q122 0 216.5 88t113.5 224zM396 519q72 0 106 -19.5
t26 -75.5q-8 -63 -87 -87q31 -11 42 -54l15 -67q5 -22 10 -31t19 -17h-117q11 9 12 20.5t-3 23.5l-10 63q-10 52 -40 53h-34l-16 -114q-4 -31 8 -46h-103q15 15 19 46l36 259q5 33 -8 46h125zM446 426q5 44 -13 57.5t-55 13.5l-19 -1l-21 -146h25q36 0 56.5 16t26.5 60z" />
    <glyph glyph-name="macron" unicode="&#xaf;" horiz-adv-x="587" 
d="M99 662h321l-3 -34h-322z" />
    <glyph glyph-name="degree" unicode="&#xb0;" horiz-adv-x="404" 
d="M213 351q-72 0 -117 50.5t-33 130.5q11 80 69 130.5t129 50.5t114.5 -50.5t31.5 -130.5q-11 -80 -67.5 -130.5t-126.5 -50.5zM218 400q54 0 92.5 38t45.5 95q8 57 -19.5 93t-81.5 36q-56 0 -93 -35.5t-45 -93.5t19 -95.5t82 -37.5z" />
    <glyph glyph-name="plusminus" unicode="&#xb1;" horiz-adv-x="381" 
d="M226 364h138l-6 -45h-138l-19 -145h-49l20 145h-129l6 45h129l19 138h48zM12 73l6 45h316l-6 -45h-316z" />
    <glyph glyph-name="uni00B2" unicode="&#xb2;" horiz-adv-x="399" 
d="M342 397q16 8 28 23h2l-24 -105h-284l5 37q234 179 234 300q0 51 -50 51q-31 0 -53 -22t-22 -53q0 -22 14 -37q-20 -25 -47 -25q-20 0 -32 13.5t-12 36.5q0 55 49 85.5t115 30.5q63 0 100 -27t37 -74q0 -107 -275 -267q94 4 136.5 10t78.5 23z" />
    <glyph glyph-name="uni00B3" unicode="&#xb3;" horiz-adv-x="370" 
d="M259 536q95 -18 95 -103q0 -56 -49.5 -90.5t-124.5 -34.5q-54 0 -87 21.5t-33 66.5q0 24 14.5 41.5t36.5 17.5q26 0 38 -23q-24 -21 -24 -47q0 -22 15.5 -34.5t43.5 -12.5q39 0 60 28.5t21 70.5q0 81 -88 78l-29 -1l1 5l31 15q101 45 101 121q0 48 -51 48
q-27 0 -44.5 -16t-18.5 -41q0 -22 15 -37q-18 -23 -46 -23q-17 0 -27 11.5t-10 32.5q0 45 40.5 74t102.5 29q60 0 94 -25t34 -67q0 -37 -31.5 -64t-79.5 -41z" />
    <glyph glyph-name="acute" unicode="&#xb4;" horiz-adv-x="222" 
d="M289 716v-1l-180 -167h-25l62 168h143z" />
    <glyph glyph-name="paragraph" unicode="&#xb6;" horiz-adv-x="650" 
d="M693 724l-6 -44h-75l-104 -759h-51l105 758h-93l-105 -758h-51l42 311l-81 1q-105 0 -165.5 63t-44.5 182q17 121 94.5 183.5t183.5 62.5h351z" />
    <glyph glyph-name="periodcentered" unicode="&#xb7;" horiz-adv-x="263" 
d="M139 286q-35 0 -57 22t-22 54q0 38 27 65.5t67 27.5q35 0 57.5 -22t22.5 -54q0 -38 -27.5 -65.5t-67.5 -27.5z" />
    <glyph glyph-name="cedilla" unicode="&#xb8;" horiz-adv-x="198" 
d="M95 -1l-10 -37q40 -2 63 -20.5t19 -52.5q-4 -37 -36 -58.5t-76 -21.5q-25 0 -61 6l7 27q12 -2 30 -2q48 0 53 46q6 44 -41 44l19 69h33z" />
    <glyph glyph-name="uni00B9" unicode="&#xb9;" horiz-adv-x="241" 
d="M190 375q-6 -45 8 -60h-139q20 17 25 60l32 245q7 53 -7 68l1 3l125 38h3z" />
    <glyph glyph-name="ordmasculine" unicode="&#xba;" horiz-adv-x="402" 
d="M251 370q-66 0 -107 44t-41 115q0 90 56 147.5t141 57.5q67 0 108 -42.5t41 -112.5q0 -89 -55.5 -149t-142.5 -60zM255 395q36 0 62 35.5t36.5 81t10.5 91.5q0 54 -18.5 80.5t-48.5 26.5q-53 0 -81 -67.5t-28 -141.5q0 -106 67 -106z" />
    <glyph glyph-name="guillemotright" unicode="&#xbb;" horiz-adv-x="580" 
d="M306 330l-7 -50l-270 -156l5 30l189 151l-150 151l4 30zM313 486l229 -156l-7 -50l-270 -156l5 30l188 151l-149 151z" />
    <glyph glyph-name="onequarter" unicode="&#xbc;" horiz-adv-x="640" 
d="M185 375q-7 -43 7 -60h-139q21 16 26 60l32 245q8 51 -7 68l1 3l124 38h4zM70 0h-48l562 724h49zM562 126h52l-4 -30h-52l-6 -40q-4 -42 9 -56h-133q17 16 23 56l6 40l-179 1l4 30l246 288h74zM332 126h146l29 210z" />
    <glyph glyph-name="onehalf" unicode="&#xbd;" horiz-adv-x="693" 
d="M180 375q-5 -43 8 -60h-139q20 17 25 60l32 245q8 54 -6 68v3l127 38h1zM561 724h49l-563 -724h-48zM625 82q17 9 28 23h1l-23 -105h-285l5 37q234 178 234 300q0 51 -49 51q-32 0 -54 -22t-22 -53q0 -22 14 -37q-20 -25 -47 -25q-19 0 -31.5 13.5t-12.5 36.5
q0 55 49 85.5t115 30.5q64 0 100.5 -27t36.5 -74q0 -108 -276 -267q95 4 138 10t79 23z" />
    <glyph glyph-name="threequarters" unicode="&#xbe;" horiz-adv-x="693" 
d="M335 433q0 -56 -49 -90.5t-124 -34.5q-121 0 -121 88q0 24 14.5 41.5t36.5 17.5q27 0 38 -23q-24 -21 -24 -47q0 -22 15.5 -34.5t43.5 -12.5q39 0 60 28.5t21 70.5q0 81 -87 78l-29 -1v5l31 15q101 44 101 121q0 48 -51 48q-27 0 -44.5 -16t-18.5 -41q0 -22 15 -37
q-17 -23 -46 -23q-17 0 -27 11.5t-10 32.5q0 45 40.5 74t103.5 29q59 0 93 -25t34 -67q0 -37 -31.5 -64t-79.5 -41q95 -18 95 -103zM656 724h49l-562 -724h-48zM653 415l-39 -289h52l-5 -30h-51l-6 -40q-6 -41 8 -56h-133q18 15 24 56l6 40l-178 1l5 30l244 288h73zM517 126
l30 210l-176 -210h146z" />
    <glyph glyph-name="questiondown" unicode="&#xbf;" horiz-adv-x="556" 
d="M332 566q35 0 57.5 -22t22.5 -54q0 -39 -27.5 -66t-68.5 -27q-35 0 -57 20.5t-22 52.5q0 40 27.5 68t67.5 28zM321 336q-6 -55 -26.5 -105.5t-45.5 -88.5t-49.5 -73.5t-40.5 -75.5t-16 -81q0 -40 23 -65.5t67 -25.5q50 0 80.5 31.5t30.5 76.5q0 39 -18 66q26 37 74 37
q30 0 49.5 -20t19.5 -55q0 -82 -75 -128.5t-181 -46.5q-114 0 -172.5 44.5t-58.5 117.5q0 39 21 74t53 60t70 54t71.5 55.5t59 65.5t30.5 83h34z" />
    <glyph glyph-name="Agrave" unicode="&#xc0;" horiz-adv-x="635" 
d="M417 774h-24l-166 172v1h157zM397 0q19 11 21.5 31t-3.5 50l-19 119h-281l-53 -118q-11 -25 -15 -38t-2.5 -24.5t11.5 -19.5h-94q10 5 17 11.5t13 16t9 15t9 19.5t9 20l289 647h153l112 -646q0 -1 1.5 -10.5t2 -11t2 -9.5t2.5 -10.5t3 -9t4 -9.5l5 -7.5t7 -8.5t9 -7h-212
zM132 239h258l-67 430z" />
    <glyph glyph-name="Aacute" unicode="&#xc1;" horiz-adv-x="635" 
d="M554 945l-211 -172h-26l80 173h157v-1zM397 0q19 11 21.5 31t-3.5 50l-19 119h-281l-53 -118q-11 -25 -15 -38t-2.5 -24.5t11.5 -19.5h-94q10 5 17 11.5t13 16t9 15t9 19.5t9 20l289 647h153l112 -646q0 -1 1.5 -10.5t2 -11t2 -9.5t2.5 -10.5t3 -9t4 -9.5l5 -7.5t7 -8.5
t9 -7h-212zM132 239h258l-67 430z" />
    <glyph glyph-name="Acircumflex" unicode="&#xc2;" horiz-adv-x="635" 
d="M372 891l-114 -116h-34v2l151 171h84l91 -172v-1h-109zM397 0q19 11 21.5 31t-3.5 50l-19 119h-281l-53 -118q-11 -25 -15 -38t-2.5 -24.5t11.5 -19.5h-94q10 5 17 11.5t13 16t9 15t9 19.5t9 20l289 647h153l112 -646q0 -1 1.5 -10.5t2 -11t2 -9.5t2.5 -10.5t3 -9t4 -9.5
l5 -7.5t7 -8.5t9 -7h-212zM132 239h258l-67 430z" />
    <glyph glyph-name="Atilde" unicode="&#xc3;" horiz-adv-x="635" 
d="M314 830q-29 0 -49 -19t-26 -43h-13q6 48 39 93.5t90 45.5q31 0 84 -23.5t71 -23.5q23 0 44 16t23 38h13q-5 -53 -35.5 -94t-77.5 -41q-28 0 -85.5 25.5t-77.5 25.5zM397 0q19 11 21.5 31t-3.5 50l-19 119h-281l-53 -118q-11 -25 -15 -38t-2.5 -24.5t11.5 -19.5h-94
q10 5 17 11.5t13 16t9 15t9 19.5t9 20l289 647h153l112 -646q0 -1 1.5 -10.5t2 -11t2 -9.5t2.5 -10.5t3 -9t4 -9.5l5 -7.5t7 -8.5t9 -7h-212zM132 239h258l-67 430z" />
    <glyph glyph-name="Adieresis" unicode="&#xc4;" horiz-adv-x="635" 
d="M298 805q-30 0 -48.5 19.5t-18.5 49.5q0 36 25 62t61 26q30 0 48.5 -19t18.5 -49q0 -38 -25 -63.5t-61 -25.5zM500 805q-30 0 -48.5 19.5t-18.5 49.5q0 36 25.5 62t61.5 26q29 0 47.5 -19t18.5 -49q0 -38 -25 -63.5t-61 -25.5zM397 0q19 11 21.5 31t-3.5 50l-19 119h-281
l-53 -118q-11 -25 -15 -38t-2.5 -24.5t11.5 -19.5h-94q10 5 17 11.5t13 16t9 15t9 19.5t9 20l289 647h153l112 -646q0 -1 1.5 -10.5t2 -11t2 -9.5t2.5 -10.5t3 -9t4 -9.5l5 -7.5t7 -8.5t9 -7h-212zM132 239h258l-67 430z" />
    <glyph glyph-name="Aring" unicode="&#xc5;" horiz-adv-x="635" 
d="M394 775q-37 0 -61.5 23t-24.5 59q0 42 29 71t74 29q37 0 61.5 -23t24.5 -60q0 -41 -29 -70t-74 -29zM403 902q-15 0 -26.5 -11t-11.5 -28q0 -15 9 -24.5t24 -9.5q18 0 29 11t11 28q0 34 -35 34zM397 0q19 11 21.5 31t-3.5 50l-19 119h-281l-53 -118q-11 -25 -15 -38
t-2.5 -24.5t11.5 -19.5h-94q10 5 17 11.5t13 16t9 15t9 19.5t9 20l289 647h153l112 -646q0 -1 1.5 -10.5t2 -11t2 -9.5t2.5 -10.5t3 -9t4 -9.5l5 -7.5t7 -8.5t9 -7h-212zM132 239h258l-67 430z" />
    <glyph glyph-name="AE" unicode="&#xc6;" horiz-adv-x="793" 
d="M865 728l-10 -77h-2q-18 38 -98 38h-166l-38 -272h149q40 0 63 16l-9 -69q-17 16 -58 16h-150l-47 -341h191q59 0 91 38h1l-11 -77h-426l28 200h-223l-87 -135q-31 -48 -13 -65h-79q7 4 13 9t12.5 13.5t10 13.5t11 18t10.5 17l418 657h419zM175 239h203l56 405z" />
    <glyph glyph-name="Ccedilla" unicode="&#xc7;" horiz-adv-x="619" 
d="M443 734q86 0 144 -34t58 -88q0 -41 -21 -65t-57 -24q-45 0 -69 37q23 25 23 61q0 33 -21.5 53t-60.5 20q-75 0 -129 -68.5t-78 -166t-24 -205.5q0 -112 43.5 -166.5t120.5 -54.5q48 0 84 17t82 55h1l19 -50q-83 -62 -197 -62h-3l-6 -23q95 -3 95 -69q0 -37 -33 -60.5
t-81 -23.5q-36 0 -63 9l4 16q9 -3 34 -3q22 0 38 14t16 39q0 42 -42 44l17 58q-74 4 -130.5 31t-90 71t-50.5 98t-17 116q0 175 114 299.5t280 124.5z" />
    <glyph glyph-name="Egrave" unicode="&#xc8;" horiz-adv-x="552" 
d="M404 774h-24l-166 172v1h157zM582 728l-9 -77h-2q-21 38 -100 38h-178l-38 -272h136q63 0 89 23l-10 -83q-22 23 -83 23h-137l-47 -341h185q80 0 110 38h2l-10 -77h-467q29 23 39 96l74 536q11 71 -13 96h459z" />
    <glyph glyph-name="Eacute" unicode="&#xc9;" horiz-adv-x="552" 
d="M541 945l-211 -172h-26l80 173h157v-1zM582 728l-9 -77h-2q-21 38 -100 38h-178l-38 -272h136q63 0 89 23l-10 -83q-22 23 -83 23h-137l-47 -341h185q80 0 110 38h2l-10 -77h-467q29 23 39 96l74 536q11 71 -13 96h459z" />
    <glyph glyph-name="Ecircumflex" unicode="&#xca;" horiz-adv-x="552" 
d="M358 891l-114 -116h-34v2l151 171h84l91 -172v-1h-109zM582 728l-9 -77h-2q-21 38 -100 38h-178l-38 -272h136q63 0 89 23l-10 -83q-22 23 -83 23h-137l-47 -341h185q80 0 110 38h2l-10 -77h-467q29 23 39 96l74 536q11 71 -13 96h459z" />
    <glyph glyph-name="Edieresis" unicode="&#xcb;" horiz-adv-x="552" 
d="M285 805q-30 0 -48.5 19.5t-18.5 49.5q0 36 25 62t61 26q30 0 48.5 -19t18.5 -49q0 -38 -25 -63.5t-61 -25.5zM487 805q-30 0 -48.5 19.5t-18.5 49.5q0 36 25.5 62t61.5 26q29 0 47.5 -19t18.5 -49q0 -38 -25 -63.5t-61 -25.5zM582 728l-9 -77h-2q-21 38 -100 38h-178
l-38 -272h136q63 0 89 23l-10 -83q-22 23 -83 23h-137l-47 -341h185q80 0 110 38h2l-10 -77h-467q29 23 39 96l74 536q11 71 -13 96h459z" />
    <glyph glyph-name="Igrave" unicode="&#xcc;" horiz-adv-x="322" 
d="M262 774h-24l-166 172v1h157zM212 96q-7 -72 18 -96h-205q29 23 39 96l75 536q8 71 -15 96h203q-30 -24 -40 -96z" />
    <glyph glyph-name="Iacute" unicode="&#xcd;" horiz-adv-x="322" 
d="M399 946v-1l-211 -172h-26l80 173h157zM212 96q-7 -72 18 -96h-205q29 23 39 96l75 536q8 71 -15 96h203q-30 -24 -40 -96z" />
    <glyph glyph-name="Icircumflex" unicode="&#xce;" horiz-adv-x="322" 
d="M304 948l91 -172v-1h-109l-69 116l-114 -116h-34v2l151 171h84zM139 632q8 71 -15 96h203q-30 -24 -40 -96l-75 -536q-7 -72 18 -96h-205q29 23 39 96z" />
    <glyph glyph-name="Idieresis" unicode="&#xcf;" horiz-adv-x="322" 
d="M143 805q-30 0 -48.5 19.5t-18.5 49.5q0 36 25 62t61 26q30 0 48.5 -19t18.5 -49q0 -38 -25 -63.5t-61 -25.5zM345 805q-30 0 -48.5 19.5t-18.5 49.5q0 36 25.5 62t61.5 26q29 0 47.5 -19t18.5 -49q0 -38 -25 -63.5t-61 -25.5zM212 96q-7 -72 18 -96h-205q29 23 39 96
l75 536q8 71 -15 96h203q-30 -24 -40 -96z" />
    <glyph glyph-name="Eth" unicode="&#xd0;" horiz-adv-x="694" 
d="M367 728q148 0 229 -79.5t81 -220.5q0 -192 -113 -310t-299 -118h-243q31 26 41 96l35 253h-43l5 32h42l35 251q9 71 -14 96h244zM265 38q63 0 113 37.5t80 99t45.5 135t15.5 151.5q0 116 -43 172.5t-119 56.5h-64l-43 -309h115l-5 -32h-114l-43 -311h62z" />
    <glyph glyph-name="Ntilde" unicode="&#xd1;" horiz-adv-x="689" 
d="M357 830q-29 0 -49 -19t-26 -43h-13q6 48 39 93.5t90 45.5q31 0 84 -23.5t71 -23.5q23 0 44 16t23 38h13q-5 -53 -35.5 -94t-77.5 -41q-28 0 -85.5 25.5t-77.5 25.5zM602 728h96q-28 -24 -38 -96l-88 -632h-62l-344 537l-61 -441q-8 -70 13 -96h-95q29 24 39 96l75 536
q10 72 -14 96h93l343 -523l58 427q10 72 -15 96z" />
    <glyph glyph-name="Ograve" unicode="&#xd2;" horiz-adv-x="768" 
d="M508 772h-24l-166 172v1h157zM451 734q135 0 218.5 -83t83.5 -221q0 -181 -116 -309t-287 -128q-135 0 -218.5 85t-83.5 227q0 179 116 304t287 125zM446 695q-58 0 -105 -43.5t-74.5 -112t-42 -143.5t-14.5 -147q0 -110 39.5 -163.5t106.5 -53.5q57 0 103.5 44.5
t74.5 113.5t42.5 145t14.5 147q0 107 -39.5 160t-105.5 53z" />
    <glyph glyph-name="Oacute" unicode="&#xd3;" horiz-adv-x="768" 
d="M645 944v-1l-211 -172h-26l80 173h157zM451 734q135 0 218.5 -83t83.5 -221q0 -181 -116 -309t-287 -128q-135 0 -218.5 85t-83.5 227q0 179 116 304t287 125zM446 695q-58 0 -105 -43.5t-74.5 -112t-42 -143.5t-14.5 -147q0 -110 39.5 -163.5t106.5 -53.5
q57 0 103.5 44.5t74.5 113.5t42.5 145t14.5 147q0 107 -39.5 160t-105.5 53z" />
    <glyph glyph-name="Ocircumflex" unicode="&#xd4;" horiz-adv-x="768" 
d="M476 889l-114 -116h-34v2l151 171h84l91 -172v-1h-109zM451 734q135 0 218.5 -83t83.5 -221q0 -181 -116 -309t-287 -128q-135 0 -218.5 85t-83.5 227q0 179 116 304t287 125zM356 32q57 0 103.5 44.5t74.5 113.5t42.5 145t14.5 147q0 107 -39.5 160t-105.5 53
q-58 0 -105 -43.5t-74.5 -112t-42 -143.5t-14.5 -147q0 -110 39.5 -163.5t106.5 -53.5z" />
    <glyph glyph-name="Otilde" unicode="&#xd5;" horiz-adv-x="826" 
d="M504 907q31 0 84 -23.5t71 -23.5q23 0 44 16t23 38h13q-6 -53 -36 -94t-77 -41q-28 0 -86 25.5t-77 25.5q-30 0 -49.5 -18.5t-26.5 -43.5h-13q3 20 11.5 42t23 45t39.5 37.5t56 14.5zM518 734q150 0 235 -101.5t63 -264.5q-23 -167 -135.5 -271t-263.5 -104
q-150 0 -235 104t-62 271q22 163 135 264.5t263 101.5zM513 707q-80 0 -142.5 -84.5t-85.5 -254.5q-23 -176 17 -262t121 -86q80 0 141.5 86t85.5 262q23 169 -16.5 254t-120.5 85z" />
    <glyph glyph-name="Odieresis" unicode="&#xd6;" horiz-adv-x="768" 
d="M389 803q-30 0 -48.5 19.5t-18.5 49.5q0 36 25 62t61 26q30 0 48.5 -19t18.5 -49q0 -38 -25 -63.5t-61 -25.5zM591 803q-30 0 -48.5 19.5t-18.5 49.5q0 36 25.5 62t61.5 26q29 0 47.5 -19t18.5 -49q0 -38 -25 -63.5t-61 -25.5zM451 734q135 0 218.5 -83t83.5 -221
q0 -181 -116 -309t-287 -128q-135 0 -218.5 85t-83.5 227q0 179 116 304t287 125zM446 695q-58 0 -105 -43.5t-74.5 -112t-42 -143.5t-14.5 -147q0 -110 39.5 -163.5t106.5 -53.5q57 0 103.5 44.5t74.5 113.5t42.5 145t14.5 147q0 107 -39.5 160t-105.5 53z" />
    <glyph glyph-name="multiply" unicode="&#xd7;" horiz-adv-x="371" 
d="M351 410l-119 -109l90 -110l-34 -32l-91 110l-119 -109l-28 31l120 111l-91 110l36 31l90 -110l118 109z" />
    <glyph glyph-name="Oslash" unicode="&#xd8;" horiz-adv-x="768" 
d="M645 673q108 -84 108 -243q0 -181 -116 -309t-287 -128q-98 0 -170 46l-48 -66h-41v3l61 83q-104 86 -104 246q0 179 116 304t287 125q93 0 165 -42l38 52h42v-1zM210 249q0 -51 10 -96l344 468q-38 74 -118 74q-58 0 -105 -43.5t-74.5 -112t-42 -143.5t-14.5 -147z
M356 32q57 0 103.5 44.5t74.5 113.5t42.5 145t14.5 147q0 59 -12 101l-345 -471q38 -80 122 -80z" />
    <glyph glyph-name="Ugrave" unicode="&#xd9;" horiz-adv-x="679" 
d="M487 774h-24l-166 172v1h157zM695 728q-30 -26 -40 -96l-51 -370q-37 -269 -275 -269q-285 0 -246 284l49 355q10 71 -14 96h202q-30 -26 -40 -96l-50 -359q-17 -123 15 -177.5t119 -54.5q167 0 197 223l51 368q10 71 -15 96h98z" />
    <glyph glyph-name="Uacute" unicode="&#xda;" horiz-adv-x="679" 
d="M602 946v-1l-211 -172h-26l80 173h157zM695 728q-30 -26 -40 -96l-51 -370q-37 -269 -275 -269q-285 0 -246 284l49 355q10 71 -14 96h202q-30 -26 -40 -96l-50 -359q-17 -123 15 -177.5t119 -54.5q167 0 197 223l51 368q10 71 -15 96h98z" />
    <glyph glyph-name="Ucircumflex" unicode="&#xdb;" horiz-adv-x="679" 
d="M419 891l-114 -116h-34v2l151 171h84l91 -172v-1h-109zM597 728h98q-30 -26 -40 -96l-51 -370q-37 -269 -275 -269q-285 0 -246 284l49 355q10 71 -14 96h202q-30 -26 -40 -96l-50 -359q-17 -123 15 -177.5t119 -54.5q167 0 197 223l51 368q10 71 -15 96z" />
    <glyph glyph-name="Udieresis" unicode="&#xdc;" horiz-adv-x="679" 
d="M346 805q-30 0 -48.5 19.5t-18.5 49.5q0 36 25 62t61 26q30 0 48.5 -19t18.5 -49q0 -38 -25 -63.5t-61 -25.5zM548 805q-30 0 -48.5 19.5t-18.5 49.5q0 36 25.5 62t61.5 26q29 0 47.5 -19t18.5 -49q0 -38 -25 -63.5t-61 -25.5zM695 728q-30 -26 -40 -96l-51 -370
q-37 -269 -275 -269q-285 0 -246 284l49 355q10 71 -14 96h202q-30 -26 -40 -96l-50 -359q-17 -123 15 -177.5t119 -54.5q167 0 197 223l51 368q10 71 -15 96h98z" />
    <glyph glyph-name="Yacute" unicode="&#xdd;" horiz-adv-x="628" 
d="M599 945l-211 -172h-26l80 173h157v-1zM591 728h110q-7 -3 -13 -7.5t-12.5 -11.5t-11 -11.5t-11 -14.5t-9 -13.5t-9.5 -14.5t-8 -12l-233 -363l-26 -184q-10 -70 12 -96h-213q29 24 39 96l26 184l-122 364q-20 64 -48 84h217q-20 -14 -21.5 -36.5t8.5 -44.5l109 -321
l209 320q37 55 7 82z" />
    <glyph glyph-name="Thorn" unicode="&#xde;" horiz-adv-x="653" 
d="M355 610q288 0 288 -214q0 -129 -95 -197t-258 -68h-62l-5 -35q-9 -70 13 -96h-201q30 24 40 96l74 536q11 71 -13 96h200q-29 -25 -39 -96l-3 -22h61zM272 157q214 0 214 253q0 174 -158 174h-38l-59 -427h41z" />
    <glyph glyph-name="germandbls" unicode="&#xdf;" horiz-adv-x="642" 
d="M407 -7q-86 0 -124.5 28t-38.5 70q0 33 21.5 54.5t53.5 21.5q36 0 57 -36q-22 -20 -22 -56q0 -22 14.5 -38.5t47.5 -16.5q35 1 57.5 25.5t22.5 56.5q0 31 -19.5 60t-47.5 52.5l-56 47t-48 51.5t-20 57q0 35 28.5 69t62 58.5t62 62.5t28.5 80q0 38 -22.5 62t-66.5 24
q-66 1 -104.5 -45.5t-50.5 -134.5l-62 -455q-8 -63 10 -91h-190q26 24 35 91l55 408q17 120 101 184t217 64q86 0 140.5 -26.5t54.5 -81.5q0 -39 -31 -69t-67.5 -46t-67.5 -39.5t-31 -51.5q0 -20 15 -39t37 -34t48.5 -35t48.5 -40.5t37 -52.5t15 -70q0 -79 -54.5 -123.5
t-145.5 -45.5z" />
    <glyph glyph-name="agrave" unicode="&#xe0;" horiz-adv-x="529" 
d="M321 578h-23l-141 167v1h143zM490 309l-33 -241q-7 -51 5 -68h-145l2 68q-78 -75 -167 -75q-64 0 -102 34.5t-38 100.5q0 75 53.5 121t148.5 46q73 0 124 -41l14 106q9 68 -6 98t-64 30q-38 0 -61.5 -24t-23.5 -59q0 -17 11 -34q-31 -36 -76 -36q-23 0 -39 14t-16 41
q0 57 62.5 91.5t146.5 34.5q120 0 169 -48t35 -159zM156 146q-2 -38 18.5 -62t56.5 -24q46 0 86 36l15 117q-23 36 -77 36q-48 0 -73.5 -29.5t-25.5 -73.5z" />
    <glyph glyph-name="aacute" unicode="&#xe1;" horiz-adv-x="529" 
d="M474 746l-181 -167h-24l62 168h143v-1zM490 309l-33 -241q-7 -51 5 -68h-145l2 68q-78 -75 -167 -75q-64 0 -102 34.5t-38 100.5q0 75 53.5 121t148.5 46q73 0 124 -41l14 106q9 68 -6 98t-64 30q-38 0 -61.5 -24t-23.5 -59q0 -17 11 -34q-31 -36 -76 -36q-23 0 -39 14
t-16 41q0 57 62.5 91.5t146.5 34.5q120 0 169 -48t35 -159zM156 146q-2 -38 18.5 -62t56.5 -24q46 0 86 36l15 117q-23 36 -77 36q-48 0 -73.5 -29.5t-25.5 -73.5z" />
    <glyph glyph-name="acircumflex" unicode="&#xe2;" horiz-adv-x="529" 
d="M289 687l-114 -108h-30v2l145 166h88l94 -167v-1h-112zM490 309l-33 -241q-7 -51 5 -68h-145l2 68q-78 -75 -167 -75q-64 0 -102 34.5t-38 100.5q0 75 53.5 121t148.5 46q73 0 124 -41l14 106q9 68 -6 98t-64 30q-38 0 -61.5 -24t-23.5 -59q0 -17 11 -34q-31 -36 -76 -36
q-23 0 -39 14t-16 41q0 57 62.5 91.5t146.5 34.5q120 0 169 -48t35 -159zM156 146q-2 -38 18.5 -62t56.5 -24q46 0 86 36l15 117q-23 36 -77 36q-48 0 -73.5 -29.5t-25.5 -73.5z" />
    <glyph glyph-name="atilde" unicode="&#xe3;" horiz-adv-x="529" 
d="M222 642q-26 0 -44 -15.5t-25 -44.5h-13q9 58 39.5 98.5t83.5 40.5q31 0 77 -26t75 -26q56 0 68 59h13q-8 -57 -39 -97.5t-84 -40.5q-30 0 -75 26t-76 26zM286 516q120 0 169 -48t35 -159l-33 -241q-7 -51 5 -68h-145l2 68q-78 -75 -167 -75q-64 0 -102 34.5t-38 100.5
q0 75 53.5 121t148.5 46q73 0 124 -41l14 106q9 68 -6 98t-64 30q-38 0 -61.5 -24t-23.5 -59q0 -17 11 -34q-31 -36 -76 -36q-23 0 -39 14t-16 41q0 57 62.5 91.5t146.5 34.5zM156 146q-2 -38 18.5 -62t56.5 -24q46 0 86 36l15 117q-23 36 -77 36q-48 0 -73.5 -29.5
t-25.5 -73.5z" />
    <glyph glyph-name="adieresis" unicode="&#xe4;" horiz-adv-x="529" 
d="M209 572q-34 0 -53.5 23t-14.5 58q5 36 30 59t59 23q33 0 52.5 -23.5t15.5 -58.5t-30 -58t-59 -23zM436 735q34 0 53.5 -23.5t15.5 -58.5t-30 -58t-59 -23q-35 0 -54 22.5t-15 58.5q5 35 30 58.5t59 23.5zM286 516q120 0 169 -48t35 -159l-33 -241q-7 -51 5 -68h-145
l2 68q-78 -75 -167 -75q-64 0 -102 34.5t-38 100.5q0 75 53.5 121t148.5 46q73 0 124 -41l14 106q9 68 -6 98t-64 30q-38 0 -61.5 -24t-23.5 -59q0 -17 11 -34q-31 -36 -76 -36q-23 0 -39 14t-16 41q0 57 62.5 91.5t146.5 34.5zM156 146q-2 -38 18.5 -62t56.5 -24
q46 0 86 36l15 117q-23 36 -77 36q-48 0 -73.5 -29.5t-25.5 -73.5z" />
    <glyph glyph-name="aring" unicode="&#xe5;" horiz-adv-x="529" 
d="M310 589q-37 0 -62.5 24.5t-20.5 62.5q4 37 35 62.5t66 25.5q36 0 61.5 -26t21.5 -62q-4 -38 -34 -62.5t-67 -24.5zM281 676q-2 -16 7 -27t27 -11q16 0 28 11t14 27t-6.5 26.5t-26.5 10.5q-38 0 -43 -37zM490 309l-33 -241q-7 -51 5 -68h-145l2 68q-78 -75 -167 -75
q-64 0 -102 34.5t-38 100.5q0 75 53.5 121t148.5 46q73 0 124 -41l14 106q9 68 -6 98t-64 30q-38 0 -61.5 -24t-23.5 -59q0 -17 11 -34q-31 -36 -76 -36q-23 0 -39 14t-16 41q0 57 62.5 91.5t146.5 34.5q120 0 169 -48t35 -159zM156 146q-2 -38 18.5 -62t56.5 -24
q46 0 86 36l15 117q-23 36 -77 36q-48 0 -73.5 -29.5t-25.5 -73.5z" />
    <glyph glyph-name="ae" unicode="&#xe6;" horiz-adv-x="832" 
d="M618 516q114 0 160 -68t31 -185l-3 -14h-321q-14 -109 15 -161.5t90 -52.5q75 0 155 80l21 -23q-90 -99 -216 -99q-144 0 -198 107q-51 -56 -96 -81.5t-104 -25.5q-64 0 -102 34.5t-38 100.5q0 75 53.5 121t148.5 46q71 0 118 -36l15 101q10 66 -3.5 97t-61.5 31
q-36 0 -57.5 -20.5t-25.5 -47.5q-4 -29 10 -49q-36 -36 -76 -36q-26 0 -42.5 18t-12.5 50q6 44 60 78.5t148 34.5q123 0 170 -52q71 52 162 52zM681 287q11 103 -3.5 151.5t-59.5 48.5q-94 0 -127 -200h190zM231 60q56 0 111 64q-15 39 -13 94q-25 31 -74 31
q-48 0 -73 -29.5t-26 -73.5q-2 -38 18.5 -62t56.5 -24z" />
    <glyph glyph-name="ccedilla" unicode="&#xe7;" horiz-adv-x="505" 
d="M366 376q23 17 23 54q0 25 -16 41t-48 16q-46 0 -81 -44.5t-50.5 -108.5t-15.5 -134q0 -84 32.5 -124.5t80.5 -40.5q70 0 143 71h1l16 -46q-87 -67 -198 -67h-8l-7 -24q95 -3 95 -69q0 -37 -33 -60.5t-81 -23.5q-36 0 -63 9l4 16q9 -3 34 -3q22 0 38 14t16 39
q0 42 -42 44l18 59q-92 8 -145 65t-53 150q0 128 85.5 217.5t212.5 89.5q86 0 133 -30.5t47 -77.5q0 -30 -20 -49.5t-50 -19.5q-44 0 -68 37z" />
    <glyph glyph-name="egrave" unicode="&#xe8;" horiz-adv-x="533" 
d="M358 578h-23l-141 167v1h143zM321 516q102 0 149 -61t43 -158q-3 -36 -5 -48h-329q-3 -29 -3 -54q0 -79 30.5 -119.5t84.5 -40.5q83 0 161 76h1l16 -46q-85 -72 -212 -72q-107 0 -169 57.5t-62 157.5q0 129 85.5 218.5t209.5 89.5zM185 287h197q5 34 5 65
q5 62 -11.5 98.5t-56.5 36.5q-48 0 -83 -58.5t-51 -141.5z" />
    <glyph glyph-name="eacute" unicode="&#xe9;" horiz-adv-x="533" 
d="M511 746l-181 -167h-24l62 168h143v-1zM321 516q102 0 149 -61t43 -158q-3 -36 -5 -48h-329q-3 -29 -3 -54q0 -79 30.5 -119.5t84.5 -40.5q83 0 161 76h1l16 -46q-85 -72 -212 -72q-107 0 -169 57.5t-62 157.5q0 129 85.5 218.5t209.5 89.5zM185 287h197q5 34 5 65
q5 62 -11.5 98.5t-56.5 36.5q-48 0 -83 -58.5t-51 -141.5z" />
    <glyph glyph-name="ecircumflex" unicode="&#xea;" horiz-adv-x="533" 
d="M326 687l-114 -108h-30v2l145 166h88l94 -167v-1h-112zM321 516q102 0 149 -61t43 -158q-3 -36 -5 -48h-329q-3 -29 -3 -54q0 -79 30.5 -119.5t84.5 -40.5q83 0 161 76h1l16 -46q-85 -72 -212 -72q-107 0 -169 57.5t-62 157.5q0 129 85.5 218.5t209.5 89.5zM185 287h197
q5 34 5 65q5 62 -11.5 98.5t-56.5 36.5q-48 0 -83 -58.5t-51 -141.5z" />
    <glyph glyph-name="edieresis" unicode="&#xeb;" horiz-adv-x="533" 
d="M246 572q-34 0 -53.5 23t-14.5 58q5 36 30 59t59 23q33 0 52.5 -23.5t15.5 -58.5t-30 -58t-59 -23zM473 735q34 0 53.5 -23.5t15.5 -58.5t-30 -58t-59 -23q-35 0 -54 22.5t-15 58.5q5 35 30 58.5t59 23.5zM321 516q102 0 149 -61t43 -158q-3 -36 -5 -48h-329
q-3 -29 -3 -54q0 -79 30.5 -119.5t84.5 -40.5q83 0 161 76h1l16 -46q-85 -72 -212 -72q-107 0 -169 57.5t-62 157.5q0 129 85.5 218.5t209.5 89.5zM185 287h197q5 34 5 65q5 62 -11.5 98.5t-56.5 36.5q-48 0 -83 -58.5t-51 -141.5z" />
    <glyph glyph-name="igrave" unicode="&#xec;" horiz-adv-x="265" 
d="M194 580h-23l-141 167v1h143zM81 409q7 67 -13 90q117 6 170 13l-53 -419q-9 -68 11 -93h-191q27 23 36 93z" />
    <glyph glyph-name="iacute" unicode="&#xed;" horiz-adv-x="265" 
d="M347 748v-1l-181 -167h-24l62 168h143zM81 409q7 67 -13 90q117 6 170 13l-53 -419q-9 -68 11 -93h-191q27 23 36 93z" />
    <glyph glyph-name="icircumflex" unicode="&#xee;" horiz-adv-x="265" 
d="M251 748l94 -167v-1h-112l-71 108l-114 -108h-30v2l145 166h88zM238 512l-53 -419q-9 -68 11 -93h-191q27 23 36 93l40 316q7 67 -13 90q117 6 170 13z" />
    <glyph glyph-name="idieresis" unicode="&#xef;" horiz-adv-x="265" 
d="M103 736q33 0 52.5 -23.5t15.5 -58.5t-30 -58t-59 -23q-34 0 -53.5 23t-14.5 58q5 36 30 59t59 23zM309 736q34 0 53.5 -23.5t15.5 -58.5t-30 -58t-59 -23q-35 0 -54 22.5t-15 58.5q5 35 30 58.5t59 23.5zM81 409q7 67 -13 90q117 6 170 13l-53 -419q-9 -68 11 -93h-191
q27 23 36 93z" />
    <glyph glyph-name="eth" unicode="&#xf0;" horiz-adv-x="575" 
d="M389 676q82 -53 125.5 -139.5t43.5 -190.5q0 -157 -82.5 -255t-224.5 -98q-107 0 -166 61.5t-59 159.5q0 118 82 197.5t208 79.5q52 0 85 -31q-20 113 -80 174l-101 -62l-10 22l93 57q-69 60 -182 64l12 27q134 1 233 -52l92 57l12 -21zM259 16q44 0 78 55t49 127t15 143
q0 60 -22 93.5t-60 33.5q-44 0 -78 -53t-50 -123t-16 -137q0 -66 22.5 -102.5t61.5 -36.5z" />
    <glyph glyph-name="ntilde" unicode="&#xf1;" horiz-adv-x="575" 
d="M188 576q9 58 39.5 98.5t83.5 40.5q31 0 77 -26t75 -26q56 0 68 59h13q-8 -57 -39 -97.5t-84 -40.5q-30 0 -75 26t-76 26q-26 0 -44 -15.5t-25 -44.5h-13zM530 315l-30 -222q-9 -68 8 -93h-188q26 23 35 93l32 239q15 110 -66 110q-34 0 -60.5 -16t-37.5 -35l-42 -298
q-9 -69 10 -93h-188q25 25 35 93l42 311q8 64 -10 89q130 10 161 15l-11 -84q69 92 170 92q167 0 140 -201z" />
    <glyph glyph-name="ograve" unicode="&#xf2;" horiz-adv-x="573" 
d="M347 578h-23l-141 167v1h143zM325 516q108 0 167 -58.5t59 -157.5q0 -130 -85 -218.5t-213 -88.5q-108 0 -167.5 57.5t-59.5 156.5q0 131 85.5 220t213.5 89zM321 487q-35 0 -64 -35.5t-46.5 -89t-27 -109t-9.5 -100.5q0 -131 84 -131q34 0 63 36.5t46 90.5t26.5 110.5
t9.5 101.5q0 126 -82 126z" />
    <glyph glyph-name="oacute" unicode="&#xf3;" horiz-adv-x="573" 
d="M500 747v-1l-180 -167h-25l62 168h143zM325 516q108 0 167 -58.5t59 -157.5q0 -130 -85 -218.5t-213 -88.5q-108 0 -167.5 57.5t-59.5 156.5q0 131 85.5 220t213.5 89zM321 487q-35 0 -64 -35.5t-46.5 -89t-27 -109t-9.5 -100.5q0 -131 84 -131q34 0 63 36.5t46 90.5
t26.5 110.5t9.5 101.5q0 126 -82 126z" />
    <glyph glyph-name="ocircumflex" unicode="&#xf4;" horiz-adv-x="573" 
d="M315 687l-113 -108h-31v2l146 166h88l94 -167v-1h-113zM325 516q108 0 167 -58.5t59 -157.5q0 -130 -85 -218.5t-213 -88.5q-108 0 -167.5 57.5t-59.5 156.5q0 131 85.5 220t213.5 89zM258 22q34 0 63 36.5t46 90.5t26.5 110.5t9.5 101.5q0 126 -82 126q-35 0 -64 -35.5
t-46.5 -89t-27 -109t-9.5 -100.5q0 -131 84 -131z" />
    <glyph glyph-name="otilde" unicode="&#xf5;" horiz-adv-x="573" 
d="M167 582q9 58 39.5 98.5t83.5 40.5q31 0 77 -26t75 -26q56 0 68 59h13q-8 -57 -39 -97.5t-84 -40.5q-30 0 -75 26t-76 26q-55 0 -69 -60h-13zM325 516q108 0 167 -58.5t59 -157.5q0 -130 -85 -218.5t-213 -88.5q-108 0 -167.5 57.5t-59.5 156.5q0 131 85.5 220t213.5 89z
M321 487q-35 0 -64 -35.5t-46.5 -89t-27 -109t-9.5 -100.5q0 -131 84 -131q34 0 63 36.5t46 90.5t26.5 110.5t9.5 101.5q0 126 -82 126z" />
    <glyph glyph-name="odieresis" unicode="&#xf6;" horiz-adv-x="573" 
d="M256 735q33 0 52.5 -23.5t15.5 -58.5t-30 -58t-59 -23q-34 0 -53.5 23t-14.5 58q5 36 30 59t59 23zM462 735q34 0 53.5 -23.5t15.5 -58.5t-30 -58t-59 -23q-35 0 -54 22.5t-15 58.5q5 35 30 58.5t59 23.5zM325 516q108 0 167 -58.5t59 -157.5q0 -130 -85 -218.5
t-213 -88.5q-108 0 -167.5 57.5t-59.5 156.5q0 131 85.5 220t213.5 89zM321 487q-35 0 -64 -35.5t-46.5 -89t-27 -109t-9.5 -100.5q0 -131 84 -131q34 0 63 36.5t46 90.5t26.5 110.5t9.5 101.5q0 126 -82 126z" />
    <glyph glyph-name="divide" unicode="&#xf7;" horiz-adv-x="407" 
d="M225 359q-34 0 -55.5 21t-21.5 52q0 38 26.5 64t65.5 26q34 0 55 -21t21 -52q0 -38 -26 -64t-65 -26zM42 289h315l-6 -45h-315zM181 10q-34 0 -55.5 21.5t-21.5 52.5q0 37 26.5 63.5t65.5 26.5q34 0 55.5 -21.5t21.5 -52.5q0 -38 -26.5 -64t-65.5 -26z" />
    <glyph glyph-name="oslash" unicode="&#xf8;" horiz-adv-x="573" 
d="M458 484q93 -56 93 -184q0 -130 -85 -218.5t-213 -88.5q-59 0 -107 19l-32 -49h-44l44 65q-88 56 -88 179q0 131 85.5 220t213.5 89q59 0 104 -18l28 42h38zM174 153q0 -13 2 -33l214 320q-21 47 -69 47q-35 0 -64 -35.5t-46.5 -89t-27 -109t-9.5 -100.5zM258 22
q34 0 63 36.5t46 90.5t26.5 110.5t9.5 101.5q0 14 -2 36l-215 -324q20 -51 72 -51z" />
    <glyph glyph-name="ugrave" unicode="&#xf9;" horiz-adv-x="564" 
d="M346 578h-23l-141 167v1h143zM486 93q-10 -65 9 -93h-153l4 84q-68 -91 -171 -91q-155 0 -131 185l33 236q4 35 1 49.5t-14 28.5q82 5 170 15l-46 -332q-15 -108 65 -108q52 0 91 52l40 295q4 35 2 49.5t-12 28.5q84 5 169 15z" />
    <glyph glyph-name="uacute" unicode="&#xfa;" horiz-adv-x="564" 
d="M499 747v-1l-181 -167h-24l62 168h143zM486 93q-10 -65 9 -93h-153l4 84q-68 -91 -171 -91q-155 0 -131 185l33 236q4 35 1 49.5t-14 28.5q82 5 170 15l-46 -332q-15 -108 65 -108q52 0 91 52l40 295q4 35 2 49.5t-12 28.5q84 5 169 15z" />
    <glyph glyph-name="ucircumflex" unicode="&#xfb;" horiz-adv-x="564" 
d="M314 687l-114 -108h-30v2l145 166h88l94 -167v-1h-112zM486 93q-10 -65 9 -93h-153l4 84q-68 -91 -171 -91q-155 0 -131 185l33 236q4 35 1 49.5t-14 28.5q82 5 170 15l-46 -332q-15 -108 65 -108q52 0 91 52l40 295q4 35 2 49.5t-12 28.5q84 5 169 15z" />
    <glyph glyph-name="udieresis" unicode="&#xfc;" horiz-adv-x="564" 
d="M254 735q33 0 52.5 -23.5t15.5 -58.5t-30 -58t-59 -23q-34 0 -53.5 23t-14.5 58q5 36 30 59t59 23zM460 735q34 0 53.5 -23.5t15.5 -58.5t-30 -58t-59 -23q-35 0 -54 22.5t-15 58.5q5 35 30 58.5t59 23.5zM486 93q-10 -65 9 -93h-153l4 84q-68 -91 -171 -91
q-155 0 -131 185l33 236q4 35 1 49.5t-14 28.5q82 5 170 15l-46 -332q-15 -108 65 -108q52 0 91 52l40 295q4 35 2 49.5t-12 28.5q84 5 169 15z" />
    <glyph glyph-name="yacute" unicode="&#xfd;" horiz-adv-x="492" 
d="M492 746l-181 -167h-24l62 168h143v-1zM446 508h92q-9 -7 -16.5 -13.5t-14.5 -16.5t-9.5 -14.5t-9.5 -18t-8 -14.5l-244 -458l-45 -81q-31 -54 -64 -77.5t-79 -23.5q-45 0 -68.5 21t-23.5 55q0 33 21 53.5t51 20.5q34 0 51 -32q-20 -15 -20 -42q0 -30 31 -30q35 0 77 72
l14 26l-125 496q-15 55 -38 77h188q-3 -5 -5.5 -9.5t-3 -10.5t-0.5 -10t1 -11.5t2 -10.5t3 -12t3 -12l70 -312l165 312q29 55 5 76z" />
    <glyph glyph-name="thorn" unicode="&#xfe;" horiz-adv-x="579" 
d="M392 516q74 0 118 -56t44 -150q0 -140 -60.5 -228.5t-166.5 -88.5q-107 0 -145 99l-26 -197q-10 -67 7 -93h-186q23 23 34 93l102 743q10 63 -11 90q143 11 169 14l-44 -320q64 94 165 94zM272 66q67 0 101.5 72t34.5 171q0 134 -85 134q-60 0 -101 -60l-34 -249
q22 -68 84 -68z" />
    <glyph glyph-name="ydieresis" unicode="&#xff;" horiz-adv-x="492" 
d="M227 572q-34 0 -53.5 23t-14.5 58q5 36 30 59t59 23q33 0 52.5 -23.5t15.5 -58.5t-30 -58t-59 -23zM434 572q-35 0 -54 22.5t-15 58.5q5 35 30 58.5t59 23.5t53.5 -23.5t15.5 -58.5t-30 -58t-59 -23zM446 508h92q-9 -7 -16.5 -13.5t-14.5 -16.5t-9.5 -14.5t-9.5 -18
t-8 -14.5l-244 -458l-45 -81q-31 -54 -64 -77.5t-79 -23.5q-45 0 -68.5 21t-23.5 55q0 33 21 53.5t51 20.5q34 0 51 -32q-20 -15 -20 -42q0 -30 31 -30q35 0 77 72l14 26l-125 496q-15 55 -38 77h188q-3 -5 -5.5 -9.5t-3 -10.5t-0.5 -10t1 -11.5t2 -10.5t3 -12t3 -12
l70 -312l165 312q29 55 5 76z" />
    <glyph glyph-name="Amacron" unicode="&#x100;" horiz-adv-x="635" 
d="M575 885l-6 -43h-321l6 43h321zM397 0q19 11 21.5 31t-3.5 50l-19 119h-281l-53 -118q-11 -25 -15 -38t-2.5 -24.5t11.5 -19.5h-94q10 5 17 11.5t13 16t9 15t9 19.5t9 20l289 647h153l112 -646q0 -1 1.5 -10.5t2 -11t2 -9.5t2.5 -10.5t3 -9t4 -9.5l5 -7.5t7 -8.5t9 -7
h-212zM132 239h258l-67 430z" />
    <glyph glyph-name="amacron" unicode="&#x101;" horiz-adv-x="529" 
d="M480 668l-4 -37h-321l4 37h321zM490 309l-33 -241q-7 -51 5 -68h-145l2 68q-78 -75 -167 -75q-64 0 -102 34.5t-38 100.5q0 75 53.5 121t148.5 46q73 0 124 -41l14 106q9 68 -6 98t-64 30q-38 0 -61.5 -24t-23.5 -59q0 -17 11 -34q-31 -36 -76 -36q-23 0 -39 14t-16 41
q0 57 62.5 91.5t146.5 34.5q120 0 169 -48t35 -159zM156 146q-2 -38 18.5 -62t56.5 -24q46 0 86 36l15 117q-23 36 -77 36q-48 0 -73.5 -29.5t-25.5 -73.5z" />
    <glyph glyph-name="Abreve" unicode="&#x102;" horiz-adv-x="635" 
d="M392 773q-73 0 -108.5 43t-21.5 132h23q0 -39 19.5 -62t43 -29t53.5 -6q117 0 142 97h23q-9 -88 -56 -131.5t-118 -43.5zM397 0q19 11 21.5 31t-3.5 50l-19 119h-281l-53 -118q-11 -25 -15 -38t-2.5 -24.5t11.5 -19.5h-94q10 5 17 11.5t13 16t9 15t9 19.5t9 20l289 647
h153l112 -646q0 -1 1.5 -10.5t2 -11t2 -9.5t2.5 -10.5t3 -9t4 -9.5l5 -7.5t7 -8.5t9 -7h-212zM132 239h258l-67 430z" />
    <glyph glyph-name="abreve" unicode="&#x103;" horiz-adv-x="529" 
d="M309 584q-67 0 -101 42.5t-20 128.5h23q-1 -52 32.5 -74t76.5 -22q44 0 83 23t52 73h23q-9 -86 -55 -128.5t-114 -42.5zM490 309l-33 -241q-7 -51 5 -68h-145l2 68q-78 -75 -167 -75q-64 0 -102 34.5t-38 100.5q0 75 53.5 121t148.5 46q73 0 124 -41l14 106q9 68 -6 98
t-64 30q-38 0 -61.5 -24t-23.5 -59q0 -17 11 -34q-31 -36 -76 -36q-23 0 -39 14t-16 41q0 57 62.5 91.5t146.5 34.5q120 0 169 -48t35 -159zM156 146q-2 -38 18.5 -62t56.5 -24q46 0 86 36l15 117q-23 36 -77 36q-48 0 -73.5 -29.5t-25.5 -73.5z" />
    <glyph glyph-name="Aogonek" unicode="&#x104;" horiz-adv-x="635" 
d="M560 -169q9 0 15 3l3 -10q-29 -19 -74 -19q-81 0 -81 64q0 80 141 131h-167q19 11 21.5 31t-3.5 50l-19 119h-281l-53 -118q-11 -25 -15 -38t-2.5 -24.5t11.5 -19.5h-94q10 5 17 11.5t13 16t9 15t9 19.5t9 20l289 647h153l112 -646q0 -1 1.5 -10.5t2 -11t2 -9.5
t2.5 -10.5t3 -9t4 -9.5l5 -7.5t7 -8.5t9 -7h-27q-73 -42 -73 -110q0 -59 51 -59zM132 239h258l-67 430z" />
    <glyph glyph-name="aogonek" unicode="&#x105;" horiz-adv-x="529" 
d="M490 309l-33 -241q-7 -51 5 -68h-1q-38 -21 -57.5 -47t-19.5 -65q0 -59 51 -59q9 0 15 3l3 -10q-29 -19 -74 -19q-81 0 -81 64q0 82 147 133h-128l2 68q-78 -75 -167 -75q-64 0 -102 34.5t-38 100.5q0 75 53.5 121t148.5 46q73 0 124 -41l14 106q9 68 -6 98t-64 30
q-38 0 -61.5 -24t-23.5 -59q0 -17 11 -34q-31 -36 -76 -36q-23 0 -39 14t-16 41q0 57 62.5 91.5t146.5 34.5q120 0 169 -48t35 -159zM156 146q-2 -38 18.5 -62t56.5 -24q46 0 86 36l15 117q-23 36 -77 36q-48 0 -73.5 -29.5t-25.5 -73.5z" />
    <glyph glyph-name="Cacute" unicode="&#x106;" horiz-adv-x="619" 
d="M602 946v-1l-211 -172h-26l80 173h157zM439 694q-75 0 -129 -68.5t-78 -166t-24 -205.5q0 -112 43.5 -166.5t120.5 -54.5q48 0 84 17t82 55h1l19 -50q-83 -62 -197 -62q-155 0 -233.5 90.5t-78.5 226.5q0 175 114 299.5t280 124.5q86 0 144 -34t58 -88q0 -41 -21 -65
t-57 -24q-45 0 -69 37q23 25 23 61q0 33 -21.5 53t-60.5 20z" />
    <glyph glyph-name="cacute" unicode="&#x107;" horiz-adv-x="505" 
d="M502 747v-1l-181 -167h-24l62 168h143zM324 516q86 0 133 -30.5t47 -77.5q0 -30 -20 -49.5t-50 -19.5q-44 0 -68 37q23 17 23 54q0 25 -16 41t-48 16q-46 0 -81 -44.5t-50.5 -108.5t-15.5 -134q0 -84 32.5 -124.5t80.5 -40.5q70 0 143 71h1l16 -46q-87 -67 -198 -67
q-105 0 -166 58t-61 158q0 128 85.5 217.5t212.5 89.5z" />
    <glyph glyph-name="Ccircumflex" unicode="&#x108;" horiz-adv-x="619" 
d="M420 891l-114 -116h-34v2l151 171h84l91 -172v-1h-109zM443 734q86 0 144 -34t58 -88q0 -41 -21 -65t-57 -24q-45 0 -69 37q23 25 23 61q0 33 -21.5 53t-60.5 20q-75 0 -129 -68.5t-78 -166t-24 -205.5q0 -112 43.5 -166.5t120.5 -54.5q48 0 84 17t82 55h1l19 -50
q-83 -62 -197 -62q-155 0 -233.5 90.5t-78.5 226.5q0 175 114 299.5t280 124.5z" />
    <glyph glyph-name="ccircumflex" unicode="&#x109;" horiz-adv-x="505" 
d="M318 687l-114 -108h-30v2l145 166h88l94 -167v-1h-112zM366 376q23 17 23 54q0 25 -16 41t-48 16q-46 0 -81 -44.5t-50.5 -108.5t-15.5 -134q0 -84 32.5 -124.5t80.5 -40.5q70 0 143 71h1l16 -46q-87 -67 -198 -67q-105 0 -166 58t-61 158q0 128 85.5 217.5t212.5 89.5
q86 0 133 -30.5t47 -77.5q0 -30 -20 -49.5t-50 -19.5q-44 0 -68 37z" />
    <glyph glyph-name="Cdotaccent" unicode="&#x10a;" horiz-adv-x="619" 
d="M446 801q-32 0 -51.5 20t-19.5 54q0 38 25 64t62 26q32 0 52 -20.5t20 -53.5q0 -38 -25.5 -64t-62.5 -26zM439 694q-75 0 -129 -68.5t-78 -166t-24 -205.5q0 -112 43.5 -166.5t120.5 -54.5q48 0 84 17t82 55h1l19 -50q-83 -62 -197 -62q-155 0 -233.5 90.5t-78.5 226.5
q0 175 114 299.5t280 124.5q86 0 144 -34t58 -88q0 -41 -21 -65t-57 -24q-45 0 -69 37q23 25 23 61q0 33 -21.5 53t-60.5 20z" />
    <glyph glyph-name="cdotaccent" unicode="&#x10b;" horiz-adv-x="505" 
d="M360 735q35 0 57 -23.5t18 -58.5t-32 -58t-64 -23q-37 0 -58 23t-16 58q4 35 31 58.5t64 23.5zM324 516q86 0 133 -30.5t47 -77.5q0 -30 -20 -49.5t-50 -19.5q-44 0 -68 37q23 17 23 54q0 25 -16 41t-48 16q-46 0 -81 -44.5t-50.5 -108.5t-15.5 -134q0 -84 32.5 -124.5
t80.5 -40.5q70 0 143 71h1l16 -46q-87 -67 -198 -67q-105 0 -166 58t-61 158q0 128 85.5 217.5t212.5 89.5z" />
    <glyph glyph-name="Ccaron" unicode="&#x10c;" horiz-adv-x="619" 
d="M478 772h-85l-91 172v1h110l69 -116l113 116h34v-2zM443 734q86 0 144 -34t58 -88q0 -41 -21 -65t-57 -24q-45 0 -69 37q23 25 23 61q0 33 -21.5 53t-60.5 20q-75 0 -129 -68.5t-78 -166t-24 -205.5q0 -112 43.5 -166.5t120.5 -54.5q48 0 84 17t82 55h1l19 -50
q-83 -62 -197 -62q-155 0 -233.5 90.5t-78.5 226.5q0 175 114 299.5t280 124.5z" />
    <glyph glyph-name="ccaron" unicode="&#x10d;" horiz-adv-x="505" 
d="M478 747h32v-2l-147 -166h-87l-95 167v1h112l72 -109zM324 516q86 0 133 -30.5t47 -77.5q0 -30 -20 -49.5t-50 -19.5q-44 0 -68 37q23 17 23 54q0 25 -16 41t-48 16q-46 0 -81 -44.5t-50.5 -108.5t-15.5 -134q0 -84 32.5 -124.5t80.5 -40.5q70 0 143 71h1l16 -46
q-87 -67 -198 -67q-105 0 -166 58t-61 158q0 128 85.5 217.5t212.5 89.5z" />
    <glyph glyph-name="Dcaron" unicode="&#x10e;" horiz-adv-x="694" 
d="M431 768h-85l-91 172v1h110l69 -116l113 116h34v-2zM367 728q148 0 229 -79.5t81 -220.5q0 -192 -113 -310t-299 -118h-243q31 26 41 96l74 536q9 71 -14 96h244zM265 38q63 0 113 37.5t80 99t45.5 135t15.5 151.5q0 116 -43 172.5t-119 56.5h-64l-90 -652h62z" />
    <glyph glyph-name="dcaron" unicode="&#x10f;" horiz-adv-x="611" 
d="M680 746q25 0 41 -14.5t16 -44.5q0 -43 -34.5 -85.5t-87.5 -59.5l-4 11v1q64 30 72 81h-10q-22 0 -36.5 15.5t-14.5 37.5q0 25 16 41.5t42 16.5zM587 742l-88 -649q-9 -68 8 -93h-159l5 89q-60 -96 -163 -96q-74 0 -119 57t-45 153q0 137 61 225t166 88q107 0 145 -99
l31 221q7 67 -11 90q143 11 169 14zM257 66q29 0 56.5 17t44.5 45l35 248q-23 67 -86 67q-66 0 -100.5 -71.5t-34.5 -167.5q0 -138 85 -138z" />
    <glyph glyph-name="Dcroat" unicode="&#x110;" horiz-adv-x="694" 
d="M367 728q148 0 229 -79.5t81 -220.5q0 -192 -113 -310t-299 -118h-243q31 26 41 96l35 253h-43l5 32h42l35 251q9 71 -14 96h244zM265 38q63 0 113 37.5t80 99t45.5 135t15.5 151.5q0 116 -43 172.5t-119 56.5h-64l-43 -309h115l-5 -32h-114l-43 -311h62z" />
    <glyph glyph-name="dcroat" unicode="&#x111;" horiz-adv-x="578" 
d="M567 597l-68 -504q-9 -68 8 -93h-159l5 89q-60 -96 -163 -96q-74 0 -119 57t-45 153q0 137 61 225t166 88q107 0 145 -99l25 180h-99l5 32h99l1 9q7 67 -11 90q143 11 169 14l-15 -113h62l-5 -32h-62zM257 66q29 0 56.5 17t44.5 45l35 248q-23 67 -86 67
q-66 0 -100.5 -71.5t-34.5 -167.5q0 -138 85 -138z" />
    <glyph glyph-name="Emacron" unicode="&#x112;" horiz-adv-x="552" 
d="M557 885l-6 -43h-321l6 43h321zM582 728l-9 -77h-2q-21 38 -100 38h-178l-38 -272h136q63 0 89 23l-10 -83q-22 23 -83 23h-137l-47 -341h185q80 0 110 38h2l-10 -77h-467q29 23 39 96l74 536q11 71 -13 96h459z" />
    <glyph glyph-name="emacron" unicode="&#x113;" horiz-adv-x="533" 
d="M517 668l-4 -37h-321l4 37h321zM321 516q102 0 149 -61t43 -158q-3 -36 -5 -48h-329q-3 -29 -3 -54q0 -79 30.5 -119.5t84.5 -40.5q83 0 161 76h1l16 -46q-85 -72 -212 -72q-107 0 -169 57.5t-62 157.5q0 129 85.5 218.5t209.5 89.5zM185 287h197q5 34 5 65
q5 62 -11.5 98.5t-56.5 36.5q-48 0 -83 -58.5t-51 -141.5z" />
    <glyph glyph-name="Ebreve" unicode="&#x114;" horiz-adv-x="552" 
d="M379 773q-73 0 -108.5 43t-21.5 132h23q0 -39 19.5 -62t43 -29t53.5 -6q117 0 142 97h23q-9 -88 -56 -131.5t-118 -43.5zM582 728l-9 -77h-2q-21 38 -100 38h-178l-38 -272h136q63 0 89 23l-10 -83q-22 23 -83 23h-137l-47 -341h185q80 0 110 38h2l-10 -77h-467
q29 23 39 96l74 536q11 71 -13 96h459z" />
    <glyph glyph-name="ebreve" unicode="&#x115;" horiz-adv-x="533" 
d="M346 584q-67 0 -101 42.5t-20 128.5h23q-1 -52 32.5 -74t76.5 -22q44 0 83 23t52 73h23q-9 -86 -55 -128.5t-114 -42.5zM321 516q102 0 149 -61t43 -158q-3 -36 -5 -48h-329q-3 -29 -3 -54q0 -79 30.5 -119.5t84.5 -40.5q83 0 161 76h1l16 -46q-85 -72 -212 -72
q-107 0 -169 57.5t-62 157.5q0 129 85.5 218.5t209.5 89.5zM185 287h197q5 34 5 65q5 62 -11.5 98.5t-56.5 36.5q-48 0 -83 -58.5t-51 -141.5z" />
    <glyph glyph-name="Edotaccent" unicode="&#x116;" horiz-adv-x="552" 
d="M385 801q-32 0 -51.5 20t-19.5 54q0 38 25 64t62 26q32 0 52 -20.5t20 -53.5q0 -38 -25.5 -64t-62.5 -26zM582 728l-9 -77h-2q-21 38 -100 38h-178l-38 -272h136q63 0 89 23l-10 -83q-22 23 -83 23h-137l-47 -341h185q80 0 110 38h2l-10 -77h-467q29 23 39 96l74 536
q11 71 -13 96h459z" />
    <glyph glyph-name="edotaccent" unicode="&#x117;" horiz-adv-x="533" 
d="M348 572q-37 0 -58 23t-16 58q4 35 31 58.5t64 23.5q35 0 57 -23.5t18 -58.5t-32 -58t-64 -23zM321 516q102 0 149 -61t43 -158q-3 -36 -5 -48h-329q-3 -29 -3 -54q0 -79 30.5 -119.5t84.5 -40.5q83 0 161 76h1l16 -46q-85 -72 -212 -72q-107 0 -169 57.5t-62 157.5
q0 129 85.5 218.5t209.5 89.5zM185 287h197q5 34 5 65q5 62 -11.5 98.5t-56.5 36.5q-48 0 -83 -58.5t-51 -141.5z" />
    <glyph glyph-name="Eogonek" unicode="&#x118;" horiz-adv-x="552" 
d="M582 728l-9 -77h-2q-21 38 -100 38h-178l-38 -272h136q63 0 89 23l-10 -83q-22 23 -83 23h-137l-47 -341h185q80 0 110 38h2l-10 -77h-2q-75 -42 -75 -111q0 -59 51 -59q9 0 15 3l3 -10q-29 -19 -74 -19q-81 0 -81 64q0 81 144 132h-448q29 23 39 96l74 536q11 71 -13 96
h459z" />
    <glyph glyph-name="eogonek" unicode="&#x119;" horiz-adv-x="533" 
d="M321 516q102 0 149 -61t43 -158q-3 -36 -5 -48h-329q-3 -29 -3 -54q0 -79 30.5 -119.5t84.5 -40.5q83 0 161 76h1l16 -46q-50 -42 -109 -59q-67 -41 -67 -106q0 -59 51 -59q9 0 15 3l3 -10q-29 -19 -74 -19q-81 0 -81 64q0 71 108 118q-24 -4 -58 -4q-107 0 -169 57.5
t-62 157.5q0 129 85.5 218.5t209.5 89.5zM185 287h197q5 34 5 65q5 62 -11.5 98.5t-56.5 36.5q-48 0 -83 -58.5t-51 -141.5z" />
    <glyph glyph-name="Ecaron" unicode="&#x11a;" horiz-adv-x="552" 
d="M416 772h-85l-91 172v1h110l69 -116l113 116h34v-2zM582 728l-9 -77h-2q-21 38 -100 38h-178l-38 -272h136q63 0 89 23l-10 -83q-22 23 -83 23h-137l-47 -341h185q80 0 110 38h2l-10 -77h-467q29 23 39 96l74 536q11 71 -13 96h459z" />
    <glyph glyph-name="ecaron" unicode="&#x11b;" horiz-adv-x="533" 
d="M486 747h32v-2l-147 -166h-87l-95 167v1h112l72 -109zM321 516q102 0 149 -61t43 -158q-3 -36 -5 -48h-329q-3 -29 -3 -54q0 -79 30.5 -119.5t84.5 -40.5q83 0 161 76h1l16 -46q-85 -72 -212 -72q-107 0 -169 57.5t-62 157.5q0 129 85.5 218.5t209.5 89.5zM185 287h197
q5 34 5 65q5 62 -11.5 98.5t-56.5 36.5q-48 0 -83 -58.5t-51 -141.5z" />
    <glyph glyph-name="Gcircumflex" unicode="&#x11c;" horiz-adv-x="690" 
d="M436 891l-114 -116h-34v2l151 171h84l91 -172v-1h-109zM479 340h195q-40 -28 -50 -105l-23 -163q-119 -79 -262 -79q-144 0 -217 90.5t-73 223.5q0 113 53.5 211.5t147 157t204.5 58.5q92 0 149 -34t57 -91q0 -38 -21 -61.5t-58 -23.5q-43 0 -66 36q25 24 25 57
q0 34 -23.5 57t-67.5 23q-78 0 -134.5 -69t-81 -169.5t-24.5 -217.5q0 -211 143 -211q66 0 125 46l23 159q11 77 -21 105z" />
    <glyph glyph-name="gcircumflex" unicode="&#x11d;" horiz-adv-x="530" 
d="M582 563q0 -37 -37.5 -65t-95.5 -39q42 -45 42 -114q0 -100 -70.5 -167t-179.5 -67q-47 0 -86 14q-47 -34 -47 -84q0 -64 68 -64q38 0 103.5 24t104.5 24q49 0 79.5 -28t30.5 -75q0 -42 -26 -74t-64 -32q-21 0 -31 11q19 16 19 36q0 42 -47 42q-35 0 -112 -25t-128 -25
q-53 0 -86 31.5t-33 80.5q0 55 37 94t102 79q-77 46 -77 147q0 100 69.5 164.5t178.5 64.5q77 0 129 -36q21 6 34 22t13 34q0 25 -16 34l8 9h-75l-71 108l-114 -108h-30v2l145 166h88l83 -148q20 11 42 11q50 0 50 -47zM245 138q50 0 81.5 80t31.5 163q0 51 -17.5 79.5
t-47.5 28.5q-49 0 -80.5 -80.5t-31.5 -161.5q0 -52 17 -80.5t47 -28.5z" />
    <glyph glyph-name="Gbreve" unicode="&#x11e;" horiz-adv-x="690" 
d="M456 773q-73 0 -108.5 43t-21.5 132h23q0 -39 19.5 -62t43 -29t53.5 -6q117 0 142 97h23q-9 -88 -56 -131.5t-118 -43.5zM449 697q-78 0 -134.5 -69t-81 -169.5t-24.5 -217.5q0 -211 143 -211q66 0 125 46l23 159q11 77 -21 105h195q-40 -28 -50 -105l-23 -163
q-119 -79 -262 -79q-144 0 -217 90.5t-73 223.5q0 113 53.5 211.5t147 157t204.5 58.5q92 0 149 -34t57 -91q0 -38 -21 -61.5t-58 -23.5q-43 0 -66 36q25 24 25 57q0 34 -23.5 57t-67.5 23z" />
    <glyph glyph-name="gbreve" unicode="&#x11f;" horiz-adv-x="530" 
d="M338 584q-67 0 -101 42.5t-20 128.5h23q-1 -52 32.5 -74t76.5 -22q44 0 83 23t52 73h23q-9 -86 -55 -128.5t-114 -42.5zM582 563q0 -37 -37.5 -65t-95.5 -39q42 -45 42 -114q0 -100 -70.5 -167t-179.5 -67q-47 0 -86 14q-47 -34 -47 -84q0 -64 68 -64q38 0 103.5 24
t104.5 24q49 0 79.5 -28t30.5 -75q0 -42 -26 -74t-64 -32q-21 0 -31 11q19 16 19 36q0 42 -47 42q-35 0 -112 -25t-128 -25q-53 0 -86 31.5t-33 80.5q0 55 37 94t102 79q-77 46 -77 147q0 100 69.5 164.5t178.5 64.5q77 0 129 -36q21 6 34 22t13 34q0 25 -16 34q33 40 76 40
q50 0 50 -47zM245 138q50 0 81.5 80t31.5 163q0 51 -17.5 79.5t-47.5 28.5q-49 0 -80.5 -80.5t-31.5 -161.5q0 -52 17 -80.5t47 -28.5z" />
    <glyph glyph-name="Gdotaccent" unicode="&#x120;" horiz-adv-x="690" 
d="M462 801q-32 0 -51.5 20t-19.5 54q0 38 25 64t62 26q32 0 52 -20.5t20 -53.5q0 -38 -25.5 -64t-62.5 -26zM449 697q-78 0 -134.5 -69t-81 -169.5t-24.5 -217.5q0 -211 143 -211q66 0 125 46l23 159q11 77 -21 105h195q-40 -28 -50 -105l-23 -163q-119 -79 -262 -79
q-144 0 -217 90.5t-73 223.5q0 113 53.5 211.5t147 157t204.5 58.5q92 0 149 -34t57 -91q0 -38 -21 -61.5t-58 -23.5q-43 0 -66 36q25 24 25 57q0 34 -23.5 57t-67.5 23z" />
    <glyph glyph-name="gdotaccent" unicode="&#x121;" horiz-adv-x="530" 
d="M340 572q-37 0 -58 23t-16 58q4 35 31 58.5t64 23.5q35 0 57 -23.5t18 -58.5t-32 -58t-64 -23zM582 563q0 -37 -37.5 -65t-95.5 -39q42 -45 42 -114q0 -100 -70.5 -167t-179.5 -67q-47 0 -86 14q-47 -34 -47 -84q0 -64 68 -64q38 0 103.5 24t104.5 24q49 0 79.5 -28
t30.5 -75q0 -42 -26 -74t-64 -32q-21 0 -31 11q19 16 19 36q0 42 -47 42q-35 0 -112 -25t-128 -25q-53 0 -86 31.5t-33 80.5q0 55 37 94t102 79q-77 46 -77 147q0 100 69.5 164.5t178.5 64.5q77 0 129 -36q21 6 34 22t13 34q0 25 -16 34q33 40 76 40q50 0 50 -47zM245 138
q50 0 81.5 80t31.5 163q0 51 -17.5 79.5t-47.5 28.5q-49 0 -80.5 -80.5t-31.5 -161.5q0 -52 17 -80.5t47 -28.5z" />
    <glyph glyph-name="uni0122" unicode="&#x122;" horiz-adv-x="690" 
d="M449 697q-78 0 -134.5 -69t-81 -169.5t-24.5 -217.5q0 -211 143 -211q66 0 125 46l23 159q11 77 -21 105h195q-40 -28 -50 -105l-23 -163q-119 -79 -262 -79q-144 0 -217 90.5t-73 223.5q0 113 53.5 211.5t147 157t204.5 58.5q92 0 149 -34t57 -91q0 -38 -21 -61.5
t-58 -23.5q-43 0 -66 36q25 24 25 57q0 34 -23.5 57t-67.5 23zM396 -111q0 -52 -39 -98t-99 -67l-5 11v1q64 39 82 94h-13q-27 0 -43 15.5t-16 43.5q0 29 20 48.5t51 19.5q28 0 45 -18t17 -50z" />
    <glyph glyph-name="uni0123" unicode="&#x123;" horiz-adv-x="530" 
d="M337 551q-28 0 -45 18t-17 50q0 52 39 98t99 67l5 -11v-1q-64 -39 -82 -94h13q27 0 43 -15.5t16 -43.5q0 -29 -20 -48.5t-51 -19.5zM582 563q0 -37 -37.5 -65t-95.5 -39q42 -45 42 -114q0 -100 -70.5 -167t-179.5 -67q-47 0 -86 14q-47 -34 -47 -84q0 -64 68 -64
q38 0 103.5 24t104.5 24q49 0 79.5 -28t30.5 -75q0 -42 -26 -74t-64 -32q-21 0 -31 11q19 16 19 36q0 42 -47 42q-35 0 -112 -25t-128 -25q-53 0 -86 31.5t-33 80.5q0 55 37 94t102 79q-77 46 -77 147q0 100 69.5 164.5t178.5 64.5q77 0 129 -36q21 6 34 22t13 34
q0 25 -16 34q33 40 76 40q50 0 50 -47zM245 138q50 0 81.5 80t31.5 163q0 51 -17.5 79.5t-47.5 28.5q-49 0 -80.5 -80.5t-31.5 -161.5q0 -52 17 -80.5t47 -28.5z" />
    <glyph glyph-name="Hcircumflex" unicode="&#x124;" horiz-adv-x="743" 
d="M423 889l-114 -116h-34v2l151 171h84l91 -172v-1h-109zM551 728h200q-30 -26 -40 -96l-74 -536q-10 -71 14 -96h-201q28 24 38 96l40 288h-279l-40 -288q-10 -70 14 -96h-201q29 24 39 96l74 536q10 73 -12 96h200q-30 -26 -40 -96l-29 -211h279l30 211q10 71 -12 96z
" />
    <glyph glyph-name="hcircumflex" unicode="&#x125;" horiz-adv-x="576" 
d="M187 884l-108 -116h-33v2l145 171h81l88 -172v-1h-106zM531 315l-30 -222q-9 -68 8 -93h-188q26 23 35 93l32 239q16 110 -66 110q-34 0 -60.5 -16t-37.5 -35l-42 -298q-9 -69 10 -93h-188q26 26 35 93l75 551q7 66 -11 89q93 5 162 14l-45 -323q69 92 171 92
q167 0 140 -201z" />
    <glyph glyph-name="Hbar" unicode="&#x126;" horiz-adv-x="743" 
d="M699 548l-62 -452q-10 -71 14 -96h-201q28 24 38 96l40 288h-279l-40 -288q-10 -70 14 -96h-201q29 24 39 96l62 452h-68l6 38h68l6 46q10 73 -12 96h200q-30 -26 -40 -96l-6 -46h280l6 46q10 71 -12 96h200q-30 -26 -40 -96l-6 -46h66l-5 -38h-67zM254 421h279l18 127
h-280z" />
    <glyph glyph-name="hbar" unicode="&#x127;" horiz-adv-x="601" 
d="M550 315l-30 -222q-9 -68 8 -93h-188q26 23 35 93l33 239q15 110 -67 110q-34 0 -60.5 -16t-37.5 -35l-42 -298q-9 -69 10 -93h-188q26 26 35 93l68 503h-77l6 32h76l2 16q8 64 -11 89q93 5 162 14l-16 -119h92l-6 -32h-91l-23 -172q69 92 170 92q167 0 140 -201z" />
    <glyph glyph-name="Itilde" unicode="&#x128;" horiz-adv-x="322" 
d="M199 907q31 0 84 -23.5t71 -23.5q23 0 44 16t23 38h13q-5 -53 -35.5 -94t-77.5 -41q-28 0 -85.5 25.5t-77.5 25.5q-29 0 -49 -19t-26 -43h-13q6 48 39 93.5t90 45.5zM212 96q-7 -72 18 -96h-205q29 23 39 96l75 536q8 71 -15 96h203q-30 -24 -40 -96z" />
    <glyph glyph-name="itilde" unicode="&#x129;" horiz-adv-x="265" 
d="M13 583q9 58 39.5 98.5t83.5 40.5q31 0 77 -26t75 -26q56 0 68 59h13q-8 -57 -39 -97.5t-84 -40.5q-30 0 -75 26t-76 26q-25 0 -43.5 -15.5t-25.5 -44.5h-13zM81 409q7 67 -13 90q117 6 170 13l-53 -419q-9 -68 11 -93h-191q27 23 36 93z" />
    <glyph glyph-name="Imacron" unicode="&#x12a;" horiz-adv-x="322" 
d="M99 885h321l-6 -43h-321zM212 96q-7 -72 18 -96h-205q29 23 39 96l75 536q8 71 -15 96h203q-30 -24 -40 -96z" />
    <glyph glyph-name="imacron" unicode="&#x12b;" horiz-adv-x="265" 
d="M32 669h321l-4 -37h-321zM81 409q7 67 -13 90q117 6 170 13l-53 -419q-9 -68 11 -93h-191q27 23 36 93z" />
    <glyph glyph-name="Ibreve" unicode="&#x12c;" horiz-adv-x="322" 
d="M237 773q-73 0 -108.5 43t-21.5 132h23q0 -39 19.5 -62t43 -29t53.5 -6q117 0 142 97h23q-9 -88 -56 -131.5t-118 -43.5zM212 96q-7 -72 18 -96h-205q29 23 39 96l75 536q8 71 -15 96h203q-30 -24 -40 -96z" />
    <glyph glyph-name="Iogonek" unicode="&#x12e;" horiz-adv-x="322" 
d="M124 728h203q-30 -24 -40 -96l-75 -536q-7 -72 18 -96h-35q-63 -39 -63 -104q0 -59 51 -59q9 0 15 3l3 -10q-29 -19 -74 -19q-81 0 -81 64q0 76 125 125h-146q29 23 39 96l75 536q8 71 -15 96z" />
    <glyph glyph-name="iogonek" unicode="&#x12f;" horiz-adv-x="265" 
d="M205 736q35 0 57 -23.5t18 -58.5t-32 -58t-64 -23q-37 0 -58 23t-16 58q4 35 31 58.5t64 23.5zM238 512l-53 -419q-9 -68 11 -93h-7q-38 -21 -57.5 -47t-19.5 -65q0 -59 51 -59q9 0 15 3l3 -10q-29 -19 -74 -19q-81 0 -81 64q0 82 147 133h-168q27 23 36 93l40 316
q7 67 -13 90q117 6 170 13z" />
    <glyph glyph-name="Idotaccent" unicode="&#x130;" horiz-adv-x="322" 
d="M243 801q-32 0 -51.5 20t-19.5 54q0 38 25 64t62 26q32 0 52 -20.5t20 -53.5q0 -38 -25.5 -64t-62.5 -26zM212 96q-7 -72 18 -96h-205q29 23 39 96l75 536q8 71 -15 96h203q-30 -24 -40 -96z" />
    <glyph glyph-name="dotlessi" unicode="&#x131;" horiz-adv-x="265" 
d="M81 409q7 67 -13 90q117 6 170 13l-53 -419q-9 -68 11 -93h-191q27 23 36 93z" />
    <glyph glyph-name="IJ" unicode="&#x132;" horiz-adv-x="636" 
d="M212 96q-7 -72 18 -96h-205q29 23 39 96l75 536q8 71 -15 96h203q-30 -24 -40 -96zM681 728q-30 -26 -40 -96l-53 -414q-15 -121 -77.5 -179.5t-156.5 -62.5l-3 7q64 41 86 217l57 432q8 72 -16 96h203z" />
    <glyph glyph-name="ij" unicode="&#x133;" horiz-adv-x="519" 
d="M450 734q34 0 55.5 -20t20.5 -53q-1 -39 -28 -64.5t-66 -25.5q-33 0 -54 20t-20 53q1 37 26.5 63.5t65.5 26.5zM192 733q36 0 57.5 -23t17.5 -58q-4 -36 -31 -59t-64 -23q-36 0 -56.5 23t-16.5 59q4 35 30 58t63 23zM181 93q-9 -68 12 -93h-190q26 23 35 93l43 316
q7 67 -13 90q117 6 170 13zM327 492q90 3 169 20l-74 -559q-21 -160 -156 -160q-31 0 -54.5 9.5t-37.5 27t-21 31t-13 33.5l5 4q25 -31 64 -31q30 0 46.5 18.5t21.5 60.5l63 463q7 57 -13 83z" />
    <glyph glyph-name="Jcircumflex" unicode="&#x134;" horiz-adv-x="459" 
d="M456 948l91 -172v-1h-109l-69 116l-114 -116h-34v2l151 171h84zM282 632q10 72 -13 96h201q-30 -26 -40 -96l-62 -456q-11 -89 -63.5 -136t-141.5 -47q-80 0 -120 44.5t-29 122.5l23 11h1q-5 -41 16 -73.5t71 -32.5q42 0 64 23t30 80z" />
    <glyph glyph-name="jcircumflex" unicode="&#x135;" horiz-adv-x="261" 
d="M239 741l94 -167v-1h-112l-71 108l-114 -108h-30v2l145 166h88zM106 409q8 63 -11 90q116 6 170 13l-71 -551q-22 -168 -161 -168q-30 0 -52.5 9t-36 27t-19.5 31t-13 34l7 5q16 -17 28 -24.5t31 -7.5q57 0 68 79z" />
    <glyph glyph-name="uni0136" unicode="&#x136;" horiz-adv-x="640" 
d="M561 111q1 -3 7.5 -18t10 -22l10.5 -21t12 -21.5t12.5 -16t14.5 -12.5h-182l-139 335l-76 -83l-21 -156q-10 -71 14 -96h-201q29 24 39 96l73 536q12 70 -12 96h201q-32 -27 -41 -96l-42 -309l322 346q14 14 15.5 31t-11.5 28h100l-254 -277zM312 -43q28 0 45 -18t17 -50
q0 -52 -39 -98t-99 -67l-5 11v1q64 39 82 94h-13q-27 0 -43 15.5t-16 43.5q0 29 20 48.5t51 19.5z" />
    <glyph glyph-name="uni0137" unicode="&#x137;" horiz-adv-x="537" 
d="M454 111q3 -6 11 -28t13.5 -33.5t16 -26.5t22.5 -23h-204q4 3 6.5 6.5t3.5 8t1.5 8.5t-0.5 10.5t-2.5 11.5t-4 13t-4.5 13t-5.5 14.5t-5.5 15.5l-52 141l-53 -49l-13 -100q-10 -67 10 -93h-189q24 20 35 93l73 544q9 66 -11 90q115 6 169 13l-65 -485l210 193
q47 41 31 60h109q-11 -3 -21 -8t-21.5 -14t-16.5 -13.5t-18.5 -17t-14.5 -13.5l-105 -98zM226 -43q28 0 45 -18t17 -50q0 -52 -39 -98t-99 -67l-5 11v1q64 39 82 94h-13q-27 0 -43 15.5t-16 43.5q0 29 20 48.5t51 19.5z" />
    <glyph glyph-name="kgreenlandic" unicode="&#x138;" horiz-adv-x="525" 
d="M487 111q3 -6 11 -28t13.5 -33.5t16 -26.5t22.5 -23h-204q5 4 8 8.5t3.5 11t0 12t-3.5 15.5t-5 16t-7 19t-7 19l-52 141l-52 -50l-14 -99q-9 -69 10 -93h-190q26 23 35 93l43 312q9 66 -11 90q12 1 46 3t67 4.5t57 5.5l-35 -253l209 192q47 43 32 61h109q-10 -3 -20 -7.5
t-22 -14t-17.5 -14t-20 -18.5t-16.5 -16l-100 -94z" />
    <glyph glyph-name="Lacute" unicode="&#x139;" horiz-adv-x="529" 
d="M402 945l-211 -172h-26l80 173h157v-1zM494 77h1l-10 -77h-462q29 24 39 96l73 536q10 73 -12 96h200q-29 -25 -39 -96l-81 -593h180q81 0 111 38z" />
    <glyph glyph-name="lacute" unicode="&#x13a;" horiz-adv-x="264" 
d="M372 967v-1l-181 -167h-24l62 168h143zM5 0q24 20 35 93l73 544q9 66 -11 90q115 6 169 13l-87 -647q-10 -67 10 -93h-189z" />
    <glyph glyph-name="uni013B" unicode="&#x13b;" horiz-adv-x="529" 
d="M494 77h1l-10 -77h-462q29 24 39 96l73 536q10 73 -12 96h200q-29 -25 -39 -96l-81 -593h180q81 0 111 38zM250 -43q28 0 45 -18t17 -50q0 -52 -39 -98t-99 -67l-5 11v1q64 39 82 94h-13q-27 0 -43 15.5t-16 43.5q0 29 20 48.5t51 19.5z" />
    <glyph glyph-name="uni013C" unicode="&#x13c;" horiz-adv-x="264" 
d="M5 0q24 20 35 93l73 544q9 66 -11 90q115 6 169 13l-87 -647q-10 -67 10 -93h-189zM151 -111q0 -52 -39 -98t-99 -67l-5 11v1q64 39 82 94h-13q-27 0 -43 15.5t-16 43.5q0 29 20 48.5t51 19.5q28 0 45 -18t17 -50z" />
    <glyph glyph-name="Lcaron" unicode="&#x13d;" horiz-adv-x="529" 
d="M535 684q0 -43 -34.5 -86t-87.5 -60l-4 12v1q64 29 72 81h-10q-22 0 -36.5 15t-14.5 37q0 25 16 41.5t42 16.5q25 0 41 -14t16 -44zM383 39q81 0 111 38h1l-10 -77h-462q29 24 39 96l73 536q10 73 -12 96h200q-29 -25 -39 -96l-81 -593h180z" />
    <glyph glyph-name="lcaron" unicode="&#x13e;" horiz-adv-x="284" 
d="M420 686q0 -43 -34.5 -85.5t-87.5 -59.5l-4 11v1q64 30 72 81h-10q-22 0 -37 15t-15 37q0 25 16.5 42t42.5 17q25 0 41 -14.5t16 -44.5zM5 0q24 20 35 93l73 544q9 66 -11 90q115 6 169 13l-87 -647q-10 -67 10 -93h-189z" />
    <glyph glyph-name="Ldot" unicode="&#x13f;" horiz-adv-x="529" 
d="M383 39q81 0 111 38h1l-10 -77h-462q29 24 39 96l73 536q10 73 -12 96h200q-29 -25 -39 -96l-81 -593h180zM449 473q35 0 57 -21t22 -55q0 -39 -27 -66t-67 -27q-36 0 -58.5 22t-22.5 56q0 38 27.5 64.5t68.5 26.5z" />
    <glyph glyph-name="ldot" unicode="&#x140;" horiz-adv-x="410" 
d="M39 0q28 25 35 93l70 544q9 65 -13 90q115 6 169 13l-81 -647q-8 -71 11 -93h-191zM377 274q-32 0 -53 21.5t-21 56.5q0 39 26.5 66t68.5 27q31 0 52 -21.5t21 -56.5q0 -39 -26 -66t-68 -27z" />
    <glyph glyph-name="Lslash" unicode="&#x141;" horiz-adv-x="529" 
d="M494 77h1l-10 -77h-462q29 24 39 96l24 173l-55 -24l-11 34l71 31l44 322q10 73 -12 96h200q-29 -25 -39 -96l-34 -252l138 61l11 -34l-155 -68l-41 -300h180q81 0 111 38z" />
    <glyph glyph-name="lslash" unicode="&#x142;" horiz-adv-x="301" 
d="M203 93q-10 -68 10 -93h-189q25 21 34 93l30 220l-68 -36l-12 33l86 46l38 281q9 66 -11 90q117 6 169 13l-40 -299l67 36l15 -33l-88 -47z" />
    <glyph glyph-name="Nacute" unicode="&#x143;" horiz-adv-x="689" 
d="M598 945l-211 -172h-26l80 173h157v-1zM602 728h96q-28 -24 -38 -96l-88 -632h-62l-344 537l-61 -441q-8 -70 13 -96h-95q29 24 39 96l75 536q10 72 -14 96h93l343 -523l58 427q10 72 -15 96z" />
    <glyph glyph-name="nacute" unicode="&#x144;" horiz-adv-x="575" 
d="M522 741v-1l-181 -167h-24l62 168h143zM530 315l-30 -222q-9 -68 8 -93h-188q26 23 35 93l32 239q15 110 -66 110q-34 0 -60.5 -16t-37.5 -35l-42 -298q-9 -69 10 -93h-188q25 25 35 93l42 311q8 64 -10 89q130 10 161 15l-11 -84q69 92 170 92q167 0 140 -201z" />
    <glyph glyph-name="uni0145" unicode="&#x145;" horiz-adv-x="689" 
d="M602 728h96q-28 -24 -38 -96l-88 -632h-62l-344 537l-61 -441q-8 -70 13 -96h-95q29 24 39 96l75 536q10 72 -14 96h93l343 -523l58 427q10 72 -15 96zM302 -43q28 0 45 -18t17 -50q0 -52 -39 -98t-99 -67l-5 11v1q64 39 82 94h-13q-27 0 -43 15.5t-16 43.5q0 29 20 48.5
t51 19.5z" />
    <glyph glyph-name="uni0146" unicode="&#x146;" horiz-adv-x="575" 
d="M530 315l-30 -222q-9 -68 8 -93h-188q26 23 35 93l32 239q15 110 -66 110q-34 0 -60.5 -16t-37.5 -35l-42 -298q-9 -69 10 -93h-188q25 25 35 93l42 311q8 64 -10 89q130 10 161 15l-11 -84q69 92 170 92q167 0 140 -201zM309 -111q0 -52 -39 -98t-99 -67l-5 11v1
q64 39 82 94h-13q-27 0 -43 15.5t-16 43.5q0 29 20 48.5t51 19.5q28 0 45 -18t17 -50z" />
    <glyph glyph-name="Ncaron" unicode="&#x147;" horiz-adv-x="689" 
d="M473 772h-85l-91 172v1h110l69 -116l113 116h34v-2zM602 728h96q-28 -24 -38 -96l-88 -632h-62l-344 537l-61 -441q-8 -70 13 -96h-95q29 24 39 96l75 536q10 72 -14 96h93l343 -523l58 427q10 72 -15 96z" />
    <glyph glyph-name="ncaron" unicode="&#x148;" horiz-adv-x="575" 
d="M382 573h-87l-95 167v1h112l72 -109l113 109h32v-2zM530 315l-30 -222q-9 -68 8 -93h-188q26 23 35 93l32 239q15 110 -66 110q-34 0 -60.5 -16t-37.5 -35l-42 -298q-9 -69 10 -93h-188q25 25 35 93l42 311q8 64 -10 89q130 10 161 15l-11 -84q69 92 170 92
q167 0 140 -201z" />
    <glyph glyph-name="napostrophe" unicode="&#x149;" horiz-adv-x="575" 
d="M139 692q0 -47 -37.5 -93.5t-95.5 -64.5l-5 12v1q71 32 79 88h-11q-24 0 -40 17t-16 41q0 27 17.5 45t46.5 18q27 0 44.5 -15.5t17.5 -48.5zM530 315l-30 -222q-9 -68 8 -93h-188q26 23 35 93l32 239q15 110 -66 110q-34 0 -60.5 -16t-37.5 -35l-42 -298q-9 -69 10 -93
h-188q25 25 35 93l42 311q8 64 -10 89q130 10 161 15l-11 -84q69 92 170 92q167 0 140 -201z" />
    <glyph glyph-name="Eng" unicode="&#x14a;" horiz-adv-x="678" 
d="M631 728h96q-29 -25 -39 -96l-92 -666q-11 -79 -41 -117t-90 -38q-54 0 -79 39.5t-18 97.5l37 9h1q-6 -42 10 -73.5t55 -31.5q68 0 82 101l7 53l-365 533l-62 -443q-8 -69 14 -96h-95q29 24 39 96l74 536q10 73 -14 96h93l343 -523l59 427q10 71 -15 96z" />
    <glyph glyph-name="eng" unicode="&#x14b;" horiz-adv-x="576" 
d="M390 516q168 0 141 -201l-48 -354q-12 -86 -50.5 -127t-108.5 -41q-31 0 -54 9t-36 27t-19 31t-12 34l6 5q15 -17 27 -24.5t33 -7.5q55 0 66 79l53 386q15 110 -67 110q-33 0 -59.5 -15.5t-38.5 -35.5l-41 -298q-9 -70 9 -93h-188q25 24 34 93l42 311q10 65 -9 89
q126 10 161 15l-11 -84q69 92 170 92z" />
    <glyph glyph-name="Omacron" unicode="&#x14c;" horiz-adv-x="768" 
d="M329 882h321l-6 -42h-321zM451 734q135 0 218.5 -83t83.5 -221q0 -181 -116 -309t-287 -128q-135 0 -218.5 85t-83.5 227q0 179 116 304t287 125zM446 695q-58 0 -105 -43.5t-74.5 -112t-42 -143.5t-14.5 -147q0 -110 39.5 -163.5t106.5 -53.5q57 0 103.5 44.5
t74.5 113.5t42.5 145t14.5 147q0 107 -39.5 160t-105.5 53z" />
    <glyph glyph-name="omacron" unicode="&#x14d;" horiz-adv-x="573" 
d="M186 668h321l-4 -37h-321zM325 516q108 0 167 -58.5t59 -157.5q0 -130 -85 -218.5t-213 -88.5q-108 0 -167.5 57.5t-59.5 156.5q0 131 85.5 220t213.5 89zM321 487q-35 0 -64 -35.5t-46.5 -89t-27 -109t-9.5 -100.5q0 -131 84 -131q34 0 63 36.5t46 90.5t26.5 110.5
t9.5 101.5q0 126 -82 126z" />
    <glyph glyph-name="Obreve" unicode="&#x14e;" horiz-adv-x="768" 
d="M483 770q-73 0 -108.5 43t-21.5 132h23q0 -39 19.5 -62t43 -29t53.5 -6q117 0 142 97h23q-9 -88 -56 -131.5t-118 -43.5zM451 734q135 0 218.5 -83t83.5 -221q0 -181 -116 -309t-287 -128q-135 0 -218.5 85t-83.5 227q0 179 116 304t287 125zM446 695q-58 0 -105 -43.5
t-74.5 -112t-42 -143.5t-14.5 -147q0 -110 39.5 -163.5t106.5 -53.5q57 0 103.5 44.5t74.5 113.5t42.5 145t14.5 147q0 107 -39.5 160t-105.5 53z" />
    <glyph glyph-name="obreve" unicode="&#x14f;" horiz-adv-x="573" 
d="M335 584q-67 0 -101 42.5t-20 128.5h23q-1 -52 32.5 -74t76.5 -22q44 0 83 23t52 73h23q-9 -86 -55 -128.5t-114 -42.5zM325 516q108 0 167 -58.5t59 -157.5q0 -130 -85 -218.5t-213 -88.5q-108 0 -167.5 57.5t-59.5 156.5q0 131 85.5 220t213.5 89zM321 487
q-35 0 -64 -35.5t-46.5 -89t-27 -109t-9.5 -100.5q0 -131 84 -131q34 0 63 36.5t46 90.5t26.5 110.5t9.5 101.5q0 126 -82 126z" />
    <glyph glyph-name="Ohungarumlaut" unicode="&#x150;" horiz-adv-x="768" 
d="M542 945v-1l-155 -172h-25l49 173h131zM730 945v-1l-154 -172h-25l49 173h130zM451 734q135 0 218.5 -83t83.5 -221q0 -181 -116 -309t-287 -128q-135 0 -218.5 85t-83.5 227q0 179 116 304t287 125zM446 695q-58 0 -105 -43.5t-74.5 -112t-42 -143.5t-14.5 -147
q0 -110 39.5 -163.5t106.5 -53.5q57 0 103.5 44.5t74.5 113.5t42.5 145t14.5 147q0 107 -39.5 160t-105.5 53z" />
    <glyph glyph-name="ohungarumlaut" unicode="&#x151;" horiz-adv-x="573" 
d="M390 756v-1l-153 -172h-27l50 173h130zM579 756v-1l-154 -172h-26l51 173h129zM325 516q108 0 167 -58.5t59 -157.5q0 -130 -85 -218.5t-213 -88.5q-108 0 -167.5 57.5t-59.5 156.5q0 131 85.5 220t213.5 89zM321 487q-35 0 -64 -35.5t-46.5 -89t-27 -109t-9.5 -100.5
q0 -131 84 -131q34 0 63 36.5t46 90.5t26.5 110.5t9.5 101.5q0 126 -82 126z" />
    <glyph glyph-name="OE" unicode="&#x152;" horiz-adv-x="979" 
d="M1011 728l-11 -77h-1q-20 38 -97 38h-154l-38 -272h111q62 0 89 23l-12 -83q-19 23 -81 23h-112l-47 -341h178q60 0 90 38h2l-11 -77h-413l3 24q-59 -31 -125 -31q-136 0 -218 84.5t-82 228.5q0 178 113.5 303.5t282.5 124.5q73 -1 124 -30l3 24h406zM391 32q65 0 124 49
l79 567q-40 47 -118 47q-72 0 -127.5 -74.5t-81 -171.5t-25.5 -189q0 -116 39.5 -172t109.5 -56z" />
    <glyph glyph-name="oe" unicode="&#x153;" horiz-adv-x="897" 
d="M684 516q111 0 158.5 -67t31.5 -186l-2 -14h-325q-13 -95 12.5 -154.5t94.5 -59.5q82 0 163 76h1l16 -46q-88 -72 -219 -72q-115 0 -170 80q-77 -80 -192 -80q-109 0 -168 58t-59 158q0 128 86 217.5t213 89.5q119 0 173 -79q77 79 186 79zM258 22q34 0 63 37t46 91
t26.5 110t9.5 101q0 126 -82 126q-35 0 -64 -36t-46.5 -89.5t-27 -108.5t-9.5 -100q0 -131 84 -131zM553 287h193q12 87 -1.5 143.5t-60.5 56.5q-97 0 -131 -200z" />
    <glyph glyph-name="Racute" unicode="&#x154;" horiz-adv-x="660" 
d="M560 945l-211 -172h-26l80 173h157v-1zM568 117q7 -24 27 -63t42 -54h-209q6 9 8.5 19t0 23t-4.5 19t-9 24t-9 22l-90 231h-24h-56l-33 -242q-10 -70 13 -96h-201q30 22 40 96l74 536q10 72 -14 96h233q154 0 219.5 -39t65.5 -130q0 -68 -45.5 -119t-125.5 -77zM294 362
q88 0 138.5 53t50.5 145q0 76 -38.5 108.5t-129.5 32.5h-21l-46 -339h46z" />
    <glyph glyph-name="racute" unicode="&#x155;" horiz-adv-x="461" 
d="M461 747v-1l-181 -167h-24l62 168h143zM369 516q52 0 82 -30.5t30 -71.5q0 -46 -24 -71.5t-58 -25.5q-47 0 -68 34q22 18 24 45q2 20 -9 33t-34 13q-30 0 -54.5 -19.5t-36.5 -42.5l-39 -287q-9 -70 9 -93h-188q25 24 34 93l42 311q9 63 -9 89q123 10 161 15l-13 -88
q63 96 151 96z" />
    <glyph glyph-name="uni0156" unicode="&#x156;" horiz-adv-x="660" 
d="M568 117q7 -24 27 -63t42 -54h-209q6 9 8.5 19t0 23t-4.5 19t-9 24t-9 22l-90 231h-24h-56l-33 -242q-10 -70 13 -96h-201q30 22 40 96l74 536q10 72 -14 96h233q154 0 219.5 -39t65.5 -130q0 -68 -45.5 -119t-125.5 -77zM294 362q88 0 138.5 53t50.5 145
q0 76 -38.5 108.5t-129.5 32.5h-21l-46 -339h46zM302 -43q28 0 45 -18t17 -50q0 -52 -39 -98t-99 -67l-5 11v1q64 39 82 94h-13q-27 0 -43 15.5t-16 43.5q0 29 20 48.5t51 19.5z" />
    <glyph glyph-name="uni0157" unicode="&#x157;" horiz-adv-x="461" 
d="M369 516q52 0 82 -30.5t30 -71.5q0 -46 -24 -71.5t-58 -25.5q-47 0 -68 34q22 18 24 45q2 20 -9 33t-34 13q-30 0 -54.5 -19.5t-36.5 -42.5l-39 -287q-9 -70 9 -93h-188q25 24 34 93l42 311q9 63 -9 89q123 10 161 15l-13 -88q63 96 151 96zM154 -111q0 -52 -39 -98
t-99 -67l-5 11v1q64 39 82 94h-13q-27 0 -43 15.5t-16 43.5q0 29 20 48.5t51 19.5q28 0 45 -18t17 -50z" />
    <glyph glyph-name="Rcaron" unicode="&#x158;" horiz-adv-x="660" 
d="M435 772h-85l-91 172v1h110l69 -116l113 116h34v-2zM568 117q7 -24 27 -63t42 -54h-209q6 9 8.5 19t0 23t-4.5 19t-9 24t-9 22l-90 231h-24h-56l-33 -242q-10 -70 13 -96h-201q30 22 40 96l74 536q10 72 -14 96h233q154 0 219.5 -39t65.5 -130q0 -68 -45.5 -119
t-125.5 -77zM294 362q88 0 138.5 53t50.5 145q0 76 -38.5 108.5t-129.5 32.5h-21l-46 -339h46z" />
    <glyph glyph-name="rcaron" unicode="&#x159;" horiz-adv-x="461" 
d="M322 579h-87l-95 167v1h112l72 -109l113 109h32v-2zM369 516q52 0 82 -30.5t30 -71.5q0 -46 -24 -71.5t-58 -25.5q-47 0 -68 34q22 18 24 45q2 20 -9 33t-34 13q-30 0 -54.5 -19.5t-36.5 -42.5l-39 -287q-9 -70 9 -93h-188q25 24 34 93l42 311q9 63 -9 89q123 10 161 15
l-13 -88q63 96 151 96z" />
    <glyph glyph-name="Sacute" unicode="&#x15a;" horiz-adv-x="538" 
d="M552 946v-1l-211 -172h-26l80 173h157zM352 734q93 0 140.5 -29t47.5 -75q0 -33 -21 -54.5t-54 -21.5q-43 0 -68 37q20 18 22 42q2 27 -19 44.5t-65 17.5q-57 0 -89.5 -30t-32.5 -83q0 -32 16 -60t41.5 -49t56 -41t61 -42t56 -47t41.5 -61t16 -78q0 -101 -75.5 -156
t-193.5 -55q-99 0 -159 31.5t-60 89.5q0 34 21 56t53 22q42 0 67 -36q-21 -17 -21 -45q-2 -32 25 -55.5t80 -23.5q60 0 96 31t36 85q0 44 -29 79.5t-70 63t-82 57t-70 75t-29 103.5q0 95 74 151.5t188 56.5z" />
    <glyph glyph-name="sacute" unicode="&#x15b;" horiz-adv-x="462" 
d="M465 747v-1l-181 -167h-24l62 168h143zM279 516q85 0 130 -28.5t45 -74.5q0 -33 -20 -52t-51 -19q-46 0 -68 36q23 21 23 54q0 25 -15.5 41t-44.5 16q-40 -1 -61 -23.5t-21 -58.5q0 -32 23.5 -57t56.5 -42.5t66 -37.5t56.5 -53t23.5 -77q0 -71 -60.5 -109t-176.5 -38
q-89 0 -135 28.5t-46 74.5q0 31 20 51t53 20q42 0 65 -36q-23 -18 -23 -52q0 -25 19 -42t54 -17q38 0 62.5 21t24.5 59q0 34 -23 60t-56 43.5t-66.5 37t-56.5 51t-23 73.5q0 71 60.5 111t164.5 40z" />
    <glyph glyph-name="Scircumflex" unicode="&#x15c;" horiz-adv-x="538" 
d="M457 948l91 -172v-1h-109l-69 116l-114 -116h-34v2l151 171h84zM352 734q93 0 140.5 -29t47.5 -75q0 -33 -21 -54.5t-54 -21.5q-43 0 -68 37q20 18 22 42q2 27 -19 44.5t-65 17.5q-57 0 -89.5 -30t-32.5 -83q0 -32 16 -60t41.5 -49t56 -41t61 -42t56 -47t41.5 -61t16 -78
q0 -101 -75.5 -156t-193.5 -55q-99 0 -159 31.5t-60 89.5q0 34 21 56t53 22q42 0 67 -36q-21 -17 -21 -45q-2 -32 25 -55.5t80 -23.5q60 0 96 31t36 85q0 44 -29 79.5t-70 63t-82 57t-70 75t-29 103.5q0 95 74 151.5t188 56.5z" />
    <glyph glyph-name="scircumflex" unicode="&#x15d;" horiz-adv-x="462" 
d="M369 747l94 -167v-1h-112l-71 108l-114 -108h-30v2l145 166h88zM279 516q85 0 130 -28.5t45 -74.5q0 -33 -20 -52t-51 -19q-46 0 -68 36q23 21 23 54q0 25 -15.5 41t-44.5 16q-40 -1 -61 -23.5t-21 -58.5q0 -32 23.5 -57t56.5 -42.5t66 -37.5t56.5 -53t23.5 -77
q0 -71 -60.5 -109t-176.5 -38q-89 0 -135 28.5t-46 74.5q0 31 20 51t53 20q42 0 65 -36q-23 -18 -23 -52q0 -25 19 -42t54 -17q38 0 62.5 21t24.5 59q0 34 -23 60t-56 43.5t-66.5 37t-56.5 51t-23 73.5q0 71 60.5 111t164.5 40z" />
    <glyph glyph-name="Scedilla" unicode="&#x15e;" horiz-adv-x="538" 
d="M397 591q20 18 22 42q2 27 -19 44.5t-65 17.5q-57 0 -89.5 -30t-32.5 -83q0 -32 16 -60t41.5 -49t56 -41t61 -42t56 -47t41.5 -61t16 -78q0 -99 -72.5 -154t-186.5 -57l-7 -23q95 -3 95 -69q0 -37 -33 -60.5t-81 -23.5q-36 0 -63 9l4 16q9 -3 34 -3q22 0 38 14t16 39
q0 42 -42 44l17 57q-94 2 -150.5 33t-56.5 88q0 34 21 56t53 22q42 0 67 -36q-21 -17 -21 -45q-2 -32 25 -55.5t80 -23.5q60 0 96 31t36 85q0 44 -29 79.5t-70 63t-82 57t-70 75t-29 103.5q0 95 74 151.5t188 56.5q93 0 140.5 -29t47.5 -75q0 -33 -21 -54.5t-54 -21.5
q-43 0 -68 37z" />
    <glyph glyph-name="scedilla" unicode="&#x15f;" horiz-adv-x="462" 
d="M315 378q23 21 23 54q0 25 -15.5 41t-44.5 16q-40 -1 -61 -23.5t-21 -58.5q0 -32 23.5 -57t56.5 -42.5t66 -37.5t56.5 -53t23.5 -77q0 -67 -54 -105t-158 -42l-7 -24q95 -3 95 -69q0 -37 -33 -60.5t-81 -23.5q-36 0 -63 9l4 16q9 -3 34 -3q22 0 38 14t16 39q0 42 -42 44
l17 58h-3q-89 0 -135 28.5t-46 74.5q0 31 20 51t53 20q42 0 65 -36q-23 -18 -23 -52q0 -25 19 -42t54 -17q38 0 62.5 21t24.5 59q0 34 -23 60t-56 43.5t-66.5 37t-56.5 51t-23 73.5q0 71 60.5 111t164.5 40q85 0 130 -28.5t45 -74.5q0 -33 -20 -52t-51 -19q-46 0 -68 36z
" />
    <glyph glyph-name="Scaron" unicode="&#x160;" horiz-adv-x="538" 
d="M543 945h34v-2l-150 -171h-85l-91 172v1h110l69 -116zM352 734q93 0 140.5 -29t47.5 -75q0 -33 -21 -54.5t-54 -21.5q-43 0 -68 37q20 18 22 42q2 27 -19 44.5t-65 17.5q-57 0 -89.5 -30t-32.5 -83q0 -32 16 -60t41.5 -49t56 -41t61 -42t56 -47t41.5 -61t16 -78
q0 -101 -75.5 -156t-193.5 -55q-99 0 -159 31.5t-60 89.5q0 34 21 56t53 22q42 0 67 -36q-21 -17 -21 -45q-2 -32 25 -55.5t80 -23.5q60 0 96 31t36 85q0 44 -29 79.5t-70 63t-82 57t-70 75t-29 103.5q0 95 74 151.5t188 56.5z" />
    <glyph glyph-name="scaron" unicode="&#x161;" horiz-adv-x="462" 
d="M440 747h32v-2l-147 -166h-87l-95 167v1h112l72 -109zM279 516q85 0 130 -28.5t45 -74.5q0 -33 -20 -52t-51 -19q-46 0 -68 36q23 21 23 54q0 25 -15.5 41t-44.5 16q-40 -1 -61 -23.5t-21 -58.5q0 -32 23.5 -57t56.5 -42.5t66 -37.5t56.5 -53t23.5 -77q0 -71 -60.5 -109
t-176.5 -38q-89 0 -135 28.5t-46 74.5q0 31 20 51t53 20q42 0 65 -36q-23 -18 -23 -52q0 -25 19 -42t54 -17q38 0 62.5 21t24.5 59q0 34 -23 60t-56 43.5t-66.5 37t-56.5 51t-23 73.5q0 71 60.5 111t164.5 40z" />
    <glyph glyph-name="uni0162" unicode="&#x162;" horiz-adv-x="573" 
d="M626 728l-9 -77h-3q-20 38 -98 38h-93l-82 -593q-10 -70 13 -96h-99l-8 -30q95 -3 95 -69q0 -37 -33 -60.5t-81 -23.5q-36 0 -63 9l4 16q9 -3 34 -3q22 0 38 14t16 39q0 42 -42 44l19 64h-81q29 23 39 96l82 593h-93q-79 0 -109 -38h-1l9 77h546z" />
    <glyph glyph-name="uni0163" unicode="&#x163;" horiz-adv-x="328" 
d="M209 468l-42 -314q-11 -87 53 -87q34 0 66 33l5 -6q-32 -55 -63.5 -78t-84.5 -23h-10l-7 -23q95 -3 95 -69q0 -37 -33 -60.5t-81 -23.5q-36 0 -63 9l4 16q9 -3 34 -3q22 0 38 14t16 39q0 42 -42 44l18 60q-107 19 -88 165l62 455q70 4 144 14l-17 -131h126l-3 -31h-127z
" />
    <glyph glyph-name="Tcaron" unicode="&#x164;" horiz-adv-x="573" 
d="M395 772h-85l-91 172v1h110l69 -116l113 116h34v-2zM626 728l-9 -77h-3q-20 38 -98 38h-93l-82 -593q-10 -70 13 -96h-201q29 23 39 96l82 593h-93q-79 0 -109 -38h-1l9 77h546z" />
    <glyph glyph-name="tcaron" unicode="&#x165;" horiz-adv-x="329" 
d="M432 745q22 0 36.5 -14t14.5 -44q-1 -44 -35 -86.5t-87 -59.5l-4 11v1q54 20 72 81h-9q-22 0 -38 15t-16 35q0 24 18.5 42.5t47.5 18.5zM277 630l-17 -131h129l-4 -31h-129l-43 -322q-9 -79 51 -79q22 0 35.5 7.5t32.5 25.5l5 -6q-25 -38 -39 -55.5t-42 -31.5t-67 -14
q-141 0 -119 168l59 455q76 4 148 14z" />
    <glyph glyph-name="Tbar" unicode="&#x166;" horiz-adv-x="573" 
d="M626 728l-9 -77h-3q-20 38 -98 38h-93l-43 -307h109l-6 -32h-107l-35 -254q-10 -70 13 -96h-201q29 23 39 96l35 254h-110l6 32h108l43 307h-93q-79 0 -109 -38h-1l9 77h546z" />
    <glyph glyph-name="tbar" unicode="&#x167;" horiz-adv-x="332" 
d="M391 468h-130l-22 -167h109l-4 -33h-109l-16 -122q-11 -79 51 -79q15 0 27.5 4.5t19.5 10t21 18.5l5 -6q-25 -38 -39 -55.5t-41.5 -31.5t-66.5 -14q-142 0 -120 168l14 107h-46l6 33h44l41 315q79 5 147 14l-17 -131h130z" />
    <glyph glyph-name="Utilde" unicode="&#x168;" horiz-adv-x="679" 
d="M402 907q31 0 84 -23.5t71 -23.5q23 0 44 16t23 38h13q-5 -53 -35.5 -94t-77.5 -41q-28 0 -85.5 25.5t-77.5 25.5q-29 0 -49 -19t-26 -43h-13q6 48 39 93.5t90 45.5zM695 728q-30 -26 -40 -96l-51 -370q-37 -269 -275 -269q-285 0 -246 284l49 355q10 71 -14 96h202
q-30 -26 -40 -96l-50 -359q-17 -123 15 -177.5t119 -54.5q167 0 197 223l51 368q10 71 -15 96h98z" />
    <glyph glyph-name="utilde" unicode="&#x169;" horiz-adv-x="564" 
d="M165 582q9 58 39.5 98.5t83.5 40.5q31 0 77 -26t75 -26q56 0 68 59h13q-8 -57 -39 -97.5t-84 -40.5q-30 0 -75 26t-76 26q-55 0 -69 -60h-13zM486 93q-10 -65 9 -93h-153l4 84q-68 -91 -171 -91q-155 0 -131 185l33 236q4 35 1 49.5t-14 28.5q82 5 170 15l-46 -332
q-15 -108 65 -108q52 0 91 52l40 295q4 35 2 49.5t-12 28.5q84 5 169 15z" />
    <glyph glyph-name="Umacron" unicode="&#x16a;" horiz-adv-x="679" 
d="M301 885h321l-6 -43h-321zM695 728q-30 -26 -40 -96l-51 -370q-37 -269 -275 -269q-285 0 -246 284l49 355q10 71 -14 96h202q-30 -26 -40 -96l-50 -359q-17 -123 15 -177.5t119 -54.5q167 0 197 223l51 368q10 71 -15 96h98z" />
    <glyph glyph-name="umacron" unicode="&#x16b;" horiz-adv-x="564" 
d="M184 668h321l-4 -37h-321zM486 93q-10 -65 9 -93h-153l4 84q-68 -91 -171 -91q-155 0 -131 185l33 236q4 35 1 49.5t-14 28.5q82 5 170 15l-46 -332q-15 -108 65 -108q52 0 91 52l40 295q4 35 2 49.5t-12 28.5q84 5 169 15z" />
    <glyph glyph-name="Ubreve" unicode="&#x16c;" horiz-adv-x="679" 
d="M439 773q-73 0 -108.5 43t-21.5 132h23q0 -39 19.5 -62t43 -29t53.5 -6q117 0 142 97h23q-9 -88 -56 -131.5t-118 -43.5zM695 728q-30 -26 -40 -96l-51 -370q-37 -269 -275 -269q-285 0 -246 284l49 355q10 71 -14 96h202q-30 -26 -40 -96l-50 -359q-17 -123 15 -177.5
t119 -54.5q167 0 197 223l51 368q10 71 -15 96h98z" />
    <glyph glyph-name="ubreve" unicode="&#x16d;" horiz-adv-x="564" 
d="M333 584q-67 0 -101 42.5t-20 128.5h23q-1 -52 32.5 -74t76.5 -22q44 0 83 23t52 73h23q-9 -86 -55 -128.5t-114 -42.5zM486 93q-10 -65 9 -93h-153l4 84q-68 -91 -171 -91q-155 0 -131 185l33 236q4 35 1 49.5t-14 28.5q82 5 170 15l-46 -332q-15 -108 65 -108
q52 0 91 52l40 295q4 35 2 49.5t-12 28.5q84 5 169 15z" />
    <glyph glyph-name="Uring" unicode="&#x16e;" horiz-adv-x="679" 
d="M458 776q-37 0 -61.5 23t-24.5 59q0 41 29 70t75 29q36 0 60.5 -23t24.5 -59q0 -42 -29 -70.5t-74 -28.5zM463 829q17 0 28 11t11 28q0 35 -34 35q-16 0 -27.5 -11.5t-11.5 -28.5q0 -15 9 -24.5t25 -9.5zM695 728q-30 -26 -40 -96l-51 -370q-37 -269 -275 -269
q-285 0 -246 284l49 355q10 71 -14 96h202q-30 -26 -40 -96l-50 -359q-17 -123 15 -177.5t119 -54.5q167 0 197 223l51 368q10 71 -15 96h98z" />
    <glyph glyph-name="uring" unicode="&#x16f;" horiz-adv-x="564" 
d="M353 764q36 0 61.5 -26t21.5 -62q-4 -38 -34 -62.5t-67 -24.5t-62.5 24.5t-20.5 62.5q4 37 35 62.5t66 25.5zM349 713q-38 0 -43 -37q-2 -16 7 -27t27 -11q16 0 28 11t14 27t-6.5 26.5t-26.5 10.5zM486 93q-10 -65 9 -93h-153l4 84q-68 -91 -171 -91q-155 0 -131 185
l33 236q4 35 1 49.5t-14 28.5q82 5 170 15l-46 -332q-15 -108 65 -108q52 0 91 52l40 295q4 35 2 49.5t-12 28.5q84 5 169 15z" />
    <glyph glyph-name="Uhungarumlaut" unicode="&#x170;" horiz-adv-x="679" 
d="M498 947v-1l-155 -172h-25l49 173h131zM686 947v-1l-154 -172h-25l49 173h130zM695 728q-30 -26 -40 -96l-51 -370q-37 -269 -275 -269q-285 0 -246 284l49 355q10 71 -14 96h202q-30 -26 -40 -96l-50 -359q-17 -123 15 -177.5t119 -54.5q167 0 197 223l51 368
q10 71 -15 96h98z" />
    <glyph glyph-name="uhungarumlaut" unicode="&#x171;" horiz-adv-x="564" 
d="M388 756v-1l-153 -172h-27l50 173h130zM577 756v-1l-154 -172h-26l51 173h129zM486 93q-10 -65 9 -93h-153l4 84q-68 -91 -171 -91q-155 0 -131 185l33 236q4 35 1 49.5t-14 28.5q82 5 170 15l-46 -332q-15 -108 65 -108q52 0 91 52l40 295q4 35 2 49.5t-12 28.5
q84 5 169 15z" />
    <glyph glyph-name="Uogonek" unicode="&#x172;" horiz-adv-x="679" 
d="M597 728h98q-30 -26 -40 -96l-51 -370q-28 -204 -172 -253q-61 -40 -61 -103q0 -59 51 -59q9 0 15 3l3 -10q-29 -19 -74 -19q-81 0 -81 64q0 66 94 111q-24 -3 -50 -3q-285 0 -246 284l49 355q10 71 -14 96h202q-30 -26 -40 -96l-50 -359q-17 -123 15 -177.5t119 -54.5
q167 0 197 223l51 368q10 71 -15 96z" />
    <glyph glyph-name="uogonek" unicode="&#x173;" horiz-adv-x="564" 
d="M486 93q-10 -65 9 -93h-1q-38 -21 -57.5 -47t-19.5 -65q0 -59 51 -59q9 0 15 3l3 -10q-29 -19 -74 -19q-81 0 -81 64q0 82 147 133h-136l4 84q-68 -91 -171 -91q-155 0 -131 185l33 236q4 35 1 49.5t-14 28.5q82 5 170 15l-46 -332q-15 -108 65 -108q52 0 91 52l40 295
q4 35 2 49.5t-12 28.5q84 5 169 15z" />
    <glyph glyph-name="Wcircumflex" unicode="&#x174;" horiz-adv-x="937" 
d="M535 889l-113 -116h-35v2l151 171h84l91 -172v-1h-109zM929 728h84q-6 -4 -11.5 -8.5t-10 -11t-7.5 -10.5t-7 -13t-5.5 -12t-5.5 -13t-5 -11l-272 -649h-144l-44 382l-167 -382h-146l-101 646q0 1 -1 9.5t-1.5 10.5t-1.5 10t-2.5 11t-3.5 10t-4.5 11t-6.5 9.5t-9 10.5
h200q-31 -18 -21 -77l88 -608l171 391l-25 214q-8 58 -34 80h200q-25 -16 -18 -77l62 -602l252 602q10 23 13 34.5t0 23.5t-16 19z" />
    <glyph glyph-name="wcircumflex" unicode="&#x175;" horiz-adv-x="774" 
d="M418 687l-113 -108h-31v2l146 166h88l94 -167v-1h-113zM732 508h88q-26 -15 -53 -77l-191 -431h-115l-61 311l-143 -311h-120l-82 431q0 2 -2 10.5t-2.5 12t-2.5 11.5t-4 12.5t-5.5 10.5t-8 11t-9.5 9h187q-8 -11 -9 -25.5t0.5 -21t6.5 -28.5l60 -331l122 271l-12 58
q-1 3 -3.5 14.5t-4 17.5t-5.5 15.5t-9.5 16.5t-12.5 13h189q-6 -8 -8 -18t-1.5 -17t3.5 -20.5t4 -20.5l58 -321l139 321q24 54 7 76z" />
    <glyph glyph-name="Ycircumflex" unicode="&#x176;" horiz-adv-x="628" 
d="M416 891l-114 -116h-34v2l151 171h84l91 -172v-1h-109zM591 728h110q-7 -3 -13 -7.5t-12.5 -11.5t-11 -11.5t-11 -14.5t-9 -13.5t-9.5 -14.5t-8 -12l-233 -363l-26 -184q-10 -70 12 -96h-213q29 24 39 96l26 184l-122 364q-20 64 -48 84h217q-20 -14 -21.5 -36.5
t8.5 -44.5l109 -321l209 320q37 55 7 82z" />
    <glyph glyph-name="ycircumflex" unicode="&#x177;" horiz-adv-x="492" 
d="M307 687l-114 -108h-30v2l145 166h88l94 -167v-1h-112zM446 508h92q-9 -7 -16.5 -13.5t-14.5 -16.5t-9.5 -14.5t-9.5 -18t-8 -14.5l-244 -458l-45 -81q-31 -54 -64 -77.5t-79 -23.5q-45 0 -68.5 21t-23.5 55q0 33 21 53.5t51 20.5q34 0 51 -32q-20 -15 -20 -42
q0 -30 31 -30q35 0 77 72l14 26l-125 496q-15 55 -38 77h188q-3 -5 -5.5 -9.5t-3 -10.5t-0.5 -10t1 -11.5t2 -10.5t3 -12t3 -12l70 -312l165 312q29 55 5 76z" />
    <glyph glyph-name="Ydieresis" unicode="&#x178;" horiz-adv-x="628" 
d="M343 805q-30 0 -48.5 19.5t-18.5 49.5q0 36 25 62t61 26q30 0 48.5 -19t18.5 -49q0 -38 -25 -63.5t-61 -25.5zM545 805q-30 0 -48.5 19.5t-18.5 49.5q0 36 25.5 62t61.5 26q29 0 47.5 -19t18.5 -49q0 -38 -25 -63.5t-61 -25.5zM591 728h110q-7 -3 -13 -7.5t-12.5 -11.5
t-11 -11.5t-11 -14.5t-9 -13.5t-9.5 -14.5t-8 -12l-233 -363l-26 -184q-10 -70 12 -96h-213q29 24 39 96l26 184l-122 364q-20 64 -48 84h217q-20 -14 -21.5 -36.5t8.5 -44.5l109 -321l209 320q37 55 7 82z" />
    <glyph glyph-name="Zacute" unicode="&#x179;" horiz-adv-x="561" 
d="M530 945l-211 -172h-26l80 173h157v-1zM597 728l-5 -40l-429 -648l259 -1q67 0 95 28h1l-9 -67h-516l6 40l429 648l-238 1q-68 0 -95 -27h-1l9 66h494z" />
    <glyph glyph-name="zacute" unicode="&#x17a;" horiz-adv-x="446" 
d="M456 746l-181 -167h-24l62 168h143v-1zM462 508l-3 -22l-302 -448h163q66 0 92 23h2l-8 -61h-417l3 23l298 447h-139q-70 0 -93 -23h-2l7 61h399z" />
    <glyph glyph-name="Zdotaccent" unicode="&#x17b;" horiz-adv-x="561" 
d="M374 801q-32 0 -51.5 20t-19.5 54q0 38 25 64t62 26q32 0 52 -20.5t20 -53.5q0 -38 -25.5 -64t-62.5 -26zM597 728l-5 -40l-429 -648l259 -1q67 0 95 28h1l-9 -67h-516l6 40l429 648l-238 1q-68 0 -95 -27h-1l9 66h494z" />
    <glyph glyph-name="zdotaccent" unicode="&#x17c;" horiz-adv-x="446" 
d="M293 572q-37 0 -58 23t-16 58q4 35 31 58.5t64 23.5q35 0 57 -23.5t18 -58.5t-32 -58t-64 -23zM462 508l-3 -22l-302 -448h163q66 0 92 23h2l-8 -61h-417l3 23l298 447h-139q-70 0 -93 -23h-2l7 61h399z" />
    <glyph glyph-name="Zcaron" unicode="&#x17d;" horiz-adv-x="561" 
d="M405 772h-85l-91 172v1h110l69 -116l113 116h34v-2zM597 728l-5 -40l-429 -648l259 -1q67 0 95 28h1l-9 -67h-516l6 40l429 648l-238 1q-68 0 -95 -27h-1l9 66h494z" />
    <glyph glyph-name="zcaron" unicode="&#x17e;" horiz-adv-x="446" 
d="M431 747h32v-2l-147 -166h-87l-95 167v1h112l72 -109zM56 447l7 61h399l-3 -22l-302 -448h163q66 0 92 23h2l-8 -61h-417l3 23l298 447h-139q-70 0 -93 -23h-2z" />
    <glyph glyph-name="uni01EA" unicode="&#x1ea;" horiz-adv-x="768" 
d="M476 14q-60 -39 -60 -102q0 -59 51 -59q9 0 15 3l3 -10q-29 -19 -74 -19q-81 0 -81 64q0 62 87 108q-33 -6 -67 -6q-135 0 -218.5 85t-83.5 227q0 179 116 304t287 125q135 0 218.5 -83t83.5 -221q0 -144 -76.5 -258.5t-200.5 -157.5zM210 249q0 -110 39.5 -163.5
t106.5 -53.5q57 0 103.5 44.5t74.5 113.5t42.5 145t14.5 147q0 107 -39.5 160t-105.5 53q-58 0 -105 -43.5t-74.5 -112t-42 -143.5t-14.5 -147z" />
    <glyph glyph-name="uni01EB" unicode="&#x1eb;" horiz-adv-x="573" 
d="M352 9q-60 -39 -60 -102q0 -59 51 -59q9 0 15 3l3 -10q-29 -19 -74 -19q-81 0 -81 64t91 110q-21 -3 -44 -3q-108 0 -167.5 57.5t-59.5 156.5q0 131 85.5 220t213.5 89q108 0 167 -58.5t59 -157.5q0 -102 -54.5 -181t-144.5 -110zM174 153q0 -131 84 -131q34 0 63 36.5
t46 90.5t26.5 110.5t9.5 101.5q0 126 -82 126q-35 0 -64 -35.5t-46.5 -89t-27 -109t-9.5 -100.5z" />
    <glyph glyph-name="AEacute" unicode="&#x1fc;" horiz-adv-x="793" 
d="M759 945l-211 -172h-26l80 173h157v-1zM865 728l-10 -77h-2q-18 38 -98 38h-166l-38 -272h149q40 0 63 16l-9 -69q-17 16 -58 16h-150l-47 -341h191q59 0 91 38h1l-11 -77h-426l28 200h-223l-87 -135q-31 -48 -13 -65h-79q7 4 13 9t12.5 13.5t10 13.5t11 18t10.5 17
l418 657h419zM175 239h203l56 405z" />
    <glyph glyph-name="aeacute" unicode="&#x1fd;" horiz-adv-x="832" 
d="M655 746l-181 -167h-24l62 168h143v-1zM618 516q114 0 160 -68t31 -185l-3 -14h-321q-14 -109 15 -161.5t90 -52.5q75 0 155 80l21 -23q-90 -99 -216 -99q-144 0 -198 107q-51 -56 -96 -81.5t-104 -25.5q-64 0 -102 34.5t-38 100.5q0 75 53.5 121t148.5 46q71 0 118 -36
l15 101q10 66 -3.5 97t-61.5 31q-36 0 -57.5 -20.5t-25.5 -47.5q-4 -29 10 -49q-36 -36 -76 -36q-26 0 -42.5 18t-12.5 50q6 44 60 78.5t148 34.5q123 0 170 -52q71 52 162 52zM681 287q11 103 -3.5 151.5t-59.5 48.5q-94 0 -127 -200h190zM231 60q56 0 111 64
q-15 39 -13 94q-25 31 -74 31q-48 0 -73 -29.5t-26 -73.5q-2 -38 18.5 -62t56.5 -24z" />
    <glyph glyph-name="Oslashacute" unicode="&#x1fe;" horiz-adv-x="768" 
d="M645 943l-211 -172h-26l80 173h157v-1zM645 673q108 -84 108 -243q0 -181 -116 -309t-287 -128q-98 0 -170 46l-48 -66h-41v3l61 83q-104 86 -104 246q0 179 116 304t287 125q93 0 165 -42l38 52h42v-1zM210 249q0 -51 10 -96l344 468q-38 74 -118 74q-58 0 -105 -43.5
t-74.5 -112t-42 -143.5t-14.5 -147zM356 32q57 0 103.5 44.5t74.5 113.5t42.5 145t14.5 147q0 59 -12 101l-345 -471q38 -80 122 -80z" />
    <glyph glyph-name="oslashacute" unicode="&#x1ff;" horiz-adv-x="573" 
d="M500 746l-181 -167h-24l62 168h143v-1zM458 484q93 -56 93 -184q0 -130 -85 -218.5t-213 -88.5q-59 0 -107 19l-32 -49h-44l44 65q-88 56 -88 179q0 131 85.5 220t213.5 89q59 0 104 -18l28 42h38zM174 153q0 -13 2 -33l214 320q-21 47 -69 47q-35 0 -64 -35.5t-46.5 -89
t-27 -109t-9.5 -100.5zM258 22q34 0 63 36.5t46 90.5t26.5 110.5t9.5 101.5q0 14 -2 36l-215 -324q20 -51 72 -51z" />
    <glyph glyph-name="uni0218" unicode="&#x218;" horiz-adv-x="538" 
d="M352 734q93 0 140.5 -29t47.5 -75q0 -33 -21 -54.5t-54 -21.5q-43 0 -68 37q20 18 22 42q2 27 -19 44.5t-65 17.5q-57 0 -89.5 -30t-32.5 -83q0 -32 16 -60t41.5 -49t56 -41t61 -42t56 -47t41.5 -61t16 -78q0 -101 -75.5 -156t-193.5 -55q-99 0 -159 31.5t-60 89.5
q0 34 21 56t53 22q42 0 67 -36q-21 -17 -21 -45q-2 -32 25 -55.5t80 -23.5q60 0 96 31t36 85q0 44 -29 79.5t-70 63t-82 57t-70 75t-29 103.5q0 95 74 151.5t188 56.5zM290 -111q0 -52 -39 -98t-99 -67l-5 11v1q64 39 82 94h-13q-27 0 -43 15.5t-16 43.5q0 29 20 48.5
t51 19.5q28 0 45 -18t17 -50z" />
    <glyph glyph-name="uni0219" unicode="&#x219;" horiz-adv-x="462" 
d="M279 516q85 0 130 -28.5t45 -74.5q0 -33 -20 -52t-51 -19q-46 0 -68 36q23 21 23 54q0 25 -15.5 41t-44.5 16q-40 -1 -61 -23.5t-21 -58.5q0 -32 23.5 -57t56.5 -42.5t66 -37.5t56.5 -53t23.5 -77q0 -71 -60.5 -109t-176.5 -38q-89 0 -135 28.5t-46 74.5q0 31 20 51
t53 20q42 0 65 -36q-23 -18 -23 -52q0 -25 19 -42t54 -17q38 0 62.5 21t24.5 59q0 34 -23 60t-56 43.5t-66.5 37t-56.5 51t-23 73.5q0 71 60.5 111t164.5 40zM258 -112q0 -52 -39 -98t-99 -67l-5 11v1q64 39 82 94h-13q-27 0 -43 15.5t-16 43.5q0 29 20 48.5t51 19.5
q28 0 45 -18t17 -50z" />
    <glyph glyph-name="uni021A" unicode="&#x21a;" horiz-adv-x="573" 
d="M626 728l-9 -77h-3q-20 38 -98 38h-93l-82 -593q-10 -70 13 -96h-201q29 23 39 96l82 593h-93q-79 0 -109 -38h-1l9 77h546zM240 -43q28 0 45 -18t17 -50q0 -52 -39 -98t-99 -67l-5 11v1q64 39 82 94h-13q-27 0 -43 15.5t-16 43.5q0 29 20 48.5t51 19.5z" />
    <glyph glyph-name="uni021B" unicode="&#x21b;" horiz-adv-x="328" 
d="M209 468l-42 -314q-11 -87 53 -87q34 0 66 33l5 -6q-32 -55 -63.5 -78t-84.5 -23q-68 0 -99 42.5t-20 125.5l62 455q70 4 144 14l-17 -131h126l-3 -31h-127zM119 -43q28 0 45 -18t17 -50q0 -52 -39 -98t-99 -67l-5 11v1q64 39 82 94h-13q-27 0 -43 15.5t-16 43.5
q0 29 20 48.5t51 19.5z" />
    <glyph glyph-name="uni0237" unicode="&#x237;" horiz-adv-x="261" 
d="M95 499q116 6 170 13l-71 -551q-22 -168 -161 -168q-30 0 -52.5 9t-36 27t-19.5 31t-13 34l7 5q16 -17 28 -24.5t31 -7.5q57 0 68 79l60 463q8 63 -11 90z" />
    <glyph glyph-name="circumflex" unicode="&#x2c6;" horiz-adv-x="361" 
d="M323 716l94 -167v-1h-110l-72 106l-112 -106h-33v2l147 166h86z" />
    <glyph glyph-name="caron" unicode="&#x2c7;" horiz-adv-x="479" 
d="M470 716h33v-2l-146 -166h-85l-96 167v1h112l71 -107z" />
    <glyph glyph-name="breve" unicode="&#x2d8;" horiz-adv-x="336" 
d="M240 545q-72 0 -107 42t-21 129h24q0 -28 10.5 -48t28 -29.5t36 -14t38.5 -4.5q49 0 88 22.5t53 73.5h24q-10 -87 -56.5 -129t-117.5 -42z" />
    <glyph glyph-name="dotaccent" unicode="&#x2d9;" horiz-adv-x="183" 
d="M176 701q31 0 49.5 -20t15.5 -49q-4 -30 -27 -49.5t-54 -19.5q-32 0 -50 19.5t-14 49.5q3 29 26 49t54 20z" />
    <glyph glyph-name="ring" unicode="&#x2da;" horiz-adv-x="594" 
d="M189 764q34 0 59 -26t20 -62q-4 -36 -35.5 -61.5t-66.5 -25.5t-59.5 25.5t-20.5 61.5q5 36 36.5 62t66.5 26zM183 713q-36 0 -43 -37q-2 -16 6.5 -27t25.5 -11t28.5 11t13.5 27q2 17 -6.5 27t-24.5 10z" />
    <glyph glyph-name="ogonek" unicode="&#x2db;" horiz-adv-x="595" 
d="M167 0q-25 -16 -34 -21.5t-25.5 -20t-24 -29t-10.5 -33.5q-4 -31 13.5 -44t49.5 -12l2 -20q-36 -17 -73 -17q-39 0 -60.5 21t-16.5 55q10 72 152 121h27z" />
    <glyph glyph-name="tilde" unicode="&#x2dc;" horiz-adv-x="586" 
d="M213 719q31 0 82 -25t66 -25q20 0 38.5 17.5t21.5 39.5h23q-5 -53 -34.5 -94.5t-75.5 -41.5q-29 0 -82.5 27.5t-72.5 27.5q-24 0 -41 -20.5t-25 -43.5h-25q4 28 17 57t42 55t66 26z" />
    <glyph glyph-name="hungarumlaut" unicode="&#x2dd;" horiz-adv-x="381" 
d="M274 756v-1l-153 -172h-27l50 173h130zM463 756v-1l-154 -172h-26l51 173h129z" />
    <glyph glyph-name="gravecomb" unicode="&#x300;" 
d="M55 579h-23l-141 167v1h143z" />
    <glyph glyph-name="acutecomb" unicode="&#x301;" 
d="M83 747v-1l-181 -167h-24l62 168h143z" />
    <glyph glyph-name="uni0302" unicode="&#x302;" 
d="M-38 747l94 -167v-1h-112l-71 108l-114 -108h-30v2l145 166h88z" />
    <glyph glyph-name="tildecomb" unicode="&#x303;" 
d="M-274 582q9 58 39.5 98.5t83.5 40.5q31 0 77 -26t75 -26q56 0 68 59h13q-8 -57 -39 -97.5t-84 -40.5q-30 0 -75 26t-76 26q-26 0 -44 -15.5t-25 -44.5h-13z" />
    <glyph glyph-name="uni0304" unicode="&#x304;" 
d="M-249 662h321l-4 -37h-321z" />
    <glyph glyph-name="uni0306" unicode="&#x306;" 
d="M-93 584q-67 0 -101 42.5t-20 128.5h23q-1 -52 32.5 -74t76.5 -22q44 0 83 23t52 73h23q-9 -86 -55 -128.5t-114 -42.5z" />
    <glyph glyph-name="uni0307" unicode="&#x307;" 
d="M-33 735q35 0 57 -23.5t18 -58.5t-32 -58t-64 -23q-37 0 -58 23t-16 58q4 35 31 58.5t64 23.5z" />
    <glyph glyph-name="uni0308" unicode="&#x308;" 
d="M-202 735q33 0 52.5 -23.5t15.5 -58.5t-30 -58t-59 -23q-34 0 -53.5 23t-14.5 58q5 36 30 59t59 23zM4 735q34 0 53.5 -23.5t15.5 -58.5t-30 -58t-59 -23q-35 0 -54 22.5t-15 58.5q5 35 30 58.5t59 23.5z" />
    <glyph glyph-name="uni030A" unicode="&#x30a;" 
d="M-3 764q36 0 61.5 -26t21.5 -62q-4 -38 -34 -62.5t-67 -24.5t-62.5 24.5t-20.5 62.5q4 37 35 62.5t66 25.5zM-7 713q-38 0 -43 -37q-2 -16 7 -27t27 -11q16 0 28 11t14 27t-6.5 26.5t-26.5 10.5z" />
    <glyph glyph-name="uni030B" unicode="&#x30b;" 
d="M-107 756v-1l-153 -172h-27l50 173h130zM82 756v-1l-154 -172h-26l51 173h129z" />
    <glyph glyph-name="uni030C" unicode="&#x30c;" 
d="M39 747h32v-2l-147 -166h-87l-95 167v1h112l72 -109z" />
    <glyph glyph-name="uni0326" unicode="&#x326;" 
d="M-35 -111q0 -52 -39 -98t-99 -67l-5 11v1q64 39 82 94h-13q-27 0 -43 15.5t-16 43.5q0 29 20 48.5t51 19.5q28 0 45 -18t17 -50z" />
    <glyph glyph-name="uni0327" unicode="&#x327;" 
d="M-111 9l-11 -39q95 -3 95 -69q0 -37 -33 -60.5t-81 -23.5q-36 0 -63 9l4 16q9 -3 34 -3q22 0 38 14t16 39q0 42 -42 44l22 73h21z" />
    <glyph glyph-name="uni0328" unicode="&#x328;" 
d="M-20 0q-38 -21 -57.5 -47t-19.5 -65q0 -59 51 -59q9 0 15 3l3 -10q-29 -19 -74 -19q-81 0 -81 64q0 82 147 133h16z" />
    <glyph glyph-name="uni0335" unicode="&#x335;" 
d="M-274 243l5 32h305l-5 -32h-305z" />
    <glyph glyph-name="uni0336" unicode="&#x336;" 
d="M-662 533l6 38h710l-5 -38h-711z" />
    <glyph glyph-name="uni0337" unicode="&#x337;" 
d="M-33 451l15 -31l-312 -167l-12 31z" />
    <glyph glyph-name="uni0338" unicode="&#x338;" 
d="M57 544l-381 -577h-44l387 577h38z" />
    <glyph glyph-name="Wgrave" unicode="&#x1e80;" horiz-adv-x="937" 
d="M556 772h-24l-166 172v1h157zM929 728h84q-6 -4 -11.5 -8.5t-10 -11t-7.5 -10.5t-7 -13t-5.5 -12t-5.5 -13t-5 -11l-272 -649h-144l-44 382l-167 -382h-146l-101 646q0 1 -1 9.5t-1.5 10.5t-1.5 10t-2.5 11t-3.5 10t-4.5 11t-6.5 9.5t-9 10.5h200q-31 -18 -21 -77
l88 -608l171 391l-25 214q-8 58 -34 80h200q-25 -16 -18 -77l62 -602l252 602q10 23 13 34.5t0 23.5t-16 19z" />
    <glyph glyph-name="wgrave" unicode="&#x1e81;" horiz-adv-x="774" 
d="M458 579h-23l-142 166v1h144zM732 508h88q-26 -15 -53 -77l-191 -431h-115l-61 311l-143 -311h-120l-82 431q0 2 -2 10.5t-2.5 12t-2.5 11.5t-4 12.5t-5.5 10.5t-8 11t-9.5 9h187q-8 -11 -9 -25.5t0.5 -21t6.5 -28.5l60 -331l122 271l-12 58q-1 3 -3.5 14.5t-4 17.5
t-5.5 15.5t-9.5 16.5t-12.5 13h189q-6 -8 -8 -18t-1.5 -17t3.5 -20.5t4 -20.5l58 -321l139 321q24 54 7 76z" />
    <glyph glyph-name="Wacute" unicode="&#x1e82;" horiz-adv-x="937" 
d="M708 943l-211 -172h-27l81 173h157v-1zM929 728h84q-6 -4 -11.5 -8.5t-10 -11t-7.5 -10.5t-7 -13t-5.5 -12t-5.5 -13t-5 -11l-272 -649h-144l-44 382l-167 -382h-146l-101 646q0 1 -1 9.5t-1.5 10.5t-1.5 10t-2.5 11t-3.5 10t-4.5 11t-6.5 9.5t-9 10.5h200
q-31 -18 -21 -77l88 -608l171 391l-25 214q-8 58 -34 80h200q-25 -16 -18 -77l62 -602l252 602q10 23 13 34.5t0 23.5t-16 19z" />
    <glyph glyph-name="wacute" unicode="&#x1e83;" horiz-adv-x="774" 
d="M603 746l-180 -167h-25l62 168h143v-1zM732 508h88q-26 -15 -53 -77l-191 -431h-115l-61 311l-143 -311h-120l-82 431q0 2 -2 10.5t-2.5 12t-2.5 11.5t-4 12.5t-5.5 10.5t-8 11t-9.5 9h187q-8 -11 -9 -25.5t0.5 -21t6.5 -28.5l60 -331l122 271l-12 58q-1 3 -3.5 14.5
t-4 17.5t-5.5 15.5t-9.5 16.5t-12.5 13h189q-6 -8 -8 -18t-1.5 -17t3.5 -20.5t4 -20.5l58 -321l139 321q24 54 7 76z" />
    <glyph glyph-name="Wdieresis" unicode="&#x1e84;" horiz-adv-x="937" 
d="M437 803q-30 0 -48.5 19.5t-18.5 49.5q0 36 25 62t61 26q30 0 48.5 -19t18.5 -49q0 -38 -25 -63.5t-61 -25.5zM639 803q-30 0 -48.5 19.5t-18.5 49.5q0 36 25.5 62t61.5 26q29 0 47.5 -19t18.5 -49q0 -38 -25 -63.5t-61 -25.5zM929 728h84q-6 -4 -11.5 -8.5t-10 -11
t-7.5 -10.5t-7 -13t-5.5 -12t-5.5 -13t-5 -11l-272 -649h-144l-44 382l-167 -382h-146l-101 646q0 1 -1 9.5t-1.5 10.5t-1.5 10t-2.5 11t-3.5 10t-4.5 11t-6.5 9.5t-9 10.5h200q-31 -18 -21 -77l88 -608l171 391l-25 214q-8 58 -34 80h200q-25 -16 -18 -77l62 -602l252 602
q10 23 13 34.5t0 23.5t-16 19z" />
    <glyph glyph-name="wdieresis" unicode="&#x1e85;" horiz-adv-x="774" 
d="M338 572q-35 0 -54.5 23t-14.5 58t30 58.5t59 23.5t53.5 -23.5t15.5 -58.5q-5 -35 -30.5 -58t-58.5 -23zM544 572q-34 0 -53.5 23t-14.5 58q5 36 30 59t59 23q33 0 53 -23.5t16 -58.5q-5 -35 -31 -58t-59 -23zM732 508h88q-26 -15 -53 -77l-191 -431h-115l-61 311
l-143 -311h-120l-82 431q0 2 -2 10.5t-2.5 12t-2.5 11.5t-4 12.5t-5.5 10.5t-8 11t-9.5 9h187q-8 -11 -9 -25.5t0.5 -21t6.5 -28.5l60 -331l122 271l-12 58q-1 3 -3.5 14.5t-4 17.5t-5.5 15.5t-9.5 16.5t-12.5 13h189q-6 -8 -8 -18t-1.5 -17t3.5 -20.5t4 -20.5l58 -321
l139 321q24 54 7 76z" />
    <glyph glyph-name="uni1E9E" unicode="&#x1e9e;" horiz-adv-x="648" 
d="M686 728l-1 -23l-169 -316q57 -16 91.5 -59.5t34.5 -104.5q0 -111 -76.5 -168t-219.5 -57h-48l5 27h31q76 0 115.5 56t39.5 145q0 66 -27.5 105t-71.5 39h-13l3 24l161 306h-79q-68 0 -119 -68t-70 -207l-58 -427h-169q26 23 35 93l47 350q18 131 103 208t216 77h239z
" />
    <glyph glyph-name="Ygrave" unicode="&#x1ef2;" horiz-adv-x="628" 
d="M462 774h-24l-166 172v1h157zM591 728h110q-7 -3 -13 -7.5t-12.5 -11.5t-11 -11.5t-11 -14.5t-9 -13.5t-9.5 -14.5t-8 -12l-233 -363l-26 -184q-10 -70 12 -96h-213q29 24 39 96l26 184l-122 364q-20 64 -48 84h217q-20 -14 -21.5 -36.5t8.5 -44.5l109 -321l209 320
q37 55 7 82z" />
    <glyph glyph-name="ygrave" unicode="&#x1ef3;" horiz-adv-x="492" 
d="M339 578h-23l-141 167v1h143zM446 508h92q-9 -7 -16.5 -13.5t-14.5 -16.5t-9.5 -14.5t-9.5 -18t-8 -14.5l-244 -458l-45 -81q-31 -54 -64 -77.5t-79 -23.5q-45 0 -68.5 21t-23.5 55q0 33 21 53.5t51 20.5q34 0 51 -32q-20 -15 -20 -42q0 -30 31 -30q35 0 77 72l14 26
l-125 496q-15 55 -38 77h188q-3 -5 -5.5 -9.5t-3 -10.5t-0.5 -10t1 -11.5t2 -10.5t3 -12t3 -12l70 -312l165 312q29 55 5 76z" />
    <glyph glyph-name="uni1EF8" unicode="&#x1ef8;" horiz-adv-x="628" 
d="M358 830q-29 0 -49 -19t-26 -43h-13q6 48 39 93.5t90 45.5q31 0 84 -23.5t71 -23.5q23 0 44 16t23 38h13q-5 -53 -35.5 -94t-77.5 -41q-28 0 -85.5 25.5t-77.5 25.5zM591 728h110q-7 -3 -13 -7.5t-12.5 -11.5t-11 -11.5t-11 -14.5t-9 -13.5t-9.5 -14.5t-8 -12l-233 -363
l-26 -184q-10 -70 12 -96h-213q29 24 39 96l26 184l-122 364q-20 64 -48 84h217q-20 -14 -21.5 -36.5t8.5 -44.5l109 -321l209 320q37 55 7 82z" />
    <glyph glyph-name="uni1EF9" unicode="&#x1ef9;" horiz-adv-x="492" 
d="M240 642q-26 0 -44 -15.5t-25 -44.5h-13q9 58 39.5 98.5t83.5 40.5q31 0 77 -26t75 -26q56 0 68 59h13q-8 -57 -39 -97.5t-84 -40.5q-30 0 -75 26t-76 26zM446 508h92q-9 -7 -16.5 -13.5t-14.5 -16.5t-9.5 -14.5t-9.5 -18t-8 -14.5l-244 -458l-45 -81q-31 -54 -64 -77.5
t-79 -23.5q-45 0 -68.5 21t-23.5 55q0 33 21 53.5t51 20.5q34 0 51 -32q-20 -15 -20 -42q0 -30 31 -30q35 0 77 72l14 26l-125 496q-15 55 -38 77h188q-3 -5 -5.5 -9.5t-3 -10.5t-0.5 -10t1 -11.5t2 -10.5t3 -12t3 -12l70 -312l165 312q29 55 5 76z" />
    <glyph glyph-name="endash" unicode="&#x2013;" horiz-adv-x="547" 
d="M67 325l6 39h440l-6 -39h-440z" />
    <glyph glyph-name="emdash" unicode="&#x2014;" horiz-adv-x="775" 
d="M67 325l6 39h668l-6 -39h-668z" />
    <glyph glyph-name="quoteleft" unicode="&#x2018;" horiz-adv-x="228" 
d="M278 880l8 -18v-1q-88 -34 -122 -144q9 4 26 4q30 0 51 -21.5t21 -56.5q0 -39 -26 -66t-68 -27q-35 0 -57.5 23.5t-22.5 64.5q0 74 54.5 143.5t135.5 98.5z" />
    <glyph glyph-name="quoteright" unicode="&#x2019;" horiz-adv-x="233" 
d="M74 521l-8 18v1q88 34 122 144q-9 -4 -26 -4q-30 0 -51 21.5t-21 56.5q0 39 26 66t68 27q35 0 57.5 -23.5t22.5 -64.5q0 -74 -54.5 -143.5t-135.5 -98.5z" />
    <glyph glyph-name="quotesinglbase" unicode="&#x201a;" horiz-adv-x="254" 
d="M0 -172l-8 18v1q89 34 121 144q-9 -4 -26 -4q-30 0 -51 21.5t-21 56.5q0 39 26.5 66.5t68.5 27.5q35 0 57.5 -23.5t22.5 -65.5q0 -74 -54.5 -143.5t-135.5 -98.5z" />
    <glyph glyph-name="quotedblleft" unicode="&#x201c;" horiz-adv-x="449" 
d="M278 880l8 -18v-1q-88 -34 -122 -144q9 4 26 4q30 0 51 -21.5t21 -56.5q0 -39 -26 -66t-68 -27q-35 0 -57.5 23.5t-22.5 64.5q0 74 54.5 143.5t135.5 98.5zM498 880l8 -18v-1q-89 -34 -121 -144q9 4 25 4q30 0 51.5 -21.5t21.5 -56.5q0 -39 -26.5 -66t-68.5 -27
q-35 0 -57.5 23.5t-22.5 64.5q0 74 54.5 143.5t135.5 98.5z" />
    <glyph glyph-name="quotedblright" unicode="&#x201d;" horiz-adv-x="459" 
d="M74 521l-8 18v1q88 34 122 144q-9 -4 -26 -4q-30 0 -51 21.5t-21 56.5q0 39 26 66t68 27q35 0 57.5 -23.5t22.5 -64.5q0 -74 -54.5 -143.5t-135.5 -98.5zM301 521l-8 18v1q87 34 121 144q-9 -4 -26 -4q-30 0 -51 21.5t-21 56.5q0 39 26 66t68 27q35 0 57.5 -23.5
t22.5 -64.5q0 -74 -54 -143.5t-135 -98.5z" />
    <glyph glyph-name="quotedblbase" unicode="&#x201e;" horiz-adv-x="487" 
d="M0 -172l-8 18v1q89 34 121 144q-9 -4 -26 -4q-30 0 -51 21.5t-21 56.5q0 39 26.5 66.5t68.5 27.5q35 0 57.5 -23.5t22.5 -65.5q0 -74 -54.5 -143.5t-135.5 -98.5zM232 -172l-8 18v1q89 34 121 144q-9 -4 -25 -4q-30 0 -51.5 21.5t-21.5 56.5q0 39 26.5 66.5t68.5 27.5
q35 0 57.5 -23.5t22.5 -65.5q0 -74 -54.5 -143.5t-135.5 -98.5z" />
    <glyph glyph-name="dagger" unicode="&#x2020;" horiz-adv-x="497" 
d="M458 540q27 0 42 -13.5t11 -37.5q-4 -22 -22 -35.5t-45 -13.5t-80.5 19t-77.5 23q-2 -24 6 -80.5t1 -88.5l-95 -484h-27l29 480q3 39 31.5 94.5t31.5 76.5q-17 -4 -75 -22t-86 -18q-26 0 -40 13.5t-11 35.5q3 24 21 37.5t45 13.5q21 0 43.5 -5.5t53.5 -16t51 -15.5
q0 37 -14 106.5t-10 100.5q5 33 25.5 55t50.5 22t42.5 -20.5t8.5 -55.5q-3 -27 -35.5 -96t-42.5 -113q25 5 82.5 21.5t85.5 16.5z" />
    <glyph glyph-name="daggerdbl" unicode="&#x2021;" horiz-adv-x="524" 
d="M473 540q27 0 42 -13.5t11 -37.5q-4 -22 -22 -35.5t-45 -13.5t-81 19t-77 23q-2 -17 11.5 -77t-1.5 -100q-7 -25 -30 -94.5t-30 -100.5q24 5 81.5 22t85.5 17t42.5 -13.5t10.5 -37.5q-3 -22 -21 -35.5t-45 -13.5q-28 0 -81.5 18.5t-76.5 22.5q-7 -52 7.5 -125.5
t12.5 -97.5q-5 -34 -24 -54.5t-49 -20.5t-44 22t-9 54q4 31 40.5 103t44.5 117q-21 -4 -78.5 -21.5t-85.5 -17.5q-26 0 -39.5 13t-11.5 36q8 51 66 51q28 0 80.5 -17t70.5 -21q0 22 -8 91t-6 106q2 44 32 96.5t34 75.5q-21 -4 -78 -22t-85 -18q-26 0 -40 13.5t-11 35.5
q2 24 20.5 37.5t45.5 13.5q28 0 81 -16.5t69 -20.5q1 40 -14.5 108t-11.5 99q5 33 25.5 55t50.5 22t42.5 -20.5t8.5 -55.5q-3 -26 -36.5 -94.5t-42.5 -114.5q25 5 83 21.5t86 16.5z" />
    <glyph glyph-name="bullet" unicode="&#x2022;" horiz-adv-x="361" 
d="M190 234q-47 0 -76.5 28.5t-29.5 71.5q0 51 36.5 86.5t89.5 35.5q46 0 74.5 -27.5t28.5 -69.5q1 -52 -35 -88.5t-88 -36.5z" />
    <glyph glyph-name="ellipsis" unicode="&#x2026;" horiz-adv-x="721" 
d="M89 -13q-35 0 -57 22t-22 54q0 39 27.5 66t67.5 27q35 0 57 -22t22 -54q0 -39 -27.5 -66t-67.5 -27zM326 -13q-35 0 -57 22t-22 54q0 39 27.5 66t67.5 27q35 0 57 -22t22 -54q0 -39 -27.5 -66t-67.5 -27zM562 -13q-35 0 -57 22t-22 54q0 39 27 66t67 27q35 0 57.5 -22
t22.5 -54q0 -38 -27.5 -65.5t-67.5 -27.5z" />
    <glyph glyph-name="perthousand" unicode="&#x2030;" horiz-adv-x="1326" 
d="M244 341q-76 0 -125.5 48t-49.5 126q0 93 65 156t153 63q75 0 124.5 -47.5t49.5 -122.5q0 -92 -64.5 -157.5t-152.5 -65.5zM197 0h-48l561 724h49zM243 371q50 0 82 70t32 151q0 53 -19 83t-51 30q-54 0 -84 -69.5t-30 -152.5q0 -53 18.5 -82.5t51.5 -29.5zM633 -7
q-76 0 -125.5 47.5t-49.5 126.5q0 93 65 156t153 63q75 0 124.5 -47.5t49.5 -122.5q0 -92 -64.5 -157.5t-152.5 -65.5zM1071 -7q-77 0 -126.5 47.5t-49.5 126.5q0 93 65 156t154 63q75 0 124 -47t49 -123q0 -92 -64.5 -157.5t-151.5 -65.5zM632 22q50 0 82 70.5t32 151.5
q0 53 -19 83t-51 30q-54 0 -84 -69.5t-30 -153.5q0 -52 19 -82t51 -30zM1069 22q50 0 82 70.5t32 151.5q0 53 -19 83t-51 30q-54 0 -84 -69.5t-30 -153.5q0 -52 19 -82t51 -30z" />
    <glyph glyph-name="guilsinglleft" unicode="&#x2039;" horiz-adv-x="344" 
d="M342 486l-5 -30l-189 -152l150 -150l-4 -30l-229 156l6 50z" />
    <glyph glyph-name="guilsinglright" unicode="&#x203a;" horiz-adv-x="327" 
d="M59 486l230 -156l-8 -50l-270 -156l5 30l189 151l-150 151z" />
    <glyph glyph-name="fraction" unicode="&#x2044;" horiz-adv-x="440" 
d="M-18 0h-48l562 724h49z" />
    <glyph glyph-name="uni2070" unicode="&#x2070;" horiz-adv-x="473" 
d="M251 341q-74 0 -121.5 48t-47.5 128q0 93 67 155t158 62q74 0 121.5 -47.5t47.5 -128.5q0 -94 -67 -155.5t-158 -61.5zM258 371q56 0 87.5 66.5t31.5 145.5q0 122 -78 122q-56 0 -87 -67t-31 -145q0 -122 77 -122z" />
    <glyph glyph-name="Euro" unicode="&#x20ac;" horiz-adv-x="633" 
d="M485 734q105 0 160 -67l-23 -41h-2q-29 69 -105 69q-70 0 -120.5 -61.5t-75.5 -171.5h175l-14 -46h-170q-6 -38 -8 -63h148l-14 -46h-137q-2 -44 -2 -66q0 -205 118 -205q41 0 75 22.5t50 53.5h2l17 -43q-74 -72 -171 -72q-108 0 -180.5 75.5t-72.5 220.5v13h-112l14 47
h101q3 32 9 62h-79l13 47h77q36 123 121 197.5t206 74.5z" />
    <glyph glyph-name="trademark" unicode="&#x2122;" horiz-adv-x="745" 
d="M274 702l-37 -279q-4 -33 6 -45h-113q14 12 18 45l39 279h-47q-31 0 -45 -14l5 41h258l-4 -41q-11 14 -41 14h-39zM663 729h95q-14 -11 -18 -45l-35 -261q-4 -35 6 -45h-114q15 12 19 45l30 212l-128 -256h-32l-64 261l-30 -217q-4 -31 10 -45h-64q15 13 19 45l36 261
q5 32 -6 45h89l63 -247z" />
    <glyph glyph-name="uni2153" unicode="&#x2153;" horiz-adv-x="683" 
d="M173 375q-5 -43 7 -60h-139q21 16 26 60l32 245q9 53 -6 68v3l127 38h1zM561 724h49l-563 -724h-47zM546 219q95 -18 95 -103q0 -56 -49 -90.5t-124 -34.5q-121 0 -121 88q0 25 14.5 42t36.5 17q27 0 38 -23q-24 -21 -24 -47q0 -22 15.5 -34.5t43.5 -12.5q39 0 60 28.5
t21 70.5q0 81 -87 78l-29 -1v5l31 15q101 45 101 121q0 48 -50 48q-28 0 -46 -16t-18 -41q0 -22 15 -37q-17 -23 -46 -23q-17 0 -27 11.5t-10 32.5q0 46 40.5 74.5t103.5 28.5q59 0 93 -25t34 -67q0 -38 -31.5 -64.5t-79.5 -40.5z" />
    <glyph glyph-name="minus" unicode="&#x2212;" horiz-adv-x="426" 
d="M68 326h315l-6 -44h-315z" />
    <glyph glyph-name="approxequal" unicode="&#x2248;" horiz-adv-x="493" 
d="M191 374q29 0 105.5 -21.5t92.5 -21.5q19 0 35 15.5t18 32.5h27q-2 -43 -28.5 -71t-73.5 -28q-28 0 -108.5 23.5t-98.5 23.5q-23 0 -38.5 -15.5t-20.5 -36.5h-27q6 39 34.5 69t82.5 30zM171 222q28 0 104.5 -21.5t92.5 -21.5q19 0 35.5 15.5t18.5 32.5h27q-4 -43 -30 -71
t-73 -28q-27 0 -107.5 23.5t-99.5 23.5q-23 0 -38 -15.5t-21 -36.5h-26q4 37 33.5 68t83.5 31z" />
    <glyph glyph-name="notequal" unicode="&#x2260;" horiz-adv-x="422" 
d="M381 321h-110l-42 -66h143l-7 -45h-165l-64 -101h-48l65 101h-103l7 45h125l42 66h-158l5 45h182l64 99h46l-63 -99h86z" />
    <glyph glyph-name="uniF8FF" unicode="&#xf8ff;" horiz-adv-x="2335" 
d="M543 404q28 17 58 17h51v-79h-42v-48q0 -17 18 -17q14 0 24 7v-75q-17 -10 -55 -10q-46 0 -66.5 19.5t-20.5 63.5v228h99q0 -30 -19.5 -59.5t-47.5 -42.5zM693 413q41 8 70 8h8v-217h-99v306h98q0 -33 -23 -59.5t-56 -34.5zM1353 404q28 17 58 17h50v-79h-42v-48
q0 -17 18 -17q13 0 24 7v-75q-17 -10 -54 -10q-46 0 -67 19.5t-21 63.5v228h99q0 -30 -19 -59.5t-48 -42.5zM136 204v305h99v-305h-99zM379 428q54 0 84 -24t30 -66v-134h-98v22h-3q-19 -27 -71 -27q-32 0 -51 17t-19 44q0 29 20 47.5t54 18.5q45 0 66 -21h2v35q0 25 -23 25
t-23 -29l-90 14q18 78 122 78zM963 426q34 0 53.5 -22.5t19.5 -65.5v-134h-100v129q0 27 -19 27q-11 0 -15.5 -6.5t-10.5 -25.5v-124h-99v217h97v-65h3q8 70 71 70zM1177 426q59 0 92.5 -31.5t33.5 -82.5q0 -50 -33 -81.5t-93 -31.5t-93 31t-33 82t33.5 82.5t92.5 31.5z
M1902 426q83 0 83 -114q0 -56 -25 -84.5t-61 -28.5q-52 0 -69 43h-3v-110h-100v289h99v-65h3q11 70 73 70zM2243 317v-9h-150q0 -19 9 -32.5t25 -13.5q26 0 30 34l82 -8q-8 -46 -40 -67.5t-76 -21.5q-59 0 -91.5 31t-32.5 82q0 50 34.5 82t92.5 32q52 0 84.5 -31.5
t32.5 -77.5zM1595 248q6 57 30 173h99l-71 -207q-31 -86 -106 -86h-39v66h65q57 0 67 12l-1 3h-68q-40 0 -52 39l-54 173h100q3 -16 10 -53t11.5 -66.5t6.5 -53.5h2zM2099 320q55 0 55 24q0 22 -24 22q-17 0 -27 -12.5t-10 -33.5h6zM1861 247q30 0 30 57q0 61 -27 61
q-22 0 -30 -33v-72q10 -13 27 -13zM1177 261q29 0 29 51q0 52 -29 52q-28 0 -28 -52q0 -51 28 -51zM371 229q15 0 22 11v51q-5 8 -19 8q-27 0 -27 -35t24 -35z" />
    <glyph glyph-name="G.ss02" horiz-adv-x="712" 
d="M491 348h206q-39 -27 -52 -123l-34 -235h-7l-41 56q-97 -53 -222 -53q-96 0 -163.5 45t-97.5 114.5t-30 154.5q0 186 116 306.5t302 120.5q62 0 118 -15.5t82 -37.5l-33 -77h-1q-16 37 -60.5 65t-95.5 28q-86 0 -147.5 -58.5t-90 -155t-28.5 -221.5q0 -109 40 -170.5
t109 -61.5q57 0 94 33.5t46 96.5q13 74 11.5 122.5t-21.5 65.5z" />
    <glyph glyph-name="Gbreve.ss02" horiz-adv-x="712" 
d="M455 773q-73 0 -108.5 43.5t-21.5 131.5h24q0 -29 10 -49.5t28.5 -30t36.5 -13.5t40 -4q117 0 142 97h23q-9 -88 -56 -131.5t-118 -43.5zM491 348h206q-39 -27 -52 -123l-34 -235h-7l-41 56q-97 -53 -222 -53q-96 0 -163.5 45t-97.5 114.5t-30 154.5q0 186 116 306.5
t302 120.5q62 0 118 -15.5t82 -37.5l-33 -77h-1q-16 37 -60.5 65t-95.5 28q-86 0 -147.5 -58.5t-90 -155t-28.5 -221.5q0 -109 40 -170.5t109 -61.5q57 0 94 33.5t46 96.5q13 74 11.5 122.5t-21.5 65.5z" />
    <glyph glyph-name="Gcircumflex.ss02" horiz-adv-x="712" 
d="M435 891l-113 -115h-34v1l150 172h85l91 -172v-1h-110zM491 348h206q-39 -27 -52 -123l-34 -235h-7l-41 56q-97 -53 -222 -53q-96 0 -163.5 45t-97.5 114.5t-30 154.5q0 186 116 306.5t302 120.5q62 0 118 -15.5t82 -37.5l-33 -77h-1q-16 37 -60.5 65t-95.5 28
q-86 0 -147.5 -58.5t-90 -155t-28.5 -221.5q0 -109 40 -170.5t109 -61.5q57 0 94 33.5t46 96.5q13 74 11.5 122.5t-21.5 65.5z" />
    <glyph glyph-name="uni0122.ss02" horiz-adv-x="712" 
d="M491 348h206q-39 -27 -52 -123l-34 -235h-7l-41 56q-97 -53 -222 -53q-96 0 -163.5 45t-97.5 114.5t-30 154.5q0 186 116 306.5t302 120.5q62 0 118 -15.5t82 -37.5l-33 -77h-1q-16 37 -60.5 65t-95.5 28q-86 0 -147.5 -58.5t-90 -155t-28.5 -221.5q0 -109 40 -170.5
t109 -61.5q57 0 94 33.5t46 96.5q13 74 11.5 122.5t-21.5 65.5zM396 -111q0 -52 -38.5 -98t-98.5 -67l-6 11v1q66 41 82 94h-12q-27 0 -43.5 15.5t-16.5 43.5q0 29 20 48.5t51 19.5q28 0 45 -18t17 -50z" />
    <glyph glyph-name="Gdotaccent.ss02" horiz-adv-x="712" 
d="M463 802q-33 0 -52.5 20t-19.5 53q0 38 25.5 64t62.5 26q32 0 51.5 -20t19.5 -54q0 -38 -25 -63.5t-62 -25.5zM491 348h206q-39 -27 -52 -123l-34 -235h-7l-41 56q-97 -53 -222 -53q-96 0 -163.5 45t-97.5 114.5t-30 154.5q0 186 116 306.5t302 120.5q62 0 118 -15.5
t82 -37.5l-33 -77h-1q-16 37 -60.5 65t-95.5 28q-86 0 -147.5 -58.5t-90 -155t-28.5 -221.5q0 -109 40 -170.5t109 -61.5q57 0 94 33.5t46 96.5q13 74 11.5 122.5t-21.5 65.5z" />
    <glyph glyph-name="i.loclTRK" horiz-adv-x="265" 
d="M205 736q35 0 57 -23.5t18 -58.5t-32 -58t-64 -23q-37 0 -58 23t-16 58q4 35 31 58.5t64 23.5zM81 409q7 67 -13 90q117 6 170 13l-53 -419q-9 -68 11 -93h-191q27 23 36 93z" />
    <glyph glyph-name="uni0237.ss01" horiz-adv-x="267" 
d="M101 498q152 12 170 14l-57 -439q-7 -56 -24 -100t-45.5 -77.5t-54 -55t-65.5 -48.5l-16 14q32 37 49 169l54 433q10 65 -11 90z" />
    <glyph glyph-name="uni030C.alt" 
d="M51 692q0 -43 -34.5 -86t-87.5 -60l-4 12v1q64 29 72 81h-10q-22 0 -36.5 15t-14.5 37q0 25 16 41.5t42 16.5q25 0 41 -14t16 -44z" />
    <glyph glyph-name="caron.alt" horiz-adv-x="598" 
d="M202 694q-13 -108 -114 -144l-3 11v1q47 18 66 78h-8q-22 0 -36 16t-11 38t21 37.5t40 15.5q21 0 34.5 -15.5t10.5 -37.5z" />
    <glyph glyph-name="uni0308.case" 
d="M-223 585q-30 0 -48.5 19.5t-18.5 49.5q0 36 25 62t61 26q30 0 48.5 -19t18.5 -49q0 -38 -25 -63.5t-61 -25.5zM-21 585q-30 0 -48.5 19.5t-18.5 49.5q0 36 25.5 62t61.5 26q29 0 47.5 -19t18.5 -49q0 -38 -25 -63.5t-61 -25.5z" />
    <glyph glyph-name="uni0307.case" 
d="M-18 581q-32 0 -51.5 20t-19.5 54q0 38 25 64t62 26q32 0 52 -20.5t20 -53.5q0 -38 -25.5 -64t-62.5 -26z" />
    <glyph glyph-name="gravecomb.case" 
d="M54 554h-24l-166 172v1h157z" />
    <glyph glyph-name="acutecomb.case" 
d="M87 726v-1l-211 -172h-26l80 173h157z" />
    <glyph glyph-name="uni030B.case" 
d="M-110 727v-1l-155 -172h-25l49 173h131zM78 727v-1l-154 -172h-25l49 173h130z" />
    <glyph glyph-name="uni0302.case" 
d="M-41 730l91 -172v-1h-109l-69 116l-114 -116h-34v2l151 171h84z" />
    <glyph glyph-name="uni030C.case" 
d="M39 725h34v-2l-150 -171h-85l-91 172v1h110l69 -116z" />
    <glyph glyph-name="uni0306.case" 
d="M-95 554q-73 0 -108.5 43t-21.5 132h23q0 -39 19.5 -62t43 -29t53.5 -6q117 0 142 97h23q-9 -88 -56 -131.5t-118 -43.5z" />
    <glyph glyph-name="uni030A.case" 
d="M-34 555q-37 0 -61.5 23t-24.5 59q0 42 29 71t74 29q37 0 61.5 -23t24.5 -60q0 -41 -29 -70t-74 -29zM-30 609q18 0 29 11t11 28q0 34 -35 34q-15 0 -26.5 -11t-11.5 -28q0 -15 9 -24.5t24 -9.5z" />
    <glyph glyph-name="tildecomb.case" 
d="M-164 687q31 0 84 -23.5t71 -23.5q23 0 44 16t23 38h13q-5 -53 -35.5 -94t-77.5 -41q-28 0 -85.5 25.5t-77.5 25.5q-29 0 -49 -19t-26 -43h-13q6 48 39 93.5t90 45.5z" />
    <glyph glyph-name="uni0304.case" 
d="M-255 665h321l-6 -43h-321z" />
    <glyph glyph-name="uni0337.case" 
d="M8 376l11 -34l-368 -162l-11 34z" />
    <glyph glyph-name="uni0338.case" 
d="M66 749l-564 -770h-41v3l563 768h42v-1z" />
    <glyph glyph-name="acute.case" horiz-adv-x="450" 
d="M321 726v-1l-206 -172h-25l82 173h149z" />
    <glyph glyph-name="breve.case" horiz-adv-x="589" 
d="M235 554q-72 0 -107.5 43t-21.5 132h23q0 -39 19.5 -62t43 -29t52.5 -6q117 0 142 97h23q-8 -88 -55 -131.5t-119 -43.5z" />
    <glyph glyph-name="caron.case" horiz-adv-x="594" 
d="M408 725h34v-2l-150 -171h-85l-91 172v1h110l69 -116z" />
    <glyph glyph-name="circumflex.case" horiz-adv-x="470" 
d="M323 731l91 -172v-1h-111l-69 115l-112 -115h-34v1l150 172h85z" />
    <glyph glyph-name="dieresis.case" horiz-adv-x="380" 
d="M193 745q32 0 52 -23.5t16 -58.5q-5 -35 -30.5 -58t-58.5 -23q-35 0 -54 23t-14 58q4 35 29 58.5t60 23.5zM399 745q34 0 53.5 -23.5t15.5 -58.5q-5 -35 -30.5 -58t-58.5 -23q-35 0 -54.5 23t-14.5 58t30 58.5t59 23.5z" />
    <glyph glyph-name="dotaccent.case" horiz-adv-x="420" 
d="M189 712q30 0 48 -20t15 -48q-5 -30 -27.5 -50t-53.5 -20q-30 0 -47.5 20t-13.5 50q4 28 26.5 48t52.5 20z" />
    <glyph glyph-name="grave.case" horiz-adv-x="604" 
d="M290 554h-24l-166 172v1h157z" />
    <glyph glyph-name="hungarumlaut.case" horiz-adv-x="381" 
d="M271 727v-1l-155 -172h-25l49 173h131zM459 727v-1l-154 -172h-25l49 173h130z" />
    <glyph glyph-name="macron.case" horiz-adv-x="355" 
d="M100 621h321l-6 -43h-321z" />
    <glyph glyph-name="ring.case" horiz-adv-x="229" 
d="M181 552q-38 0 -63 26.5t-21 67.5q6 41 38.5 67.5t69.5 26.5q39 0 63.5 -26.5t18.5 -67.5q-5 -41 -36 -67.5t-70 -26.5zM189 608q16 0 27 11t13 27q3 16 -5.5 26.5t-24.5 10.5q-37 0 -44 -37q-2 -16 7.5 -27t26.5 -11z" />
    <glyph glyph-name="tilde.case" horiz-adv-x="406" 
d="M226 687q31 0 84 -23.5t71 -23.5q23 0 44 16t23 38h13q-5 -53 -35.5 -94t-77.5 -41q-28 0 -85.5 25.5t-77.5 25.5q-29 0 -49 -19t-26 -43h-13q6 48 39 93.5t90 45.5z" />
    <glyph glyph-name="IJacute" horiz-adv-x="781" 
d="M399 946v-1l-211 -172h-26l80 173h157zM864 946v-1l-211 -172h-26l81 173h156zM212 96q-7 -72 18 -96h-205q29 23 39 96l75 536q8 71 -15 96h203q-30 -24 -40 -96zM792 728q-30 -26 -40 -96l-62 -456q-11 -89 -63.5 -136t-141.5 -47q-80 0 -120 44.5t-29 122.5l23 11h1
q-5 -41 16 -73.5t71 -32.5q42 0 64 23t30 80l63 464q10 72 -13 96h201z" />
    <glyph glyph-name="ijacute" horiz-adv-x="526" 
d="M347 748v-1l-181 -167h-24l62 168h143zM637 748v-1l-180 -166h-25l62 167h143zM81 409q7 67 -13 90q117 6 170 13l-53 -419q-9 -68 11 -93h-191q27 23 36 93zM360 499q116 6 170 13l-71 -551q-22 -168 -161 -168q-30 0 -52.5 9t-36 27t-19.5 31t-13 34l7 5
q16 -17 28 -24.5t31 -7.5q57 0 68 79l60 463q8 63 -11 90z" />
    </font>
</defs>
</svg>
