<?xml version="1.0" standalone="no"?>
<!DOCTYPE svg PUBLIC "-//W3C//DTD SVG 1.1//EN" "http://www.w3.org/Graphics/SVG/1.1/DTD/svg11.dtd" >
<svg xmlns="http://www.w3.org/2000/svg" xmlns:xlink="http://www.w3.org/1999/xlink" version="1.1">
<metadata>
Created by FontForge 20170731 at Wed Oct 28 20:58:09 2020
 By Aleksey,,,
Copyright 2019 The Karla Project Authors (https://github.com/googlefonts/karla)
</metadata>
<defs>
<font id="Karla-SemiBold" horiz-adv-x="1200" >
  <font-face 
    font-family="Karla SemiBold"
    font-weight="600"
    font-stretch="normal"
    units-per-em="2000"
    panose-1="2 11 0 4 3 5 3 3 0 3"
    ascent="1600"
    descent="-400"
    x-height="966"
    cap-height="1286"
    bbox="-284.198 -499 2357 1991"
    underline-thickness="50"
    underline-position="-175"
    unicode-range="U+000D-FB02"
  />
<missing-glyph horiz-adv-x="1031" 
d="M10 1645h1011v-1640h-1011v1640zM0 1655v-1660h1031v1660h-1031zM1021 5q-91 127 -179.5 277t-180.5 316t-192 342t-213.5 354t-245.5 351q139 -228 269 -454t254.5 -439t246 -402.5t241.5 -344.5zM10 5q120 155 241.5 344.5t246 402.5t254.5 439t269 454
q-132 -173 -245.5 -351t-213.5 -354t-192 -342t-180.5 -316t-179.5 -277z" />
    <glyph glyph-name="fi" unicode="fi" horiz-adv-x="1360" 
d="M245 0v1093q0 102 40 166.5t106 95t144 30.5q46 0 95 -6.5t97 -17.5l-42 -165q-26 10 -53.5 15.5t-53.5 5.5q-29 0 -56.5 -11t-44.5 -39t-17 -78v-1089h-215zM98 824v142h546v-142h-546zM1035 1158q-63 0 -98.5 34t-35.5 93q0 57 35.5 91.5t98.5 34.5q62 0 98 -34.5
t36 -91.5q0 -59 -36 -93t-98 -34zM929 0v969h213v-969h-213z" />
    <glyph glyph-name="fl" unicode="fl" horiz-adv-x="1316" 
d="M245 0v1093q0 102 40 166.5t106 95t144 30.5q46 0 95 -6.5t97 -17.5l-42 -165q-26 10 -53.5 15.5t-53.5 5.5q-29 0 -56.5 -11t-44.5 -39t-17 -78v-1089h-215zM98 824v142h546v-142h-546zM912 0v1370h213v-1370h-213z" />
    <glyph glyph-name=".notdef" horiz-adv-x="1031" 
d="M10 1645h1011v-1640h-1011v1640zM0 1655v-1660h1031v1660h-1031zM1021 5q-91 127 -179.5 277t-180.5 316t-192 342t-213.5 354t-245.5 351q139 -228 269 -454t254.5 -439t246 -402.5t241.5 -344.5zM10 5q120 155 241.5 344.5t246 402.5t254.5 439t269 454
q-132 -173 -245.5 -351t-213.5 -354t-192 -342t-180.5 -316t-179.5 -277z" />
    <glyph glyph-name=".null" 
 />
    <glyph glyph-name="nonmarkingreturn" horiz-adv-x="666" 
 />
    <glyph glyph-name="CR" unicode="&#xd;" 
 />
    <glyph glyph-name="space" unicode=" " horiz-adv-x="497" 
 />
    <glyph glyph-name="exclam" unicode="!" horiz-adv-x="577" 
d="M204 413l-24 892h230l-26 -892h-180zM295 -18q-66 0 -108.5 41t-42.5 104q0 61 42.5 103t108.5 42q65 0 109 -42t44 -103q0 -63 -44 -104t-109 -41z" />
    <glyph glyph-name="quotedbl" unicode="&#x22;" horiz-adv-x="720" 
d="M472 904l-28 466h215l-29 -466h-158zM89 904l-27 466h214l-29 -466h-158z" />
    <glyph glyph-name="numbersign" unicode="#" horiz-adv-x="1326" 
d="M272 65l28 266h-188l13 141h190l35 328h-190l14 140h191l28 264h200l-28 -264h282l29 264h198l-27 -264h191l-14 -140h-193l-33 -328h192l-14 -141h-193l-28 -266h-201l29 266h-283l-28 -266h-200zM515 472h282l35 328h-282z" />
    <glyph glyph-name="dollar" unicode="$" horiz-adv-x="1344" 
d="M688 -27q-111 0 -211.5 26t-178 78t-122 132t-44.5 189h209q0 -81 43 -132t123 -74.5t191 -23.5q94 0 154.5 24.5t90 65.5t29.5 89q0 62 -40.5 106.5t-116.5 70.5l-138 51v186l239 -83q147 -50 221.5 -129.5t74.5 -207.5q0 -92 -56 -176t-172 -138t-296 -54zM596 -196
v1656h154v-1656h-154zM639 573l-133 45q-167 56 -256.5 133t-89.5 213q0 154 130 250.5t377 96.5q228 0 348.5 -99.5t148.5 -268.5h-211q-15 80 -88.5 132.5t-201.5 52.5q-135 0 -203.5 -48.5t-68.5 -123.5q0 -57 35 -92t110 -61l103 -41v-189z" />
    <glyph glyph-name="percent" unicode="%" horiz-adv-x="1507" 
d="M215 0l870 1286h216l-869 -1286h-217zM1129 -21q-70 0 -131 33t-98.5 99.5t-37.5 166.5t37.5 166.5t98.5 99.5t131 33q72 0 134 -33t99.5 -99.5t37.5 -166.5t-37.5 -166.5t-99.5 -99.5t-134 -33zM1129 118q48 0 78 36.5t30 123.5q0 85 -30 123t-78 38t-77 -38t-29 -123
q0 -87 29 -123.5t77 -36.5zM389 715q-70 0 -131 33t-98.5 99.5t-37.5 166.5q0 98 37.5 164t98.5 99.5t131 33.5q72 0 134 -33.5t99.5 -99.5t37.5 -164q0 -100 -37.5 -166.5t-99.5 -99.5t-134 -33zM389 852q47 0 77 37.5t30 124.5q0 85 -30 122.5t-77 37.5q-48 0 -77 -37.5
t-29 -122.5q0 -87 29 -124.5t77 -37.5z" />
    <glyph glyph-name="ampersand" unicode="&#x26;" horiz-adv-x="1901" 
d="M1499 -27q-91 0 -170 39.5t-169 121.5l-640 576q-66 58 -106.5 132.5t-40.5 155.5q0 87 50 157t144.5 111t229.5 41q128 0 220 -41t142 -110t50 -154q0 -87 -42.5 -157t-128 -126.5t-216.5 -102.5l-113 106q96 39 154 78t84.5 82.5t26.5 94.5q0 64 -49 105.5t-128 41.5
q-93 0 -141.5 -46t-48.5 -111q0 -48 24 -91.5t75 -90.5l625 -559q38 -32 69.5 -48.5t77.5 -16.5q49 0 84.5 36t39.5 117h195q-5 -157 -79 -249t-219 -92zM705 -27q-109 0 -204 29.5t-166.5 83t-112 124.5t-40.5 154q0 154 124.5 233t349.5 97l65 -118q-159 -14 -232 -64.5
t-73 -135.5q0 -58 34.5 -105.5t99.5 -76t158 -28.5q114 0 211 46t178.5 128.5t147 192.5t114.5 238l145 -80q-53 -157 -130.5 -288.5t-178 -227.5t-223 -149t-267.5 -53z" />
    <glyph glyph-name="quotesingle" unicode="'" horiz-adv-x="334" 
d="M60 1354h214l-29 -466h-158z" />
    <glyph glyph-name="parenleft" unicode="(" horiz-adv-x="774" 
d="M558 1493l153 -111q-115 -119 -191.5 -240.5t-114.5 -248.5t-38 -263q0 -203 86 -387.5t258 -361.5l-153 -115q-209 188 -310.5 406.5t-101.5 457.5q0 240 101.5 458.5t310.5 404.5z" />
    <glyph glyph-name="parenright" unicode=")" horiz-adv-x="774" 
d="M217 -234l-155 115q172 177 259 361.5t87 387.5q0 136 -39 263t-115.5 248.5t-191.5 240.5l155 111q208 -186 310 -404.5t102 -458.5q0 -160 -45 -310.5t-137 -289.5t-230 -264z" />
    <glyph glyph-name="asterisk" unicode="*" horiz-adv-x="820" 
d="M155 883l174 165l-226 77l57 130l202 -102l-22 244h148l-22 -244l202 106l57 -133l-223 -76l175 -167l-110 -96l-151 204l-154 -204z" />
    <glyph glyph-name="plus" unicode="+" horiz-adv-x="1078" 
d="M433 982h212v-398h397v-186h-397v-398h-212v398h-397v186h397v398z" />
    <glyph glyph-name="comma" unicode="," horiz-adv-x="481" 
d="M209 -257l-158 80q64 32 111.5 72.5t62.5 94.5q-52 9 -88.5 41.5t-36.5 85.5q0 55 41.5 93t106.5 38q80 0 127 -57.5t47 -135.5q0 -90 -56 -175.5t-157 -136.5z" />
    <glyph glyph-name="hyphen" unicode="-" horiz-adv-x="732" 
d="M87 504v186h557v-186h-557z" />
    <glyph glyph-name="period" unicode="." horiz-adv-x="409" 
d="M51 125q0 62 42.5 104.5t107.5 42.5q66 0 110.5 -42.5t44.5 -104.5q0 -61 -44.5 -102t-110.5 -41q-65 0 -107.5 41.5t-42.5 101.5z" />
    <glyph glyph-name="slash" unicode="/" horiz-adv-x="920" 
d="M108 -155l511 1637h218l-514 -1637h-215z" />
    <glyph glyph-name="zero" unicode="0" horiz-adv-x="1243" 
d="M623 -27q-157 0 -275.5 73.5t-185 222t-66.5 373.5q0 226 66.5 374.5t185 221.5t275.5 73q154 0 272.5 -73t185 -221.5t66.5 -374.5q0 -225 -66.5 -373.5t-185 -222t-272.5 -73.5zM623 168q146 0 225 122.5t79 351.5t-79 352.5t-225 123.5q-147 0 -226.5 -123.5
t-79.5 -352.5t79.5 -351.5t226.5 -122.5z" />
    <glyph glyph-name="one" unicode="1" horiz-adv-x="698" 
d="M343 1293h163v-1293h-213v1039q-51 -27 -102.5 -41t-103.5 -15v205q67 8 130 32.5t126 72.5z" />
    <glyph glyph-name="two" unicode="2" horiz-adv-x="1195" 
d="M122 0v212q0 109 34 184t99 126t161 89l261 100q89 36 132.5 90t43.5 134q0 81 -58 135t-164 54q-103 0 -171.5 -49t-78.5 -144h-237q5 126 68 210.5t171 127t245 42.5q128 0 231 -49t163.5 -135.5t60.5 -201.5q0 -99 -36.5 -174t-108 -130.5t-178.5 -97.5l-264 -104
q-83 -31 -122 -72.5t-39 -106.5v-45h739v-195h-952z" />
    <glyph glyph-name="three" unicode="3" horiz-adv-x="1226" 
d="M617 -27q-100 0 -193.5 27.5t-168 81.5t-117.5 134t-43 185h222q4 -73 43 -125.5t105.5 -80t151.5 -27.5q127 0 198.5 60t71.5 150q0 59 -29.5 102t-90.5 66.5t-158 23.5h-163v168h131q124 0 194 52t70 141q0 79 -59 133t-175 54q-93 0 -166 -38t-95 -134h-222
q14 129 78.5 209.5t166.5 118t229 37.5q137 0 243.5 -45.5t168 -125.5t61.5 -186q0 -99 -55 -171t-161 -109q118 -39 190.5 -117.5t72.5 -197.5q0 -113 -62 -200t-174.5 -136.5t-264.5 -49.5z" />
    <glyph glyph-name="four" unicode="4" horiz-adv-x="1169" 
d="M709 1301h204v-826h224v-182h-224v-293h-211v293h-656v162zM712 981l-413 -526h413v526z" />
    <glyph glyph-name="five" unicode="5" horiz-adv-x="1154" 
d="M585 -27q-134 0 -238.5 47t-165 137.5t-62.5 219.5h215q0 -104 72.5 -156.5t178.5 -52.5q117 0 188.5 74t71.5 182q0 213 -280 213h-379l58 649h755v-195h-583l42 64l-39 -401l-20 21q48 11 112.5 16.5t112.5 5.5q202 0 321 -96t119 -277q0 -126 -59 -228.5
t-166.5 -162.5t-253.5 -60z" />
    <glyph glyph-name="six" unicode="6" horiz-adv-x="1194" 
d="M632 -27q-159 0 -280 84.5t-188.5 230.5t-67.5 332q0 220 68.5 374.5t192 235.5t290.5 81q124 0 219 -46.5t150.5 -129.5t61.5 -194h-228q-12 82 -59.5 129.5t-136.5 47.5q-160 0 -252 -139.5t-92 -379.5q0 -32 1.5 -71t6.5 -74q15 126 68.5 198t131.5 102.5t163 30.5
q120 0 212.5 -52.5t145 -144t52.5 -210.5q0 -121 -58 -212t-161.5 -142t-239.5 -51zM632 168q100 0 169 60t69 158q0 104 -69 162.5t-169 58.5q-66 0 -119 -28t-84.5 -78t-31.5 -115q0 -98 68 -158t167 -60z" />
    <glyph glyph-name="seven" unicode="7" horiz-adv-x="979" 
d="M97 0l596 1081h-645v205h896v-203l-561 -1083h-286z" />
    <glyph glyph-name="eight" unicode="8" horiz-adv-x="1275" 
d="M637 -27q-162 0 -282 49t-187 133.5t-67 191.5q0 93 49.5 158.5t135 101t192.5 35.5q38 0 71.5 -6t76.5 -17v-54q-89 0 -158 -27.5t-107.5 -72.5t-38.5 -98q0 -62 42 -107t113.5 -68.5t159.5 -23.5q157 0 236.5 44t79.5 113q0 55 -39.5 93t-109.5 65l-363 139
q-66 25 -134.5 70t-115 112t-46.5 159q0 105 58 183t168 121.5t266 43.5q139 0 250 -47.5t176 -129.5t65 -188q0 -76 -41 -141t-118.5 -104.5t-187.5 -39.5q-35 0 -65 5.5t-68 17.5v63q70 0 129 23t94.5 64.5t35.5 97.5t-34.5 97.5t-95 65t-140.5 23.5q-76 0 -137.5 -22
t-97.5 -58.5t-36 -83.5q0 -54 37 -88t107 -61l371 -144q141 -54 217 -126t76 -199q0 -106 -63 -188t-183 -128.5t-291 -46.5z" />
    <glyph glyph-name="nine" unicode="9" horiz-adv-x="1203" 
d="M586 -27q-131 0 -235 52t-164.5 144t-60.5 212h222q4 -98 67.5 -155.5t164.5 -57.5q111 0 180 64.5t100.5 180.5t31.5 272q0 33 -1.5 63t-6.5 64q-17 -109 -69 -178t-128 -101t-166 -32q-118 0 -210 52t-144.5 143.5t-52.5 209.5q0 122 57.5 213t160.5 141.5t237 50.5
q114 0 212 -46t170.5 -131.5t113.5 -204t41 -264.5q0 -212 -57 -367t-172 -240t-291 -85zM571 679q65 0 119 28.5t86 77t32 111.5q0 102 -70 161t-169 59t-167 -59t-68 -161q0 -101 68.5 -159t168.5 -58z" />
    <glyph glyph-name="colon" unicode=":" horiz-adv-x="517" 
d="M104 168q0 62 42.5 104.5t107.5 42.5q66 0 110.5 -42.5t44.5 -104.5q0 -61 -44.5 -102t-110.5 -41q-65 0 -107.5 41.5t-42.5 101.5zM104 769q0 62 42.5 104.5t107.5 42.5q66 0 110.5 -42.5t44.5 -104.5q0 -61 -44.5 -102t-110.5 -41q-65 0 -107.5 41.5t-42.5 101.5z" />
    <glyph glyph-name="semicolon" unicode=";" horiz-adv-x="589" 
d="M267 -257l-158 80q64 32 111.5 72.5t62.5 94.5q-52 9 -88.5 41.5t-36.5 85.5q0 55 41.5 93t106.5 38q80 0 127 -57.5t47 -135.5q0 -90 -56 -175.5t-157 -136.5zM168 769q0 62 42.5 104.5t107.5 42.5q66 0 110.5 -42.5t44.5 -104.5q0 -61 -44.5 -102t-110.5 -41
q-65 0 -107.5 41.5t-42.5 101.5z" />
    <glyph glyph-name="less" unicode="&#x3c;" horiz-adv-x="976" 
d="M745 1208l140 -163l-645 -456v90l645 -453l-140 -163l-657 476v190z" />
    <glyph glyph-name="equal" unicode="=" horiz-adv-x="1001" 
d="M158 388h685v-184h-685v184zM158 798h685v-185h-685v185z" />
    <glyph glyph-name="greater" unicode="&#x3e;" horiz-adv-x="976" 
d="M232 63l-141 163l643 453v-90l-643 456l141 163l657 -479v-190z" />
    <glyph glyph-name="question" unicode="?" horiz-adv-x="1023" 
d="M351 368v83q0 87 20 143t63.5 95.5t116.5 76.5q64 33 100.5 61.5t51 60t14.5 73.5q0 68 -54.5 112.5t-149.5 44.5q-110 0 -169 -47.5t-70 -127.5h-223q12 166 127 267t327 101q138 0 238 -47t154 -127t54 -178q0 -104 -52 -175.5t-165 -128.5q-66 -35 -103 -64.5
t-52 -65.5t-15 -92v-65h-213zM463 -27q-67 0 -109 41.5t-42 101.5q0 61 42 103.5t108 42.5t110.5 -42t44.5 -103q0 -60 -44.5 -102t-109.5 -42z" />
    <glyph glyph-name="at" unicode="@" horiz-adv-x="2002" 
d="M1123 -413q-224 0 -406 63.5t-312.5 178.5t-200.5 271t-70 340q0 189 71.5 347.5t199.5 276t301 182.5t375 65q189 0 340.5 -56t259.5 -155.5t165.5 -232t57.5 -285.5q0 -131 -39.5 -234t-107 -175t-151 -109.5t-172.5 -37.5q-88 0 -146.5 36t-74.5 99l-10 32
q-34 -69 -93 -118t-156 -49q-91 0 -167.5 46.5t-122 129.5t-45.5 194q0 100 37.5 187t103 153t150.5 103.5t179 37.5q130 0 205.5 -77t75.5 -233v-274q0 -54 18 -78.5t53 -24.5q50 0 107.5 43.5t98.5 130t41 215.5q0 157 -70 279t-204 192t-324 70q-165 0 -301 -54
t-234.5 -150.5t-151.5 -224.5t-53 -277q0 -192 90.5 -339.5t263.5 -231t419 -83.5v-173zM989 198q73 0 120.5 43t88.5 121v204q0 67 -25 107t-87 40t-125 -39.5t-106 -110t-43 -165.5q0 -100 50.5 -150t126.5 -50z" />
    <glyph glyph-name="A" unicode="A" horiz-adv-x="1222" 
d="M46 0l439 1286h266l424 -1286h-225l-94 292h-487l-97 -292h-226zM423 454h381l-189 577z" />
    <glyph glyph-name="B" unicode="B" horiz-adv-x="1281" 
d="M191 0v1286h508q147 0 243.5 -46t144.5 -123t48 -171q0 -109 -61 -187.5t-174 -109.5q74 -14 132 -54.5t91.5 -102t33.5 -137.5q0 -62 -22 -125t-73.5 -115t-139.5 -83.5t-221 -31.5h-510zM404 186h292q121 0 176.5 50t55.5 131q0 82 -58 132t-174 50h-292v-363z
M404 1102v-368h286q109 0 167.5 49.5t58.5 137.5q0 83 -57 132t-167 49h-288z" />
    <glyph glyph-name="C" unicode="C" horiz-adv-x="1255" 
d="M652 -27q-169 0 -294 82t-193.5 233t-68.5 359q0 217 72 365t198 223.5t286 75.5q220 0 346 -107.5t165 -278.5l-228 -43q-34 106 -107 171t-176 65q-90 0 -164 -52t-118 -157t-44 -262q0 -145 37.5 -253t110 -167t178.5 -59q133 0 208 71t75 183h228q0 -142 -62 -242
t-177 -153.5t-272 -53.5z" />
    <glyph glyph-name="D" unicode="D" horiz-adv-x="1358" 
d="M191 1286h405q196 0 342 -79t227.5 -223.5t81.5 -341.5q0 -194 -81.5 -338.5t-227.5 -224t-342 -79.5h-405v1286zM404 1094v-904h192q130 0 224.5 59t146 161.5t51.5 231.5q0 132 -51.5 233.5t-146 160t-224.5 58.5h-192z" />
    <glyph glyph-name="E" unicode="E" horiz-adv-x="1159" 
d="M189 0v1286h816v-184h-603v-365h567v-184h-567v-367h603v-186h-816z" />
    <glyph glyph-name="F" unicode="F" horiz-adv-x="1080" 
d="M191 0v1286h802v-184h-589v-364h542v-182h-542v-556h-213z" />
    <glyph glyph-name="G" unicode="G" horiz-adv-x="1335" 
d="M655 -27q-156 0 -282.5 82.5t-201.5 230.5t-75 348q0 160 46.5 285.5t129.5 213t193.5 133t237.5 45.5q172 0 292 -74t192 -232l-215 -55q-55 83 -124.5 125.5t-154.5 42.5q-101 0 -184.5 -58.5t-133.5 -167t-50 -258.5q0 -138 43 -243t121.5 -164t182.5 -59q87 0 155 39
t107.5 113.5t39.5 181.5h51q0 -161 -38.5 -280t-120 -184t-211.5 -65zM1006 0l-32 289v220l-299 7v137h504v-653h-173z" />
    <glyph glyph-name="H" unicode="H" horiz-adv-x="1390" 
d="M191 1286h213v-545h582v545h212v-1286h-212v555h-582v-555h-213v1286z" />
    <glyph glyph-name="I" unicode="I" horiz-adv-x="595" 
d="M191 0v1286h213v-1286h-213z" />
    <glyph glyph-name="J" unicode="J" horiz-adv-x="864" 
d="M27 56v215q78 -46 152.5 -68t140.5 -22q91 0 132 53.5t41 158.5v893h214v-893q0 -152 -46.5 -244t-130 -134t-193.5 -42q-86 0 -163 23.5t-147 59.5z" />
    <glyph glyph-name="K" unicode="K" horiz-adv-x="1281" 
d="M933 1286h293l-841 -862v293zM624 752l637 -752h-275l-511 613zM191 1286h215v-1286h-215v1286z" />
    <glyph glyph-name="L" unicode="L" horiz-adv-x="973" 
d="M404 1286v-1100h541v-186h-754v1286h213z" />
    <glyph glyph-name="M" unicode="M" horiz-adv-x="1733" 
d="M191 1286h305l385 -815h-19l385 815h295v-1286h-215v1046h34l-420 -899h-140l-418 894h21v-1041h-213v1286z" />
    <glyph glyph-name="N" unicode="N" horiz-adv-x="1415" 
d="M187 1286h238l603 -957h-17v957h213v-1286h-221l-637 1007h34v-1007h-213v1286z" />
    <glyph glyph-name="O" unicode="O" horiz-adv-x="1344" 
d="M672 -27q-168 0 -298 75t-204 224t-74 371q0 226 74 374t204 221t298 73q169 0 299 -74.5t203.5 -223t73.5 -370.5q0 -225 -73.5 -374t-203.5 -222.5t-299 -73.5zM672 167q164 0 260 122.5t96 355.5q0 226 -96 350.5t-260 124.5q-162 0 -258.5 -125t-96.5 -352
q0 -232 96.5 -354t258.5 -122z" />
    <glyph glyph-name="P" unicode="P" horiz-adv-x="1146" 
d="M185 0v1286h443q215 0 334 -107t119 -300q0 -190 -119 -297t-334 -107h-228v-475h-215zM400 661h228q115 0 174.5 61t59.5 157q0 99 -59.5 161t-174.5 62h-228v-441z" />
    <glyph glyph-name="Q" unicode="Q" horiz-adv-x="1352" 
d="M672 -27q-168 0 -298 75t-204 224t-74 371q0 226 74 374t204 221t298 73q169 0 299 -74.5t203.5 -223t73.5 -370.5q0 -225 -73.5 -374t-203.5 -222.5t-299 -73.5zM1063 -352q-95 0 -175.5 50.5t-142.5 144.5l-133 197l174 75l116 -176q30 -43 67 -60.5t74 -19.5
q51 0 97 13t97 35v-223q-46 -19 -88.5 -27.5t-85.5 -8.5zM672 167q164 0 260 122.5t96 355.5q0 226 -96 350.5t-260 124.5q-162 0 -258.5 -125t-96.5 -352q0 -232 96.5 -354t258.5 -122z" />
    <glyph glyph-name="R" unicode="R" horiz-adv-x="1269" 
d="M191 0v1286h467q228 0 348.5 -107t120.5 -284q0 -173 -120.5 -280t-348.5 -107h-254v-508h-213zM893 0l-348 597h228l398 -597h-278zM404 653h234q133 0 202 62.5t69 161.5q0 102 -63.5 163.5t-187.5 61.5h-254v-449z" />
    <glyph glyph-name="S" unicode="S" horiz-adv-x="1256" 
d="M628 -27q-132 0 -243 46.5t-179.5 140.5t-73.5 238h209q0 -79 39 -130t104 -75.5t142 -24.5q78 0 137.5 22t93 61t33.5 90q0 70 -42.5 110.5t-131.5 71.5l-246 95q-152 58 -232 134t-80 212q0 154 121.5 250.5t340.5 96.5q210 0 326 -98t132 -270h-209
q-14 80 -73.5 127.5t-175.5 47.5q-107 0 -168 -45.5t-61 -114.5q0 -59 38.5 -93t119.5 -64l277 -104q142 -53 219.5 -137t77.5 -212q0 -112 -57.5 -196.5t-168 -131.5t-269.5 -47z" />
    <glyph glyph-name="T" unicode="T" horiz-adv-x="1045" 
d="M12 1102v184h1022v-184h-452l47 49v-1151h-213v1151l48 -49h-452z" />
    <glyph glyph-name="U" unicode="U" horiz-adv-x="1359" 
d="M168 1286h213v-806q0 -165 83.5 -238.5t216.5 -73.5q132 0 215 73.5t83 238.5v806h213v-806q0 -162 -61.5 -275.5t-176 -172.5t-273.5 -59q-160 0 -274.5 59t-176.5 172.5t-62 275.5v806z" />
    <glyph glyph-name="V" unicode="V" horiz-adv-x="1182" 
d="M579 232l344 1054h224l-447 -1286h-223l-441 1286h226l340 -1054h-23z" />
    <glyph glyph-name="W" unicode="W" horiz-adv-x="1863" 
d="M22 1286h239l317 -1098h-55l317 999h144l324 -985h-51l343 1084h239l-445 -1286h-224l-264 791h24l-267 -791h-224z" />
    <glyph glyph-name="X" unicode="X" horiz-adv-x="1343" 
d="M77 0l453 640l-456 646h261l338 -481l297 481h259l-438 -643l474 -643h-266l-349 473l-316 -473h-257z" />
    <glyph glyph-name="Y" unicode="Y" horiz-adv-x="1151" 
d="M15 1286h254l324 -573h-44l334 573h252l-460 -756v-530h-213v530z" />
    <glyph glyph-name="Z" unicode="Z" horiz-adv-x="1236" 
d="M146 0v186l759 980v-78l-759 3v195h965v-184l-719 -933l-8 29l727 -3v-195h-965z" />
    <glyph glyph-name="bracketleft" unicode="[" horiz-adv-x="683" 
d="M191 -259v1805h465v-193h-252v-1420h252v-192h-465z" />
    <glyph glyph-name="backslash" unicode="\" horiz-adv-x="920" 
d="M84 1482l511 -1637h218l-514 1637h-215z" />
    <glyph glyph-name="bracketright" unicode="]" horiz-adv-x="641" 
d="M451 -259v1805h-465v-193h252v-1420h-252v-192h465z" />
    <glyph glyph-name="asciicircum" unicode="^" horiz-adv-x="1007" 
d="M41 451l382 745h171l383 -745h-236l-273 581h81l-273 -581h-235z" />
    <glyph glyph-name="underscore" unicode="_" horiz-adv-x="1511" 
d="M110 0v186h1293v-186h-1293z" />
    <glyph glyph-name="grave" unicode="`" horiz-adv-x="699" 
d="M500 1119l-404 334l144 117l363 -367z" />
    <glyph glyph-name="a" unicode="a" horiz-adv-x="1150" 
d="M801 0l-27 228v396q0 110 -45.5 161t-147.5 51q-58 0 -102.5 -17t-69 -50.5t-24.5 -82.5h-234q0 109 52.5 176.5t149 99t228.5 31.5q122 0 213 -39.5t142 -122.5t51 -214v-617h-186zM481 -27q-123 0 -204.5 43t-122.5 113t-41 150q0 94 48.5 156t136 92.5t203.5 30.5
q79 0 150.5 -13t142.5 -34v-127q-57 20 -125 31t-126 11q-88 0 -145.5 -33.5t-57.5 -113.5q0 -58 46 -100t146 -42q75 0 129 33t83.5 83t29.5 100h51q0 -102 -39.5 -188.5t-116.5 -139t-188 -52.5z" />
    <glyph glyph-name="b" unicode="b" horiz-adv-x="1216" 
d="M670 -27q-92 0 -168.5 50.5t-121.5 151t-45 249.5h69q0 -79 34.5 -137t89 -89.5t113.5 -31.5q71 0 128 39.5t90.5 112t33.5 170.5q0 95 -33 165.5t-90.5 109.5t-130.5 39q-61 0 -115 -30t-87 -86.5t-33 -138.5h-69q0 144 43 243.5t121.5 151t185.5 51.5q117 0 213 -62
t153.5 -175.5t57.5 -267.5q0 -156 -59.5 -271.5t-159 -179.5t-220.5 -64zM191 0v1370h213v-1135l-72 -235h-141z" />
    <glyph glyph-name="c" unicode="c" horiz-adv-x="1051" 
d="M549 -27q-119 0 -222.5 63t-167 178t-63.5 270q0 163 63.5 277t167 173t222.5 59q91 0 161.5 -29t120.5 -78t80 -109.5t40 -123.5l-216 -8q-19 69 -66.5 113t-121.5 44q-60 0 -114 -34t-87.5 -104t-33.5 -180q0 -103 31 -174t84.5 -107.5t119.5 -36.5q97 0 142.5 46.5
t45.5 126.5h216q0 -102 -47 -185t-137 -132t-218 -49z" />
    <glyph glyph-name="d" unicode="d" horiz-adv-x="1216" 
d="M544 -27q-120 0 -219.5 64t-158.5 179.5t-59 271.5q0 154 57 267.5t153 175.5t213 62q107 0 186 -51.5t121.5 -151t42.5 -243.5h-70q0 82 -33 138.5t-86 86.5t-115 30q-73 0 -130.5 -39t-90.5 -109.5t-33 -165.5q0 -98 33.5 -170.5t90.5 -112t129 -39.5q59 0 112.5 31.5
t88 89.5t34.5 137h70q0 -149 -45.5 -249.5t-121.5 -151t-169 -50.5zM849 0l-39 235v1135h215v-1370h-176z" />
    <glyph glyph-name="e" unicode="e" horiz-adv-x="1051" 
d="M544 -27q-124 0 -225.5 64t-162 179t-60.5 267q0 159 60 273.5t161.5 175.5t226.5 61q114 0 196.5 -46t132.5 -124t68.5 -176.5t4.5 -203.5h-679v119h530l-46 -30q3 51 -5 102t-30.5 94t-63.5 69t-105 26q-77 0 -130.5 -39.5t-81 -105.5t-27.5 -147v-86q0 -87 26 -154.5
t78.5 -106.5t131.5 -39q76 0 126.5 36t63.5 107h217q-15 -94 -70 -165t-141 -110.5t-196 -39.5z" />
    <glyph glyph-name="f" unicode="f" horiz-adv-x="721" 
d="M245 0v1093q0 102 40 166.5t106 95t144 30.5q46 0 95 -6.5t97 -17.5l-42 -165q-26 10 -53.5 15.5t-53.5 5.5q-29 0 -56.5 -11t-44.5 -39t-17 -78v-1089h-215zM98 824v142h546v-142h-546z" />
    <glyph glyph-name="g" unicode="g" horiz-adv-x="1154" 
d="M554 -499q-161 0 -276.5 44.5t-177.5 118t-62 159.5q0 105 77 162t195 57l148 -61q-101 0 -156 -39.5t-55 -108.5q0 -72 81 -117t226 -45q107 0 185.5 31.5t122 81.5t43.5 107q0 38 -26.5 64t-81.5 26h-339q-98 0 -175.5 31t-122.5 83t-45 115q0 61 34 104.5t91.5 67
t127.5 23.5l51 -72q-29 0 -57 -12t-45.5 -35.5t-17.5 -58.5q0 -42 35 -68.5t124 -26.5h339q149 0 234 -57t85 -171q0 -101 -68 -193.5t-194 -151t-300 -58.5zM571 294q-114 0 -207 43.5t-148.5 122t-55.5 183.5q0 106 55.5 185t148.5 122t207 43q111 0 203.5 -43t149 -122
t56.5 -185q0 -105 -56.5 -183.5t-149 -122t-203.5 -43.5zM572 443q97 0 147.5 57.5t50.5 142.5q0 90 -50.5 145t-148.5 55q-95 0 -147.5 -55t-52.5 -145q0 -85 52.5 -142.5t148.5 -57.5zM906 838l-98 53q0 86 38 151t104 101t148 36l-12 -206q-87 0 -133.5 -33t-46.5 -102z
" />
    <glyph glyph-name="h" unicode="h" horiz-adv-x="1235" 
d="M861 0v566q0 117 -56 176.5t-149 59.5q-75 0 -132 -41.5t-88.5 -122.5t-31.5 -199h-73q0 183 46 306t131.5 185.5t203.5 62.5t198.5 -53t121.5 -149t41 -225v-566h-212zM191 0v1370h213v-1370h-213z" />
    <glyph glyph-name="i" unicode="i" horiz-adv-x="639" 
d="M314 1158q-63 0 -98.5 34t-35.5 93q0 57 35.5 91.5t98.5 34.5q62 0 98 -34.5t36 -91.5q0 -59 -36 -93t-98 -34zM208 0v969h213v-969h-213z" />
    <glyph glyph-name="j" unicode="j" horiz-adv-x="658" 
d="M331 1158q-61 0 -97 34t-36 93q0 57 36 91.5t97 34.5q62 0 98 -34.5t36 -91.5q0 -59 -36 -93t-98 -34zM119 -499q-76 0 -142 17.5t-135 47.5l5 185q54 -28 110.5 -46t111.5 -18q77 0 117.5 45t40.5 150v1088h212v-1092q0 -203 -85.5 -290t-234.5 -87z" />
    <glyph glyph-name="k" unicode="k" horiz-adv-x="1167" 
d="M191 0v1370h213v-1370h-213zM374 587l437 379h290l-727 -601v222zM864 0l-439 614l205 47l495 -661h-261z" />
    <glyph glyph-name="l" unicode="l" horiz-adv-x="595" 
d="M191 0v1370h213v-1370h-213z" />
    <glyph glyph-name="m" unicode="m" horiz-adv-x="1890" 
d="M1516 0v566q0 117 -55.5 176.5t-147.5 59.5q-114 0 -177 -90t-63 -265h-91q0 146 28 249.5t79.5 169t122.5 96.5t157 31q118 0 198.5 -53t122 -149t41.5 -225v-566h-215zM191 0v966h185l24 -173q47 98 126.5 149t185.5 51q118 0 198.5 -53t121.5 -149t41 -225v-566h-212
v566q0 117 -56 176.5t-149 59.5q-75 0 -132 -41.5t-88.5 -122.5t-31.5 -199v-439h-213z" />
    <glyph glyph-name="n" unicode="n" horiz-adv-x="1235" 
d="M861 0v566q0 117 -56 176.5t-149 59.5q-75 0 -132 -41.5t-88.5 -122.5t-31.5 -199h-73q0 183 46 306t131.5 185.5t203.5 62.5t198.5 -53t121.5 -149t41 -225v-566h-212zM191 0v966h185l28 -200v-766h-213z" />
    <glyph glyph-name="o" unicode="o" horiz-adv-x="1121" 
d="M562 -27q-132 0 -237 57t-167 170t-62 282q0 172 62 285t167 169.5t237 56.5q130 0 235 -56.5t166.5 -169.5t61.5 -285q0 -169 -61.5 -282t-166.5 -170t-235 -57zM555 159q77 0 134.5 37.5t89.5 109.5t32 176q0 159 -63.5 243t-178.5 84q-77 0 -135 -37.5t-90 -110
t-32 -179.5q0 -156 64.5 -239.5t178.5 -83.5z" />
    <glyph glyph-name="p" unicode="p" horiz-adv-x="1205" 
d="M662 -27q-107 0 -183 46.5t-116 139.5t-40 232h81q0 -72 32 -122t84.5 -76.5t111.5 -26.5q63 0 123 35t99 105.5t39 177.5q0 99 -33.5 170.5t-92 109.5t-131.5 38q-62 0 -115.5 -29t-85 -83.5t-31.5 -133.5h-81q0 149 47 246t126 144t174 47q114 0 214 -61t162.5 -174.5
t62.5 -273.5q0 -161 -63 -275t-165 -175t-219 -61zM191 -473v1439h175l38 -235v-1204h-213z" />
    <glyph glyph-name="q" unicode="q" horiz-adv-x="1205" 
d="M544 -27q-117 0 -219.5 61t-165.5 175t-63 275q0 160 62.5 273.5t162 174.5t213.5 61q95 0 174 -47t126.5 -144t47.5 -246h-82q0 79 -31.5 133.5t-84 83.5t-114.5 29q-74 0 -132 -38t-92 -109.5t-34 -170.5q0 -107 38.5 -177.5t98.5 -105.5t124 -35q58 0 110 26.5
t84.5 76.5t32.5 122h46q0 -124 -31 -218t-98 -147t-173 -53zM1087 -499q-156 40 -221.5 125t-65.5 236v869l74 235h138v-1119q0 -62 12.5 -97t42.5 -55t83 -37z" />
    <glyph glyph-name="r" unicode="r" horiz-adv-x="767" 
d="M191 0v969h213v-969h-213zM349 428q0 188 40.5 311.5t111.5 184t162 60.5q27 0 50 -3.5t45 -10.5l-5 -212q-27 7 -58 11.5t-55 4.5q-80 0 -132.5 -40.5t-78 -118t-25.5 -187.5h-55z" />
    <glyph glyph-name="s" unicode="s" horiz-adv-x="1054" 
d="M547 -27q-139 0 -237.5 39t-150.5 110.5t-54 170.5h198q4 -78 62 -114.5t158 -36.5q55 0 98 16.5t67.5 45t24.5 63.5q0 46 -33 72t-105 47l-204 71q-116 40 -178 107t-62 160q0 121 108.5 195t289.5 74q184 0 284 -79t103 -199h-203q-5 52 -50.5 81.5t-133.5 29.5
q-81 0 -127 -34t-46 -79q0 -78 133 -116l218 -80q116 -38 178.5 -98t62.5 -152q0 -75 -50 -142.5t-140.5 -109.5t-210.5 -42z" />
    <glyph glyph-name="t" unicode="t" horiz-adv-x="778" 
d="M509 -27q-84 0 -152.5 31.5t-109.5 96t-41 162.5v963h213v-956q0 -128 121 -128q36 0 72 8t82 25l31 -150q-55 -22 -107 -37t-109 -15zM65 824v142h629v-142h-629z" />
    <glyph glyph-name="u" unicode="u" horiz-adv-x="1242" 
d="M838 969h213v-969h-213v969zM168 969h213v-596q0 -101 50.5 -153t140.5 -52q75 0 135.5 39.5t95.5 115t35 182.5h62q0 -173 -46 -289.5t-128 -175t-191 -58.5q-104 0 -187.5 38t-131.5 119.5t-48 213.5v616z" />
    <glyph glyph-name="v" unicode="v" horiz-adv-x="1029" 
d="M27 966h245l252 -784h-19l252 784h244l-367 -966h-239z" />
    <glyph glyph-name="w" unicode="w" horiz-adv-x="1497" 
d="M27 966h222l220 -754h-23l210 704h190l209 -706h-23l220 756h213l-318 -966h-209l-208 662h33l-205 -662h-210z" />
    <glyph glyph-name="x" unicode="x" horiz-adv-x="1083" 
d="M38 0l373 482l-373 487h261l248 -326l237 326h260l-372 -487l371 -482h-259l-251 327l-234 -327h-261z" />
    <glyph glyph-name="y" unicode="y" horiz-adv-x="985" 
d="M40 966h241l273 -780h-40l228 780h217l-369 -1147q-53 -164 -134.5 -241t-200.5 -77q-67 0 -130 16.5t-128 49.5v189q54 -36 105 -52.5t103 -16.5q51 0 88 29t63.5 78.5t44.5 110.5l29 95z" />
    <glyph glyph-name="z" unicode="z" horiz-adv-x="978" 
d="M112 0v173l521 621h-521v172h757v-172l-508 -621h508v-173h-757z" />
    <glyph glyph-name="braceleft" unicode="{" horiz-adv-x="757" 
d="M747 -302q-174 0 -282 64t-158 175.5t-50 254.5v182q0 84 -14 116.5t-53 32.5h-46v214h46q39 0 53 32t14 117v184q0 144 50 254.5t158 173.5t282 63v-191q-147 0 -213 -75t-66 -228v-190q0 -96 -34.5 -155.5t-88.5 -86.5v-9q54 -27 88.5 -87t34.5 -155v-190
q0 -153 66 -228t213 -75v-193z" />
    <glyph glyph-name="bar" unicode="|" horiz-adv-x="595" 
d="M191 -244v1773h213v-1773h-213z" />
    <glyph glyph-name="braceright" unicode="}" horiz-adv-x="757" 
d="M10 -302q174 0 282 64t158 175.5t50 254.5v182q0 84 14 116.5t53 32.5h46v214h-46q-39 0 -53 32t-14 117v184q0 144 -50 254.5t-158 173.5t-282 63v-191q147 0 213 -75t66 -228v-190q0 -96 34.5 -155.5t88.5 -86.5v-9q-54 -27 -88.5 -87t-34.5 -155v-190q0 -153 -66 -228
t-213 -75v-193z" />
    <glyph glyph-name="asciitilde" unicode="~" horiz-adv-x="1108" 
d="M226 419l-114 62q34 123 93 193t150 70q42 0 90 -13.5t122 -42.5q76 -30 115 -41.5t68 -11.5q39 0 73 28.5t58 83.5l114 -73q-39 -122 -106 -181.5t-154 -59.5q-33 0 -81 12.5t-122 43.5q-75 26 -112 38.5t-67 12.5q-37 0 -69 -27.5t-58 -93.5z" />
    <glyph glyph-name="uni00A0" unicode="&#xa0;" horiz-adv-x="497" 
 />
    <glyph glyph-name="exclamdown" unicode="&#xa1;" horiz-adv-x="577" 
d="M204 870l-24 -892h230l-26 892h-180zM295 1301q-66 0 -108.5 -41t-42.5 -104q0 -61 42.5 -103t108.5 -42q65 0 109 42t44 103q0 63 -44 104t-109 41z" />
    <glyph glyph-name="cent" unicode="&#xa2;" horiz-adv-x="1048" 
d="M457 -214v249h177v-249h-177zM457 941v224h177v-224h-177zM549 -27q-119 0 -222.5 63t-167 178t-63.5 270q0 163 63.5 277t167 173t222.5 59q91 0 161.5 -29t120.5 -78t80 -109.5t40 -123.5l-216 -8q-19 69 -66.5 113t-121.5 44q-60 0 -114 -34t-87.5 -104t-33.5 -180
q0 -103 31 -174t84.5 -107.5t119.5 -36.5q97 0 142.5 46.5t45.5 126.5h216q0 -102 -47 -185t-137 -132t-218 -49z" />
    <glyph glyph-name="sterling" unicode="&#xa3;" horiz-adv-x="1182" 
d="M105 129v61q74 0 105.5 43.5t31.5 132.5v515q0 140 48 235.5t137 145t212 49.5q158 0 253 -84.5t119 -251.5h-210q-9 70 -53.5 106.5t-108.5 36.5q-85 0 -134.5 -57.5t-49.5 -179.5v-501q0 -130 -75 -190.5t-275 -60.5zM43 0v190h638q99 0 143 39.5t55 120.5h230
q-6 -164 -101.5 -257t-324.5 -93h-640zM71 554v144h732v-144h-732z" />
    <glyph glyph-name="currency" unicode="&#xa4;" 
d="M600 219q-115 0 -210 56.5t-152 151.5t-57 211t57 211t152 151t210 56q116 0 210.5 -56t150.5 -151t56 -211t-56 -211t-150.5 -151.5t-210.5 -56.5zM600 411q63 0 114.5 30.5t82 82t30.5 114.5q0 64 -30.5 115.5t-82 81.5t-114.5 30t-114.5 -30t-82 -81.5t-30.5 -115.5
q0 -63 30.5 -114.5t82 -82t114.5 -30.5zM851 796l-94 94l220 219l95 -92zM338 806l-210 209l93 94l209 -209zM862 470l210 -209l-93 -95l-209 210zM338 470l92 -94l-209 -210l-93 95z" />
    <glyph glyph-name="yen" unicode="&#xa5;" horiz-adv-x="1151" 
d="M462 0v530l-447 756h254l324 -573h-44l334 573h252l-460 -756v-530h-213zM225 179v122h692v-122h-692zM225 389v122h692v-122h-692z" />
    <glyph glyph-name="brokenbar" unicode="&#xa6;" horiz-adv-x="595" 
d="M191 739v790h213v-790h-213zM191 -244v790h213v-790h-213z" />
    <glyph glyph-name="section" unicode="&#xa7;" 
d="M632 460q55 0 98 16.5t67.5 45t24.5 66.5q0 43 -34.5 68.5t-103.5 46.5l-205 72q-115 38 -177 105.5t-62 158.5q0 123 107.5 197t287.5 74q188 0 287 -79.5t103 -198.5h-203q-4 54 -51.5 83t-125.5 29q-89 0 -134.5 -35t-45.5 -80q0 -74 133 -114l218 -80
q115 -39 178 -98.5t63 -147.5q0 -78 -50 -146t-140.5 -110t-210.5 -42zM567 748q-81 0 -127 -36.5t-46 -83.5q0 -73 133 -115l218 -79q115 -38 178 -98t63 -149q0 -77 -48.5 -145t-141.5 -110t-229 -42q-124 0 -220 38.5t-150 110.5t-54 171h198q2 -77 61.5 -114t148.5 -37
q94 0 147 36t53 91q0 43 -34 69t-105 48l-203 71q-118 39 -179 106.5t-61 160.5q0 128 108 199.5t290 71.5v-164z" />
    <glyph glyph-name="dieresis" unicode="&#xa8;" horiz-adv-x="823" 
d="M596 1141q-54 0 -92 35.5t-38 87.5q0 53 38 89t92 36q56 0 93.5 -36t37.5 -89q0 -52 -37.5 -87.5t-93.5 -35.5zM226 1141q-57 0 -93.5 35.5t-36.5 85.5q0 55 36.5 90t93.5 35t94.5 -35t37.5 -90q0 -50 -37.5 -85.5t-94.5 -35.5z" />
    <glyph glyph-name="copyright" unicode="&#xa9;" horiz-adv-x="1409" 
d="M705 -12q-136 0 -255 51t-209.5 141t-141.5 209t-51 255t51 254.5t141.5 209t209.5 142t255 51.5q135 0 254 -51.5t209.5 -142t141.5 -209t51 -254.5t-51 -255t-141.5 -209t-209.5 -141t-254 -51zM705 96q114 0 213 42.5t174.5 118t118 175t42.5 212.5q0 114 -42.5 213
t-118 174.5t-174.5 118.5t-213 43q-113 0 -212.5 -43t-175 -118.5t-118.5 -174.5t-43 -213q0 -113 43 -212.5t118.5 -175t175 -118t212.5 -42.5zM702 236q-103 0 -179.5 50t-118 142.5t-41.5 219.5q0 132 44 222t120.5 136t174.5 46q134 0 210.5 -65.5t100.5 -170.5
l-138 -26q-20 66 -64.5 106t-108.5 40q-55 0 -100.5 -32.5t-72.5 -96.5t-27 -159q0 -89 23 -155t67.5 -102t109.5 -36q82 0 127.5 43.5t45.5 111.5h138q0 -130 -84 -202t-227 -72z" />
    <glyph glyph-name="ordfeminine" unicode="&#xaa;" horiz-adv-x="1150" 
d="M801 0l-27 228v396q0 110 -45.5 161t-147.5 51q-58 0 -102.5 -17t-69 -50.5t-24.5 -82.5h-234q0 109 52.5 176.5t149 99t228.5 31.5q122 0 213 -39.5t142 -122.5t51 -214v-617h-186zM481 -27q-123 0 -204.5 43t-122.5 113t-41 150q0 94 48.5 156t136 92.5t203.5 30.5
q79 0 150.5 -13t142.5 -34v-127q-57 20 -125 31t-126 11q-88 0 -145.5 -33.5t-57.5 -113.5q0 -58 46 -100t146 -42q75 0 129 33t83.5 83t29.5 100h51q0 -102 -39.5 -188.5t-116.5 -139t-188 -52.5z" />
    <glyph glyph-name="guillemotleft" unicode="&#xab;" horiz-adv-x="1216" 
d="M296 507l360 354l-147 107l-413 -431l413 -431l147 107l-360 354v-60zM760 507l360 354l-147 107l-413 -431l413 -431l147 107l-360 354v-60z" />
    <glyph glyph-name="logicalnot" unicode="&#xac;" 
d="M222 664h702v-368h-143v256l45 -50h-604v162z" />
    <glyph glyph-name="uni00AD" unicode="&#xad;" 
d="M87 504v186h557v-186h-557z" />
    <glyph glyph-name="registered" unicode="&#xae;" horiz-adv-x="1409" 
d="M705 -12q-136 0 -255 51t-209.5 141t-141.5 209t-51 255t51 254.5t141.5 209t209.5 142t255 51.5q135 0 254 -51.5t209.5 -142t141.5 -209t51 -254.5t-51 -255t-141.5 -209t-209.5 -141t-254 -51zM705 96q114 0 213 42.5t174.5 118t118 175t42.5 212.5q0 114 -42.5 213
t-118 174.5t-174.5 118.5t-213 43q-113 0 -212.5 -43t-175 -118.5t-118.5 -174.5t-43 -213q0 -113 43 -212.5t118.5 -175t175 -118t212.5 -42.5zM860 287l-200 341h130l227 -341h-157zM457 287v735h268q130 0 199 -61t69 -162q0 -98 -69 -159.5t-199 -61.5h-147v-291h-121z
M578 660h135q77 0 116 36t39 93q0 58 -36 93.5t-107 35.5h-147v-258z" />
    <glyph glyph-name="macron" unicode="&#xaf;" horiz-adv-x="865" 
d="M96 1343h673v-175h-673v175z" />
    <glyph glyph-name="degree" unicode="&#xb0;" horiz-adv-x="749" 
d="M375 966q-80 0 -146.5 39t-105.5 105.5t-39 146.5q0 81 39 146.5t105.5 104.5t146.5 39t146 -39t105 -104.5t39 -146.5q0 -80 -39 -146.5t-105 -105.5t-146 -39zM375 1109q61 0 104 43.5t43 104.5t-43 104t-104 43t-104.5 -43t-43.5 -104t43.5 -104.5t104.5 -43.5z" />
    <glyph glyph-name="plusminus" unicode="&#xb1;" horiz-adv-x="1001" 
d="M416 1084h169v-313h286v-139h-286v-312h-169v312h-286v139h286v313zM150 161h703v-161h-703v161z" />
    <glyph glyph-name="uni00B2" unicode="&#xb2;" horiz-adv-x="814" 
d="M122.495 521v127.713q0 65.6631 20.4814 110.844q20.4824 45.1816 59.6396 75.9053q39.1572 30.7227 96.9893 53.6152l157.23 60.2412q53.6152 21.6875 79.8203 54.2178t26.2051 80.7236q0 48.7959 -34.9395 81.3262q-34.9404 32.5312 -98.7969 32.5312
q-62.0488 0 -103.314 -29.5186t-47.29 -86.748h-142.772q3.01172 75.9043 40.9648 126.809q37.9521 50.9043 103.013 76.5068q65.0615 25.6025 147.593 25.6025q77.1094 0 139.158 -29.5186t98.4951 -81.627q36.4463 -52.1094 36.4463 -121.388q0 -59.6387 -21.9883 -104.82
q-21.9883 -45.1807 -65.0615 -78.6152q-43.0723 -33.4346 -107.531 -58.7354l-159.038 -62.6514q-50.001 -18.6748 -73.4951 -43.6758q-23.4941 -25 -23.4941 -64.1572v-27.1084h445.187v-117.472h-573.501z" />
    <glyph glyph-name="uni00B3" unicode="&#xb3;" horiz-adv-x="819" 
d="M408.691 504.734q-60.2422 0 -116.567 16.5664q-56.3262 16.5664 -101.206 49.0977q-44.8809 32.5303 -70.7842 80.7236q-25.9043 48.1934 -25.9043 111.447h133.736q2.41016 -43.9766 25.9043 -75.6035t63.5547 -48.1934q40.0615 -16.5664 91.2666 -16.5664
q76.5068 0 119.58 36.1455q43.0723 36.1445 43.0723 90.3623q0 35.542 -17.7715 61.4463t-54.5186 40.0605q-36.7471 14.1572 -95.1816 14.1572h-98.1943v101.206h78.917q74.6992 0 116.869 31.3252q42.1689 31.3262 42.1689 84.9414q0 47.5908 -35.543 80.1211
q-35.542 32.5303 -105.423 32.5303q-56.0244 0 -100.001 -22.8916t-57.2295 -80.7236h-133.737q8.43457 77.7119 47.29 126.206q38.8564 48.4951 100.303 71.085q61.4463 22.5908 137.953 22.5908q82.5312 0 146.688 -27.4102q64.1582 -27.4092 101.206 -75.6025
q37.0488 -48.1934 37.0488 -112.05q0 -59.6396 -33.1328 -103.014t-96.9893 -65.6631q71.085 -23.4941 114.761 -70.7842q43.6748 -47.29 43.6748 -118.978q0 -68.0732 -37.3496 -120.483t-105.122 -82.2295q-67.7715 -29.8203 -159.339 -29.8203z" />
    <glyph glyph-name="acute" unicode="&#xb4;" horiz-adv-x="699" 
d="M199 1119l-103 84l364 367l143 -117z" />
    <glyph glyph-name="uni00B5" unicode="&#xb5;" horiz-adv-x="1242" 
d="M838 969h213v-969h-213v969zM168 969h213v-596q0 -101 50.5 -153t140.5 -52q75 0 135.5 39.5t95.5 115t35 182.5h62q0 -173 -46 -289.5t-128 -175t-191 -58.5q-104 0 -187.5 38t-131.5 119.5t-48 213.5v616zM169 -400v1370h213v-1370h-213z" />
    <glyph glyph-name="paragraph" unicode="&#xb6;" 
d="M537 475q-216 0 -334.5 107t-118.5 299q0 191 118.5 298t334.5 107h433v-191h-316v-620h-117zM547 -252v1538h160v-1538h-160zM842 -252v1538h160v-1538h-160z" />
    <glyph glyph-name="periodcentered" unicode="&#xb7;" horiz-adv-x="409" 
d="M51 526q0 62 42.5 104.5t107.5 42.5q66 0 110.5 -42.5t44.5 -104.5q0 -61 -44.5 -102t-110.5 -41q-65 0 -107.5 41.5t-42.5 101.5z" />
    <glyph glyph-name="cedilla" unicode="&#xb8;" horiz-adv-x="627" 
d="M96 -364l32 78q69 -34 123.5 -38.5t87 13.5t35.5 51q3 30 -21 53t-66.5 40t-96.5 29l76 210l100 -13l-70 -192l-32 60q95 -17 155 -46.5t87.5 -68.5t24.5 -84q-4 -58 -49.5 -93t-113 -47t-140 0t-132.5 48z" />
    <glyph glyph-name="uni00B9" unicode="&#xb9;" horiz-adv-x="532" 
d="M241.629 1292.92h98.1943v-778.925h-128.315v625.911q-30.7227 -16.2646 -61.7471 -24.6992q-31.0244 -8.43359 -62.3506 -9.03613v123.496q40.3623 4.81836 78.3145 19.5781q37.9521 14.7588 75.9043 43.6748z" />
    <glyph glyph-name="ordmasculine" unicode="&#xba;" horiz-adv-x="1121" 
d="M562 -27q-132 0 -237 57t-167 170t-62 282q0 172 62 285t167 169.5t237 56.5q130 0 235 -56.5t166.5 -169.5t61.5 -285q0 -169 -61.5 -282t-166.5 -170t-235 -57zM555 159q77 0 134.5 37.5t89.5 109.5t32 176q0 159 -63.5 243t-178.5 84q-77 0 -135 -37.5t-90 -110
t-32 -179.5q0 -156 64.5 -239.5t178.5 -83.5z" />
    <glyph glyph-name="guillemotright" unicode="&#xbb;" horiz-adv-x="1216" 
d="M920 507l-360 354l147 107l413 -431l-413 -431l-147 107l360 354v-60zM456 507l-360 354l147 107l413 -431l-413 -431l-147 107l360 354v-60z" />
    <glyph glyph-name="onequarter" unicode="&#xbc;" horiz-adv-x="1830" 
d="M242 1379h98v-779h-129v626q-30 -16 -61 -25t-63 -9v124q40 4 78.5 19t76.5 44zM247.802 -20.7744l971.101 1391.71h166.934l-973.398 -1391.71h-164.636zM1540 783h122v-497h135v-110h-135v-176h-126v176h-396v98zM1541 591l-248 -317h248v317z" />
    <glyph glyph-name="onehalf" unicode="&#xbd;" horiz-adv-x="1907" 
d="M242 1379h98v-779h-129v626q-30 -16 -61 -25t-63 -9v124q40 4 78.5 19t76.5 44zM247.802 -20.7744l971.101 1391.71h166.934l-973.398 -1391.71h-164.636zM1216 0v128q0 98 45.5 152t132.5 87l156 62q54 21 80 54t26 81q0 49 -34.5 81.5t-98.5 32.5q-63 0 -104 -30
t-47 -87h-142q2 76 40.5 126.5t103 76.5t147.5 26q77 0 139 -29t98.5 -81.5t36.5 -121.5q0 -90 -48.5 -147.5t-145.5 -95.5l-160 -62q-50 -19 -73 -44t-23 -64v-27h445v-118h-574z" />
    <glyph glyph-name="threequarters" unicode="&#xbe;" horiz-adv-x="2117" 
d="M409 573q-80 0 -152 29.5t-117 87t-45 140.5h133q4 -65 54 -102.5t127 -37.5t120 36.5t43 90.5q0 53 -40 84.5t-127 31.5h-99v101h79q75 0 117 31t42 85q0 48 -35.5 80.5t-105.5 32.5q-56 0 -99.5 -23t-57.5 -81h-134q13 116 92.5 168t193.5 52q124 0 204 -59.5
t80 -155.5q0 -59 -33 -103t-96 -66q70 -23 114 -70t44 -119q0 -102 -82.5 -167.5t-219.5 -65.5zM534.802 -20.7744l971.101 1391.71h166.934l-973.398 -1391.71h-164.636zM1827 783h122v-497h135v-110h-135v-176h-126v176h-396v98zM1828 591l-248 -317h248v317z" />
    <glyph glyph-name="questiondown" unicode="&#xbf;" horiz-adv-x="1023" 
d="M651 907v-83q0 -87 -20 -143t-63.5 -95.5t-116.5 -76.5q-64 -33 -100.5 -61.5t-51 -60t-14.5 -73.5q0 -68 54.5 -112.5t149.5 -44.5q110 0 169 47.5t70 127.5h223q-12 -166 -127 -267t-327 -101q-138 0 -238 47t-154 127t-54 178q0 104 52 175.5t165 128.5
q66 35 103 64.5t52 65.5t15 92v65h213zM539 1302q67 0 109 -41.5t42 -101.5q0 -61 -42 -103.5t-108 -42.5t-110.5 42t-44.5 103q0 60 44.5 102t109.5 42z" />
    <glyph glyph-name="Agrave" unicode="&#xc0;" horiz-adv-x="1222" 
d="M46 0l439 1286h266l424 -1286h-225l-94 292h-487l-97 -292h-226zM423 454h381l-189 577zM772 1437l-404 334l144 117l363 -367z" />
    <glyph glyph-name="Aacute" unicode="&#xc1;" horiz-adv-x="1222" 
d="M46 0l439 1286h266l424 -1286h-225l-94 292h-487l-97 -292h-226zM423 454h381l-189 577zM558 1434l-103 84l364 367l143 -117z" />
    <glyph glyph-name="Acircumflex" unicode="&#xc2;" horiz-adv-x="1222" 
d="M46 0l439 1286h266l424 -1286h-225l-94 292h-487l-97 -292h-226zM423 454h381l-189 577zM402 1414l-126 100l345 307l346 -307l-126 -100l-258 240h75z" />
    <glyph glyph-name="Atilde" unicode="&#xc3;" horiz-adv-x="1222" 
d="M46 0l439 1286h266l424 -1286h-225l-94 292h-487l-97 -292h-226zM423 454h381l-189 577zM370 1438l-86 52q24 115 77.5 178.5t126.5 63.5q28 0 58.5 -10.5t87.5 -39.5q54 -28 79 -39t49 -11q29 0 57 24t49 76l90 -60q-14 -69 -44 -122t-69 -82.5t-78 -29.5
q-35 0 -69.5 13.5t-93.5 43.5q-50 27 -72.5 36t-43.5 9q-32 0 -61 -21.5t-57 -80.5z" />
    <glyph glyph-name="Adieresis" unicode="&#xc4;" horiz-adv-x="1222" 
d="M46 0l439 1286h266l424 -1286h-225l-94 292h-487l-97 -292h-226zM423 454h381l-189 577zM806 1459q-54 0 -92 35.5t-38 87.5q0 53 38 89t92 36q56 0 93.5 -36t37.5 -89q0 -52 -37.5 -87.5t-93.5 -35.5zM436 1459q-57 0 -93.5 35.5t-36.5 85.5q0 55 36.5 90t93.5 35
t94.5 -35t37.5 -90q0 -50 -37.5 -85.5t-94.5 -35.5z" />
    <glyph glyph-name="Aring" unicode="&#xc5;" horiz-adv-x="1222" 
d="M46 0l439 1286h266l424 -1286h-225l-94 292h-487l-97 -292h-226zM423 454h381l-189 577zM622 1393q-62 0 -113.5 30.5t-82.5 82t-31 113.5q0 63 31 114.5t82.5 82.5t113.5 31q63 0 114.5 -31t82.5 -82.5t31 -114.5q0 -62 -31 -113.5t-82.5 -82t-114.5 -30.5zM622 1537
q35 0 59 24t24 58q0 36 -24 59.5t-59 23.5q-34 0 -58 -23.5t-24 -59.5q0 -34 24 -58t58 -24z" />
    <glyph glyph-name="AE" unicode="&#xc6;" horiz-adv-x="1742" 
d="M1588 1286v-184h-596l37 33v-483l-37 80h559v-184h-559l37 59v-515l-37 95h596v-187h-772v365l37 -73h-510l103 67l-143 -359h-221l512 1286h994zM853 454l-37 -61l-2 739l39 -30h-165l85 79l-310 -778l-58 51h448z" />
    <glyph glyph-name="Ccedilla" unicode="&#xc7;" horiz-adv-x="1255" 
d="M652 -27q-169 0 -294 82t-193.5 233t-68.5 359q0 217 72 365t198 223.5t286 75.5q220 0 346 -107.5t165 -278.5l-228 -43q-34 106 -107 171t-176 65q-90 0 -164 -52t-118 -157t-44 -262q0 -145 37.5 -253t110 -167t178.5 -59q133 0 208 71t75 183h228q0 -142 -62 -242
t-177 -153.5t-272 -53.5zM463 -364l32 78q69 -34 123.5 -38.5t87 13.5t35.5 51q3 30 -21 53t-66.5 40t-96.5 29l76 210l100 -13l-70 -192l-32 60q95 -17 155 -46.5t87.5 -68.5t24.5 -84q-4 -58 -49.5 -93t-113 -47t-140 0t-132.5 48z" />
    <glyph glyph-name="Egrave" unicode="&#xc8;" horiz-adv-x="1159" 
d="M189 0v1286h816v-184h-603v-365h567v-184h-567v-367h603v-186h-816zM730 1437l-404 334l144 117l363 -367z" />
    <glyph glyph-name="Eacute" unicode="&#xc9;" horiz-adv-x="1159" 
d="M189 0v1286h816v-184h-603v-365h567v-184h-567v-367h603v-186h-816zM516 1434l-103 84l364 367l143 -117z" />
    <glyph glyph-name="Ecircumflex" unicode="&#xca;" horiz-adv-x="1159" 
d="M189 0v1286h816v-184h-603v-365h567v-184h-567v-367h603v-186h-816zM359 1414l-126 100l345 307l346 -307l-126 -100l-258 240h75z" />
    <glyph glyph-name="Edieresis" unicode="&#xcb;" horiz-adv-x="1159" 
d="M189 0v1286h816v-184h-603v-365h567v-184h-567v-367h603v-186h-816zM763 1459q-54 0 -92 35.5t-38 87.5q0 53 38 89t92 36q56 0 93.5 -36t37.5 -89q0 -52 -37.5 -87.5t-93.5 -35.5zM393 1459q-57 0 -93.5 35.5t-36.5 85.5q0 55 36.5 90t93.5 35t94.5 -35t37.5 -90
q0 -50 -37.5 -85.5t-94.5 -35.5z" />
    <glyph glyph-name="Igrave" unicode="&#xcc;" horiz-adv-x="595" 
d="M191 0v1286h213v-1286h-213zM448 1437l-404 334l144 117l363 -367z" />
    <glyph glyph-name="Iacute" unicode="&#xcd;" horiz-adv-x="595" 
d="M191 0v1286h213v-1286h-213zM234 1434l-103 84l364 367l143 -117z" />
    <glyph glyph-name="Icircumflex" unicode="&#xce;" horiz-adv-x="595" 
d="M191 0v1286h213v-1286h-213zM77 1414l-126 100l345 307l346 -307l-126 -100l-258 240h75z" />
    <glyph glyph-name="Idieresis" unicode="&#xcf;" horiz-adv-x="595" 
d="M191 0v1286h213v-1286h-213zM481 1459q-54 0 -92 35.5t-38 87.5q0 53 38 89t92 36q56 0 93.5 -36t37.5 -89q0 -52 -37.5 -87.5t-93.5 -35.5zM111 1459q-57 0 -93.5 35.5t-36.5 85.5q0 55 36.5 90t93.5 35t94.5 -35t37.5 -90q0 -50 -37.5 -85.5t-94.5 -35.5z" />
    <glyph glyph-name="Eth" unicode="&#xd0;" horiz-adv-x="1358" 
d="M44 735h631v-184h-631v184zM191 1286h405q196 0 342 -79t227.5 -223.5t81.5 -341.5q0 -194 -81.5 -338.5t-227.5 -224t-342 -79.5h-405v1286zM404 1094v-904h192q130 0 224.5 59t146 161.5t51.5 231.5q0 132 -51.5 233.5t-146 160t-224.5 58.5h-192z" />
    <glyph glyph-name="Ntilde" unicode="&#xd1;" horiz-adv-x="1415" 
d="M187 1286h238l603 -957h-17v957h213v-1286h-221l-637 1007h34v-1007h-213v1286zM456 1438l-86 52q24 115 77.5 178.5t126.5 63.5q28 0 58.5 -10.5t87.5 -39.5q54 -28 79 -39t49 -11q29 0 57 24t49 76l90 -60q-14 -69 -44 -122t-69 -82.5t-78 -29.5q-35 0 -69.5 13.5
t-93.5 43.5q-50 27 -72.5 36t-43.5 9q-32 0 -61 -21.5t-57 -80.5z" />
    <glyph glyph-name="Ograve" unicode="&#xd2;" horiz-adv-x="1344" 
d="M672 -27q-168 0 -298 75t-204 224t-74 371q0 226 74 374t204 221t298 73q169 0 299 -74.5t203.5 -223t73.5 -370.5q0 -225 -73.5 -374t-203.5 -222.5t-299 -73.5zM672 167q164 0 260 122.5t96 355.5q0 226 -96 350.5t-260 124.5q-162 0 -258.5 -125t-96.5 -352
q0 -232 96.5 -354t258.5 -122zM827 1437l-404 334l144 117l363 -367z" />
    <glyph glyph-name="Oacute" unicode="&#xd3;" horiz-adv-x="1344" 
d="M672 -27q-168 0 -298 75t-204 224t-74 371q0 226 74 374t204 221t298 73q169 0 299 -74.5t203.5 -223t73.5 -370.5q0 -225 -73.5 -374t-203.5 -222.5t-299 -73.5zM672 167q164 0 260 122.5t96 355.5q0 226 -96 350.5t-260 124.5q-162 0 -258.5 -125t-96.5 -352
q0 -232 96.5 -354t258.5 -122zM614 1434l-103 84l364 367l143 -117z" />
    <glyph glyph-name="Ocircumflex" unicode="&#xd4;" horiz-adv-x="1344" 
d="M672 -27q-168 0 -298 75t-204 224t-74 371q0 226 74 374t204 221t298 73q169 0 299 -74.5t203.5 -223t73.5 -370.5q0 -225 -73.5 -374t-203.5 -222.5t-299 -73.5zM672 167q164 0 260 122.5t96 355.5q0 226 -96 350.5t-260 124.5q-162 0 -258.5 -125t-96.5 -352
q0 -232 96.5 -354t258.5 -122zM457 1414l-126 100l345 307l346 -307l-126 -100l-258 240h75z" />
    <glyph glyph-name="Otilde" unicode="&#xd5;" horiz-adv-x="1344" 
d="M672 -27q-168 0 -298 75t-204 224t-74 371q0 226 74 374t204 221t298 73q169 0 299 -74.5t203.5 -223t73.5 -370.5q0 -225 -73.5 -374t-203.5 -222.5t-299 -73.5zM672 167q164 0 260 122.5t96 355.5q0 226 -96 350.5t-260 124.5q-162 0 -258.5 -125t-96.5 -352
q0 -232 96.5 -354t258.5 -122zM426 1438l-86 52q24 115 77.5 178.5t126.5 63.5q28 0 58.5 -10.5t87.5 -39.5q54 -28 79 -39t49 -11q29 0 57 24t49 76l90 -60q-14 -69 -44 -122t-69 -82.5t-78 -29.5q-35 0 -69.5 13.5t-93.5 43.5q-50 27 -72.5 36t-43.5 9q-32 0 -61 -21.5
t-57 -80.5z" />
    <glyph glyph-name="Odieresis" unicode="&#xd6;" horiz-adv-x="1344" 
d="M672 -27q-168 0 -298 75t-204 224t-74 371q0 226 74 374t204 221t298 73q169 0 299 -74.5t203.5 -223t73.5 -370.5q0 -225 -73.5 -374t-203.5 -222.5t-299 -73.5zM672 167q164 0 260 122.5t96 355.5q0 226 -96 350.5t-260 124.5q-162 0 -258.5 -125t-96.5 -352
q0 -232 96.5 -354t258.5 -122zM861 1459q-54 0 -92 35.5t-38 87.5q0 53 38 89t92 36q56 0 93.5 -36t37.5 -89q0 -52 -37.5 -87.5t-93.5 -35.5zM491 1459q-57 0 -93.5 35.5t-36.5 85.5q0 55 36.5 90t93.5 35t94.5 -35t37.5 -90q0 -50 -37.5 -85.5t-94.5 -35.5z" />
    <glyph glyph-name="multiply" unicode="&#xd7;" horiz-adv-x="1079" 
d="M272 96l-149 151l266 268l-266 264l149 152l267 -267l267 267l152 -152l-269 -264l269 -268l-152 -151l-267 267z" />
    <glyph glyph-name="Oslash" unicode="&#xd8;" horiz-adv-x="1344" 
d="M69 0l1002 1287h182l-1005 -1287h-179zM671 -27q-168 0 -298 75t-203.5 224t-73.5 371q0 226 73.5 374t203.5 221t298 73q169 0 299 -74.5t204 -223t74 -370.5q0 -225 -74 -374t-204 -222.5t-299 -73.5zM671 167q164 0 260 122.5t96 355.5q0 226 -96 350.5t-260 124.5
q-161 0 -258 -125t-97 -352q0 -232 97 -354t258 -122z" />
    <glyph glyph-name="Ugrave" unicode="&#xd9;" horiz-adv-x="1359" 
d="M168 1286h213v-806q0 -165 83.5 -238.5t216.5 -73.5q132 0 215 73.5t83 238.5v806h213v-806q0 -162 -61.5 -275.5t-176 -172.5t-273.5 -59q-160 0 -274.5 59t-176.5 172.5t-62 275.5v806zM830 1437l-404 334l144 117l363 -367z" />
    <glyph glyph-name="Uacute" unicode="&#xda;" horiz-adv-x="1359" 
d="M168 1286h213v-806q0 -165 83.5 -238.5t216.5 -73.5q132 0 215 73.5t83 238.5v806h213v-806q0 -162 -61.5 -275.5t-176 -172.5t-273.5 -59q-160 0 -274.5 59t-176.5 172.5t-62 275.5v806zM616 1434l-103 84l364 367l143 -117z" />
    <glyph glyph-name="Ucircumflex" unicode="&#xdb;" horiz-adv-x="1359" 
d="M168 1286h213v-806q0 -165 83.5 -238.5t216.5 -73.5q132 0 215 73.5t83 238.5v806h213v-806q0 -162 -61.5 -275.5t-176 -172.5t-273.5 -59q-160 0 -274.5 59t-176.5 172.5t-62 275.5v806zM460 1414l-126 100l345 307l346 -307l-126 -100l-258 240h75z" />
    <glyph glyph-name="Udieresis" unicode="&#xdc;" horiz-adv-x="1359" 
d="M168 1286h213v-806q0 -165 83.5 -238.5t216.5 -73.5q132 0 215 73.5t83 238.5v806h213v-806q0 -162 -61.5 -275.5t-176 -172.5t-273.5 -59q-160 0 -274.5 59t-176.5 172.5t-62 275.5v806zM864 1459q-54 0 -92 35.5t-38 87.5q0 53 38 89t92 36q56 0 93.5 -36t37.5 -89
q0 -52 -37.5 -87.5t-93.5 -35.5zM494 1459q-57 0 -93.5 35.5t-36.5 85.5q0 55 36.5 90t93.5 35t94.5 -35t37.5 -90q0 -50 -37.5 -85.5t-94.5 -35.5z" />
    <glyph glyph-name="Yacute" unicode="&#xdd;" horiz-adv-x="1151" 
d="M15 1286h254l324 -573h-44l334 573h252l-460 -756v-530h-213v530zM513 1434l-103 84l364 367l143 -117z" />
    <glyph glyph-name="Thorn" unicode="&#xde;" horiz-adv-x="1146" 
d="M185 0v1286h215v-258l-48 48h276q215 0 334 -107t119 -300q0 -190 -119 -297t-334 -107h-276l48 48v-313h-215zM400 404l-48 47h276q115 0 174.5 61t59.5 157q0 99 -59.5 161t-174.5 62h-276l48 49v-537z" />
    <glyph glyph-name="germandbls" unicode="&#xdf;" horiz-adv-x="1277" 
d="M1024 1076q0 -74 -26.5 -123t-61 -84.5t-61 -65.5t-26.5 -66q0 -39 32.5 -68.5t80.5 -59.5t96 -69t81 -95.5t33 -139.5q0 -100 -52 -174.5t-135 -115t-179 -40.5q-57 0 -127 15t-126 43l2 173q59 -40 113.5 -59t108.5 -19q58 0 93.5 21t51.5 55.5t16 76.5
q0 65 -30.5 110.5t-74.5 80t-89 67t-75 71.5t-30 93t28.5 93t66.5 73.5t66.5 75.5t28.5 99q0 75 -57 120t-152 45q-115 0 -164.5 -70.5t-49.5 -226.5v-912h-215v916q0 151 52 253.5t150 155t238 52.5q124 0 212 -38.5t134.5 -106.5t46.5 -156z" />
    <glyph glyph-name="agrave" unicode="&#xe0;" horiz-adv-x="1150" 
d="M801 0l-27 228v396q0 110 -45.5 161t-147.5 51q-58 0 -102.5 -17t-69 -50.5t-24.5 -82.5h-234q0 109 52.5 176.5t149 99t228.5 31.5q122 0 213 -39.5t142 -122.5t51 -214v-617h-186zM481 -27q-123 0 -204.5 43t-122.5 113t-41 150q0 94 48.5 156t136 92.5t203.5 30.5
q79 0 150.5 -13t142.5 -34v-127q-57 20 -125 31t-126 11q-88 0 -145.5 -33.5t-57.5 -113.5q0 -58 46 -100t146 -42q75 0 129 33t83.5 83t29.5 100h51q0 -102 -39.5 -188.5t-116.5 -139t-188 -52.5zM725 1119l-404 334l144 117l363 -367z" />
    <glyph glyph-name="aacute" unicode="&#xe1;" horiz-adv-x="1150" 
d="M801 0l-27 228v396q0 110 -45.5 161t-147.5 51q-58 0 -102.5 -17t-69 -50.5t-24.5 -82.5h-234q0 109 52.5 176.5t149 99t228.5 31.5q122 0 213 -39.5t142 -122.5t51 -214v-617h-186zM481 -27q-123 0 -204.5 43t-122.5 113t-41 150q0 94 48.5 156t136 92.5t203.5 30.5
q79 0 150.5 -13t142.5 -34v-127q-57 20 -125 31t-126 11q-88 0 -145.5 -33.5t-57.5 -113.5q0 -58 46 -100t146 -42q75 0 129 33t83.5 83t29.5 100h51q0 -102 -39.5 -188.5t-116.5 -139t-188 -52.5zM511 1115l-103 84l364 367l143 -117z" />
    <glyph glyph-name="acircumflex" unicode="&#xe2;" horiz-adv-x="1150" 
d="M801 0l-27 228v396q0 110 -45.5 161t-147.5 51q-58 0 -102.5 -17t-69 -50.5t-24.5 -82.5h-234q0 109 52.5 176.5t149 99t228.5 31.5q122 0 213 -39.5t142 -122.5t51 -214v-617h-186zM481 -27q-123 0 -204.5 43t-122.5 113t-41 150q0 94 48.5 156t136 92.5t203.5 30.5
q79 0 150.5 -13t142.5 -34v-127q-57 20 -125 31t-126 11q-88 0 -145.5 -33.5t-57.5 -113.5q0 -58 46 -100t146 -42q75 0 129 33t83.5 83t29.5 100h51q0 -102 -39.5 -188.5t-116.5 -139t-188 -52.5zM355 1095l-126 100l345 307l346 -307l-126 -100l-258 240h75z" />
    <glyph glyph-name="atilde" unicode="&#xe3;" horiz-adv-x="1150" 
d="M801 0l-27 228v396q0 110 -45.5 161t-147.5 51q-58 0 -102.5 -17t-69 -50.5t-24.5 -82.5h-234q0 109 52.5 176.5t149 99t228.5 31.5q122 0 213 -39.5t142 -122.5t51 -214v-617h-186zM481 -27q-123 0 -204.5 43t-122.5 113t-41 150q0 94 48.5 156t136 92.5t203.5 30.5
q79 0 150.5 -13t142.5 -34v-127q-57 20 -125 31t-126 11q-88 0 -145.5 -33.5t-57.5 -113.5q0 -58 46 -100t146 -42q75 0 129 33t83.5 83t29.5 100h51q0 -102 -39.5 -188.5t-116.5 -139t-188 -52.5zM323 1119l-86 52q24 115 77.5 178.5t126.5 63.5q28 0 58.5 -10.5
t87.5 -39.5q54 -28 79 -39t49 -11q29 0 57 24t49 76l90 -60q-14 -69 -44 -122t-69 -82.5t-78 -29.5q-35 0 -69.5 13.5t-93.5 43.5q-50 27 -72.5 36t-43.5 9q-32 0 -61 -21.5t-57 -80.5z" />
    <glyph glyph-name="adieresis" unicode="&#xe4;" horiz-adv-x="1150" 
d="M801 0l-27 228v396q0 110 -45.5 161t-147.5 51q-58 0 -102.5 -17t-69 -50.5t-24.5 -82.5h-234q0 109 52.5 176.5t149 99t228.5 31.5q122 0 213 -39.5t142 -122.5t51 -214v-617h-186zM481 -27q-123 0 -204.5 43t-122.5 113t-41 150q0 94 48.5 156t136 92.5t203.5 30.5
q79 0 150.5 -13t142.5 -34v-127q-57 20 -125 31t-126 11q-88 0 -145.5 -33.5t-57.5 -113.5q0 -58 46 -100t146 -42q75 0 129 33t83.5 83t29.5 100h51q0 -102 -39.5 -188.5t-116.5 -139t-188 -52.5zM759 1141q-54 0 -92 35.5t-38 87.5q0 53 38 89t92 36q56 0 93.5 -36
t37.5 -89q0 -52 -37.5 -87.5t-93.5 -35.5zM389 1141q-57 0 -93.5 35.5t-36.5 85.5q0 55 36.5 90t93.5 35t94.5 -35t37.5 -90q0 -50 -37.5 -85.5t-94.5 -35.5z" />
    <glyph glyph-name="aring" unicode="&#xe5;" horiz-adv-x="1150" 
d="M801 0l-27 228v396q0 110 -45.5 161t-147.5 51q-58 0 -102.5 -17t-69 -50.5t-24.5 -82.5h-234q0 109 52.5 176.5t149 99t228.5 31.5q122 0 213 -39.5t142 -122.5t51 -214v-617h-186zM481 -27q-123 0 -204.5 43t-122.5 113t-41 150q0 94 48.5 156t136 92.5t203.5 30.5
q79 0 150.5 -13t142.5 -34v-127q-57 20 -125 31t-126 11q-88 0 -145.5 -33.5t-57.5 -113.5q0 -58 46 -100t146 -42q75 0 129 33t83.5 83t29.5 100h51q0 -102 -39.5 -188.5t-116.5 -139t-188 -52.5zM575 1075q-62 0 -113.5 30.5t-82.5 82t-31 113.5q0 63 31 114.5t82.5 82.5
t113.5 31q63 0 114.5 -31t82.5 -82.5t31 -114.5q0 -62 -31 -113.5t-82.5 -82t-114.5 -30.5zM575 1219q35 0 59 24t24 58q0 36 -24 59.5t-59 23.5q-34 0 -58 -23.5t-24 -59.5q0 -34 24 -58t58 -24z" />
    <glyph glyph-name="ae" unicode="&#xe6;" horiz-adv-x="1715" 
d="M790 302h-28v322q0 108 -47 160t-144 52q-55 0 -97 -17t-65.5 -50.5t-23.5 -82.5h-234q0 109 52 176.5t138.5 99t189.5 31.5q131 0 218.5 -47t131.5 -137.5t44 -220.5v-158zM474 -27q-115 0 -195.5 41.5t-123 111.5t-42.5 155q0 92 47.5 153.5t132.5 92.5t196 31
q75 0 149.5 -13.5t143.5 -33.5v-127q-56 20 -127 31t-121 11q-83 0 -138.5 -33.5t-55.5 -109.5q0 -61 43.5 -103.5t130.5 -42.5q77 0 132.5 32t85.5 82t30 102h138q0 -92 -49 -179.5t-144 -144t-233 -56.5zM1220 -27q-132 0 -234.5 67t-161 183.5t-58.5 263.5
q0 148 58.5 262t159.5 179t230 65q111 0 192 -46t131.5 -124.5t69 -176.5t3.5 -203h-679v119h531l-46 -30q3 51 -5 102t-31 94t-64 69t-105 26q-77 0 -130 -39.5t-80.5 -105.5t-27.5 -147v-86q0 -87 25.5 -154.5t78.5 -106.5t133 -39q73 0 124.5 35t64.5 108h216
q-14 -94 -69.5 -165t-140.5 -110.5t-185 -39.5z" />
    <glyph glyph-name="ccedilla" unicode="&#xe7;" horiz-adv-x="1051" 
d="M549 -27q-119 0 -222.5 63t-167 178t-63.5 270q0 163 63.5 277t167 173t222.5 59q91 0 161.5 -29t120.5 -78t80 -109.5t40 -123.5l-216 -8q-19 69 -66.5 113t-121.5 44q-60 0 -114 -34t-87.5 -104t-33.5 -180q0 -103 31 -174t84.5 -107.5t119.5 -36.5q97 0 142.5 46.5
t45.5 126.5h216q0 -102 -47 -185t-137 -132t-218 -49zM347 -362l32 78q69 -34 123.5 -38.5t87 13.5t35.5 51q3 30 -21 53t-66.5 40t-96.5 29l76 210l100 -13l-70 -192l-32 60q95 -17 155 -46.5t87.5 -68.5t24.5 -84q-4 -58 -49.5 -93t-113 -47t-140 0t-132.5 48z" />
    <glyph glyph-name="egrave" unicode="&#xe8;" horiz-adv-x="1051" 
d="M544 -27q-124 0 -225.5 64t-162 179t-60.5 267q0 159 60 273.5t161.5 175.5t226.5 61q114 0 196.5 -46t132.5 -124t68.5 -176.5t4.5 -203.5h-679v119h530l-46 -30q3 51 -5 102t-30.5 94t-63.5 69t-105 26q-77 0 -130.5 -39.5t-81 -105.5t-27.5 -147v-86q0 -87 26 -154.5
t78.5 -106.5t131.5 -39q76 0 126.5 36t63.5 107h217q-15 -94 -70 -165t-141 -110.5t-196 -39.5zM676 1119l-404 334l144 117l363 -367z" />
    <glyph glyph-name="eacute" unicode="&#xe9;" horiz-adv-x="1051" 
d="M544 -27q-124 0 -225.5 64t-162 179t-60.5 267q0 159 60 273.5t161.5 175.5t226.5 61q114 0 196.5 -46t132.5 -124t68.5 -176.5t4.5 -203.5h-679v119h530l-46 -30q3 51 -5 102t-30.5 94t-63.5 69t-105 26q-77 0 -130.5 -39.5t-81 -105.5t-27.5 -147v-86q0 -87 26 -154.5
t78.5 -106.5t131.5 -39q76 0 126.5 36t63.5 107h217q-15 -94 -70 -165t-141 -110.5t-196 -39.5zM463 1115l-103 84l364 367l143 -117z" />
    <glyph glyph-name="ecircumflex" unicode="&#xea;" horiz-adv-x="1051" 
d="M544 -27q-124 0 -225.5 64t-162 179t-60.5 267q0 159 60 273.5t161.5 175.5t226.5 61q114 0 196.5 -46t132.5 -124t68.5 -176.5t4.5 -203.5h-679v119h530l-46 -30q3 51 -5 102t-30.5 94t-63.5 69t-105 26q-77 0 -130.5 -39.5t-81 -105.5t-27.5 -147v-86q0 -87 26 -154.5
t78.5 -106.5t131.5 -39q76 0 126.5 36t63.5 107h217q-15 -94 -70 -165t-141 -110.5t-196 -39.5zM306 1095l-126 100l345 307l346 -307l-126 -100l-258 240h75z" />
    <glyph glyph-name="edieresis" unicode="&#xeb;" horiz-adv-x="1051" 
d="M544 -27q-124 0 -225.5 64t-162 179t-60.5 267q0 159 60 273.5t161.5 175.5t226.5 61q114 0 196.5 -46t132.5 -124t68.5 -176.5t4.5 -203.5h-679v119h530l-46 -30q3 51 -5 102t-30.5 94t-63.5 69t-105 26q-77 0 -130.5 -39.5t-81 -105.5t-27.5 -147v-86q0 -87 26 -154.5
t78.5 -106.5t131.5 -39q76 0 126.5 36t63.5 107h217q-15 -94 -70 -165t-141 -110.5t-196 -39.5zM710 1141q-54 0 -92 35.5t-38 87.5q0 53 38 89t92 36q56 0 93.5 -36t37.5 -89q0 -52 -37.5 -87.5t-93.5 -35.5zM340 1141q-57 0 -93.5 35.5t-36.5 85.5q0 55 36.5 90t93.5 35
t94.5 -35t37.5 -90q0 -50 -37.5 -85.5t-94.5 -35.5z" />
    <glyph glyph-name="igrave" unicode="&#xec;" horiz-adv-x="639" 
d="M208 0v969h213v-969h-213zM464 1119l-404 334l144 117l363 -367z" />
    <glyph glyph-name="iacute" unicode="&#xed;" horiz-adv-x="639" 
d="M208 0v969h213v-969h-213zM250 1115l-103 84l364 367l143 -117z" />
    <glyph glyph-name="icircumflex" unicode="&#xee;" horiz-adv-x="639" 
d="M208 0v969h213v-969h-213zM94 1095l-126 100l345 307l346 -307l-126 -100l-258 240h75z" />
    <glyph glyph-name="idieresis" unicode="&#xef;" horiz-adv-x="639" 
d="M208 0v969h213v-969h-213zM498 1141q-54 0 -92 35.5t-38 87.5q0 53 38 89t92 36q56 0 93.5 -36t37.5 -89q0 -52 -37.5 -87.5t-93.5 -35.5zM128 1141q-57 0 -93.5 35.5t-36.5 85.5q0 55 36.5 90t93.5 35t94.5 -35t37.5 -90q0 -50 -37.5 -85.5t-94.5 -35.5z" />
    <glyph glyph-name="eth" unicode="&#xf0;" horiz-adv-x="1130" 
d="M549 -27q-120 0 -220.5 64t-161 180t-60.5 272q0 153 57.5 266t152.5 175.5t207 62.5q115 0 200 -62.5t132 -170t47 -243.5h-70q-1 97 -40 160.5t-97.5 94t-120.5 30.5q-72 0 -129.5 -39t-90.5 -109.5t-33 -167.5t33 -168.5t90.5 -111.5t131.5 -40q80 0 134.5 44t85 119
t34.5 168q6 155 -13.5 296t-71 269t-141 243t-224.5 219l176 121q123 -108 214 -231.5t150.5 -255t88.5 -265t29 -260.5q0 -158 -39.5 -280.5t-108 -207t-156.5 -128.5t-186 -44zM426 1113l-62 131l609 302l62 -131z" />
    <glyph glyph-name="ntilde" unicode="&#xf1;" horiz-adv-x="1235" 
d="M861 0v566q0 117 -56 176.5t-149 59.5q-75 0 -132 -41.5t-88.5 -122.5t-31.5 -199h-73q0 183 46 306t131.5 185.5t203.5 62.5t198.5 -53t121.5 -149t41 -225v-566h-212zM191 0v966h185l28 -200v-766h-213zM384 1129l-86 52q24 115 77.5 178.5t126.5 63.5q28 0 58.5 -10.5
t87.5 -39.5q54 -28 79 -39t49 -11q29 0 57 24t49 76l90 -60q-14 -69 -44 -122t-69 -82.5t-78 -29.5q-35 0 -69.5 13.5t-93.5 43.5q-50 27 -72.5 36t-43.5 9q-32 0 -61 -21.5t-57 -80.5z" />
    <glyph glyph-name="ograve" unicode="&#xf2;" horiz-adv-x="1121" 
d="M562 -27q-132 0 -237 57t-167 170t-62 282q0 172 62 285t167 169.5t237 56.5q130 0 235 -56.5t166.5 -169.5t61.5 -285q0 -169 -61.5 -282t-166.5 -170t-235 -57zM555 159q77 0 134.5 37.5t89.5 109.5t32 176q0 159 -63.5 243t-178.5 84q-77 0 -135 -37.5t-90 -110
t-32 -179.5q0 -156 64.5 -239.5t178.5 -83.5zM711 1119l-404 334l144 117l363 -367z" />
    <glyph glyph-name="oacute" unicode="&#xf3;" horiz-adv-x="1121" 
d="M562 -27q-132 0 -237 57t-167 170t-62 282q0 172 62 285t167 169.5t237 56.5q130 0 235 -56.5t166.5 -169.5t61.5 -285q0 -169 -61.5 -282t-166.5 -170t-235 -57zM555 159q77 0 134.5 37.5t89.5 109.5t32 176q0 159 -63.5 243t-178.5 84q-77 0 -135 -37.5t-90 -110
t-32 -179.5q0 -156 64.5 -239.5t178.5 -83.5zM498 1115l-103 84l364 367l143 -117z" />
    <glyph glyph-name="ocircumflex" unicode="&#xf4;" horiz-adv-x="1121" 
d="M562 -27q-132 0 -237 57t-167 170t-62 282q0 172 62 285t167 169.5t237 56.5q130 0 235 -56.5t166.5 -169.5t61.5 -285q0 -169 -61.5 -282t-166.5 -170t-235 -57zM555 159q77 0 134.5 37.5t89.5 109.5t32 176q0 159 -63.5 243t-178.5 84q-77 0 -135 -37.5t-90 -110
t-32 -179.5q0 -156 64.5 -239.5t178.5 -83.5zM341 1095l-126 100l345 307l346 -307l-126 -100l-258 240h75z" />
    <glyph glyph-name="otilde" unicode="&#xf5;" horiz-adv-x="1121" 
d="M562 -27q-132 0 -237 57t-167 170t-62 282q0 172 62 285t167 169.5t237 56.5q130 0 235 -56.5t166.5 -169.5t61.5 -285q0 -169 -61.5 -282t-166.5 -170t-235 -57zM555 159q77 0 134.5 37.5t89.5 109.5t32 176q0 159 -63.5 243t-178.5 84q-77 0 -135 -37.5t-90 -110
t-32 -179.5q0 -156 64.5 -239.5t178.5 -83.5zM310 1119l-86 52q24 115 77.5 178.5t126.5 63.5q28 0 58.5 -10.5t87.5 -39.5q54 -28 79 -39t49 -11q29 0 57 24t49 76l90 -60q-14 -69 -44 -122t-69 -82.5t-78 -29.5q-35 0 -69.5 13.5t-93.5 43.5q-50 27 -72.5 36t-43.5 9
q-32 0 -61 -21.5t-57 -80.5z" />
    <glyph glyph-name="odieresis" unicode="&#xf6;" horiz-adv-x="1121" 
d="M562 -27q-132 0 -237 57t-167 170t-62 282q0 172 62 285t167 169.5t237 56.5q130 0 235 -56.5t166.5 -169.5t61.5 -285q0 -169 -61.5 -282t-166.5 -170t-235 -57zM555 159q77 0 134.5 37.5t89.5 109.5t32 176q0 159 -63.5 243t-178.5 84q-77 0 -135 -37.5t-90 -110
t-32 -179.5q0 -156 64.5 -239.5t178.5 -83.5zM745 1141q-54 0 -92 35.5t-38 87.5q0 53 38 89t92 36q56 0 93.5 -36t37.5 -89q0 -52 -37.5 -87.5t-93.5 -35.5zM375 1141q-57 0 -93.5 35.5t-36.5 85.5q0 55 36.5 90t93.5 35t94.5 -35t37.5 -90q0 -50 -37.5 -85.5t-94.5 -35.5z
" />
    <glyph glyph-name="divide" unicode="&#xf7;" horiz-adv-x="1038" 
d="M142 446v188h753v-188h-753zM517 96q-54 0 -90 35t-36 86t36 86t90 35q56 0 93 -35t37 -86t-37 -86t-93 -35zM517 737q-54 0 -90 34t-36 87q0 50 36 85.5t90 35.5q56 0 93 -35.5t37 -85.5q0 -53 -37 -87t-93 -34z" />
    <glyph glyph-name="oslash" unicode="&#xf8;" horiz-adv-x="1121" 
d="M562 -27q-132 0 -237 57t-167 170t-62 282q0 172 62 285t167 169.5t237 56.5q130 0 235 -56.5t166.5 -169.5t61.5 -285q0 -169 -61.5 -282t-166.5 -170t-235 -57zM555 159q77 0 134.5 37.5t89.5 109.5t32 176q0 159 -63.5 243t-178.5 84q-77 0 -135 -37.5t-90 -110
t-32 -179.5q0 -156 64.5 -239.5t178.5 -83.5zM92.1826 -0.352539l814.922 975.365h198.427l-817.652 -975.365h-195.696z" />
    <glyph glyph-name="ugrave" unicode="&#xf9;" horiz-adv-x="1242" 
d="M838 969h213v-969h-213v969zM168 969h213v-596q0 -101 50.5 -153t140.5 -52q75 0 135.5 39.5t95.5 115t35 182.5h62q0 -173 -46 -289.5t-128 -175t-191 -58.5q-104 0 -187.5 38t-131.5 119.5t-48 213.5v616zM788 1119l-404 334l144 117l363 -367z" />
    <glyph glyph-name="uacute" unicode="&#xfa;" horiz-adv-x="1242" 
d="M838 969h213v-969h-213v969zM168 969h213v-596q0 -101 50.5 -153t140.5 -52q75 0 135.5 39.5t95.5 115t35 182.5h62q0 -173 -46 -289.5t-128 -175t-191 -58.5q-104 0 -187.5 38t-131.5 119.5t-48 213.5v616zM574 1115l-103 84l364 367l143 -117z" />
    <glyph glyph-name="ucircumflex" unicode="&#xfb;" horiz-adv-x="1242" 
d="M838 969h213v-969h-213v969zM168 969h213v-596q0 -101 50.5 -153t140.5 -52q75 0 135.5 39.5t95.5 115t35 182.5h62q0 -173 -46 -289.5t-128 -175t-191 -58.5q-104 0 -187.5 38t-131.5 119.5t-48 213.5v616zM418 1095l-126 100l345 307l346 -307l-126 -100l-258 240h75z
" />
    <glyph glyph-name="udieresis" unicode="&#xfc;" horiz-adv-x="1242" 
d="M838 969h213v-969h-213v969zM168 969h213v-596q0 -101 50.5 -153t140.5 -52q75 0 135.5 39.5t95.5 115t35 182.5h62q0 -173 -46 -289.5t-128 -175t-191 -58.5q-104 0 -187.5 38t-131.5 119.5t-48 213.5v616zM822 1141q-54 0 -92 35.5t-38 87.5q0 53 38 89t92 36
q56 0 93.5 -36t37.5 -89q0 -52 -37.5 -87.5t-93.5 -35.5zM452 1141q-57 0 -93.5 35.5t-36.5 85.5q0 55 36.5 90t93.5 35t94.5 -35t37.5 -90q0 -50 -37.5 -85.5t-94.5 -35.5z" />
    <glyph glyph-name="yacute" unicode="&#xfd;" horiz-adv-x="985" 
d="M40 966h241l273 -780h-40l228 780h217l-369 -1147q-53 -164 -134.5 -241t-200.5 -77q-67 0 -130 16.5t-128 49.5v189q54 -36 105 -52.5t103 -16.5q51 0 88 29t63.5 78.5t44.5 110.5l29 95zM430 1115l-103 84l364 367l143 -117z" />
    <glyph glyph-name="thorn" unicode="&#xfe;" 
d="M662 -27q-107 0 -183 46.5t-116 139.5t-40 232h81q0 -72 32 -122t84.5 -76.5t111.5 -26.5q63 0 123 35t99 105.5t39 177.5q0 99 -33.5 170.5t-92 109.5t-131.5 38q-62 0 -115.5 -29t-85 -83.5t-31.5 -133.5h-81q0 149 47 246t126 144t174 47q114 0 214 -61t162.5 -174.5
t62.5 -273.5q0 -161 -63 -275t-165 -175t-219 -61zM191 -473v1759h213v-1759h-213z" />
    <glyph glyph-name="ydieresis" unicode="&#xff;" horiz-adv-x="985" 
d="M40 966h241l273 -780h-40l228 780h217l-369 -1147q-53 -164 -134.5 -241t-200.5 -77q-67 0 -130 16.5t-128 49.5v189q54 -36 105 -52.5t103 -16.5q51 0 88 29t63.5 78.5t44.5 110.5l29 95zM677 1141q-54 0 -92 35.5t-38 87.5q0 53 38 89t92 36q56 0 93.5 -36t37.5 -89
q0 -52 -37.5 -87.5t-93.5 -35.5zM307 1141q-57 0 -93.5 35.5t-36.5 85.5q0 55 36.5 90t93.5 35t94.5 -35t37.5 -90q0 -50 -37.5 -85.5t-94.5 -35.5z" />
    <glyph glyph-name="Amacron" unicode="&#x100;" horiz-adv-x="1222" 
d="M46 0l439 1286h266l424 -1286h-225l-94 292h-487l-97 -292h-226zM423 454h381l-189 577zM285 1661h673v-175h-673v175z" />
    <glyph glyph-name="amacron" unicode="&#x101;" horiz-adv-x="1150" 
d="M801 0l-27 228v396q0 110 -45.5 161t-147.5 51q-58 0 -102.5 -17t-69 -50.5t-24.5 -82.5h-234q0 109 52.5 176.5t149 99t228.5 31.5q122 0 213 -39.5t142 -122.5t51 -214v-617h-186zM481 -27q-123 0 -204.5 43t-122.5 113t-41 150q0 94 48.5 156t136 92.5t203.5 30.5
q79 0 150.5 -13t142.5 -34v-127q-57 20 -125 31t-126 11q-88 0 -145.5 -33.5t-57.5 -113.5q0 -58 46 -100t146 -42q75 0 129 33t83.5 83t29.5 100h51q0 -102 -39.5 -188.5t-116.5 -139t-188 -52.5zM238 1343h673v-175h-673v175z" />
    <glyph glyph-name="Abreve" unicode="&#x102;" horiz-adv-x="1222" 
d="M46 0l439 1286h266l424 -1286h-225l-94 292h-487l-97 -292h-226zM423 454h381l-189 577zM622 1477q-142 0 -224 79.5t-82 215.5h170q0 -75 36.5 -115t98.5 -40q64 0 100 40t36 115h170q0 -136 -82 -215.5t-223 -79.5z" />
    <glyph glyph-name="abreve" unicode="&#x103;" horiz-adv-x="1150" 
d="M801 0l-27 228v396q0 110 -45.5 161t-147.5 51q-58 0 -102.5 -17t-69 -50.5t-24.5 -82.5h-234q0 109 52.5 176.5t149 99t228.5 31.5q122 0 213 -39.5t142 -122.5t51 -214v-617h-186zM481 -27q-123 0 -204.5 43t-122.5 113t-41 150q0 94 48.5 156t136 92.5t203.5 30.5
q79 0 150.5 -13t142.5 -34v-127q-57 20 -125 31t-126 11q-88 0 -145.5 -33.5t-57.5 -113.5q0 -58 46 -100t146 -42q75 0 129 33t83.5 83t29.5 100h51q0 -102 -39.5 -188.5t-116.5 -139t-188 -52.5zM575 1159q-142 0 -224 79.5t-82 215.5h170q0 -75 36.5 -115t98.5 -40
q64 0 100 40t36 115h170q0 -136 -82 -215.5t-223 -79.5z" />
    <glyph glyph-name="Aogonek" unicode="&#x104;" horiz-adv-x="1222" 
d="M46 0l439 1286h266l424 -1286h-225l-94 292h-487l-97 -292h-226zM423 454h381l-189 577zM1290 -328q-64 -34 -131.5 -52.5t-132.5 -18.5q-105 0 -172 47t-67 134q0 74 55 143.5t163 113.5l157 -39q-105 -39 -167 -83t-62 -98q0 -40 34 -57t77 -17q44 0 90 14t106 46z" />
    <glyph glyph-name="aogonek" unicode="&#x105;" horiz-adv-x="1150" 
d="M801 0l-27 228v396q0 110 -45.5 161t-147.5 51q-58 0 -102.5 -17t-69 -50.5t-24.5 -82.5h-234q0 109 52.5 176.5t149 99t228.5 31.5q122 0 213 -39.5t142 -122.5t51 -214v-617h-186zM481 -27q-123 0 -204.5 43t-122.5 113t-41 150q0 94 48.5 156t136 92.5t203.5 30.5
q79 0 150.5 -13t142.5 -34v-127q-57 20 -125 31t-126 11q-88 0 -145.5 -33.5t-57.5 -113.5q0 -58 46 -100t146 -42q75 0 129 33t83.5 83t29.5 100h51q0 -102 -39.5 -188.5t-116.5 -139t-188 -52.5zM1115 -328q-64 -34 -131.5 -52.5t-132.5 -18.5q-105 0 -172 47t-67 134
q0 74 55 143.5t163 113.5l157 -39q-105 -39 -167 -83t-62 -98q0 -40 34 -57t77 -17q44 0 90 14t106 46z" />
    <glyph glyph-name="Cacute" unicode="&#x106;" horiz-adv-x="1255" 
d="M652 -27q-169 0 -294 82t-193.5 233t-68.5 359q0 217 72 365t198 223.5t286 75.5q220 0 346 -107.5t165 -278.5l-228 -43q-34 106 -107 171t-176 65q-90 0 -164 -52t-118 -157t-44 -262q0 -145 37.5 -253t110 -167t178.5 -59q133 0 208 71t75 183h228q0 -142 -62 -242
t-177 -153.5t-272 -53.5zM580 1434l-103 84l364 367l143 -117z" />
    <glyph glyph-name="cacute" unicode="&#x107;" horiz-adv-x="1051" 
d="M549 -27q-119 0 -222.5 63t-167 178t-63.5 270q0 163 63.5 277t167 173t222.5 59q91 0 161.5 -29t120.5 -78t80 -109.5t40 -123.5l-216 -8q-19 69 -66.5 113t-121.5 44q-60 0 -114 -34t-87.5 -104t-33.5 -180q0 -103 31 -174t84.5 -107.5t119.5 -36.5q97 0 142.5 46.5
t45.5 126.5h216q0 -102 -47 -185t-137 -132t-218 -49zM486 1115l-103 84l364 367l143 -117z" />
    <glyph glyph-name="Cdotaccent" unicode="&#x10a;" horiz-adv-x="1255" 
d="M652 -27q-169 0 -294 82t-193.5 233t-68.5 359q0 217 72 365t198 223.5t286 75.5q220 0 346 -107.5t165 -278.5l-228 -43q-34 106 -107 171t-176 65q-90 0 -164 -52t-118 -157t-44 -262q0 -145 37.5 -253t110 -167t178.5 -59q133 0 208 71t75 183h228q0 -142 -62 -242
t-177 -153.5t-272 -53.5zM506.038 1609.64q0 60.8311 41.6982 102.529q41.6992 41.6982 105.473 41.6982q64.7559 0 108.416 -41.6982q43.6611 -41.6982 43.6611 -102.529q0 -59.8496 -43.6611 -100.076q-43.6602 -40.2266 -108.416 -40.2266q-63.7734 0 -105.473 40.7168
q-41.6982 40.7178 -41.6982 99.5859z" />
    <glyph glyph-name="cdotaccent" unicode="&#x10b;" horiz-adv-x="1051" 
d="M549 -27q-119 0 -222.5 63t-167 178t-63.5 270q0 163 63.5 277t167 173t222.5 59q91 0 161.5 -29t120.5 -78t80 -109.5t40 -123.5l-216 -8q-19 69 -66.5 113t-121.5 44q-60 0 -114 -34t-87.5 -104t-33.5 -180q0 -103 31 -174t84.5 -107.5t119.5 -36.5q97 0 142.5 46.5
t45.5 126.5h216q0 -102 -47 -185t-137 -132t-218 -49zM411.038 1291.64q0 60.8311 41.6982 102.529q41.6992 41.6982 105.473 41.6982q64.7559 0 108.416 -41.6982q43.6611 -41.6982 43.6611 -102.529q0 -59.8496 -43.6611 -100.076q-43.6602 -40.2266 -108.416 -40.2266
q-63.7734 0 -105.473 40.7168q-41.6982 40.7178 -41.6982 99.5859z" />
    <glyph glyph-name="Ccaron" unicode="&#x10c;" horiz-adv-x="1255" 
d="M652 -27q-169 0 -294 82t-193.5 233t-68.5 359q0 217 72 365t198 223.5t286 75.5q220 0 346 -107.5t165 -278.5l-228 -43q-34 106 -107 171t-176 65q-90 0 -164 -52t-118 -157t-44 -262q0 -145 37.5 -253t110 -167t178.5 -59q133 0 208 71t75 183h228q0 -142 -62 -242
t-177 -153.5t-272 -53.5zM649 1432l-345 306l126 100l256 -263h-75l258 263l126 -100z" />
    <glyph glyph-name="ccaron" unicode="&#x10d;" horiz-adv-x="1051" 
d="M549 -27q-119 0 -222.5 63t-167 178t-63.5 270q0 163 63.5 277t167 173t222.5 59q91 0 161.5 -29t120.5 -78t80 -109.5t40 -123.5l-216 -8q-19 69 -66.5 113t-121.5 44q-60 0 -114 -34t-87.5 -104t-33.5 -180q0 -103 31 -174t84.5 -107.5t119.5 -36.5q97 0 142.5 46.5
t45.5 126.5h216q0 -102 -47 -185t-137 -132t-218 -49zM555 1114l-345 306l126 100l256 -263h-75l258 263l126 -100z" />
    <glyph glyph-name="Dcaron" unicode="&#x10e;" horiz-adv-x="1358" 
d="M191 1286h405q196 0 342 -79t227.5 -223.5t81.5 -341.5q0 -194 -81.5 -338.5t-227.5 -224t-342 -79.5h-405v1286zM404 1094v-904h192q130 0 224.5 59t146 161.5t51.5 231.5q0 132 -51.5 233.5t-146 160t-224.5 58.5h-192zM685 1432l-345 306l126 100l256 -263h-75
l258 263l126 -100z" />
    <glyph glyph-name="dcaron" unicode="&#x10f;" horiz-adv-x="1403" 
d="M1191 1030l-107 53q49 24 83.5 54.5t45.5 72.5q-38 5 -64.5 28t-26.5 61q0 37 28 63.5t73 26.5q54 0 88 -39.5t34 -94.5q0 -64 -39.5 -125.5t-114.5 -99.5zM544 -27q-120 0 -219.5 64t-158.5 179.5t-59 271.5q0 154 57 267.5t153 175.5t213 62q107 0 186 -51.5
t121.5 -151t42.5 -243.5h-70q0 82 -33 138.5t-86 86.5t-115 30q-73 0 -130.5 -39t-90.5 -109.5t-33 -165.5q0 -98 33.5 -170.5t90.5 -112t129 -39.5q59 0 112.5 31.5t88 89.5t34.5 137h70q0 -149 -45.5 -249.5t-121.5 -151t-169 -50.5zM849 0l-39 235v1135h215v-1370h-176z
" />
    <glyph glyph-name="Dcroat" unicode="&#x110;" horiz-adv-x="1358" 
d="M44 735h631v-184h-631v184zM191 1286h405q196 0 342 -79t227.5 -223.5t81.5 -341.5q0 -194 -81.5 -338.5t-227.5 -224t-342 -79.5h-405v1286zM404 1094v-904h192q130 0 224.5 59t146 161.5t51.5 231.5q0 132 -51.5 233.5t-146 160t-224.5 58.5h-192z" />
    <glyph glyph-name="dcroat" unicode="&#x111;" horiz-adv-x="1216" 
d="M544 -27q-120 0 -219.5 64t-158.5 179.5t-59 271.5q0 154 57 267.5t153 175.5t213 62q107 0 186 -51.5t121.5 -151t42.5 -243.5h-70q0 82 -33 138.5t-86 86.5t-115 30q-73 0 -130.5 -39t-90.5 -109.5t-33 -165.5q0 -98 33.5 -170.5t90.5 -112t129 -39.5q59 0 112.5 31.5
t88 89.5t34.5 137h70q0 -149 -45.5 -249.5t-121.5 -151t-169 -50.5zM849 0l-39 235v1135h215v-1370h-176zM596 1093v145h575v-145h-575z" />
    <glyph glyph-name="Emacron" unicode="&#x112;" horiz-adv-x="1159" 
d="M189 0v1286h816v-184h-603v-365h567v-184h-567v-367h603v-186h-816zM243 1661h673v-175h-673v175z" />
    <glyph glyph-name="emacron" unicode="&#x113;" horiz-adv-x="1051" 
d="M544 -27q-124 0 -225.5 64t-162 179t-60.5 267q0 159 60 273.5t161.5 175.5t226.5 61q114 0 196.5 -46t132.5 -124t68.5 -176.5t4.5 -203.5h-679v119h530l-46 -30q3 51 -5 102t-30.5 94t-63.5 69t-105 26q-77 0 -130.5 -39.5t-81 -105.5t-27.5 -147v-86q0 -87 26 -154.5
t78.5 -106.5t131.5 -39q76 0 126.5 36t63.5 107h217q-15 -94 -70 -165t-141 -110.5t-196 -39.5zM190 1343h673v-175h-673v175z" />
    <glyph glyph-name="Edotaccent" unicode="&#x116;" horiz-adv-x="1159" 
d="M189 0v1286h816v-184h-603v-365h567v-184h-567v-367h603v-186h-816zM442.038 1609.64q0 60.8311 41.6982 102.529q41.6992 41.6982 105.473 41.6982q64.7559 0 108.416 -41.6982q43.6611 -41.6982 43.6611 -102.529q0 -59.8496 -43.6611 -100.076
q-43.6602 -40.2266 -108.416 -40.2266q-63.7734 0 -105.473 40.7168q-41.6982 40.7178 -41.6982 99.5859z" />
    <glyph glyph-name="edotaccent" unicode="&#x117;" horiz-adv-x="1051" 
d="M544 -27q-124 0 -225.5 64t-162 179t-60.5 267q0 159 60 273.5t161.5 175.5t226.5 61q114 0 196.5 -46t132.5 -124t68.5 -176.5t4.5 -203.5h-679v119h530l-46 -30q3 51 -5 102t-30.5 94t-63.5 69t-105 26q-77 0 -130.5 -39.5t-81 -105.5t-27.5 -147v-86q0 -87 26 -154.5
t78.5 -106.5t131.5 -39q76 0 126.5 36t63.5 107h217q-15 -94 -70 -165t-141 -110.5t-196 -39.5zM388.038 1291.64q0 60.8311 41.6982 102.529q41.6992 41.6982 105.473 41.6982q64.7559 0 108.416 -41.6982q43.6611 -41.6982 43.6611 -102.529q0 -59.8496 -43.6611 -100.076
q-43.6602 -40.2266 -108.416 -40.2266q-63.7734 0 -105.473 40.7168q-41.6982 40.7178 -41.6982 99.5859z" />
    <glyph glyph-name="Eogonek" unicode="&#x118;" horiz-adv-x="1159" 
d="M189 0v1286h816v-184h-603v-365h567v-184h-567v-367h603v-186h-816zM889 -328q-64 -34 -131.5 -52.5t-132.5 -18.5q-105 0 -172 47t-67 134q0 74 55 143.5t163 113.5l157 -39q-105 -39 -167 -83t-62 -98q0 -40 34 -57t77 -17q44 0 90 14t106 46z" />
    <glyph glyph-name="eogonek" unicode="&#x119;" horiz-adv-x="1051" 
d="M544 -27q-124 0 -225.5 64t-162 179t-60.5 267q0 159 60 273.5t161.5 175.5t226.5 61q114 0 196.5 -46t132.5 -124t68.5 -176.5t4.5 -203.5h-679v119h530l-46 -30q3 51 -5 102t-30.5 94t-63.5 69t-105 26q-77 0 -130.5 -39.5t-81 -105.5t-27.5 -147v-86q0 -87 26 -154.5
t78.5 -106.5t131.5 -39q76 0 126.5 36t63.5 107h217q-15 -94 -70 -165t-141 -110.5t-196 -39.5zM783 -328q-64 -34 -131.5 -52.5t-132.5 -18.5q-105 0 -172 47t-67 134q0 74 55 143.5t163 113.5l157 -39q-105 -39 -167 -83t-62 -98q0 -40 34 -57t77 -17q44 0 90 14t106 46z
" />
    <glyph glyph-name="Ecaron" unicode="&#x11a;" horiz-adv-x="1159" 
d="M189 0v1286h816v-184h-603v-365h567v-184h-567v-367h603v-186h-816zM585 1432l-345 306l126 100l256 -263h-75l258 263l126 -100z" />
    <glyph glyph-name="ecaron" unicode="&#x11b;" horiz-adv-x="1051" 
d="M544 -27q-124 0 -225.5 64t-162 179t-60.5 267q0 159 60 273.5t161.5 175.5t226.5 61q114 0 196.5 -46t132.5 -124t68.5 -176.5t4.5 -203.5h-679v119h530l-46 -30q3 51 -5 102t-30.5 94t-63.5 69t-105 26q-77 0 -130.5 -39.5t-81 -105.5t-27.5 -147v-86q0 -87 26 -154.5
t78.5 -106.5t131.5 -39q76 0 126.5 36t63.5 107h217q-15 -94 -70 -165t-141 -110.5t-196 -39.5zM532 1114l-345 306l126 100l256 -263h-75l258 263l126 -100z" />
    <glyph glyph-name="Gbreve" unicode="&#x11e;" horiz-adv-x="1335" 
d="M655 -27q-156 0 -282.5 82.5t-201.5 230.5t-75 348q0 160 46.5 285.5t129.5 213t193.5 133t237.5 45.5q172 0 292 -74t192 -232l-215 -55q-55 83 -124.5 125.5t-154.5 42.5q-101 0 -184.5 -58.5t-133.5 -167t-50 -258.5q0 -138 43 -243t121.5 -164t182.5 -59q87 0 155 39
t107.5 113.5t39.5 181.5h51q0 -161 -38.5 -280t-120 -184t-211.5 -65zM1006 0l-32 289v220l-299 7v137h504v-653h-173zM668 1477q-142 0 -224 79.5t-82 215.5h170q0 -75 36.5 -115t98.5 -40q64 0 100 40t36 115h170q0 -136 -82 -215.5t-223 -79.5z" />
    <glyph glyph-name="gbreve" unicode="&#x11f;" horiz-adv-x="1154" 
d="M554 -499q-161 0 -276.5 44.5t-177.5 118t-62 159.5q0 105 77 162t195 57l148 -61q-101 0 -156 -39.5t-55 -108.5q0 -72 81 -117t226 -45q107 0 185.5 31.5t122 81.5t43.5 107q0 38 -26.5 64t-81.5 26h-339q-98 0 -175.5 31t-122.5 83t-45 115q0 61 34 104.5t91.5 67
t127.5 23.5l51 -72q-29 0 -57 -12t-45.5 -35.5t-17.5 -58.5q0 -42 35 -68.5t124 -26.5h339q149 0 234 -57t85 -171q0 -101 -68 -193.5t-194 -151t-300 -58.5zM571 294q-114 0 -207 43.5t-148.5 122t-55.5 183.5q0 106 55.5 185t148.5 122t207 43q111 0 203.5 -43t149 -122
t56.5 -185q0 -105 -56.5 -183.5t-149 -122t-203.5 -43.5zM572 443q97 0 147.5 57.5t50.5 142.5q0 90 -50.5 145t-148.5 55q-95 0 -147.5 -55t-52.5 -145q0 -85 52.5 -142.5t148.5 -57.5zM906 838l-98 53q0 86 38 151t104 101t148 36l-12 -206q-87 0 -133.5 -33t-46.5 -102z
M578 1159q-142 0 -224 79.5t-82 215.5h170q0 -75 36.5 -115t98.5 -40q64 0 100 40t36 115h170q0 -136 -82 -215.5t-223 -79.5z" />
    <glyph glyph-name="Gdotaccent" unicode="&#x120;" horiz-adv-x="1335" 
d="M655 -27q-156 0 -282.5 82.5t-201.5 230.5t-75 348q0 160 46.5 285.5t129.5 213t193.5 133t237.5 45.5q172 0 292 -74t192 -232l-215 -55q-55 83 -124.5 125.5t-154.5 42.5q-101 0 -184.5 -58.5t-133.5 -167t-50 -258.5q0 -138 43 -243t121.5 -164t182.5 -59q87 0 155 39
t107.5 113.5t39.5 181.5h51q0 -161 -38.5 -280t-120 -184t-211.5 -65zM1006 0l-32 289v220l-299 7v137h504v-653h-173zM530.038 1609.64q0 60.8311 41.6982 102.529q41.6992 41.6982 105.473 41.6982q64.7559 0 108.416 -41.6982q43.6611 -41.6982 43.6611 -102.529
q0 -59.8496 -43.6611 -100.076q-43.6602 -40.2266 -108.416 -40.2266q-63.7734 0 -105.473 40.7168q-41.6982 40.7178 -41.6982 99.5859z" />
    <glyph glyph-name="gdotaccent" unicode="&#x121;" horiz-adv-x="1154" 
d="M554 -499q-161 0 -276.5 44.5t-177.5 118t-62 159.5q0 105 77 162t195 57l148 -61q-101 0 -156 -39.5t-55 -108.5q0 -72 81 -117t226 -45q107 0 185.5 31.5t122 81.5t43.5 107q0 38 -26.5 64t-81.5 26h-339q-98 0 -175.5 31t-122.5 83t-45 115q0 61 34 104.5t91.5 67
t127.5 23.5l51 -72q-29 0 -57 -12t-45.5 -35.5t-17.5 -58.5q0 -42 35 -68.5t124 -26.5h339q149 0 234 -57t85 -171q0 -101 -68 -193.5t-194 -151t-300 -58.5zM571 294q-114 0 -207 43.5t-148.5 122t-55.5 183.5q0 106 55.5 185t148.5 122t207 43q111 0 203.5 -43t149 -122
t56.5 -185q0 -105 -56.5 -183.5t-149 -122t-203.5 -43.5zM572 443q97 0 147.5 57.5t50.5 142.5q0 90 -50.5 145t-148.5 55q-95 0 -147.5 -55t-52.5 -145q0 -85 52.5 -142.5t148.5 -57.5zM906 838l-98 53q0 86 38 151t104 101t148 36l-12 -206q-87 0 -133.5 -33t-46.5 -102z
M440.038 1291.64q0 60.8311 41.6982 102.529q41.6992 41.6982 105.473 41.6982q64.7559 0 108.416 -41.6982q43.6611 -41.6982 43.6611 -102.529q0 -59.8496 -43.6611 -100.076q-43.6602 -40.2266 -108.416 -40.2266q-63.7734 0 -105.473 40.7168
q-41.6982 40.7178 -41.6982 99.5859z" />
    <glyph glyph-name="uni0122" unicode="&#x122;" horiz-adv-x="1335" 
d="M655 -27q-156 0 -282.5 82.5t-201.5 230.5t-75 348q0 160 46.5 285.5t129.5 213t193.5 133t237.5 45.5q172 0 292 -74t192 -232l-215 -55q-55 83 -124.5 125.5t-154.5 42.5q-101 0 -184.5 -58.5t-133.5 -167t-50 -258.5q0 -138 43 -243t121.5 -164t182.5 -59q87 0 155 39
t107.5 113.5t39.5 181.5h51q0 -161 -38.5 -280t-120 -184t-211.5 -65zM1006 0l-32 289v220l-299 7v137h504v-653h-173zM620 -446l-103 53q51 25 87.5 55t50.5 72q-38 5 -62.5 28.5t-21.5 60.5q2 39 32.5 64.5t74.5 25.5q53 0 84 -38t28 -96q-3 -61 -47 -124t-123 -101z" />
    <glyph glyph-name="uni0123" unicode="&#x123;" horiz-adv-x="1154" 
d="M554 -499q-161 0 -276.5 44.5t-177.5 118t-62 159.5q0 105 77 162t195 57l148 -61q-101 0 -156 -39.5t-55 -108.5q0 -72 81 -117t226 -45q107 0 185.5 31.5t122 81.5t43.5 107q0 38 -26.5 64t-81.5 26h-339q-98 0 -175.5 31t-122.5 83t-45 115q0 61 34 104.5t91.5 67
t127.5 23.5l51 -72q-29 0 -57 -12t-45.5 -35.5t-17.5 -58.5q0 -42 35 -68.5t124 -26.5h339q149 0 234 -57t85 -171q0 -101 -68 -193.5t-194 -151t-300 -58.5zM571 294q-114 0 -207 43.5t-148.5 122t-55.5 183.5q0 106 55.5 185t148.5 122t207 43q111 0 203.5 -43t149 -122
t56.5 -185q0 -105 -56.5 -183.5t-149 -122t-203.5 -43.5zM572 443q97 0 147.5 57.5t50.5 142.5q0 90 -50.5 145t-148.5 55q-95 0 -147.5 -55t-52.5 -145q0 -85 52.5 -142.5t148.5 -57.5zM906 838l-98 53q0 86 38 151t104 101t148 36l-12 -206q-87 0 -133.5 -33t-46.5 -102z
M608 1395l103 -53q-51 -25 -87.5 -55t-50.5 -72q38 -5 62.5 -28.5t21.5 -60.5q-2 -39 -32.5 -64.5t-74.5 -25.5q-53 0 -84 38t-28 96q3 61 47 124t123 101z" />
    <glyph glyph-name="Hbar" unicode="&#x126;" horiz-adv-x="1390" 
d="M191 1286h213v-603h582v603h212v-1286h-212v497h-582v-497h-213v1286zM301 837v159h801v-159h-801z" />
    <glyph glyph-name="hbar" unicode="&#x127;" horiz-adv-x="1235" 
d="M861 0v566q0 117 -56 176.5t-149 59.5q-75 0 -132 -41.5t-88.5 -122.5t-31.5 -199h-73q0 183 46 306t131.5 185.5t203.5 62.5t198.5 -53t121.5 -149t41 -225v-566h-212zM191 0v1370h213v-1370h-213zM63 1073v143h508v-143h-508z" />
    <glyph glyph-name="Imacron" unicode="&#x12a;" horiz-adv-x="595" 
d="M191 0v1286h213v-1286h-213zM75.5527 1661h444.162v-175h-444.162v175z" />
    <glyph glyph-name="imacron" unicode="&#x12b;" horiz-adv-x="639" 
d="M208 0v969h213v-969h-213zM91.5527 1343h444.162v-175h-444.162v175z" />
    <glyph glyph-name="Iogonek" unicode="&#x12e;" horiz-adv-x="595" 
d="M191 0v1286h213v-1286h-213zM531 -328q-64 -34 -131.5 -52.5t-132.5 -18.5q-105 0 -172 47t-67 134q0 74 55 143.5t163 113.5l157 -39q-105 -39 -167 -83t-62 -98q0 -40 34 -57t77 -17q44 0 90 14t106 46z" />
    <glyph glyph-name="iogonek" unicode="&#x12f;" horiz-adv-x="639" 
d="M208 0v969h213v-969h-213zM176.038 1291.64q0 60.8311 41.6982 102.529q41.6992 41.6982 105.473 41.6982q64.7559 0 108.416 -41.6982q43.6611 -41.6982 43.6611 -102.529q0 -59.8496 -43.6611 -100.076q-43.6602 -40.2266 -108.416 -40.2266
q-63.7734 0 -105.473 40.7168q-41.6982 40.7178 -41.6982 99.5859zM547 -328q-64 -34 -131.5 -52.5t-132.5 -18.5q-105 0 -172 47t-67 134q0 74 55 143.5t163 113.5l157 -39q-105 -39 -167 -83t-62 -98q0 -40 34 -57t77 -17q44 0 90 14t106 46z" />
    <glyph glyph-name="Idotaccent" unicode="&#x130;" horiz-adv-x="595" 
d="M191 0v1286h213v-1286h-213zM160.038 1609.64q0 60.8311 41.6982 102.529q41.6992 41.6982 105.473 41.6982q64.7559 0 108.416 -41.6982q43.6611 -41.6982 43.6611 -102.529q0 -59.8496 -43.6611 -100.076q-43.6602 -40.2266 -108.416 -40.2266
q-63.7734 0 -105.473 40.7168q-41.6982 40.7178 -41.6982 99.5859z" />
    <glyph glyph-name="dotlessi" unicode="&#x131;" horiz-adv-x="639" 
d="M208 0v969h213v-969h-213z" />
    <glyph glyph-name="uni0136" unicode="&#x136;" horiz-adv-x="1281" 
d="M933 1286h293l-841 -862v293zM624 752l637 -752h-275l-511 613zM191 1286h215v-1286h-215v1286zM593 -446l-103 53q51 25 87.5 55t50.5 72q-38 5 -62.5 28.5t-21.5 60.5q2 39 32.5 64.5t74.5 25.5q53 0 84 -38t28 -96q-3 -61 -47 -124t-123 -101z" />
    <glyph glyph-name="uni0137" unicode="&#x137;" horiz-adv-x="1167" 
d="M191 0v1370h213v-1370h-213zM374 587l437 379h290l-727 -601v222zM864 0l-439 614l205 47l495 -661h-261zM536 -446l-103 53q51 25 87.5 55t50.5 72q-38 5 -62.5 28.5t-21.5 60.5q2 39 32.5 64.5t74.5 25.5q53 0 84 -38t28 -96q-3 -61 -47 -124t-123 -101z" />
    <glyph glyph-name="Lacute" unicode="&#x139;" horiz-adv-x="973" 
d="M404 1286v-1100h541v-186h-754v1286h213zM446 1434l-103 84l364 367l143 -117z" />
    <glyph glyph-name="lacute" unicode="&#x13a;" horiz-adv-x="595" 
d="M191 0v1370h213v-1370h-213zM234 1540l-103 84l364 367l143 -117z" />
    <glyph glyph-name="uni013B" unicode="&#x13b;" horiz-adv-x="973" 
d="M404 1286v-1100h541v-186h-754v1286h213zM439 -446l-103 53q51 25 87.5 55t50.5 72q-38 5 -62.5 28.5t-21.5 60.5q2 39 32.5 64.5t74.5 25.5q53 0 84 -38t28 -96q-3 -61 -47 -124t-123 -101z" />
    <glyph glyph-name="uni013C" unicode="&#x13c;" horiz-adv-x="595" 
d="M191 0v1370h213v-1370h-213zM250 -446l-103 53q51 25 87.5 55t50.5 72q-38 5 -62.5 28.5t-21.5 60.5q2 39 32.5 64.5t74.5 25.5q53 0 84 -38t28 -96q-3 -61 -47 -124t-123 -101z" />
    <glyph glyph-name="Lcaron" unicode="&#x13d;" horiz-adv-x="973" 
d="M404 1286v-1100h541v-186h-754v1286h213zM515 1432l-345 306l126 100l256 -263h-75l258 263l126 -100z" />
    <glyph glyph-name="lcaron" unicode="&#x13e;" horiz-adv-x="595" 
d="M191 0v1370h213v-1370h-213zM303 1539l-345 306l126 100l256 -263h-75l258 263l126 -100z" />
    <glyph glyph-name="Lslash" unicode="&#x141;" horiz-adv-x="973" 
d="M73 629l-33 182l529 89l33 -182zM404 1286v-1100h541v-186h-754v1286h213z" />
    <glyph glyph-name="lslash" unicode="&#x142;" horiz-adv-x="595" 
d="M62 723l-27 137l529 89l26 -137zM191 0v1370h213v-1370h-213z" />
    <glyph glyph-name="Nacute" unicode="&#x143;" horiz-adv-x="1415" 
d="M187 1286h238l603 -957h-17v957h213v-1286h-221l-637 1007h34v-1007h-213v1286zM644 1434l-103 84l364 367l143 -117z" />
    <glyph glyph-name="nacute" unicode="&#x144;" horiz-adv-x="1235" 
d="M861 0v566q0 117 -56 176.5t-149 59.5q-75 0 -132 -41.5t-88.5 -122.5t-31.5 -199h-73q0 183 46 306t131.5 185.5t203.5 62.5t198.5 -53t121.5 -149t41 -225v-566h-212zM191 0v966h185l28 -200v-766h-213zM572 1124l-103 84l364 367l143 -117z" />
    <glyph glyph-name="uni0145" unicode="&#x145;" horiz-adv-x="1415" 
d="M187 1286h238l603 -957h-17v957h213v-1286h-221l-637 1007h34v-1007h-213v1286zM660 -446l-103 53q51 25 87.5 55t50.5 72q-38 5 -62.5 28.5t-21.5 60.5q2 39 32.5 64.5t74.5 25.5q53 0 84 -38t28 -96q-3 -61 -47 -124t-123 -101z" />
    <glyph glyph-name="uni0146" unicode="&#x146;" horiz-adv-x="1235" 
d="M861 0v566q0 117 -56 176.5t-149 59.5q-75 0 -132 -41.5t-88.5 -122.5t-31.5 -199h-73q0 183 46 306t131.5 185.5t203.5 62.5t198.5 -53t121.5 -149t41 -225v-566h-212zM191 0v966h185l28 -200v-766h-213zM570 -446l-103 53q51 25 87.5 55t50.5 72q-38 5 -62.5 28.5
t-21.5 60.5q2 39 32.5 64.5t74.5 25.5q53 0 84 -38t28 -96q-3 -61 -47 -124t-123 -101z" />
    <glyph glyph-name="Ncaron" unicode="&#x147;" horiz-adv-x="1415" 
d="M187 1286h238l603 -957h-17v957h213v-1286h-221l-637 1007h34v-1007h-213v1286zM714 1432l-345 306l126 100l256 -263h-75l258 263l126 -100z" />
    <glyph glyph-name="ncaron" unicode="&#x148;" horiz-adv-x="1235" 
d="M861 0v566q0 117 -56 176.5t-149 59.5q-75 0 -132 -41.5t-88.5 -122.5t-31.5 -199h-73q0 183 46 306t131.5 185.5t203.5 62.5t198.5 -53t121.5 -149t41 -225v-566h-212zM191 0v966h185l28 -200v-766h-213zM641 1123l-345 306l126 100l256 -263h-75l258 263l126 -100z" />
    <glyph glyph-name="Eng" unicode="&#x14a;" horiz-adv-x="1415" 
d="M904 -499q-76 0 -142 17.5t-135 47.5l6 185q53 -28 109.5 -46t111.5 -18q76 0 121 45t45 150l-7 697h211v-701q0 -203 -85.5 -290t-234.5 -87zM187 1286h238l603 -957h-17v957h213v-1286l-71 -229l-787 1236h34v-1007h-213v1286z" />
    <glyph glyph-name="eng" unicode="&#x14b;" horiz-adv-x="1266" 
d="M753 -499q-75 0 -141.5 17.5t-135.5 47.5l6 185q53 -28 109.5 -46t112.5 -18q76 0 117 45t41 150v632h212v-636q0 -203 -85.5 -290t-235.5 -87zM861 0v566q0 117 -56 176.5t-149 59.5q-75 0 -132 -41.5t-88.5 -122.5t-31.5 -199h-73q0 183 46 306t131.5 185.5t203.5 62.5
t198.5 -53t121.5 -149t41 -225v-566h-212zM191 0v966h185l28 -200v-766h-213z" />
    <glyph glyph-name="Omacron" unicode="&#x14c;" horiz-adv-x="1344" 
d="M672 -27q-168 0 -298 75t-204 224t-74 371q0 226 74 374t204 221t298 73q169 0 299 -74.5t203.5 -223t73.5 -370.5q0 -225 -73.5 -374t-203.5 -222.5t-299 -73.5zM672 167q164 0 260 122.5t96 355.5q0 226 -96 350.5t-260 124.5q-162 0 -258.5 -125t-96.5 -352
q0 -232 96.5 -354t258.5 -122zM341 1661h673v-175h-673v175z" />
    <glyph glyph-name="omacron" unicode="&#x14d;" horiz-adv-x="1121" 
d="M562 -27q-132 0 -237 57t-167 170t-62 282q0 172 62 285t167 169.5t237 56.5q130 0 235 -56.5t166.5 -169.5t61.5 -285q0 -169 -61.5 -282t-166.5 -170t-235 -57zM555 159q77 0 134.5 37.5t89.5 109.5t32 176q0 159 -63.5 243t-178.5 84q-77 0 -135 -37.5t-90 -110
t-32 -179.5q0 -156 64.5 -239.5t178.5 -83.5zM225 1343h673v-175h-673v175z" />
    <glyph glyph-name="Ohungarumlaut" unicode="&#x150;" horiz-adv-x="1344" 
d="M672 -27q-168 0 -298 75t-204 224t-74 371q0 226 74 374t204 221t298 73q169 0 299 -74.5t203.5 -223t73.5 -370.5q0 -225 -73.5 -374t-203.5 -222.5t-299 -73.5zM672 167q164 0 260 122.5t96 355.5q0 226 -96 350.5t-260 124.5q-162 0 -258.5 -125t-96.5 -352
q0 -232 96.5 -354t258.5 -122zM846 1421l-108 20l33 334l152 -33zM587 1435l-112 15l13 338l155 -25z" />
    <glyph glyph-name="ohungarumlaut" unicode="&#x151;" horiz-adv-x="1121" 
d="M562 -27q-132 0 -237 57t-167 170t-62 282q0 172 62 285t167 169.5t237 56.5q130 0 235 -56.5t166.5 -169.5t61.5 -285q0 -169 -61.5 -282t-166.5 -170t-235 -57zM555 159q77 0 134.5 37.5t89.5 109.5t32 176q0 159 -63.5 243t-178.5 84q-77 0 -135 -37.5t-90 -110
t-32 -179.5q0 -156 64.5 -239.5t178.5 -83.5zM729 1103l-108 20l33 334l152 -33zM470 1117l-112 15l13 338l155 -25z" />
    <glyph glyph-name="OE" unicode="&#x152;" horiz-adv-x="1780" 
d="M646 -27q-160 0 -284 75.5t-195 225t-71 372.5q0 224 71 371.5t195.5 220.5t283.5 73q125 0 222.5 -39t153.5 -114l-126 -103q-49 30 -111.5 47.5t-127.5 17.5q-162 0 -251 -125.5t-89 -354.5q0 -226 88.5 -349.5t254.5 -123.5q68 0 127 18.5t116 49.5l119 -136
q-56 -51 -153 -88.5t-223 -37.5zM888 0v1286h739v-184h-574l43 49v-462l-43 48h538v-184h-538l43 48v-463l-43 48h574v-186h-739z" />
    <glyph glyph-name="oe" unicode="&#x153;" horiz-adv-x="1691" 
d="M540.244 -27q-125.715 0 -225.717 57q-100.001 57 -159.049 170q-59.0488 113 -59.0488 282q0 172 59.0488 285q59.0479 113 159.049 169.5q100.002 56.5 225.717 56.5q123.812 0 223.812 -56.5q100.002 -56.5 158.573 -169.5q58.5723 -113 58.5723 -285
q0 -169 -58.5723 -282q-58.5713 -113 -158.573 -170q-100.001 -57 -223.812 -57zM533.578 159q73.334 0 128.097 37.5t85.2393 109.5t30.4766 176q0 159 -60.4775 243q-60.4766 84 -170.002 84q-73.334 0 -128.573 -37.5q-55.2383 -37.5 -85.7148 -110t-30.4766 -179.5
q0 -156 61.4297 -239.5q61.4287 -83.5 170.002 -83.5zM1204.1 -27q-118.097 0 -214.765 64t-154.287 179q-57.6201 115 -57.6201 267q0 159 57.1436 273.5t153.812 175.5t215.717 61q108.572 0 187.146 -46q78.5723 -46 126.191 -124q47.6201 -78 65.2393 -176.5
t4.28516 -203.5h-646.674v119h504.768l-43.8096 -30q2.85645 51 -4.7627 102t-29.0479 94t-60.4766 69t-100.001 26q-73.334 0 -124.287 -39.5t-77.1445 -105.5q-26.1904 -66 -26.1904 -147v-86q0 -87 24.7627 -154.5q24.7617 -67.5 74.7627 -106.5q50 -39 125.239 -39
q72.3818 0 120.478 36t60.4775 107h206.669q-14.2861 -94 -66.668 -165t-134.287 -110.5t-186.669 -39.5z" />
    <glyph glyph-name="Racute" unicode="&#x154;" horiz-adv-x="1269" 
d="M191 0v1286h467q228 0 348.5 -107t120.5 -284q0 -173 -120.5 -280t-348.5 -107h-254v-508h-213zM893 0l-348 597h228l398 -597h-278zM404 653h234q133 0 202 62.5t69 161.5q0 102 -63.5 163.5t-187.5 61.5h-254v-449zM572 1434l-103 84l364 367l143 -117z" />
    <glyph glyph-name="racute" unicode="&#x155;" horiz-adv-x="767" 
d="M191 0v969h213v-969h-213zM349 428q0 188 40.5 311.5t111.5 184t162 60.5q27 0 50 -3.5t45 -10.5l-5 -212q-27 7 -58 11.5t-55 4.5q-80 0 -132.5 -40.5t-78 -118t-25.5 -187.5h-55zM412 1115l-103 84l364 367l143 -117z" />
    <glyph glyph-name="uni0156" unicode="&#x156;" horiz-adv-x="1269" 
d="M191 0v1286h467q228 0 348.5 -107t120.5 -284q0 -173 -120.5 -280t-348.5 -107h-254v-508h-213zM893 0l-348 597h228l398 -597h-278zM404 653h234q133 0 202 62.5t69 161.5q0 102 -63.5 163.5t-187.5 61.5h-254v-449zM587 -446l-103 53q51 25 87.5 55t50.5 72
q-38 5 -62.5 28.5t-21.5 60.5q2 39 32.5 64.5t74.5 25.5q53 0 84 -38t28 -96q-3 -61 -47 -124t-123 -101z" />
    <glyph glyph-name="uni0157" unicode="&#x157;" horiz-adv-x="767" 
d="M191 0v969h213v-969h-213zM349 428q0 188 40.5 311.5t111.5 184t162 60.5q27 0 50 -3.5t45 -10.5l-5 -212q-27 7 -58 11.5t-55 4.5q-80 0 -132.5 -40.5t-78 -118t-25.5 -187.5h-55zM453 -441l-103 53q51 25 87.5 55t50.5 72q-38 5 -62.5 28.5t-21.5 60.5q2 39 32.5 64.5
t74.5 25.5q53 0 84 -38t28 -96q-3 -61 -47 -124t-123 -101z" />
    <glyph glyph-name="Rcaron" unicode="&#x158;" horiz-adv-x="1269" 
d="M191 0v1286h467q228 0 348.5 -107t120.5 -284q0 -173 -120.5 -280t-348.5 -107h-254v-508h-213zM893 0l-348 597h228l398 -597h-278zM404 653h234q133 0 202 62.5t69 161.5q0 102 -63.5 163.5t-187.5 61.5h-254v-449zM641 1432l-345 306l126 100l256 -263h-75l258 263
l126 -100z" />
    <glyph glyph-name="rcaron" unicode="&#x159;" horiz-adv-x="767" 
d="M191 0v969h213v-969h-213zM349 428q0 188 40.5 311.5t111.5 184t162 60.5q27 0 50 -3.5t45 -10.5l-5 -212q-27 7 -58 11.5t-55 4.5q-80 0 -132.5 -40.5t-78 -118t-25.5 -187.5h-55zM481 1114l-345 306l126 100l256 -263h-75l258 263l126 -100z" />
    <glyph glyph-name="Sacute" unicode="&#x15a;" horiz-adv-x="1256" 
d="M628 -27q-132 0 -243 46.5t-179.5 140.5t-73.5 238h209q0 -79 39 -130t104 -75.5t142 -24.5q78 0 137.5 22t93 61t33.5 90q0 70 -42.5 110.5t-131.5 71.5l-246 95q-152 58 -232 134t-80 212q0 154 121.5 250.5t340.5 96.5q210 0 326 -98t132 -270h-209
q-14 80 -73.5 127.5t-175.5 47.5q-107 0 -168 -45.5t-61 -114.5q0 -59 38.5 -93t119.5 -64l277 -104q142 -53 219.5 -137t77.5 -212q0 -112 -57.5 -196.5t-168 -131.5t-269.5 -47zM565 1434l-103 84l364 367l143 -117z" />
    <glyph glyph-name="sacute" unicode="&#x15b;" horiz-adv-x="1054" 
d="M547 -27q-139 0 -237.5 39t-150.5 110.5t-54 170.5h198q4 -78 62 -114.5t158 -36.5q55 0 98 16.5t67.5 45t24.5 63.5q0 46 -33 72t-105 47l-204 71q-116 40 -178 107t-62 160q0 121 108.5 195t289.5 74q184 0 284 -79t103 -199h-203q-5 52 -50.5 81.5t-133.5 29.5
q-81 0 -127 -34t-46 -79q0 -78 133 -116l218 -80q116 -38 178.5 -98t62.5 -152q0 -75 -50 -142.5t-140.5 -109.5t-210.5 -42zM464 1115l-103 84l364 367l143 -117z" />
    <glyph glyph-name="Scedilla" unicode="&#x15e;" horiz-adv-x="1256" 
d="M628 -27q-132 0 -243 46.5t-179.5 140.5t-73.5 238h209q0 -79 39 -130t104 -75.5t142 -24.5q78 0 137.5 22t93 61t33.5 90q0 70 -42.5 110.5t-131.5 71.5l-246 95q-152 58 -232 134t-80 212q0 154 121.5 250.5t340.5 96.5q210 0 326 -98t132 -270h-209
q-14 80 -73.5 127.5t-175.5 47.5q-107 0 -168 -45.5t-61 -114.5q0 -59 38.5 -93t119.5 -64l277 -104q142 -53 219.5 -137t77.5 -212q0 -112 -57.5 -196.5t-168 -131.5t-269.5 -47zM434 -364l32 78q69 -34 123.5 -38.5t87 13.5t35.5 51q3 30 -21 53t-66.5 40t-96.5 29l76 210
l100 -13l-70 -192l-32 60q95 -17 155 -46.5t87.5 -68.5t24.5 -84q-4 -58 -49.5 -93t-113 -47t-140 0t-132.5 48z" />
    <glyph glyph-name="scedilla" unicode="&#x15f;" horiz-adv-x="1054" 
d="M547 -27q-139 0 -237.5 39t-150.5 110.5t-54 170.5h198q4 -78 62 -114.5t158 -36.5q55 0 98 16.5t67.5 45t24.5 63.5q0 46 -33 72t-105 47l-204 71q-116 40 -178 107t-62 160q0 121 108.5 195t289.5 74q184 0 284 -79t103 -199h-203q-5 52 -50.5 81.5t-133.5 29.5
q-81 0 -127 -34t-46 -79q0 -78 133 -116l218 -80q116 -38 178.5 -98t62.5 -152q0 -75 -50 -142.5t-140.5 -109.5t-210.5 -42zM334 -363l32 78q69 -34 123.5 -38.5t87 13.5t35.5 51q3 30 -21 53t-66.5 40t-96.5 29l76 210l100 -13l-70 -192l-32 60q95 -17 155 -46.5
t87.5 -68.5t24.5 -84q-4 -58 -49.5 -93t-113 -47t-140 0t-132.5 48z" />
    <glyph glyph-name="Scaron" unicode="&#x160;" horiz-adv-x="1256" 
d="M628 -27q-132 0 -243 46.5t-179.5 140.5t-73.5 238h209q0 -79 39 -130t104 -75.5t142 -24.5q78 0 137.5 22t93 61t33.5 90q0 70 -42.5 110.5t-131.5 71.5l-246 95q-152 58 -232 134t-80 212q0 154 121.5 250.5t340.5 96.5q210 0 326 -98t132 -270h-209
q-14 80 -73.5 127.5t-175.5 47.5q-107 0 -168 -45.5t-61 -114.5q0 -59 38.5 -93t119.5 -64l277 -104q142 -53 219.5 -137t77.5 -212q0 -112 -57.5 -196.5t-168 -131.5t-269.5 -47zM634 1432l-345 306l126 100l256 -263h-75l258 263l126 -100z" />
    <glyph glyph-name="scaron" unicode="&#x161;" horiz-adv-x="1054" 
d="M547 -27q-139 0 -237.5 39t-150.5 110.5t-54 170.5h198q4 -78 62 -114.5t158 -36.5q55 0 98 16.5t67.5 45t24.5 63.5q0 46 -33 72t-105 47l-204 71q-116 40 -178 107t-62 160q0 121 108.5 195t289.5 74q184 0 284 -79t103 -199h-203q-5 52 -50.5 81.5t-133.5 29.5
q-81 0 -127 -34t-46 -79q0 -78 133 -116l218 -80q116 -38 178.5 -98t62.5 -152q0 -75 -50 -142.5t-140.5 -109.5t-210.5 -42zM533 1114l-345 306l126 100l256 -263h-75l258 263l126 -100z" />
    <glyph glyph-name="uni0162" unicode="&#x162;" horiz-adv-x="1045" 
d="M12 1102v184h1022v-184h-452l47 49v-1151h-213v1151l48 -49h-452zM272 -361l32 78q69 -34 123.5 -38.5t87 13.5t35.5 51q3 30 -21 53t-66.5 40t-96.5 29l76 210l100 -13l-70 -192l-32 60q95 -17 155 -46.5t87.5 -68.5t24.5 -84q-4 -58 -49.5 -93t-113 -47t-140 0
t-132.5 48z" />
    <glyph glyph-name="uni0163" unicode="&#x163;" horiz-adv-x="778" 
d="M509 -27q-84 0 -152.5 31.5t-109.5 96t-41 162.5v963h213v-956q0 -128 121 -128q36 0 72 8t82 25l31 -150q-55 -22 -107 -37t-109 -15zM65 824v142h629v-142h-629zM245 -359l32 78q69 -34 123.5 -38.5t87 13.5t35.5 51q3 30 -21 53t-66.5 40t-96.5 29l76 210l100 -13
l-70 -192l-32 60q95 -17 155 -46.5t87.5 -68.5t24.5 -84q-4 -58 -49.5 -93t-113 -47t-140 0t-132.5 48z" />
    <glyph glyph-name="Tcaron" unicode="&#x164;" horiz-adv-x="1045" 
d="M12 1102v184h1022v-184h-452l47 49v-1151h-213v1151l48 -49h-452zM529 1432l-345 306l126 100l256 -263h-75l258 263l126 -100z" />
    <glyph glyph-name="tcaron" unicode="&#x165;" horiz-adv-x="778" 
d="M509 -27q-84 0 -152.5 31.5t-109.5 96t-41 162.5v963h213v-956q0 -128 121 -128q36 0 72 8t82 25l31 -150q-55 -22 -107 -37t-109 -15zM65 824v142h629v-142h-629zM391 1306l-345 306l126 100l256 -263h-75l258 263l126 -100z" />
    <glyph glyph-name="Tbar" unicode="&#x166;" horiz-adv-x="1045" 
d="M12 1102v184h1022v-184h-452l47 49v-1151h-213v1151l48 -49h-452zM163.396 514.947v173.433h687.581v-173.433h-687.581z" />
    <glyph glyph-name="tbar" unicode="&#x167;" horiz-adv-x="778" 
d="M509 -27q-84 0 -152.5 31.5t-109.5 96t-41 162.5v963h213v-956q0 -128 121 -128q36 0 72 8t82 25l31 -150q-55 -22 -107 -37t-109 -15zM65 824v142h629v-142h-629zM73.9365 528.863v159.379h575.8v-159.379h-575.8z" />
    <glyph glyph-name="Umacron" unicode="&#x16a;" horiz-adv-x="1359" 
d="M168 1286h213v-806q0 -165 83.5 -238.5t216.5 -73.5q132 0 215 73.5t83 238.5v806h213v-806q0 -162 -61.5 -275.5t-176 -172.5t-273.5 -59q-160 0 -274.5 59t-176.5 172.5t-62 275.5v806zM343 1661h673v-175h-673v175z" />
    <glyph glyph-name="umacron" unicode="&#x16b;" horiz-adv-x="1242" 
d="M838 969h213v-969h-213v969zM168 969h213v-596q0 -101 50.5 -153t140.5 -52q75 0 135.5 39.5t95.5 115t35 182.5h62q0 -173 -46 -289.5t-128 -175t-191 -58.5q-104 0 -187.5 38t-131.5 119.5t-48 213.5v616zM301 1343h673v-175h-673v175z" />
    <glyph glyph-name="Uring" unicode="&#x16e;" horiz-adv-x="1359" 
d="M168 1286h213v-806q0 -165 83.5 -238.5t216.5 -73.5q132 0 215 73.5t83 238.5v806h213v-806q0 -162 -61.5 -275.5t-176 -172.5t-273.5 -59q-160 0 -274.5 59t-176.5 172.5t-62 275.5v806zM680 1393q-62 0 -113.5 30.5t-82.5 82t-31 113.5q0 63 31 114.5t82.5 82.5
t113.5 31q63 0 114.5 -31t82.5 -82.5t31 -114.5q0 -62 -31 -113.5t-82.5 -82t-114.5 -30.5zM680 1537q35 0 59 24t24 58q0 36 -24 59.5t-59 23.5q-34 0 -58 -23.5t-24 -59.5q0 -34 24 -58t58 -24z" />
    <glyph glyph-name="uring" unicode="&#x16f;" horiz-adv-x="1242" 
d="M838 969h213v-969h-213v969zM168 969h213v-596q0 -101 50.5 -153t140.5 -52q75 0 135.5 39.5t95.5 115t35 182.5h62q0 -173 -46 -289.5t-128 -175t-191 -58.5q-104 0 -187.5 38t-131.5 119.5t-48 213.5v616zM638 1075q-62 0 -113.5 30.5t-82.5 82t-31 113.5
q0 63 31 114.5t82.5 82.5t113.5 31q63 0 114.5 -31t82.5 -82.5t31 -114.5q0 -62 -31 -113.5t-82.5 -82t-114.5 -30.5zM638 1219q35 0 59 24t24 58q0 36 -24 59.5t-59 23.5q-34 0 -58 -23.5t-24 -59.5q0 -34 24 -58t58 -24z" />
    <glyph glyph-name="Uhungarumlaut" unicode="&#x170;" horiz-adv-x="1359" 
d="M168 1286h213v-806q0 -165 83.5 -238.5t216.5 -73.5q132 0 215 73.5t83 238.5v806h213v-806q0 -162 -61.5 -275.5t-176 -172.5t-273.5 -59q-160 0 -274.5 59t-176.5 172.5t-62 275.5v806zM848 1421l-108 20l33 334l152 -33zM589 1435l-112 15l13 338l155 -25z" />
    <glyph glyph-name="uhungarumlaut" unicode="&#x171;" horiz-adv-x="1242" 
d="M838 969h213v-969h-213v969zM168 969h213v-596q0 -101 50.5 -153t140.5 -52q75 0 135.5 39.5t95.5 115t35 182.5h62q0 -173 -46 -289.5t-128 -175t-191 -58.5q-104 0 -187.5 38t-131.5 119.5t-48 213.5v616zM806 1103l-108 20l33 334l152 -33zM547 1117l-112 15l13 338
l155 -25z" />
    <glyph glyph-name="Uogonek" unicode="&#x172;" horiz-adv-x="1359" 
d="M168 1286h213v-806q0 -165 83.5 -238.5t216.5 -73.5q132 0 215 73.5t83 238.5v806h213v-806q0 -162 -61.5 -275.5t-176 -172.5t-273.5 -59q-160 0 -274.5 59t-176.5 172.5t-62 275.5v806zM963 -328q-64 -34 -131.5 -52.5t-132.5 -18.5q-105 0 -172 47t-67 134
q0 74 55 143.5t163 113.5l157 -39q-105 -39 -167 -83t-62 -98q0 -40 34 -57t77 -17q44 0 90 14t106 46z" />
    <glyph glyph-name="uogonek" unicode="&#x173;" horiz-adv-x="1242" 
d="M838 969h213v-969h-213v969zM168 969h213v-596q0 -101 50.5 -153t140.5 -52q75 0 135.5 39.5t95.5 115t35 182.5h62q0 -173 -46 -289.5t-128 -175t-191 -58.5q-104 0 -187.5 38t-131.5 119.5t-48 213.5v616zM1179 -328q-64 -34 -131.5 -52.5t-132.5 -18.5q-105 0 -172 47
t-67 134q0 74 55 143.5t163 113.5l157 -39q-105 -39 -167 -83t-62 -98q0 -40 34 -57t77 -17q44 0 90 14t106 46z" />
    <glyph glyph-name="Wcircumflex" unicode="&#x174;" horiz-adv-x="1863" 
d="M22 1286h239l317 -1098h-55l317 999h144l324 -985h-51l343 1084h239l-445 -1286h-224l-264 791h24l-267 -791h-224zM707 1424l-126 100l345 307l346 -307l-126 -100l-258 240h75z" />
    <glyph glyph-name="wcircumflex" unicode="&#x175;" horiz-adv-x="1497" 
d="M27 966h222l220 -754h-23l210 704h190l209 -706h-23l220 756h213l-318 -966h-209l-208 662h33l-205 -662h-210zM528 1095l-126 100l345 307l346 -307l-126 -100l-258 240h75z" />
    <glyph glyph-name="Ycircumflex" unicode="&#x176;" horiz-adv-x="1151" 
d="M15 1286h254l324 -573h-44l334 573h252l-460 -756v-530h-213v530zM356 1414l-126 100l345 307l346 -307l-126 -100l-258 240h75z" />
    <glyph glyph-name="ycircumflex" unicode="&#x177;" horiz-adv-x="985" 
d="M40 966h241l273 -780h-40l228 780h217l-369 -1147q-53 -164 -134.5 -241t-200.5 -77q-67 0 -130 16.5t-128 49.5v189q54 -36 105 -52.5t103 -16.5q51 0 88 29t63.5 78.5t44.5 110.5l29 95zM273 1095l-126 100l345 307l346 -307l-126 -100l-258 240h75z" />
    <glyph glyph-name="Ydieresis" unicode="&#x178;" horiz-adv-x="1151" 
d="M15 1286h254l324 -573h-44l334 573h252l-460 -756v-530h-213v530zM760 1459q-54 0 -92 35.5t-38 87.5q0 53 38 89t92 36q56 0 93.5 -36t37.5 -89q0 -52 -37.5 -87.5t-93.5 -35.5zM390 1459q-57 0 -93.5 35.5t-36.5 85.5q0 55 36.5 90t93.5 35t94.5 -35t37.5 -90
q0 -50 -37.5 -85.5t-94.5 -35.5z" />
    <glyph glyph-name="Zacute" unicode="&#x179;" horiz-adv-x="1236" 
d="M146 0v186l759 980v-78l-759 3v195h965v-184l-719 -933l-8 29l727 -3v-195h-965zM584 1434l-103 84l364 367l143 -117z" />
    <glyph glyph-name="zacute" unicode="&#x17a;" horiz-adv-x="978" 
d="M112 0v173l521 621h-521v172h757v-172l-508 -621h508v-173h-757zM426 1115l-103 84l364 367l143 -117z" />
    <glyph glyph-name="Zdotaccent" unicode="&#x17b;" horiz-adv-x="1236" 
d="M146 0v186l759 980v-78l-759 3v195h965v-184l-719 -933l-8 29l727 -3v-195h-965zM509.038 1609.64q0 60.8311 41.6982 102.529q41.6992 41.6982 105.473 41.6982q64.7559 0 108.416 -41.6982q43.6611 -41.6982 43.6611 -102.529q0 -59.8496 -43.6611 -100.076
q-43.6602 -40.2266 -108.416 -40.2266q-63.7734 0 -105.473 40.7168q-41.6982 40.7178 -41.6982 99.5859z" />
    <glyph glyph-name="zdotaccent" unicode="&#x17c;" horiz-adv-x="978" 
d="M112 0v173l521 621h-521v172h757v-172l-508 -621h508v-173h-757zM352.038 1291.64q0 60.8311 41.6982 102.529q41.6992 41.6982 105.473 41.6982q64.7559 0 108.416 -41.6982q43.6611 -41.6982 43.6611 -102.529q0 -59.8496 -43.6611 -100.076
q-43.6602 -40.2266 -108.416 -40.2266q-63.7734 0 -105.473 40.7168q-41.6982 40.7178 -41.6982 99.5859z" />
    <glyph glyph-name="Zcaron" unicode="&#x17d;" horiz-adv-x="1236" 
d="M146 0v186l759 980v-78l-759 3v195h965v-184l-719 -933l-8 29l727 -3v-195h-965zM653 1432l-345 306l126 100l256 -263h-75l258 263l126 -100z" />
    <glyph glyph-name="zcaron" unicode="&#x17e;" horiz-adv-x="978" 
d="M112 0v173l521 621h-521v172h757v-172l-508 -621h508v-173h-757zM495 1114l-345 306l126 100l256 -263h-75l258 263l126 -100z" />
    <glyph glyph-name="florin" unicode="&#x192;" horiz-adv-x="709" 
d="M19 824l10 142h545l-9 -142h-546zM-158 -422l53 166q26 -9 53 -15t53 -6q29 0 57 11.5t47 39t23 77.5l87 1242q7 102 51 166.5t112.5 95t146.5 30.5q46 0 95 -6.5t95 -17.5l-53 -165q-26 10 -53 15.5t-53 5.5q-29 0 -56.5 -11t-47 -39t-23.5 -78l-86 -1241
q-8 -102 -52.5 -167t-112 -95.5t-146.5 -30.5q-46 0 -95 6.5t-95 16.5z" />
    <glyph glyph-name="uni0218" unicode="&#x218;" horiz-adv-x="1256" 
d="M628 -27q-132 0 -243 46.5t-179.5 140.5t-73.5 238h209q0 -79 39 -130t104 -75.5t142 -24.5q78 0 137.5 22t93 61t33.5 90q0 70 -42.5 110.5t-131.5 71.5l-246 95q-152 58 -232 134t-80 212q0 154 121.5 250.5t340.5 96.5q210 0 326 -98t132 -270h-209
q-14 80 -73.5 127.5t-175.5 47.5q-107 0 -168 -45.5t-61 -114.5q0 -59 38.5 -93t119.5 -64l277 -104q142 -53 219.5 -137t77.5 -212q0 -112 -57.5 -196.5t-168 -131.5t-269.5 -47zM586 -446l-103 53q51 25 87.5 55t50.5 72q-38 5 -62.5 28.5t-21.5 60.5q2 39 32.5 64.5
t74.5 25.5q53 0 84 -38t28 -96q-3 -61 -47 -124t-123 -101z" />
    <glyph glyph-name="uni0219" unicode="&#x219;" horiz-adv-x="1054" 
d="M547 -27q-139 0 -237.5 39t-150.5 110.5t-54 170.5h198q4 -78 62 -114.5t158 -36.5q55 0 98 16.5t67.5 45t24.5 63.5q0 46 -33 72t-105 47l-204 71q-116 40 -178 107t-62 160q0 121 108.5 195t289.5 74q184 0 284 -79t103 -199h-203q-5 52 -50.5 81.5t-133.5 29.5
q-81 0 -127 -34t-46 -79q0 -78 133 -116l218 -80q116 -38 178.5 -98t62.5 -152q0 -75 -50 -142.5t-140.5 -109.5t-210.5 -42zM486 -445l-103 53q51 25 87.5 55t50.5 72q-38 5 -62.5 28.5t-21.5 60.5q2 39 32.5 64.5t74.5 25.5q53 0 84 -38t28 -96q-3 -61 -47 -124t-123 -101
z" />
    <glyph glyph-name="uni021A" unicode="&#x21a;" horiz-adv-x="1045" 
d="M12 1102v184h1022v-184h-452l47 49v-1151h-213v1151l48 -49h-452zM425 -443l-103 53q51 25 87.5 55t50.5 72q-38 5 -62.5 28.5t-21.5 60.5q2 39 32.5 64.5t74.5 25.5q53 0 84 -38t28 -96q-3 -61 -47 -124t-123 -101z" />
    <glyph glyph-name="uni021B" unicode="&#x21b;" horiz-adv-x="778" 
d="M509 -27q-84 0 -152.5 31.5t-109.5 96t-41 162.5v963h213v-956q0 -128 121 -128q36 0 72 8t82 25l31 -150q-55 -22 -107 -37t-109 -15zM65 824v142h629v-142h-629zM398 -441l-103 53q51 25 87.5 55t50.5 72q-38 5 -62.5 28.5t-21.5 60.5q2 39 32.5 64.5t74.5 25.5
q53 0 84 -38t28 -96q-3 -61 -47 -124t-123 -101z" />
    <glyph glyph-name="uni0237" unicode="&#x237;" horiz-adv-x="658" 
d="M119 -499q-76 0 -142 17.5t-135 47.5l5 185q54 -28 110.5 -46t111.5 -18q77 0 117.5 45t40.5 150v1088h212v-1092q0 -203 -85.5 -290t-234.5 -87z" />
    <glyph glyph-name="apostrophe" unicode="&#x2bc;" horiz-adv-x="442" 
d="M230 788l-158 80q64 32 111.5 72.5t62.5 94.5q-52 9 -88.5 41.5t-36.5 85.5q0 55 41.5 93t106.5 38q80 0 127 -57.5t47 -135.5q0 -90 -56 -175.5t-157 -136.5z" />
    <glyph glyph-name="circumflex" unicode="&#x2c6;" horiz-adv-x="883" 
d="M222 1104l-126 100l345 307l346 -307l-126 -100l-258 240h75z" />
    <glyph glyph-name="caron" unicode="&#x2c7;" horiz-adv-x="883" 
d="M441 1114l-345 306l126 100l256 -263h-75l258 263l126 -100z" />
    <glyph glyph-name="breve" unicode="&#x2d8;" horiz-adv-x="803" 
d="M402 1159q-142 0 -224 79.5t-82 215.5h170q0 -75 36.5 -115t98.5 -40q64 0 100 40t36 115h170q0 -136 -82 -215.5t-223 -79.5z" />
    <glyph glyph-name="dotaccent" unicode="&#x2d9;" horiz-adv-x="485" 
d="M96.0381 1292.64q0 60.8311 41.6982 102.529q41.6992 41.6982 105.473 41.6982q64.7559 0 108.416 -41.6982q43.6611 -41.6982 43.6611 -102.529q0 -59.8496 -43.6611 -100.076q-43.6602 -40.2266 -108.416 -40.2266q-63.7734 0 -105.473 40.7168
q-41.6982 40.7178 -41.6982 99.5859z" />
    <glyph glyph-name="ring" unicode="&#x2da;" horiz-adv-x="647" 
d="M323 1308q-62 0 -113.5 30.5t-82.5 82t-31 113.5q0 63 31 114.5t82.5 82.5t113.5 31q63 0 114.5 -31t82.5 -82.5t31 -114.5q0 -62 -31 -113.5t-82.5 -82t-114.5 -30.5zM323 1452q35 0 59 24t24 58q0 36 -24 59.5t-59 23.5q-34 0 -58 -23.5t-24 -59.5q0 -34 24 -58t58 -24
z" />
    <glyph glyph-name="ogonek" unicode="&#x2db;" horiz-adv-x="695" 
d="M599 -365q-64 -34 -131.5 -52.5t-132.5 -18.5q-105 0 -172 47t-67 134q0 74 55 143.5t163 113.5l157 -39q-105 -39 -167 -83t-62 -98q0 -40 34 -57t77 -17q44 0 90 14t106 46z" />
    <glyph glyph-name="tilde" unicode="&#x2dc;" horiz-adv-x="867" 
d="M182 1125l-86 52q24 115 77.5 178.5t126.5 63.5q28 0 58.5 -10.5t87.5 -39.5q54 -28 79 -39t49 -11q29 0 57 24t49 76l90 -60q-14 -69 -44 -122t-69 -82.5t-78 -29.5q-35 0 -69.5 13.5t-93.5 43.5q-50 27 -72.5 36t-43.5 9q-32 0 -61 -21.5t-57 -80.5z" />
    <glyph glyph-name="hungarumlaut" unicode="&#x2dd;" horiz-adv-x="640" 
d="M467 1103l-108 20l33 334l152 -33zM208 1117l-112 15l13 338l155 -25z" />
    <glyph glyph-name="gravecomb" unicode="&#x300;" horiz-adv-x="0" 
d="M499 1119l-404 334l144 117l363 -367z" />
    <glyph glyph-name="acutecomb" unicode="&#x301;" horiz-adv-x="0" 
d="M199 1119l-103 84l364 367l143 -117z" />
    <glyph glyph-name="uni0302" unicode="&#x302;" horiz-adv-x="0" 
d="M222 1104l-126 100l345 307l346 -307l-126 -100l-258 240h75z" />
    <glyph glyph-name="tildecomb" unicode="&#x303;" horiz-adv-x="0" 
d="M132 1125l-86 52q24 115 77.5 178.5t126.5 63.5q28 0 58.5 -10.5t87.5 -39.5q54 -28 79 -39t49 -11q29 0 57 24t49 76l90 -60q-14 -69 -44 -122t-69 -82.5t-78 -29.5q-35 0 -69.5 13.5t-93.5 43.5q-50 27 -72.5 36t-43.5 9q-32 0 -61 -21.5t-57 -80.5z" />
    <glyph glyph-name="uni0304" unicode="&#x304;" horiz-adv-x="0" 
d="M266 1343h673v-175h-673v175z" />
    <glyph glyph-name="uni0306" unicode="&#x306;" horiz-adv-x="0" 
d="M402 1159q-142 0 -224 79.5t-82 215.5h170q0 -75 36.5 -115t98.5 -40q64 0 100 40t36 115h170q0 -136 -82 -215.5t-223 -79.5z" />
    <glyph glyph-name="uni0307" unicode="&#x307;" horiz-adv-x="0" 
d="M96.0381 1292.64q0 60.8311 41.6982 102.529q41.6992 41.6982 105.473 41.6982q64.7559 0 108.416 -41.6982q43.6611 -41.6982 43.6611 -102.529q0 -59.8496 -43.6611 -100.076q-43.6602 -40.2266 -108.416 -40.2266q-63.7734 0 -105.473 40.7168
q-41.6982 40.7178 -41.6982 99.5859z" />
    <glyph glyph-name="uni0308" unicode="&#x308;" horiz-adv-x="0" 
d="M596 1141q-54 0 -92 35.5t-38 87.5q0 53 38 89t92 36q56 0 93.5 -36t37.5 -89q0 -52 -37.5 -87.5t-93.5 -35.5zM226 1141q-57 0 -93.5 35.5t-36.5 85.5q0 55 36.5 90t93.5 35t94.5 -35t37.5 -90q0 -50 -37.5 -85.5t-94.5 -35.5z" />
    <glyph glyph-name="uni030A" unicode="&#x30a;" horiz-adv-x="0" 
d="M323 1308q-62 0 -113.5 30.5t-82.5 82t-31 113.5q0 63 31 114.5t82.5 82.5t113.5 31q63 0 114.5 -31t82.5 -82.5t31 -114.5q0 -62 -31 -113.5t-82.5 -82t-114.5 -30.5zM323 1452q35 0 59 24t24 58q0 36 -24 59.5t-59 23.5q-34 0 -58 -23.5t-24 -59.5q0 -34 24 -58t58 -24
z" />
    <glyph glyph-name="uni030B" unicode="&#x30b;" horiz-adv-x="0" 
d="M467 1103l-108 20l33 334l152 -33zM208 1117l-112 15l13 338l155 -25z" />
    <glyph glyph-name="uni030C" unicode="&#x30c;" horiz-adv-x="0" 
d="M441 1114l-345 306l126 100l256 -263h-75l258 263l126 -100z" />
    <glyph glyph-name="uni0312" unicode="&#x312;" horiz-adv-x="0" 
d="M267 1395l103 -53q-51 -25 -87.5 -55t-50.5 -72q38 -5 62.5 -28.5t21.5 -60.5q-2 -39 -32.5 -64.5t-74.5 -25.5q-53 0 -84 38t-28 96q3 61 47 124t123 101z" />
    <glyph glyph-name="uni0326" unicode="&#x326;" horiz-adv-x="0" 
d="M199 -446l-103 53q51 25 87.5 55t50.5 72q-38 5 -62.5 28.5t-21.5 60.5q2 39 32.5 64.5t74.5 25.5q53 0 84 -38t28 -96q-3 -61 -47 -124t-123 -101z" />
    <glyph glyph-name="uni0327" unicode="&#x327;" horiz-adv-x="0" 
d="M96 -364l32 78q69 -34 123.5 -38.5t87 13.5t35.5 51q3 30 -21 53t-66.5 40t-96.5 29l76 210l100 -13l-70 -192l-32 60q95 -17 155 -46.5t87.5 -68.5t24.5 -84q-4 -58 -49.5 -93t-113 -47t-140 0t-132.5 48z" />
    <glyph glyph-name="uni0328" unicode="&#x328;" horiz-adv-x="0" 
d="M599 -365q-64 -34 -131.5 -52.5t-132.5 -18.5q-105 0 -172 47t-67 134q0 74 55 143.5t163 113.5l157 -39q-105 -39 -167 -83t-62 -98q0 -40 34 -57t77 -17q44 0 90 14t106 46z" />
    <glyph glyph-name="uni0394" unicode="&#x394;" horiz-adv-x="1222" 
d="M46 0l439 1286h266l424 -1286h-225l-335 1031l-343 -1031h-226zM168 0v186h864v-186h-864z" />
    <glyph glyph-name="uni03A9" unicode="&#x3a9;" horiz-adv-x="1344" 
d="M571 41q-88 0 -172.5 38t-153 113t-109 188t-40.5 263q0 226 74 374t204 221t298 73q169 0 299 -74.5t203.5 -223t73.5 -370.5q0 -152 -40.5 -265.5t-109 -188t-153.5 -111.5t-174 -37v101q60 0 119 60.5t98.5 173.5t39.5 269q0 226 -96 350.5t-260 124.5
q-162 0 -258.5 -125t-96.5 -352q0 -155 39.5 -267.5t98.5 -173t116 -60.5v-101zM96 -1v143h475v-143h-475zM771 -1v143h475v-143h-475z" />
    <glyph glyph-name="uni03BC" unicode="&#x3bc;" horiz-adv-x="1242" 
d="M838 969h213v-969h-213v969zM168 969h213v-596q0 -101 50.5 -153t140.5 -52q75 0 135.5 39.5t95.5 115t35 182.5h62q0 -173 -46 -289.5t-128 -175t-191 -58.5q-104 0 -187.5 38t-131.5 119.5t-48 213.5v616zM169 -400v1370h213v-1370h-213z" />
    <glyph glyph-name="pi" unicode="&#x3c0;" horiz-adv-x="1249" 
d="M1094 -8q-109 0 -186 48.5t-117.5 140t-40.5 220.5v566h213v-566q0 -116 54 -167.5t133 -51.5zM281 0v966h213v-966h-213zM48 783v186h1169v-186h-1169z" />
    <glyph glyph-name="Wgrave" unicode="&#x1e80;" horiz-adv-x="1863" 
d="M22 1286h239l317 -1098h-55l317 999h144l324 -985h-51l343 1084h239l-445 -1286h-224l-264 791h24l-267 -791h-224zM1077 1448l-404 334l144 117l363 -367z" />
    <glyph glyph-name="wgrave" unicode="&#x1e81;" horiz-adv-x="1497" 
d="M27 966h222l220 -754h-23l210 704h190l209 -706h-23l220 756h213l-318 -966h-209l-208 662h33l-205 -662h-210zM898 1119l-404 334l144 117l363 -367z" />
    <glyph glyph-name="Wacute" unicode="&#x1e82;" horiz-adv-x="1863" 
d="M22 1286h239l317 -1098h-55l317 999h144l324 -985h-51l343 1084h239l-445 -1286h-224l-264 791h24l-267 -791h-224zM864 1444l-103 84l364 367l143 -117z" />
    <glyph glyph-name="wacute" unicode="&#x1e83;" horiz-adv-x="1497" 
d="M27 966h222l220 -754h-23l210 704h190l209 -706h-23l220 756h213l-318 -966h-209l-208 662h33l-205 -662h-210zM685 1115l-103 84l364 367l143 -117z" />
    <glyph glyph-name="Wdieresis" unicode="&#x1e84;" horiz-adv-x="1863" 
d="M22 1286h239l317 -1098h-55l317 999h144l324 -985h-51l343 1084h239l-445 -1286h-224l-264 791h24l-267 -791h-224zM1111 1470q-54 0 -92 35.5t-38 87.5q0 53 38 89t92 36q56 0 93.5 -36t37.5 -89q0 -52 -37.5 -87.5t-93.5 -35.5zM741 1470q-57 0 -93.5 35.5t-36.5 85.5
q0 55 36.5 90t93.5 35t94.5 -35t37.5 -90q0 -50 -37.5 -85.5t-94.5 -35.5z" />
    <glyph glyph-name="wdieresis" unicode="&#x1e85;" horiz-adv-x="1497" 
d="M27 966h222l220 -754h-23l210 704h190l209 -706h-23l220 756h213l-318 -966h-209l-208 662h33l-205 -662h-210zM932 1141q-54 0 -92 35.5t-38 87.5q0 53 38 89t92 36q56 0 93.5 -36t37.5 -89q0 -52 -37.5 -87.5t-93.5 -35.5zM562 1141q-57 0 -93.5 35.5t-36.5 85.5
q0 55 36.5 90t93.5 35t94.5 -35t37.5 -90q0 -50 -37.5 -85.5t-94.5 -35.5z" />
    <glyph glyph-name="uni1E9E" unicode="&#x1e9e;" horiz-adv-x="1277" 
d="M1024 1076q0 -74 -26.5 -123t-61 -84.5t-61 -65.5t-26.5 -66q0 -39 32.5 -68.5t80.5 -59.5t96 -69t81 -95.5t33 -139.5q0 -100 -52 -174.5t-135 -115t-179 -40.5q-57 0 -127 15t-126 43l2 173q59 -40 113.5 -59t108.5 -19q58 0 93.5 21t51.5 55.5t16 76.5
q0 65 -30.5 110.5t-74.5 80t-89 67t-75 71.5t-30 93t28.5 93t66.5 73.5t66.5 75.5t28.5 99q0 75 -57 120t-152 45q-115 0 -164.5 -70.5t-49.5 -226.5v-912h-215v916q0 151 52 253.5t150 155t238 52.5q124 0 212 -38.5t134.5 -106.5t46.5 -156z" />
    <glyph glyph-name="Ygrave" unicode="&#x1ef2;" horiz-adv-x="1151" 
d="M15 1286h254l324 -573h-44l334 573h252l-460 -756v-530h-213v530zM726 1437l-404 334l144 117l363 -367z" />
    <glyph glyph-name="ygrave" unicode="&#x1ef3;" horiz-adv-x="985" 
d="M40 966h241l273 -780h-40l228 780h217l-369 -1147q-53 -164 -134.5 -241t-200.5 -77q-67 0 -130 16.5t-128 49.5v189q54 -36 105 -52.5t103 -16.5q51 0 88 29t63.5 78.5t44.5 110.5l29 95zM643 1119l-404 334l144 117l363 -367z" />
    <glyph glyph-name="endash" unicode="&#x2013;" horiz-adv-x="1020" 
d="M110 504v186h800v-186h-800z" />
    <glyph glyph-name="emdash" unicode="&#x2014;" horiz-adv-x="1511" 
d="M110 504v186h1293v-186h-1293z" />
    <glyph glyph-name="quoteleft" unicode="&#x2018;" horiz-adv-x="508" 
d="M247 781q-52 0 -91.5 27.5t-61.5 73t-22 98.5q0 91 60.5 174.5t161.5 134.5l149 -83q-63 -30 -110 -71t-66 -96q55 -8 91.5 -39t36.5 -85q0 -55 -41.5 -94.5t-106.5 -39.5z" />
    <glyph glyph-name="quoteright" unicode="&#x2019;" horiz-adv-x="508" 
d="M199 781l-149 83q63 31 111 72t64 95q-55 8 -91 40.5t-36 85.5q0 57 43 94.5t107 37.5q54 0 92.5 -27.5t58.5 -72.5t20 -99q0 -92 -60 -174t-160 -135z" />
    <glyph glyph-name="quotesinglbase" unicode="&#x201a;" horiz-adv-x="533" 
d="M230 -257l-158 80q64 32 111.5 72.5t62.5 94.5q-52 9 -88.5 41.5t-36.5 85.5q0 55 41.5 93t106.5 38q80 0 127 -57.5t47 -135.5q0 -90 -56 -175.5t-157 -136.5z" />
    <glyph glyph-name="quotedblleft" unicode="&#x201c;" horiz-adv-x="931" 
d="M645 781q-52 0 -91.5 27.5t-61.5 73t-22 98.5q0 91 60.5 174.5t161.5 134.5l149 -83q-63 -30 -110 -71t-66 -96q55 -8 91.5 -39t36.5 -85q0 -55 -41.5 -94.5t-106.5 -39.5zM247 781q-52 0 -91.5 27.5t-61.5 73t-22 98.5q0 91 60.5 174.5t161.5 134.5l149 -83
q-63 -30 -110 -71t-66 -96q55 -8 91.5 -39t36.5 -85q0 -55 -41.5 -94.5t-106.5 -39.5z" />
    <glyph glyph-name="quotedblright" unicode="&#x201d;" horiz-adv-x="919" 
d="M610 781l-149 83q63 31 111 72t64 95q-55 8 -91 40.5t-36 85.5q0 57 43 94.5t107 37.5q54 0 92.5 -27.5t58.5 -72.5t20 -99q0 -92 -60 -174t-160 -135zM221 781l-149 83q63 31 111 72t64 95q-55 8 -91 40.5t-36 85.5q0 57 43 94.5t107 37.5q54 0 92.5 -27.5t58.5 -72.5
t20 -99q0 -92 -60 -174t-160 -135z" />
    <glyph glyph-name="quotedblbase" unicode="&#x201e;" horiz-adv-x="986" 
d="M683 -257l-158 80q64 32 111.5 72.5t62.5 94.5q-52 9 -88.5 41.5t-36.5 85.5q0 55 41.5 93t106.5 38q80 0 127 -57.5t47 -135.5q0 -90 -56 -175.5t-157 -136.5zM230 -257l-158 80q64 32 111.5 72.5t62.5 94.5q-52 9 -88.5 41.5t-36.5 85.5q0 55 41.5 93t106.5 38
q80 0 127 -57.5t47 -135.5q0 -90 -56 -175.5t-157 -136.5z" />
    <glyph glyph-name="dagger" unicode="&#x2020;" horiz-adv-x="1033" 
d="M414 -252l-25 1538h255l-28 -1538h-202zM89 773v145l428 16l427 -16v-145l-427 -17z" />
    <glyph glyph-name="daggerdbl" unicode="&#x2021;" horiz-adv-x="1033" 
d="M414 -252l-25 1538h255l-28 -1538h-202zM89 773v145l428 16l427 -16v-145l-427 -17zM89 421v144l428 17l427 -17v-144l-427 -18z" />
    <glyph glyph-name="bullet" unicode="&#x2022;" horiz-adv-x="621" 
d="M53.9697 601.865q0 113.021 77.4746 190.496q77.4756 77.4756 195.966 77.4756q120.314 0 201.435 -77.4756q81.1211 -77.4746 81.1211 -190.496q0 -111.199 -81.1211 -185.939q-81.1201 -74.7412 -201.435 -74.7412q-118.49 0 -195.966 75.6523
q-77.4746 75.6514 -77.4746 185.028z" />
    <glyph glyph-name="ellipsis" unicode="&#x2026;" horiz-adv-x="1251" 
d="M51 125q0 62 42.5 104.5t107.5 42.5q66 0 110.5 -42.5t44.5 -104.5q0 -61 -44.5 -102t-110.5 -41q-65 0 -107.5 41.5t-42.5 101.5zM482 125q0 62 42.5 104.5t107.5 42.5q66 0 110.5 -42.5t44.5 -104.5q0 -61 -44.5 -102t-110.5 -41q-65 0 -107.5 41.5t-42.5 101.5z
M893 125q0 62 42.5 104.5t107.5 42.5q66 0 110.5 -42.5t44.5 -104.5q0 -61 -44.5 -102t-110.5 -41q-65 0 -107.5 41.5t-42.5 101.5z" />
    <glyph glyph-name="perthousand" unicode="&#x2030;" horiz-adv-x="2453" 
d="M413 573q-141 0 -229 100t-88 303q0 205 88 304t229 99q140 0 228 -99t88 -304q0 -203 -88 -303t-228 -100zM413 690q88 0 135.5 74.5t47.5 211.5q0 138 -47.5 212.5t-135.5 74.5q-89 0 -136.5 -74.5t-47.5 -212.5q0 -137 47.5 -211.5t136.5 -74.5zM1317 -27
q-141 0 -229 100t-88 303q0 205 88 304t229 99q140 0 228 -99t88 -304q0 -203 -88 -303t-228 -100zM1317 90q88 0 135.5 74.5t47.5 211.5q0 138 -47.5 212.5t-135.5 74.5q-89 0 -136.5 -74.5t-47.5 -212.5q0 -137 47.5 -211.5t136.5 -74.5zM2041 -27q-141 0 -229 100
t-88 303q0 205 88 304t229 99q140 0 228 -99t88 -304q0 -203 -88 -303t-228 -100zM2041 90q88 0 135.5 74.5t47.5 211.5q0 138 -47.5 212.5t-135.5 74.5q-89 0 -136.5 -74.5t-47.5 -212.5q0 -137 47.5 -211.5t136.5 -74.5zM300.802 -20.7744l971.101 1391.71h166.934
l-973.398 -1391.71h-164.636z" />
    <glyph glyph-name="guilsinglleft" unicode="&#x2039;" horiz-adv-x="752" 
d="M296 507l360 354l-147 107l-413 -431l413 -431l147 107l-360 354v-60z" />
    <glyph glyph-name="guilsinglright" unicode="&#x203a;" horiz-adv-x="752" 
d="M243 106l-147 107l360 354v-60l-360 354l147 107l413 -431z" />
    <glyph glyph-name="fraction" unicode="&#x2044;" horiz-adv-x="562" 
d="M-284.198 -20.7744l971.101 1391.71h166.934l-973.398 -1391.71h-164.636z" />
    <glyph glyph-name="uni2070" unicode="&#x2070;" horiz-adv-x="849" 
d="M425.375 475.125q-98.125 0 -172.188 45.9375t-115.625 138.75t-41.5625 233.438q0 141.25 41.5625 234.062t115.625 138.438t172.188 45.625q96.25 0 170.312 -45.625t115.625 -138.438t41.5625 -234.062q0 -140.625 -41.5625 -233.438t-115.625 -138.75
t-170.312 -45.9375zM425.375 597q91.25 0 140.625 76.5625t49.375 219.688t-49.375 220.312t-140.625 77.1875q-91.875 0 -141.562 -77.1875t-49.6875 -220.312t49.6875 -219.688t141.562 -76.5625z" />
    <glyph glyph-name="uni2074" unicode="&#x2074;" horiz-adv-x="736" 
d="M446.113 1301.74h122.894v-497.596h134.941v-109.641h-134.941v-176.508h-127.11v176.508h-395.186v97.5918zM447.921 1108.97l-248.798 -316.871h248.798v316.871z" />
    <glyph glyph-name="uni2075" unicode="&#x2075;" horiz-adv-x="778" 
d="M399.414 494.734q-80.7236 0 -143.677 28.3145q-62.9521 28.3135 -99.3984 82.832t-37.6514 132.23h129.52q0 -62.6514 43.6758 -94.2783q43.6748 -31.627 107.531 -31.627q70.4824 0 113.556 44.5791q43.0723 44.5781 43.0723 109.64q0 128.314 -168.677 128.314
h-228.315l34.9404 390.969h454.824v-117.471h-351.209l25.3018 38.5547l-23.4941 -241.569l-12.0488 12.6504q28.916 6.62695 67.7725 9.94043q38.8555 3.3125 67.7715 3.3125q121.688 0 193.376 -57.832t71.6875 -166.869q0 -75.9043 -35.543 -137.652
q-35.542 -61.748 -100.302 -97.8926q-64.7598 -36.1455 -152.713 -36.1455z" />
    <glyph glyph-name="uni2076" unicode="&#x2076;" horiz-adv-x="799" 
d="M419.728 504.734q-95.7842 0 -168.677 50.9043t-113.556 138.857t-40.6631 200.002q0 132.532 41.2656 225.605t115.664 141.869t175.002 48.7959q74.7002 0 131.93 -28.0127q57.2295 -28.0117 90.6631 -78.0127q33.4346 -50.001 37.0488 -116.869h-137.351
q-7.22949 49.3984 -35.8438 78.0137q-28.6152 28.6143 -82.2305 28.6143q-96.3867 0 -151.809 -84.0371q-55.4229 -84.0371 -55.4229 -228.617q0 -19.2773 0.904297 -42.7715q0.90332 -23.4941 3.91504 -44.5791q9.03613 75.9053 41.2656 119.278
q32.2295 43.375 79.2178 61.748q46.9893 18.374 98.1943 18.374q72.29 0 128.014 -31.627t87.3506 -86.748t31.627 -126.809q0 -72.8926 -34.9404 -127.713q-34.9404 -54.8193 -97.29 -85.543q-62.3506 -30.7236 -144.279 -30.7236zM419.728 622.206
q60.2412 0 101.809 36.1455q41.5664 36.1445 41.5664 95.1816q0 62.6514 -41.5664 97.8926q-41.5674 35.2412 -101.809 35.2412q-39.7598 0 -71.6875 -16.8672q-31.9287 -16.8682 -50.9043 -46.9893q-18.9766 -30.1201 -18.9766 -69.2773q0 -59.0371 40.9648 -95.1816
q40.9639 -36.1455 100.604 -36.1455z" />
    <glyph glyph-name="uni2077" unicode="&#x2077;" horiz-adv-x="623" 
d="M77.4346 511l359.04 651.213h-388.559v123.495h539.766v-122.29l-337.956 -652.418h-172.291z" />
    <glyph glyph-name="uni2078" unicode="&#x2078;" horiz-adv-x="849" 
d="M424.739 504.734q-97.5908 0 -169.881 29.5186t-112.652 80.4229t-40.3623 115.363q0 56.0244 29.8203 95.4824q29.8193 39.459 81.3262 60.8447t115.965 21.3857q22.8926 0 43.0732 -3.61523q20.1807 -3.61426 46.085 -10.2402v-32.5312q-53.6152 0 -95.1816 -16.5664
q-41.5674 -16.5664 -64.7607 -43.6748q-23.1924 -27.1084 -23.1924 -59.0371q0 -37.3496 25.3008 -64.458q25.3018 -27.1094 68.375 -41.2656q43.0723 -14.1572 96.085 -14.1572q94.5801 0 142.472 26.5068q47.8926 26.5059 47.8926 68.0723q0 33.1328 -23.7959 56.0254
q-23.7949 22.8916 -65.9639 39.1572l-218.678 83.7354q-39.7598 15.0605 -81.0254 42.1699q-41.2656 27.1084 -69.2773 67.4707q-28.0127 40.3613 -28.0127 95.7842q0 63.2529 34.9404 110.242q34.9395 46.9883 101.206 73.1934q66.2656 26.2051 160.242 26.2051
q83.7363 0 150.604 -28.6143q66.8682 -28.6152 106.025 -78.0137t39.1572 -113.254q0 -45.7842 -24.6992 -84.9414q-24.6992 -39.1562 -71.3867 -62.9521q-46.6865 -23.7959 -112.953 -23.7959q-21.084 0 -39.1572 3.31348q-18.0723 3.31348 -40.9639 10.542v37.9531
q42.1689 0 77.7119 13.8555t56.9287 38.8555t21.3857 58.7363q0 33.7344 -20.7842 58.7354q-20.7832 25 -57.2295 39.1572q-36.4463 14.1562 -84.6396 14.1562q-45.7832 0 -82.832 -13.2529t-58.7354 -35.2412q-21.6875 -21.9883 -21.6875 -50.3018
q0 -32.5303 22.29 -53.0127q22.2891 -20.4824 64.458 -36.748l223.497 -86.748q84.9404 -32.5303 130.725 -75.9043q45.7832 -43.374 45.7832 -119.881q0 -63.8564 -37.9521 -113.254q-37.9521 -49.3984 -110.242 -77.4111t-175.304 -28.0127z" />
    <glyph glyph-name="uni2079" unicode="&#x2079;" horiz-adv-x="807" 
d="M398.017 504.734q-78.917 0 -141.568 31.3262q-62.6514 31.3252 -99.0977 86.748q-36.4463 55.4219 -36.4463 127.712h133.736q2.41016 -59.0361 40.6641 -93.6758q38.2529 -34.6387 99.0977 -34.6387q66.8682 0 108.435 38.8555q41.5664 38.8564 60.543 108.736
q18.9756 69.8809 18.9756 163.857q0 19.8799 -0.90332 37.9521q-0.90332 18.0732 -3.91504 38.5547q-10.2412 -65.6631 -41.5674 -107.229q-31.3252 -41.5674 -77.1094 -60.8447q-45.7832 -19.2773 -100.001 -19.2773q-71.085 0 -126.508 31.3262
q-55.4219 31.3252 -87.0488 86.4463q-31.627 55.1221 -31.627 126.207q0 73.4951 34.6387 128.314q34.6387 54.8203 96.6875 85.2422q62.0498 30.4219 142.773 30.4219q68.6758 0 127.712 -27.7109q59.0371 -27.7109 102.713 -79.2178q43.6748 -51.5068 68.374 -122.894
q24.6992 -71.3857 24.6992 -159.339q0 -127.713 -34.3379 -221.087q-34.3379 -93.375 -103.616 -144.58q-69.2773 -51.2061 -175.303 -51.2061zM388.98 930.041q39.1562 0 71.6875 17.1689q32.5303 17.1689 51.8076 46.3857q19.2773 29.2178 19.2773 67.1699
q0 61.4463 -42.1689 96.9893q-42.1699 35.542 -101.809 35.542q-59.6396 0 -100.604 -35.542q-40.9648 -35.543 -40.9648 -96.9893q0 -60.8438 41.2656 -95.7842t101.508 -34.9404z" />
    <glyph glyph-name="uni2080" unicode="&#x2080;" horiz-adv-x="849" 
d="M425 -27q-147 0 -238 103.5t-91 315.5q0 211 91 314t238 103q145 0 236.5 -103t91.5 -314q0 -212 -91.5 -315.5t-236.5 -103.5zM425 95q91 0 141 76.5t50 220.5q0 143 -50 219.5t-141 76.5q-92 0 -141.5 -76.5t-49.5 -219.5q0 -144 49.5 -220.5t141.5 -76.5z" />
    <glyph glyph-name="uni2081" unicode="&#x2081;" horiz-adv-x="532" 
d="M241 779h99v-779h-129v626q-30 -16 -61 -25t-63 -9v124q40 4 78.5 19t75.5 44z" />
    <glyph glyph-name="uni2082" unicode="&#x2082;" horiz-adv-x="814" 
d="M122 0v128q0 98 46 152t132 88l157 61q54 21 80 53.5t26 80.5q0 50 -35 82.5t-99 32.5q-62 0 -103 -30t-48 -87h-142q3 76 41 126.5t103 76.5t147 26q78 0 139.5 -29.5t98 -81.5t36.5 -122q0 -89 -49 -146.5t-145 -95.5l-159 -62q-50 -19 -73.5 -44t-23.5 -64v-27h445
v-118h-574z" />
    <glyph glyph-name="uni2083" unicode="&#x2083;" horiz-adv-x="819" 
d="M409 -27q-80 0 -152 29.5t-117 86.5t-45 141h133q4 -65 54 -102.5t127 -37.5t120 36.5t43 90.5q0 53 -40 84t-127 31h-99v101h79q75 0 117 31.5t42 84.5q0 49 -35.5 81t-105.5 32q-56 0 -99.5 -22.5t-57.5 -80.5h-134q13 116 92.5 168t193.5 52q124 0 204 -60t80 -155
q0 -60 -33 -103.5t-96 -66.5q70 -22 114 -69.5t44 -119.5q0 -102 -82.5 -167t-219.5 -65z" />
    <glyph glyph-name="uni2084" unicode="&#x2084;" horiz-adv-x="736" 
d="M446 783h123v-497h134v-110h-134v-176h-127v176h-396v98zM448 591l-250 -317h250v317z" />
    <glyph glyph-name="uni2085" unicode="&#x2085;" horiz-adv-x="778" 
d="M400 -27q-81 0 -144 28.5t-99.5 82.5t-37.5 132h130q0 -63 44 -94.5t107 -31.5q71 0 113.5 45t42.5 110q0 127 -168 127h-228l35 392h454v-118h-351l25 39l-23 -241l-12 12q29 6 68 9.5t67 3.5q122 0 194 -57.5t72 -166.5q0 -76 -36 -138t-100.5 -98t-152.5 -36z" />
    <glyph glyph-name="uni2086" unicode="&#x2086;" horiz-adv-x="799" 
d="M419 -27q-96 0 -168.5 50.5t-113.5 138.5t-41 201q0 198 91 307t241 109q112 0 183 -61t77 -162h-137q-8 49 -36.5 77.5t-82.5 28.5q-95 0 -151 -83.5t-56 -228.5q0 -19 1 -42.5t4 -44.5q9 76 41 119t79.5 61t99.5 18q107 0 176.5 -68.5t69.5 -175.5q0 -109 -76.5 -176.5
t-200.5 -67.5zM419 90q60 0 102 36t42 96q0 63 -42 97.5t-102 34.5q-59 0 -100 -36.5t-41 -95.5q0 -60 41 -96t100 -36z" />
    <glyph glyph-name="uni2087" unicode="&#x2087;" horiz-adv-x="623" 
d="M77 0l360 651h-389v124h540v-122l-339 -653h-172z" />
    <glyph glyph-name="uni2088" unicode="&#x2088;" horiz-adv-x="849" 
d="M424 -27q-145 0 -234 64t-89 161q0 84 65.5 131t161.5 47q23 0 43 -3.5t46 -10.5v-32q-80 0 -131.5 -36t-51.5 -84q0 -57 55.5 -88.5t134.5 -31.5q96 0 143.5 26.5t47.5 68.5q0 33 -24 55.5t-66 39.5l-219 84q-40 15 -81 42t-69 67.5t-28 95.5q0 95 78 152.5t218 57.5
q84 0 151 -28.5t106 -78t39 -114.5q0 -68 -54.5 -119.5t-154.5 -51.5q-20 0 -38.5 3.5t-41.5 10.5v38q63 0 109.5 31t46.5 80q0 50 -45 81t-118 31q-69 0 -116 -28t-47 -70q0 -33 22.5 -53.5t63.5 -36.5l224 -86q85 -33 131 -76.5t46 -120.5q0 -95 -84.5 -156.5
t-239.5 -61.5z" />
    <glyph glyph-name="uni2089" unicode="&#x2089;" horiz-adv-x="807" 
d="M398 -27q-79 0 -141.5 31.5t-99.5 86.5t-37 127h134q3 -59 41 -93.5t99 -34.5q101 0 144.5 85.5t43.5 226.5q0 19 -0.5 37t-4.5 39q-16 -98 -76.5 -142.5t-141.5 -44.5q-107 0 -176 68.5t-69 175.5q0 110 76 177t198 67q92 0 165 -48.5t115.5 -136t42.5 -204.5
q0 -191 -77.5 -304t-235.5 -113zM388 398q59 0 101 37t42 94q0 61 -42 96.5t-101 35.5q-60 0 -101 -35.5t-41 -96.5q0 -62 41.5 -96.5t100.5 -34.5z" />
    <glyph glyph-name="uni20A8" unicode="&#x20a8;" horiz-adv-x="1194" 
d="M171 1164v122h899v-122h-899zM171 847v124h899v-124h-899zM171 616h171l648 -616h-298l-521 493v123zM242 616h63q176 0 256.5 79t80.5 196q0 118 -80.5 195.5t-256.5 77.5h-63v88h63q188 0 314.5 -46t189.5 -127.5t63 -187.5q0 -112 -56 -202.5t-181 -143t-330 -52.5
h-63v123z" />
    <glyph glyph-name="Euro" unicode="&#x20ac;" horiz-adv-x="1255" 
d="M688 -27q-168 0 -291.5 82t-192 233t-68.5 359q0 217 72 365t197 223.5t283 75.5q217 0 342.5 -107.5t164.5 -278.5l-228 -43q-33 106 -105.5 171t-173.5 65q-87 0 -160.5 -52t-117.5 -157t-44 -262q0 -145 37 -253t109 -167t176 -59q130 0 204.5 71t74.5 183h229
q0 -142 -62.5 -242t-176.5 -153.5t-269 -53.5zM43 473v124h703v-124h-703zM43 688v124h703v-124h-703z" />
    <glyph glyph-name="trademark" unicode="&#x2122;" horiz-adv-x="1390" 
d="M6 1520v92h512v-92h-227l24 24v-575h-106v575l24 -24h-227zM618 1612h153l192 -408h-9l192 408h148v-643h-108v523h17l-210 -450h-70l-209 447h10v-520h-106v643z" />
    <glyph glyph-name="oneeighth" unicode="&#x215b;" horiz-adv-x="1941" 
d="M242 1379h98v-779h-129v626q-30 -16 -61 -25t-63 -9v124q40 4 78.5 19t76.5 44zM247.802 -20.7744l971.101 1391.71h166.934l-973.398 -1391.71h-164.636zM1517 -27q-145 0 -233.5 64t-88.5 161q0 84 65 131t162 47q23 0 42.5 -3.5t46.5 -9.5v-33q-81 0 -132.5 -35.5
t-51.5 -84.5q0 -56 55.5 -88t134.5 -32q96 0 143.5 27t47.5 68q0 33 -24 56t-66 39l-218 84q-40 15 -81.5 42t-69.5 67.5t-28 95.5q0 95 78 152.5t218 57.5q85 0 151.5 -28.5t105.5 -78t39 -113.5q0 -69 -54.5 -120t-154.5 -51q-20 0 -38.5 3.5t-41.5 9.5v38q64 0 110.5 31
t46.5 81t-45.5 81t-118.5 31q-68 0 -115.5 -28.5t-47.5 -70.5q0 -32 23 -52.5t64 -37.5l224 -86q85 -33 130.5 -76.5t45.5 -119.5q0 -95 -85 -157t-239 -62z" />
    <glyph glyph-name="threeeighths" unicode="&#x215c;" horiz-adv-x="2228" 
d="M409 573q-80 0 -152 29.5t-117 87t-45 140.5h133q4 -65 54 -102.5t127 -37.5t120 36.5t43 90.5q0 53 -40 84.5t-127 31.5h-99v101h79q75 0 117 31t42 85q0 48 -35.5 80.5t-105.5 32.5q-56 0 -99.5 -23t-57.5 -81h-134q13 116 92.5 168t193.5 52q124 0 204 -59.5
t80 -155.5q0 -59 -33 -103t-96 -66q70 -23 114 -70t44 -119q0 -102 -82.5 -167.5t-219.5 -65.5zM534.802 -20.7744l971.101 1391.71h166.934l-973.398 -1391.71h-164.636zM1804 -27q-145 0 -233.5 64t-88.5 161q0 84 65 131t162 47q23 0 42.5 -3.5t46.5 -9.5v-33
q-81 0 -132.5 -35.5t-51.5 -84.5q0 -56 55.5 -88t134.5 -32q96 0 143.5 27t47.5 68q0 33 -24 56t-66 39l-218 84q-40 15 -81.5 42t-69.5 67.5t-28 95.5q0 95 78 152.5t218 57.5q85 0 151.5 -28.5t105.5 -78t39 -113.5q0 -69 -54.5 -120t-154.5 -51q-20 0 -38.5 3.5
t-41.5 9.5v38q64 0 110.5 31t46.5 81t-45.5 81t-118.5 31q-68 0 -115.5 -28.5t-47.5 -70.5q0 -32 23 -52.5t64 -37.5l224 -86q85 -33 130.5 -76.5t45.5 -119.5q0 -95 -85 -157t-239 -62z" />
    <glyph glyph-name="fiveeighths" unicode="&#x215d;" horiz-adv-x="2187" 
d="M399 573q-80 0 -143 28.5t-99.5 83t-37.5 131.5h129q0 -62 44 -94t107 -32q71 0 114 45t43 110q0 128 -169 128h-228l36 391h453v-117h-350l25 38l-24 -241l-12 12q29 7 68 10t67 3q122 0 194 -57.5t72 -166.5q0 -76 -36 -138t-100.5 -98t-152.5 -36zM492.802 -20.7744
l971.101 1391.71h166.934l-973.398 -1391.71h-164.636zM1763 -27q-145 0 -233.5 64t-88.5 161q0 84 65 131t162 47q23 0 42.5 -3.5t46.5 -9.5v-33q-81 0 -132.5 -35.5t-51.5 -84.5q0 -56 55.5 -88t134.5 -32q96 0 143.5 27t47.5 68q0 33 -24 56t-66 39l-218 84
q-40 15 -81.5 42t-69.5 67.5t-28 95.5q0 95 78 152.5t218 57.5q85 0 151.5 -28.5t105.5 -78t39 -113.5q0 -69 -54.5 -120t-154.5 -51q-20 0 -38.5 3.5t-41.5 9.5v38q64 0 110.5 31t46.5 81t-45.5 81t-118.5 31q-68 0 -115.5 -28.5t-47.5 -70.5q0 -32 23 -52.5t64 -37.5
l224 -86q85 -33 130.5 -76.5t45.5 -119.5q0 -95 -85 -157t-239 -62z" />
    <glyph glyph-name="seveneighths" unicode="&#x215e;" horiz-adv-x="2032" 
d="M77 600l360 651h-389v124h540v-122l-339 -653h-172zM338.802 -20.7744l971.101 1391.71h166.934l-973.398 -1391.71h-164.636zM1608 -27q-145 0 -233.5 64t-88.5 161q0 84 65 131t162 47q23 0 42.5 -3.5t46.5 -9.5v-33q-81 0 -132.5 -35.5t-51.5 -84.5q0 -56 55.5 -88
t134.5 -32q96 0 143.5 27t47.5 68q0 33 -24 56t-66 39l-218 84q-40 15 -81.5 42t-69.5 67.5t-28 95.5q0 95 78 152.5t218 57.5q85 0 151.5 -28.5t105.5 -78t39 -113.5q0 -69 -54.5 -120t-154.5 -51q-20 0 -38.5 3.5t-41.5 9.5v38q64 0 110.5 31t46.5 81t-45.5 81t-118.5 31
q-68 0 -115.5 -28.5t-47.5 -70.5q0 -32 23 -52.5t64 -37.5l224 -86q85 -33 130.5 -76.5t45.5 -119.5q0 -95 -85 -157t-239 -62z" />
    <glyph glyph-name="partialdiff" unicode="&#x2202;" horiz-adv-x="1118" 
d="M549 -27q-120 0 -220.5 64t-161 180t-60.5 272q0 153 57.5 266t152.5 175.5t207 62.5q115 0 200 -62.5t132 -170t47 -243.5h-70q-1 97 -40 160.5t-97.5 94t-120.5 30.5q-72 0 -129.5 -39t-90.5 -109.5t-33 -167.5t33 -168.5t90.5 -111.5t131.5 -40q80 0 134.5 44t85 119
t34.5 168q6 155 -13.5 296t-71 269t-141 243t-224.5 219l176 121q123 -108 214 -231.5t150.5 -255t88.5 -265t29 -260.5q0 -158 -39.5 -280.5t-108 -207t-156.5 -128.5t-186 -44z" />
    <glyph glyph-name="emptyset" unicode="&#x2205;" 
d="M601 141q-116 0 -211.5 56.5t-152 152t-56.5 210.5q0 116 56.5 211t152 151.5t211.5 56.5t210.5 -56.5t151.5 -151.5t57 -211q0 -115 -57 -210.5t-151.5 -152t-210.5 -56.5zM601 273q79 0 143.5 39t103.5 104t39 144t-39 143.5t-103.5 103.5t-143.5 39t-144 -39
t-104 -103.5t-39 -143.5t39 -144t104 -104t144 -39zM1010 1050l80 -81l-899 -900l-81 80z" />
    <glyph glyph-name="product" unicode="&#x220f;" horiz-adv-x="1313" 
d="M191 -473v1759h930v-1759h-212v1633l56 -59h-619l56 59v-1633h-211z" />
    <glyph glyph-name="summation" unicode="&#x2211;" horiz-adv-x="1123" 
d="M566 407l-470 694v185h931v-185h-865l119 59l517 -753h-232zM566 407h232l-517 -754l-119 58h865v-184h-931v184z" />
    <glyph glyph-name="minus" unicode="&#x2212;" horiz-adv-x="1078" 
d="M36 586h1006v-185h-1006v185z" />
    <glyph glyph-name="DivisionSlash" unicode="&#x2215;" horiz-adv-x="562" 
d="M-284.198 -20.7744l971.101 1391.71h166.934l-973.398 -1391.71h-164.636z" />
    <glyph glyph-name="radical" unicode="&#x221a;" horiz-adv-x="1205" 
d="M462 1l-213 474l75 -83l-259 -79l-55 124l398 153l201 -452h-90l496 1545h180l-562 -1682h-171z" />
    <glyph glyph-name="infinity" unicode="&#x221e;" horiz-adv-x="1352" 
d="M366 191q-76 0 -149.5 33t-122 101.5t-48.5 175.5q0 108 48.5 177t122 101.5t149.5 32.5q58 0 120 -21t118 -71t95 -139h-47q40 89 96 139t118.5 71t119.5 21q76 0 149.5 -32.5t121.5 -101.5t48 -177q0 -107 -48 -175.5t-121.5 -101.5t-149.5 -33q-57 0 -119.5 20.5
t-118 71t-95.5 138.5h47q-39 -88 -95.5 -138.5t-118.5 -71t-120 -20.5zM399 330q75 0 142 50.5t117 159.5v-77q-50 110 -117 160t-142 50q-43 0 -86 -17t-71.5 -55t-28.5 -100q0 -61 28.5 -98.5t71.5 -55t86 -17.5zM952 330q44 0 87 17.5t71 55t28 98.5q0 62 -28 100t-71 55
t-87 17q-74 0 -141 -50t-117 -160v77q50 -109 117 -159.5t141 -50.5z" />
    <glyph glyph-name="integral" unicode="&#x222b;" horiz-adv-x="966" 
d="M46 -422l54 166q26 -9 52.5 -15t52.5 -6q30 0 57.5 11.5t47 39t22.5 77.5l87 1242q7 102 51 166.5t112.5 95t146.5 30.5q46 0 95 -6.5t95 -17.5l-53 -165q-25 10 -52.5 15.5t-53.5 5.5q-29 0 -56.5 -11t-47 -39t-23.5 -78l-86 -1241q-7 -102 -51.5 -167t-112.5 -95.5
t-147 -30.5q-45 0 -94 6.5t-96 16.5z" />
    <glyph glyph-name="approxequal" unicode="&#x2248;" horiz-adv-x="1108" 
d="M238 508l-109 59q34 122 91 187.5t146 65.5q38 0 84 -13.5t117 -40.5q69 -26 106 -38.5t66 -12.5q42 0 74 25.5t58 81.5l108 -68q-36 -115 -100 -173.5t-148 -58.5q-38 0 -81 13.5t-116 40.5q-34 13 -66 24.5t-59 18t-47 6.5q-39 0 -69.5 -27t-54.5 -90zM238 130l-109 59
q34 122 91 187.5t146 65.5q38 0 84 -13.5t117 -40.5q69 -26 106 -38.5t66 -12.5q42 0 74 25.5t58 81.5l108 -69q-36 -115 -100.5 -173t-147.5 -58q-38 0 -81 13t-116 40q-34 14 -66 25.5t-59 18t-47 6.5q-39 0 -69.5 -27t-54.5 -90z" />
    <glyph glyph-name="notequal" unicode="&#x2260;" horiz-adv-x="1001" 
d="M158 388h685v-184h-685v184zM158 798h685v-185h-685v185zM275 74l314 874h140l-312 -874h-142z" />
    <glyph glyph-name="lessequal" unicode="&#x2264;" horiz-adv-x="1001" 
d="M813 279l-659 250v159l659 252l44 -171l-586 -198v75l586 -195zM147 0v161h685v-161h-685z" />
    <glyph glyph-name="greaterequal" unicode="&#x2265;" horiz-adv-x="1001" 
d="M190 279l-46 172l586 195v-75l-586 198l46 171l657 -252v-159zM169 0v161h685v-161h-685z" />
    <glyph glyph-name="lozenge" unicode="&#x25ca;" horiz-adv-x="1130" 
d="M96 643l385 643h171l382 -643l-382 -643h-171zM308 603v80l284 -494h-51l282 494v-80l-282 493h51z" />
    <glyph glyph-name="approxequal.tf" 
d="M284 508l-109 59q34 122 91 187.5t146 65.5q38 0 84 -13.5t117 -40.5q69 -26 106 -38.5t66 -12.5q42 0 74 25.5t58 81.5l108 -68q-36 -115 -100 -173.5t-148 -58.5q-38 0 -81 13.5t-116 40.5q-34 13 -66 24.5t-59 18t-47 6.5q-39 0 -69.5 -27t-54.5 -90zM284 130l-109 59
q34 122 91 187.5t146 65.5q38 0 84 -13.5t117 -40.5q69 -26 106 -38.5t66 -12.5q42 0 74 25.5t58 81.5l108 -69q-36 -115 -100.5 -173t-147.5 -58q-38 0 -81 13t-116 40q-34 14 -66 25.5t-59 18t-47 6.5q-39 0 -69.5 -27t-54.5 -90z" />
    <glyph glyph-name="asciicircum.tf" 
d="M131 451l385 745h170l383 -745h-237l-271 581h80l-273 -581h-237z" />
    <glyph glyph-name="asciitilde.tf" 
d="M270 419l-114 62q34 123 93 193t151 70q41 0 89 -13.5t123 -42.5q74 -30 114.5 -41.5t69.5 -11.5q38 0 71.5 28.5t57.5 83.5l116 -73q-39 -122 -106 -181.5t-156 -59.5q-32 0 -80.5 12.5t-122.5 43.5q-73 29 -111 40t-68 11q-36 0 -68 -27.5t-59 -93.5z" />
    <glyph glyph-name="cent.tf" 
d="M534 -214v249h177v-249h-177zM534 941v224h177v-224h-177zM626 -27q-119 0 -222.5 63t-167 178t-63.5 270q0 163 63.5 277t167 173t222.5 59q91 0 161.5 -29t120.5 -78t80 -109.5t40 -123.5l-216 -8q-19 69 -66.5 113t-121.5 44q-60 0 -114 -34t-87.5 -104t-33.5 -180
q0 -103 31 -174t84.5 -107.5t119.5 -36.5q97 0 142.5 46.5t45.5 126.5h216q0 -102 -47 -185t-137 -132t-218 -49z" />
    <glyph glyph-name="currency.tf" 
d="M600 219q-115 0 -210 56.5t-152 151.5t-57 211t57 211t152 151t210 56q116 0 210.5 -56t150.5 -151t56 -211t-56 -211t-150.5 -151.5t-210.5 -56.5zM600 411q63 0 114.5 30.5t82 82t30.5 114.5q0 64 -30.5 115.5t-82 81.5t-114.5 30t-114.5 -30t-82 -81.5t-30.5 -115.5
q0 -63 30.5 -114.5t82 -82t114.5 -30.5zM851 796l-94 94l220 219l95 -92zM338 806l-210 209l93 94l209 -209zM862 470l210 -209l-93 -95l-209 210zM338 470l92 -94l-209 -210l-93 95z" />
    <glyph glyph-name="divide.tf" 
d="M223 446v188h753v-188h-753zM598 96q-54 0 -90 35t-36 86t36 86t90 35q56 0 93 -35t37 -86t-37 -86t-93 -35zM598 737q-54 0 -90 34t-36 87q0 50 36 85.5t90 35.5q56 0 93 -35.5t37 -85.5q0 -53 -37 -87t-93 -34z" />
    <glyph glyph-name="dollar.tf" 
d="M608 -27q-102 0 -196.5 26t-169.5 78t-119 132t-44 189h210q0 -81 41.5 -132t115.5 -74.5t171 -23.5q87 0 146 24.5t88 65.5t29 89q0 62 -38 108.5t-106 68.5l-140 51v186l238 -83q138 -47 211.5 -128t73.5 -209q0 -92 -55.5 -176t-168.5 -138t-287 -54zM536 -196v1656
h156v-1656h-156zM592 573l-133 45q-163 56 -252.5 133t-89.5 213q0 154 129.5 250.5t372.5 96.5q211 0 327.5 -99.5t141.5 -268.5h-210q-11 80 -81 132.5t-181 52.5q-131 0 -199.5 -48.5t-68.5 -123.5q0 -57 34.5 -93t105.5 -60l104 -41v-189z" />
    <glyph glyph-name="eight.dnom" horiz-adv-x="848" 
d="M423 -27q-145 0 -233.5 64t-88.5 161q0 84 65 131t162 47q23 0 42.5 -3.5t46.5 -9.5v-33q-81 0 -132.5 -35.5t-51.5 -84.5q0 -56 55.5 -88t134.5 -32q96 0 143.5 27t47.5 68q0 33 -24 56t-66 39l-218 84q-40 15 -81.5 42t-69.5 67.5t-28 95.5q0 95 78 152.5t218 57.5
q85 0 151.5 -28.5t105.5 -78t39 -113.5q0 -69 -54.5 -120t-154.5 -51q-20 0 -38.5 3.5t-41.5 9.5v38q64 0 110.5 31t46.5 81t-45.5 81t-118.5 31q-68 0 -115.5 -28.5t-47.5 -70.5q0 -32 23 -52.5t64 -37.5l224 -86q85 -33 130.5 -76.5t45.5 -119.5q0 -95 -85 -157t-239 -62z
" />
    <glyph glyph-name="eight.numr" horiz-adv-x="848" 
d="M423 573q-145 0 -233.5 64t-88.5 161q0 84 65 131t162 47q23 0 42.5 -3.5t46.5 -9.5v-33q-81 0 -132.5 -35.5t-51.5 -84.5q0 -56 55.5 -88t134.5 -32q96 0 143.5 27t47.5 68q0 33 -24 56t-66 39l-218 84q-40 15 -81.5 42t-69.5 67.5t-28 95.5q0 95 78 152.5t218 57.5
q85 0 151.5 -28.5t105.5 -78t39 -113.5q0 -69 -54.5 -120t-154.5 -51q-20 0 -38.5 3.5t-41.5 9.5v38q64 0 110.5 31t46.5 81t-45.5 81t-118.5 31q-68 0 -115.5 -28.5t-47.5 -70.5q0 -32 23 -52.5t64 -37.5l224 -86q85 -33 130.5 -76.5t45.5 -119.5q0 -95 -85 -157t-239 -62z
" />
    <glyph glyph-name="eight.tf" 
d="M598 -27q-161 0 -281.5 49t-187 133.5t-66.5 191.5q0 93 49.5 158.5t134.5 101t192 35.5q38 0 71.5 -6t76.5 -17v-54q-89 0 -157.5 -27.5t-107 -72.5t-38.5 -98q0 -62 42 -107t113 -68.5t159 -23.5q158 0 237.5 44t79.5 113q0 55 -40 93t-110 65l-363 139
q-66 25 -134.5 69.5t-115 112t-46.5 159.5q0 105 58 183t168.5 121.5t265.5 43.5q140 0 251 -47.5t175.5 -129.5t64.5 -188q0 -76 -40 -141t-117.5 -104.5t-189.5 -39.5q-35 0 -64.5 5.5t-68.5 17.5v63q71 0 129.5 23t94 64.5t35.5 97.5t-34 97.5t-95 65t-141 23.5
q-76 0 -137.5 -22t-97.5 -58.5t-36 -83.5q0 -54 36.5 -88.5t107.5 -60.5l372 -144q141 -54 216.5 -126t75.5 -199q0 -106 -63 -188t-183 -128.5t-291 -46.5z" />
    <glyph glyph-name="equal.tf" 
d="M257 388h686v-184h-686v184zM257 798h686v-185h-686v185z" />
    <glyph glyph-name="Euro.tf" 
d="M677 -27q-167 0 -289 82t-188.5 233t-66.5 358q0 218 71 366t191 223.5t267 75.5q208 0 326.5 -107.5t151.5 -278.5l-228 -43q-28 106 -93.5 171t-156.5 65q-76 0 -144.5 -51.5t-112 -158.5t-43.5 -272q0 -141 32.5 -246.5t99 -163.5t168.5 -58q81 0 138.5 32t88 89.5
t30.5 132.5h229q0 -142 -60 -242t-166 -153.5t-245 -53.5zM40 473v124h657v-124h-657zM40 688v124h657v-124h-657z" />
    <glyph glyph-name="five.dnom" horiz-adv-x="777" 
d="M399 -27q-80 0 -143 28.5t-99.5 83t-37.5 131.5h129q0 -62 44 -94t107 -32q71 0 114 45t43 110q0 128 -169 128h-228l36 391h453v-117h-350l25 38l-24 -241l-12 12q29 7 68 10t67 3q122 0 194 -57.5t72 -166.5q0 -76 -36 -138t-100.5 -98t-152.5 -36z" />
    <glyph glyph-name="five.numr" horiz-adv-x="777" 
d="M399 573q-80 0 -143 28.5t-99.5 83t-37.5 131.5h129q0 -62 44 -94t107 -32q71 0 114 45t43 110q0 128 -169 128h-228l36 391h453v-117h-350l25 38l-24 -241l-12 12q29 7 68 10t67 3q122 0 194 -57.5t72 -166.5q0 -76 -36 -138t-100.5 -98t-152.5 -36z" />
    <glyph glyph-name="five.tf" 
d="M590 -27q-134 0 -238.5 47t-165 137.5t-63.5 219.5h216q0 -104 72.5 -156.5t178.5 -52.5q117 0 188.5 74t71.5 182q0 104 -70.5 158.5t-209.5 54.5h-379l58 649h755v-195h-584l42 64l-39 -401l-20 21q48 11 113 16.5t113 5.5q202 0 321 -96t119 -277q0 -126 -59 -228.5
t-166.5 -162.5t-253.5 -60z" />
    <glyph glyph-name="four.dnom" horiz-adv-x="736" 
d="M446 783h122v-497h135v-110h-135v-176h-126v176h-396v98zM447 591l-248 -317h248v317z" />
    <glyph glyph-name="four.numr" horiz-adv-x="736" 
d="M446 1383h122v-497h135v-110h-135v-176h-126v176h-396v98zM447 1191l-248 -317h248v317z" />
    <glyph glyph-name="four.tf" 
d="M714 1301h204v-881l-44 35h245v-162h-243l42 55v-348h-210v348l67 -55h-712v162zM717 1083l68 -8l-522 -673l-6 53h527l-67 -57v685z" />
    <glyph glyph-name="greater.tf" 
d="M342 63l-141 163l642 453v-90l-642 456l141 163l657 -479v-190z" />
    <glyph glyph-name="greaterequal.tf" 
d="M289 279l-46 172l586 195v-75l-586 198l46 171l657 -252v-159zM268 0v161h685v-161h-685z" />
    <glyph glyph-name="i.loclTRK" horiz-adv-x="639" 
d="M208 0v969h213v-969h-213zM176.038 1291.64q0 60.8311 41.6982 102.529q41.6992 41.6982 105.473 41.6982q64.7559 0 108.416 -41.6982q43.6611 -41.6982 43.6611 -102.529q0 -59.8496 -43.6611 -100.076q-43.6602 -40.2266 -108.416 -40.2266
q-63.7734 0 -105.473 40.7168q-41.6982 40.7178 -41.6982 99.5859z" />
    <glyph glyph-name="less.tf" 
d="M856 1208l143 -163l-644 -456v90l644 -453l-143 -163l-657 476v190z" />
    <glyph glyph-name="lessequal.tf" 
d="M912 279l-659 250v159l659 252l44 -171l-586 -198v75l586 -195zM246 0v161h685v-161h-685z" />
    <glyph glyph-name="minus.tf" 
d="M92 582h1016v-185h-1016v185z" />
    <glyph glyph-name="multiply.tf" 
d="M333 96l-149 151l266 268l-266 264l149 152l267 -267l267 267l152 -152l-269 -264l269 -268l-152 -151l-267 267z" />
    <glyph glyph-name="nine.dnom" horiz-adv-x="807" 
d="M398 -27q-79 0 -141.5 31.5t-99 87t-36.5 127.5h133q3 -59 41.5 -94t98.5 -35q101 0 144.5 85.5t43.5 226.5q0 20 -0.5 38t-4.5 39q-16 -99 -76.5 -143t-141.5 -44q-107 0 -176 68t-69 175q0 111 76 177.5t198 66.5q92 0 165 -48.5t115.5 -136t42.5 -204.5
q0 -191 -77.5 -304t-235.5 -113zM388 399q60 0 102 36.5t42 93.5q0 62 -42 97.5t-102 35.5t-101 -35.5t-41 -97.5q0 -61 41.5 -95.5t100.5 -34.5z" />
    <glyph glyph-name="nine.numr" horiz-adv-x="807" 
d="M398 573q-79 0 -141.5 31.5t-99 87t-36.5 127.5h133q3 -59 41.5 -94t98.5 -35q101 0 144.5 85.5t43.5 226.5q0 20 -0.5 38t-4.5 39q-16 -99 -76.5 -143t-141.5 -44q-107 0 -176 68t-69 175q0 111 76 177.5t198 66.5q92 0 165 -48.5t115.5 -136t42.5 -204.5
q0 -191 -77.5 -304t-235.5 -113zM388 999q60 0 102 36.5t42 93.5q0 62 -42 97.5t-102 35.5t-101 -35.5t-41 -97.5q0 -61 41.5 -95.5t100.5 -34.5z" />
    <glyph glyph-name="nine.tf" 
d="M575 -27q-131 0 -235.5 52t-165 144t-60.5 212h222q4 -98 67.5 -155.5t164.5 -57.5q112 0 181 64.5t100.5 180.5t31.5 272q0 33 -2 63t-7 64q-17 -109 -68.5 -178t-127 -101t-165.5 -32q-119 0 -210.5 52t-144.5 143.5t-53 209.5q0 122 58 213t160.5 141.5t235.5 50.5
q114 0 212.5 -46t172 -131.5t114.5 -204t41 -264.5q0 -212 -57.5 -367t-173.5 -240t-291 -85zM561 679q65 0 118.5 28.5t85 77t31.5 111.5q0 102 -69.5 161t-169.5 59q-98 0 -166.5 -59t-68.5 -161q0 -101 68.5 -159t170.5 -58z" />
    <glyph glyph-name="notequal.tf" 
d="M257 388h685v-184h-685v184zM257 798h685v-185h-685v185zM374 74l314 874h140l-312 -874h-142z" />
    <glyph glyph-name="one.dnom" horiz-adv-x="532" 
d="M242 779h98v-779h-129v626q-30 -16 -61 -25t-63 -9v124q40 4 78.5 19t76.5 44z" />
    <glyph glyph-name="one.numr" horiz-adv-x="532" 
d="M242 1379h98v-779h-129v626q-30 -16 -61 -25t-63 -9v124q40 4 78.5 19t76.5 44z" />
    <glyph glyph-name="one.tf" 
d="M247 0v166h304l-54 -54v997l59 -38q-68 -42 -134 -64t-131 -24v205q65 8 128.5 32.5t125.5 72.5h165v-1181l-57 54h307v-166h-713z" />
    <glyph glyph-name="percent.tf" 
d="M75 0l846 1286h204l-845 -1286h-205zM922 -27q-64 0 -122 29.5t-94.5 95t-36.5 175.5q0 109 36.5 174t94.5 94t122 29q65 0 123.5 -29t95 -94t36.5 -174q0 -110 -36.5 -175.5t-95 -95t-123.5 -29.5zM922 113q44 0 75 35.5t31 124.5q0 88 -31 125t-75 37q-47 0 -77.5 -37
t-30.5 -125q0 -89 30.5 -124.5t77.5 -35.5zM276 715q-63 0 -121.5 29t-95 94.5t-36.5 175.5q0 108 36.5 173.5t95 94.5t121.5 29q65 0 123 -29t95.5 -94.5t37.5 -173.5q0 -110 -37.5 -175.5t-95.5 -94.5t-123 -29zM276 852q45 0 76.5 36.5t31.5 125.5q0 88 -31.5 124
t-76.5 36t-75.5 -36t-30.5 -124q0 -89 30.5 -125.5t75.5 -36.5z" />
    <glyph glyph-name="plus.tf" 
d="M493 982h214v-398h396v-186h-396v-398h-214v398h-394v186h394v398z" />
    <glyph glyph-name="plusminus.tf" 
d="M515 1084h169v-313h286v-139h-286v-312h-169v312h-286v139h286v313zM249 161h703v-161h-703v161z" />
    <glyph glyph-name="uni20A8.tf" 
d="M151 1164v122h899v-122h-899zM151 847v124h899v-124h-899zM151 616h171l648 -616h-298l-521 493v123zM222 616h63q176 0 256.5 79t80.5 196q0 118 -80.5 195.5t-256.5 77.5h-63v88h63q188 0 314.5 -46t189.5 -127.5t63 -187.5q0 -112 -56 -202.5t-181 -143t-330 -52.5
h-63v123z" />
    <glyph glyph-name="seven.dnom" horiz-adv-x="623" 
d="M77 0l360 651h-389v124h540v-122l-339 -653h-172z" />
    <glyph glyph-name="seven.numr" horiz-adv-x="623" 
d="M77 600l360 651h-389v124h540v-122l-339 -653h-172z" />
    <glyph glyph-name="seven.tf" 
d="M146 1286h896v-203l-561 -1083h-286l596 1081h-645v205z" />
    <glyph glyph-name="six.dnom" horiz-adv-x="799" 
d="M419 -27q-96 0 -168.5 51t-113.5 138.5t-41 200.5q0 198 90.5 307t241.5 109q113 0 183.5 -61t76.5 -161h-137q-7 48 -36 77t-83 29q-95 0 -151 -84t-56 -229q0 -19 1 -42.5t4 -44.5q9 76 41 119t79 61.5t99 18.5q108 0 177.5 -69t69.5 -176q0 -109 -77 -176.5
t-200 -67.5zM419 90q61 0 102 36.5t41 95.5q0 63 -41 98t-102 35q-59 0 -100.5 -37t-41.5 -96t41.5 -95.5t100.5 -36.5z" />
    <glyph glyph-name="six.numr" horiz-adv-x="799" 
d="M419 573q-96 0 -168.5 51t-113.5 138.5t-41 200.5q0 198 90.5 307t241.5 109q113 0 183.5 -61t76.5 -161h-137q-7 48 -36 77t-83 29q-95 0 -151 -84t-56 -229q0 -19 1 -42.5t4 -44.5q9 76 41 119t79 61.5t99 18.5q108 0 177.5 -69t69.5 -176q0 -109 -77 -176.5
t-200 -67.5zM419 690q61 0 102 36.5t41 95.5q0 63 -41 98t-102 35q-59 0 -100.5 -37t-41.5 -96t41.5 -95.5t100.5 -36.5z" />
    <glyph glyph-name="six.tf" 
d="M626 -27q-160 0 -281 84.5t-188.5 230.5t-67.5 332q0 220 68.5 374.5t192 235.5t289.5 81q125 0 219.5 -46.5t150 -129.5t62.5 -194h-227q-12 82 -60 129.5t-138 47.5q-159 0 -250 -139.5t-91 -379.5q0 -32 1.5 -71t4.5 -74q14 126 67.5 198t131.5 102.5t164 30.5
q119 0 211.5 -52.5t145 -144t52.5 -210.5q0 -121 -57.5 -212t-160.5 -142t-239 -51zM626 168q99 0 168 60t69 158q0 104 -69.5 162.5t-168.5 58.5q-65 0 -118.5 -28t-85.5 -78t-32 -115q0 -98 69.5 -158t167.5 -60z" />
    <glyph glyph-name="sterling.tf" 
d="M128 129v61q74 0 105.5 43.5t31.5 132.5v515q0 140 48 235.5t137 145t211 49.5q160 0 254.5 -84.5t118.5 -251.5h-210q-10 70 -54 106.5t-109 36.5q-82 0 -132.5 -57.5t-50.5 -179.5v-501q0 -130 -75 -190.5t-275 -60.5zM66 0v190h638q100 0 144 39.5t54 120.5h232
q-7 -164 -102.5 -257t-324.5 -93h-641zM96 554v144h730v-144h-730z" />
    <glyph glyph-name="three.dnom" horiz-adv-x="819" 
d="M409 -27q-80 0 -152 29.5t-117 87t-45 140.5h133q4 -65 54 -102.5t127 -37.5t120 36.5t43 90.5q0 53 -40 84.5t-127 31.5h-99v101h79q75 0 117 31t42 85q0 48 -35.5 80.5t-105.5 32.5q-56 0 -99.5 -23t-57.5 -81h-134q13 116 92.5 168t193.5 52q124 0 204 -59.5
t80 -155.5q0 -59 -33 -103t-96 -66q70 -23 114 -70t44 -119q0 -102 -82.5 -167.5t-219.5 -65.5z" />
    <glyph glyph-name="three.numr" horiz-adv-x="819" 
d="M409 573q-80 0 -152 29.5t-117 87t-45 140.5h133q4 -65 54 -102.5t127 -37.5t120 36.5t43 90.5q0 53 -40 84.5t-127 31.5h-99v101h79q75 0 117 31t42 85q0 48 -35.5 80.5t-105.5 32.5q-56 0 -99.5 -23t-57.5 -81h-134q13 116 92.5 168t193.5 52q124 0 204 -59.5
t80 -155.5q0 -59 -33 -103t-96 -66q70 -23 114 -70t44 -119q0 -102 -82.5 -167.5t-219.5 -65.5z" />
    <glyph glyph-name="three.tf" 
d="M607 -27q-100 0 -194 27.5t-168 81.5t-118 134t-44 185h225q3 -73 42.5 -125.5t105.5 -80t151 -27.5q127 0 198.5 60t71.5 150q0 59 -29.5 102t-91 66.5t-156.5 23.5h-166v168h134q122 0 193 52t71 141q0 79 -60 133t-176 54q-94 0 -166.5 -38t-92.5 -134h-225
q15 129 79.5 209.5t167 118t230.5 37.5q135 0 241.5 -45.5t168.5 -125.5t62 -186q0 -99 -55 -171t-161 -109q118 -39 190 -117.5t72 -197.5q0 -113 -62 -200t-174 -136.5t-264 -49.5z" />
    <glyph glyph-name="two.dnom" horiz-adv-x="813" 
d="M122 0v128q0 98 45.5 152t132.5 87l156 62q54 21 80 54t26 81q0 49 -34.5 81.5t-98.5 32.5q-63 0 -104 -30t-47 -87h-142q2 76 40.5 126.5t103 76.5t147.5 26q77 0 139 -29t98.5 -81.5t36.5 -121.5q0 -90 -48.5 -147.5t-145.5 -95.5l-160 -62q-50 -19 -73 -44t-23 -64
v-27h445v-118h-574z" />
    <glyph glyph-name="two.numr" horiz-adv-x="813" 
d="M122 600v128q0 98 45.5 152t132.5 87l156 62q54 21 80 54t26 81q0 49 -34.5 81.5t-98.5 32.5q-63 0 -104 -30t-47 -87h-142q2 76 40.5 126.5t103 76.5t147.5 26q77 0 139 -29t98.5 -81.5t36.5 -121.5q0 -90 -48.5 -147.5t-145.5 -95.5l-160 -62q-50 -19 -73 -44t-23 -64
v-27h445v-118h-574z" />
    <glyph glyph-name="two.tf" 
d="M121 0v212q0 109 33.5 184t99 126t160.5 89l261 100q90 36 133.5 90t43.5 134q0 81 -57.5 135t-165.5 54q-103 0 -171.5 -49t-78.5 -144h-236q4 126 67 210.5t171 127t245 42.5q129 0 232 -49t163 -135.5t60 -201.5q0 -99 -36 -174t-107.5 -131t-177.5 -97l-266 -104
q-83 -32 -121.5 -73t-38.5 -106v-45h738v-195h-951z" />
    <glyph glyph-name="yen.tf" 
d="M487 0v530l-435 756h253l312 -573h-43l321 573h253l-448 -756v-530h-213zM250 179v122h692v-122h-692zM250 389v122h692v-122h-692z" />
    <glyph glyph-name="zero.dnom" horiz-adv-x="825" 
d="M413 -27q-141 0 -229 100t-88 303q0 205 88 304t229 99q140 0 228 -99t88 -304q0 -203 -88 -303t-228 -100zM413 90q88 0 135.5 74.5t47.5 211.5q0 138 -47.5 212.5t-135.5 74.5q-89 0 -136.5 -74.5t-47.5 -212.5q0 -137 47.5 -211.5t136.5 -74.5z" />
    <glyph glyph-name="zero.numr" horiz-adv-x="825" 
d="M413 573q-141 0 -229 100t-88 303q0 205 88 304t229 99q140 0 228 -99t88 -304q0 -203 -88 -303t-228 -100zM413 690q88 0 135.5 74.5t47.5 211.5q0 138 -47.5 212.5t-135.5 74.5q-89 0 -136.5 -74.5t-47.5 -212.5q0 -137 47.5 -211.5t136.5 -74.5z" />
    <glyph glyph-name="zero.tf" 
d="M600 -27q-156 0 -274 73.5t-184.5 222t-66.5 373.5q0 226 66.5 374.5t184.5 221.5t274 73q155 0 273.5 -73t185 -221.5t66.5 -374.5q0 -225 -66.5 -373.5t-185 -222t-273.5 -73.5zM600 168q147 0 226.5 122.5t79.5 351.5t-79.5 352.5t-226.5 123.5q-145 0 -225.5 -123.5
t-80.5 -352.5t80.5 -351.5t225.5 -122.5z" />
    </font>
</defs>
</svg>
