<?xml version="1.0" encoding="utf-8"?>
<svg xmlns="http://www.w3.org/2000/svg" xmlns:xlink="http://www.w3.org/1999/xlink" version="1.1" id="Ebene_1" x="0px" y="0px" viewBox="0 0 110 32" style="enable-background:new 0 0 110 32;" xml:space="preserve" width="130" height="38">
<style type="text/css">
	.st0{clip-path:url(#SVGID_2_);fill:#333333;}
</style>
<g>
	<defs>
		<rect id="SVGID_1_" x="2" y="6.8" width="105.9" height="18.4"/>
	</defs>
	<clipPath id="SVGID_2_">
		<use xlink:href="#SVGID_1_" style="overflow:visible;"/>
	</clipPath>
	<path class="st0" d="M12.7,16c0,1,0.8,1.7,1.7,1.7c1,0,1.7-0.8,1.7-1.7c0-1-0.8-1.7-1.7-1.7C13.5,14.3,12.7,15,12.7,16 M20.8,16   c0,1.7,1.3,3,3,3c1.6,0,3-1.3,3-3c0-1.7-1.3-3-3-3C22.2,13,20.8,14.3,20.8,16 M31.5,16c0,1,0.8,1.7,1.7,1.7c1,0,1.7-0.8,1.7-1.7   c0-1-0.8-1.7-1.7-1.7C32.2,14.3,31.5,15,31.5,16 M2.1,16.1c0-0.2,0-0.3,0.1-0.4c0.1-0.1-0.1,0.1,2.4-2.5c0.2-0.2,0.6-0.2,0.9,0   c0.2,0.2,0.2,0.6,0,0.9l-1.3,1.3l7.5,0c0.3-1.3,1.5-2.4,2.9-2.4c1.4,0,2.6,1,2.9,2.4h2.3c0.3-2,2-3.6,4.2-3.6   c2.1,0,3.9,1.6,4.2,3.6h2.3c0.3-1.3,1.5-2.4,2.9-2.4c1.4,0,2.6,1,2.9,2.4h8c0.3,0,0.6,0.3,0.6,0.6c0,0.3-0.3,0.6-0.6,0.6h-8   C35.8,18,34.6,19,33.2,19c-1.4,0-2.6-1-2.9-2.4l-2.3,0c-0.3,2-2,3.6-4.2,3.6c-2.1,0-3.9-1.6-4.2-3.6l-2.3,0   C17.1,18,15.9,19,14.5,19c-1.4,0-2.6-1-2.9-2.4H4.1l1.3,1.3c0.4,0.4,0.1,1-0.4,1c-0.2,0-0.3-0.1-0.4-0.2   C2.1,16.3,2.1,16.4,2.1,16.1 M44.5,18.4c-0.2-0.2-0.6-0.2-0.9,0l-3.3,3.3h-32c-0.3,0-0.6,0.3-0.6,0.6c0,0.3,0.3,0.6,0.6,0.6h32.2   c0.2,0,0.3-0.1,0.4-0.2l3.4-3.5C44.7,19.1,44.7,18.7,44.5,18.4 M8.4,19.9l1.6,0c0.3,0,0.6-0.3,0.6-0.6c0-0.4-0.4-0.6-0.6-0.6   l-1.6,0c-0.3,0-0.6,0.3-0.6,0.6C7.8,19.7,8.1,19.9,8.4,19.9 M51.3,23.4l-3.7-3.7c-0.2-0.2-0.6-0.2-0.9,0c-0.2,0.2-0.2,0.6,0,0.9   l3.7,3.7c0.2,0.2,0.6,0.2,0.9,0C51.5,24.1,51.5,23.7,51.3,23.4 M22.6,17.3c0.2,0.2,0.6,0.2,0.9,0l0.4-0.4l0.4,0.4   c0.1,0.1,0.3,0.2,0.4,0.2c0.5,0,0.8-0.7,0.4-1L24.7,16l0.4-0.4c0.2-0.2,0.2-0.6,0-0.9c-0.2-0.2-0.6-0.2-0.9,0l-0.4,0.4l-0.4-0.4   c-0.2-0.2-0.6-0.2-0.9,0c-0.2,0.2-0.2,0.6,0,0.9L23,16l-0.4,0.4C22.3,16.6,22.3,17,22.6,17.3 M14.4,16.6L14.4,16.6   c0.4,0,0.7-0.3,0.7-0.6c0-0.3-0.3-0.6-0.6-0.6h-0.1c-0.3,0-0.6,0.3-0.6,0.6C13.8,16.3,14.1,16.6,14.4,16.6 M8.4,13.3l1.6,0   c0.4,0,0.6-0.4,0.6-0.6c0-0.3-0.3-0.6-0.6-0.6l-1.6,0c-0.4,0-0.6,0.4-0.6,0.6C7.8,13,8,13.3,8.4,13.3 M33.1,16.6L33.1,16.6   c0.4,0,0.7-0.3,0.7-0.6c0-0.3-0.3-0.6-0.6-0.6h-0.1c-0.3,0-0.6,0.3-0.6,0.6C32.5,16.3,32.8,16.6,33.1,16.6 M37.2,13.3l9.1,0   c0.2,0,0.3-0.1,0.4-0.2l2.4-2.4c0.2-0.2,0.2-0.6,0-0.9c-0.2-0.2-0.6-0.2-0.9,0L46,12.1l-8.9,0c-0.3,0-0.6,0.3-0.6,0.6   C36.6,13,36.8,13.3,37.2,13.3 M40.3,19.9c0.3,0,0.6-0.3,0.6-0.6c0-0.3-0.3-0.6-0.6-0.6c-2.5,0-3.1,0-3.2,0c-0.3,0-0.6,0.3-0.6,0.6   c0,0.3,0.3,0.6,0.6,0.6C37.9,19.9,40.4,19.9,40.3,19.9 M101.6,21.7h-32l-3.3-3.3c-0.2-0.2-0.6-0.2-0.9,0c-0.2,0.2-0.2,0.6,0,0.9   l3.4,3.5c0.1,0.1,0.3,0.2,0.4,0.2h32.2c0.3,0,0.6-0.3,0.6-0.6C102.2,22,102,21.7,101.6,21.7 M100,13.3l1.6,0c0.3,0,0.6-0.3,0.6-0.6   c0-0.4-0.4-0.6-0.6-0.6l-1.6,0c-0.3,0-0.6,0.3-0.6,0.6C99.4,13.1,99.8,13.3,100,13.3 M95.5,16.6L95.5,16.6c0.4,0,0.7-0.3,0.7-0.6   c0-0.3-0.3-0.6-0.6-0.6h-0.1c-0.3,0-0.6,0.3-0.6,0.6C94.9,16.3,95.2,16.6,95.5,16.6 M75.1,16c0,1,0.8,1.7,1.7,1.7   c1,0,1.7-0.8,1.7-1.7c0-1-0.8-1.7-1.7-1.7C75.9,14.3,75.1,15,75.1,16 M83.2,16c0,2.7,3.2,4,5.1,2.1c1.9-1.9,0.5-5.1-2.1-5.1   C84.5,13,83.2,14.3,83.2,16 M93.8,16c0,1,0.8,1.7,1.7,1.7c1,0,1.7-0.8,1.7-1.7c0-1-0.8-1.7-1.7-1.7C94.6,14.3,93.8,15,93.8,16    M66,15.4h8c0.3-1.3,1.5-2.4,2.9-2.4s2.6,1,2.9,2.4H82c0.3-2,2-3.6,4.2-3.6c2.1,0,3.9,1.6,4.2,3.6h2.3c0.3-1.3,1.5-2.4,2.9-2.4   c1.4,0,2.6,1,2.9,2.4l7.5,0l-1.3-1.3c-0.2-0.2-0.2-0.6,0-0.9c0.2-0.2,0.6-0.2,0.9,0c2.6,2.6,2.4,2.4,2.4,2.4c0,0,0.1,0.1,0.1,0.3   c0,0,0,0.1-0.1,0.3c-0.1,0.1,0.1-0.1-2.4,2.5c-0.2,0.2-0.6,0.2-0.9,0c-0.2-0.2-0.2-0.6,0-0.9l1.3-1.3h-7.5C98.1,18,96.9,19,95.5,19   s-2.6-1-2.9-2.4l-2.3,0c-0.3,2.1-2,3.6-4.2,3.6c-2.1,0-3.9-1.6-4.2-3.6l-2.3,0C79.4,18,78.2,19,76.8,19c-1.4,0-2.6-1-2.9-2.4h-8   c-0.3,0-0.6-0.3-0.6-0.6C65.4,15.7,65.6,15.4,66,15.4 M84.9,17.3c0.2,0.2,0.6,0.2,0.9,0l0.4-0.4l0.4,0.4c0.1,0.1,0.3,0.2,0.4,0.2   c0.5,0,0.8-0.7,0.4-1L87,16l0.4-0.4c0.2-0.2,0.2-0.6,0-0.9c-0.2-0.2-0.6-0.2-0.9,0l-0.4,0.4l-0.4-0.4c-0.2-0.2-0.6-0.2-0.9,0   c-0.2,0.2-0.2,0.6,0,0.9l0.4,0.4l-0.4,0.4C84.7,16.6,84.7,17,84.9,17.3 M76.8,16.6L76.8,16.6c0.4,0,0.7-0.3,0.7-0.6   c0-0.3-0.3-0.6-0.6-0.6h-0.1c-0.3,0-0.6,0.3-0.6,0.6C76.2,16.3,76.4,16.6,76.8,16.6 M63.3,19.7c-0.2-0.2-0.6-0.2-0.9,0l-3.7,3.7   c-0.4,0.4-0.1,1,0.4,1c0.2,0,0.3-0.1,0.4-0.2l3.7-3.7C63.5,20.4,63.5,20,63.3,19.7 M69.7,18.7c-0.3,0-0.6,0.3-0.6,0.6   c0,0.3,0.3,0.6,0.6,0.6c0.1,0,0.5,0,3.2,0c0.3,0,0.6-0.3,0.6-0.6c0-0.3-0.3-0.6-0.6-0.6C72.8,18.7,72.3,18.7,69.7,18.7 M47.9,16.6   l6.5,6.5v-3.7c-1.4-0.3-2.6-1.4-2.8-2.8H47.9z M47.9,15.4h3.6c0.3-1.4,1.4-2.6,2.8-2.8V8.9L47.9,15.4z M52.7,16   c0,1.3,1,2.3,2.3,2.3s2.3-1,2.3-2.3s-1-2.3-2.3-2.3S52.7,14.7,52.7,16 M55.6,12.6c1.4,0.3,2.6,1.4,2.8,2.8h3.6l-6.5-6.5V12.6z    M62.1,16.6h-3.6c-0.3,1.4-1.4,2.6-2.8,2.8v3.7L62.1,16.6z M46,15.6c9.1-9.1,8.6-8.7,8.7-8.7c0.1-0.1,0.3-0.1,0.5,0   c0.2,0.1-0.4-0.4,8.7,8.7c0.2,0.2,0.2,0.4,0.1,0.7c-0.1,0.2,0.4-0.4-8.7,8.8c-0.2,0.2-0.6,0.2-0.9,0c-9.1-9.1-8.6-8.6-8.7-8.8   C45.8,16,45.9,15.7,46,15.6 M55,16.6L55,16.6c0.4,0,0.7-0.3,0.7-0.6c0-0.3-0.3-0.6-0.6-0.6H55c-0.3,0-0.6,0.3-0.6,0.6   C54.4,16.3,54.6,16.6,55,16.6 M63.7,13.3l9.1,0v-1.2l-8.9,0l-2.3-2.3l-0.9,0.9l2.4,2.4C63.4,13.3,63.5,13.3,63.7,13.3 M102.2,19.2   c0,0.3-0.3,0.6-0.6,0.6c0,0,0,0-1.6,0c-0.3,0-0.6-0.3-0.6-0.6c0-0.3,0.3-0.6,0.6-0.6c0,0,0,0,1.6,0C102,18.6,102.2,18.9,102.2,19.2   "/>
</g>
</svg>
