<?xml version="1.0" encoding="utf-8"?>
<!-- Generator: Adobe Illustrator 24.3.0, SVG Export Plug-In . SVG Version: 6.00 Build 0)  -->
<svg version="1.1" id="Ebene_1" xmlns="http://www.w3.org/2000/svg" xmlns:xlink="http://www.w3.org/1999/xlink" x="0px" y="0px"
	 viewBox="0 0 454.5 682.9" style="enable-background:new 0 0 454.5 682.9;" xml:space="preserve">
<style type="text/css">
	.st0{fill:#EDE9EA;}
</style>
<g id="Ebene_2_1_">
	<g id="Ebene_1-2">
		<g>
			<g>
				<g>
					<path class="st0" d="M245.2,683c-35.9,0-60.1-21-60.1-52.3v-29.9c-35.6-7.6-61.5-37.5-61.8-74.3h-15.6v-53.8H72.9v53.7H28.8
						V379.3h44.1V431h34.9v-30H89.6V253.8h13l-14.4-27.9h-9.5v45.8H34.6V124.5H95c4.5,0,8.8,0.4,12.9,1.1V41.8H72.7V0h114.5v41.8
						H152v105.4h-8.6c5.6,8.1,8.8,18,8.8,29.2c0,16.9-8.3,31.6-22.8,40.5l29.7,54.8h-25.5v87.5h31V253.8h25.5
						c-0.8-0.7-1.5-1.4-2.3-2.2c-14.2-14.2-22-33.2-21.9-53.5c0-27.6,14.3-51.3,36.4-64.9V0h44.1v121.2c44.4,0.3,79.1,34,79.1,76.9
						c0,37.3-26.3,67.7-62.4,75.1v19.9h-54.5v14.4h49.1v38.9h-49.1v14.9h55.5V401H151.8v65.5c13.8-11,31.6-17.6,51.3-17.6
						c17.7,0,33.9,5.3,47,14.4v-48.6h94.2v41.8h-50.1v17.6h49.1v41.8h-49.1v18.2h11.1v96.7C305.3,662,281.1,683,245.2,683z
						 M186.5,601.1v29.6c0,30.4,23.6,50.9,58.7,50.9s58.7-20.4,58.7-50.8v-95.3h-9.7v26.4h-20.3c-2.8,5.2-6.3,10.1-10.3,14.5v49.8
						c0,11-6.4,16.8-18.4,16.8s-18.4-5.8-18.4-16.8v-26.8c-7.5,2.2-15.5,3.3-23.8,3.3C197.3,602.7,191.8,602.2,186.5,601.1z
						 M228.2,598.9v27.3c0,10.2,5.7,15.4,17,15.4s17-5.2,17-15.4v-48.3C253.1,587.5,241.5,594.8,228.2,598.9z M186.5,599.7
						c5.3,1.1,10.8,1.6,16.5,1.6c8.3,0,16.3-1.2,23.8-3.4v-43.6c-6.3,4.8-14.5,7.6-23.7,7.6c-6.1,0-11.7-1.2-16.6-3.4V599.7z
						 M124.7,526.5c0.3,36.1,25.6,65.3,60.4,72.9v-41.6c-11.7-5.9-19.2-17.6-19.2-32c0-20.6,16-36.1,37.2-36.1s37.2,15.5,37.2,36.1
						c0,11.3-4.5,20.9-12.1,27.3v44.3c13.4-4.2,25-11.7,34-21.6v-14h-12.1V465c-13-9.3-29.2-14.7-47-14.7c-19.8,0-37.6,6.7-51.3,18
						v58.2H124.7z M263.6,561.9v12.4c3.3-3.8,6.2-8,8.7-12.4H263.6z M274.6,560.5h18.2v-25h-10.5
						C281.2,544.4,278.5,552.8,274.6,560.5z M263.6,560.5h9.4c4-7.6,6.7-16.1,7.9-25h-17.3V560.5z M251.5,560.5h10.7v-26.4h18.9
						c0.3-2.7,0.4-5.5,0.4-8.3c0-24.6-11.6-46.1-30-59.8V560.5z M186.5,556.9c4.9,2.3,10.5,3.6,16.6,3.6c9.3,0,17.5-3,23.7-8v-17.1
						h-40.3V556.9z M203.1,491.1c-20.7,0-35.8,14.6-35.8,34.7c0,13.6,6.9,24.7,17.8,30.4V534h43.1v17.2c6.7-6.2,10.7-15.1,10.7-25.4
						C238.9,505.7,223.8,491.1,203.1,491.1z M282.5,534.1h10.3v-19.6h49.1v-39h-49.1v-20.4h50.1v-39h-91.4v48.2
						c19.2,13.9,31.4,36.1,31.4,61.5C282.9,528.6,282.7,531.4,282.5,534.1z M124.7,525.1h25.7v-55.7
						C134.7,483,124.9,502.8,124.7,525.1z M109.1,525.1h14.2c0.2-23.2,10.6-43.6,27.1-57.5V401h-41.2v31.4H71.5v-51.7H30.2V525h41.3
						v-53.7h37.6V525.1z M182.7,399.6h80.1v-36.9h-55.5V345h49.1v-36.1h-49.1v-17.2h54.5v-18.2c-5.2,1-10.5,1.5-16,1.5
						c-20.5,0-39.5-7-54.1-19.8h-25.6v104h16.6V399.6z M166.1,399.6h15.2v-39h-15.2V399.6z M151.8,399.6h12.9v-39h-32.4v-88.9h-20.4
						l-8.5-16.5H91v144.4h16.8v-20.3h44V399.6z M109.2,399.6h41.2v-18.9h-41.2V399.6z M193.9,255.2c14.2,11.9,32.4,18.4,51.9,18.4
						c5.5,0,10.9-0.5,16-1.5v-16.9H193.9z M192.3,253.8h70.9v18c35.3-7.4,61-37.2,61-73.7c0-42.1-34.1-75.2-77.7-75.5v24.6h-44.1
						v-12.3c-21.2,13.4-35,36.5-35,63.2v0c0,19.9,7.6,38.6,21.5,52.5C190,251.7,191.1,252.8,192.3,253.8z M133.7,270.3h23.1
						l-29.3-54l0.6-0.3c14.4-8.5,22.7-23,22.7-39.6c0-11.2-3.3-21.2-9.1-29.2h-33.8V127c-4.1-0.7-8.4-1.1-12.9-1.1H36v144.4h41.3
						v-45.8H89l15.2,29.3h29.5V270.3z M112.7,270.3h19.6v-15.1h-27.4L112.7,270.3z M203.8,145.8h41.3v-23.2
						c-15.3,0.1-29.4,4.3-41.3,11.4V145.8z M142.4,145.8h8.2V40.4h35.2v-39H74.1v39h35.2v85.5C123.4,128.7,134.9,135.8,142.4,145.8z
						 M109.3,145.8h31.4c-7.3-9.3-18.1-15.8-31.4-18.5V145.8z M203.8,1.4v131c11.9-7,26.1-11.1,41.3-11.2V1.4H203.8z M454.5,679.6
						h-47.9l-20.4-34l-20.6,34h-47.9l44.5-73.6l-43.5-72h47.9l19.6,32.3l19.4-32.3h47.9l-43.4,72L454.5,679.6z M407.4,678.2h44.7
						L408.5,606l42.6-70.6h-44.7L386.2,569l-20.4-33.7h-44.7l42.7,70.6l-0.2,0.4l-43.5,71.8h44.7l21.4-35.3L407.4,678.2z
						 M77.5,679.6H34.4V575.4H0V534h111.9v41.4H77.5V679.6z M35.8,678.2h40.3V574h34.4v-38.6H1.4V574h34.4V678.2z M438.1,401h-47.3
						l-23.7-45.8h-9.6V401h-44V253.8H374c33.7,0,57.2,21.3,57.2,51.9c0,16.9-8.3,31.6-22.8,40.5L438.1,401z M391.6,399.6h44.1
						l-29.2-54l0.6-0.3c14.4-8.5,22.7-23,22.7-39.6c0-29.7-22.9-50.5-55.8-50.5h-59.1v144.4h41.2v-45.8h11.8L391.6,399.6z
						 M373.6,320.6c-0.2,0-0.4,0-0.5,0h-16.9v-28.4h16.9c9.4,0,15.4,5.7,15.4,14.4c0,4.1-1.3,7.6-3.8,10.1
						C382,319.2,378.2,320.6,373.6,320.6z M357.6,319.2h15.5c4.5,0.1,8.1-1.1,10.6-3.5c2.2-2.2,3.4-5.3,3.4-9.1c0-8-5.4-13-14-13
						h-15.5V319.2z M245.8,234.2c-21.2,0-37.2-15.5-37.2-36.1c0-20.9,15.6-36.1,37.2-36.1c21.6,0,37.2,15.2,37.2,36.1
						C283,218.7,267,234.2,245.8,234.2z M245.8,163.4c-20.7,0-35.8,14.6-35.8,34.7s15.1,34.7,35.8,34.7c20.7,0,35.8-14.6,35.8-34.7
						S266.5,163.4,245.8,163.4z M94.7,191.3c-0.2,0-0.4,0-0.5,0H77.3v-28.4h16.9c9.4,0,15.4,5.6,15.4,14.4c0,4.1-1.3,7.6-3.8,10.1
						C103.1,189.9,99.3,191.3,94.7,191.3z M78.7,189.9h15.5c4.5,0.1,8.1-1.1,10.6-3.5c2.2-2.2,3.4-5.3,3.4-9.1c0-8-5.4-13-14-13
						H78.7V189.9z"/>
				</g>
			</g>
		</g>
	</g>
</g>
</svg>
