<svg id="Ebene_1" data-name="Ebene 1" xmlns="http://www.w3.org/2000/svg" width="1060" height="400" viewBox="0 0 1060 400"><defs><style>.cls-1{fill:#707070;opacity:0.63;isolation:isolate;}.cls-2{fill:#4a695c;}.cls-3{fill:#889c91;}.cls-4{fill:none;}.cls-5{fill:#95a5a7;}</style></defs><g id="Gruppe_1684" data-name="Gruppe 1684"><path id="Pfad_175" data-name="Pfad 175" class="cls-1" d="M679.05546.29409l-35.254,66.526-22.846-16.536-32.512,40.992-15.036-5.359v.045l-46.211-18.759-142.6,98.676-170.277,126.43v44.449h851.989v-224.79l-45.127,28.64-85.374-55.934-2.215-1.675-23.81,32.37-19.393-26.464h0l-16.527-7.211-13.215,30.37-36.884-53.322-.151-.15-41.575-28.09-5.836,4.341-34.053-28.468h0l-26.2,13.157-19.032-14.671Zm17.935,6.232,18.544,14.184-15.852,46.11Zm45.908,1.993,32.542,27.2-12.8,29.107Zm42.9,25.932,37.112,25.079,35.018,50.622Zm-163.85,17.994,21.189,15.39-8.5,3.3Zm354.407,96.541-40.922-63.146.12.091,41.059,63.03v.062Zm-85.106-56.963,17.838,24.342-7.732,12.254Z"/><g id="Gruppe_287" data-name="Gruppe 287"><path id="Pfad_176" data-name="Pfad 176" class="cls-2" d="M287.84854,309.56611c-1.527-8.581-3-17.171-4.593-25.74-1.137-6.111-2.863-12.933-7.618-17.333-4.822-4.464-5.771,3.6-6.241,6.378q-1.063,6.248-2.126,12.5-.53,3.128-1.06,6.25c-.353,2.085-.387,6-2.149,7.781-3.388-8.921.986-22.674-9.528-27.745a.861.861,0,0,0-1.216.488,146.97146,146.97146,0,0,0-6.175,23.5c-.425-3.29-.925-6.568-1.525-9.836-.28-1.521-.937-5.231-3.442-4.549-2.737.747-3.417,6.334-4.167,8.424q-2.751,7.674-5.5,15.352a.9.9,0,0,0-.466,1.3l-.077.211c-.31.871.865,1.306,1.4.745,6.5,3.905,15.079,2.9,22.365,2.974q15.657.17,31.315.341a.834.834,0,0,0,.8-1.038"/></g><g id="Gruppe_288" data-name="Gruppe 288"><path id="Pfad_177" data-name="Pfad 177" class="cls-2" d="M187.24051,321.93525c-1.527-8.58-3-17.171-4.593-25.74-1.137-6.111-2.863-12.933-7.618-17.333-4.822-4.464-5.771,3.6-6.241,6.378q-1.063,6.248-2.123,12.5-.536,3.122-1.06,6.242c-.353,2.085-.387,6-2.149,7.781-3.388-8.921.986-22.674-9.528-27.746a.862.862,0,0,0-1.216.489,146.97013,146.97013,0,0,0-6.175,23.5c-.425-3.29-.925-6.568-1.525-9.836-.281-1.521-.937-5.231-3.442-4.549-2.737.747-3.417,6.334-4.167,8.424q-2.751,7.676-5.5,15.352a.9.9,0,0,0-.466,1.3l-.077.211c-.31.871.865,1.306,1.406.745,6.5,3.905,15.081,2.9,22.363,2.974q15.659.17,31.314.341a.834.834,0,0,0,.8-1.038"/></g><g id="Gruppe_289" data-name="Gruppe 289"><path id="Pfad_178" data-name="Pfad 178" class="cls-2" d="M239.29557,290.98632c-.318-4.516-1.036-9.679-3.53-13.547-4.3-6.661-8.807,1.618-11.075,6.981a142.893,142.893,0,0,0-6.241-27.192.845.845,0,0,0-1.214-.491c-3.345,1.6-4.118,5.919-5.312,9.076q-3.147,8.32-6.3,16.641c-.49,1.3-.95,2.554-1.331,3.793q-1.181-4.311-2.5-8.585c-.665-2.163-1.414-3.928-3.4-5.152-3.734-2.3-3.3,5.825-3.417,6.978-.365,3.7-.941,7.415-1.273,11.11a27.726,27.726,0,0,0-1.327-10.326c-.3-.993-2.618-1.013-1.093,1.978-6.528,12.564-8.898,17.139-15.428,29.708l-.125.037c-.746,0-1.493-.006-2.237-.006a.819.819,0,0,0,0,1.638l39.41.052c5.7.008,11.851.677,17.5-.083,4.282-.575,6.416-2.969,7.709-6.918,1.6-4.894,1.539-10.637,1.184-15.692"/></g><g id="Gruppe_290" data-name="Gruppe 290"><path id="Pfad_179" data-name="Pfad 179" class="cls-2" d="M370.27054,283.25634c-.318-4.516-1.036-9.679-3.53-13.547-4.301-6.661-8.808,1.618-11.081,6.975a142.89973,142.89973,0,0,0-6.239-27.191.845.845,0,0,0-1.214-.491c-3.346,1.6-4.118,5.919-5.312,9.076l-6.293,16.646c-.491,1.3-.952,2.554-1.332,3.793q-1.181-4.311-2.5-8.585c-.667-2.163-1.414-3.928-3.4-5.153-3.734-2.3-3.3,5.826-3.417,6.979-.365,3.7-.941,7.415-1.274,11.11a27.69988,27.69988,0,0,0-1.328-10.326c-.3-.993-2.618-1.013-1.093,1.978-6.528,12.564-8.898,17.139-15.428,29.708l-.125.037c-.746,0-1.493-.006-2.237-.006a.819.819,0,0,0,0,1.638l39.407.052c5.7.008,11.853.677,17.5-.083,4.279-.576,6.417-2.969,7.71-6.918,1.6-4.894,1.539-10.637,1.184-15.692"/></g><g id="Gruppe_291" data-name="Gruppe 291"><path id="Pfad_180" data-name="Pfad 180" class="cls-2" d="M509.2255,274.09521c-.318-4.516-1.036-9.679-3.533-13.547-4.298-6.661-8.805,1.618-11.078,6.975a142.90031,142.90031,0,0,0-6.239-27.191.845.845,0,0,0-1.214-.491c-3.346,1.6-4.118,5.919-5.312,9.076l-6.293,16.646c-.491,1.3-.952,2.554-1.331,3.793q-1.183-4.311-2.5-8.585c-.667-2.163-1.414-3.928-3.4-5.153-3.734-2.3-3.3,5.826-3.417,6.979-.365,3.7-.941,7.415-1.274,11.11a27.67584,27.67584,0,0,0-1.329-10.326c-.3-.993-2.618-1.013-1.094,1.978-6.527,12.564-8.897,17.139-15.427,29.708l-.125.037c-.746,0-1.493-.006-2.237-.006a.819.819,0,0,0,0,1.638l39.407.052c5.7.008,11.853.677,17.5-.083,4.285-.575,6.417-2.969,7.712-6.918,1.6-4.894,1.539-10.637,1.184-15.692"/></g><g id="Gruppe_292" data-name="Gruppe 292"><path id="Pfad_181" data-name="Pfad 181" class="cls-2" d="M411.52447,305.903c-1.527-8.58-3-17.171-4.6-25.74-1.131-6.111-2.856-12.933-7.611-17.333-4.822-4.464-5.771,3.6-6.244,6.378q-1.06,6.248-2.123,12.5-.53,3.126-1.06,6.248c-.356,2.085-.387,6-2.149,7.781-3.388-8.921.986-22.674-9.528-27.746a.862.862,0,0,0-1.216.489,146.97041,146.97041,0,0,0-6.175,23.5c-.425-3.29-.925-6.568-1.525-9.836-.281-1.521-.937-5.231-3.442-4.549-2.737.747-3.42,6.334-4.169,8.424q-2.748,7.676-5.5,15.352a.9.9,0,0,0-.469,1.3l-.075.211c-.313.871.865,1.3,1.4.745,6.5,3.905,15.081,2.9,22.365,2.974q15.657.17,31.314.341a.834.834,0,0,0,.8-1.038"/></g><g id="Gruppe_293" data-name="Gruppe 293"><path id="Pfad_182" data-name="Pfad 182" class="cls-2" d="M560.7565,271.80517c-.318-4.516-1.036-9.679-3.533-13.547-4.299-6.661-8.805,1.618-11.078,6.981a142.88673,142.88673,0,0,0-6.239-27.192.845.845,0,0,0-1.214-.491c-3.346,1.6-4.118,5.919-5.312,9.076q-3.147,8.32-6.3,16.641c-.49,1.3-.95,2.554-1.331,3.793q-1.181-4.311-2.5-8.582c-.667-2.165-1.414-3.93-3.4-5.155-3.734-2.3-3.3,5.826-3.417,6.979-.365,3.7-.941,7.418-1.273,11.11a27.7262,27.7262,0,0,0-1.323-10.327c-.3-.993-2.618-1.013-1.093,1.978-6.528,12.57-8.898,17.139-15.428,29.708l-.125.037c-.746,0-1.493,0-2.237-.006a.82.82,0,0,0,0,1.64q19.705.023,39.407.05c5.7.008,11.853.677,17.5-.083,4.285-.575,6.419-2.969,7.712-6.918,1.6-4.894,1.539-10.637,1.184-15.692"/></g><g id="Gruppe_294" data-name="Gruppe 294"><path id="Pfad_183" data-name="Pfad 183" class="cls-2" d="M696.82549,273.83906c-1.527-8.581-3-17.171-4.6-25.737-1.13-6.114-2.856-12.936-7.611-17.336-4.822-4.464-5.771,3.6-6.241,6.378q-1.063,6.248-2.126,12.5l-1.06,6.247c-.356,2.085-.387,6-2.152,7.781-3.385-8.919.988-22.674-9.526-27.745a.861.861,0,0,0-1.216.488,146.96907,146.96907,0,0,0-6.175,23.5c-.425-3.29-.925-6.568-1.525-9.836-.281-1.521-.937-5.231-3.442-4.549-2.737.747-3.42,6.334-4.169,8.424q-2.748,7.674-5.5,15.352a.9.9,0,0,0-.469,1.3l-.075.211c-.313.871.865,1.306,1.4.745,6.5,3.905,15.081,2.9,22.365,2.974q15.657.17,31.314.341a.834.834,0,0,0,.8-1.038"/></g><g id="Gruppe_295" data-name="Gruppe 295"><path id="Pfad_184" data-name="Pfad 184" class="cls-2" d="M845.5015,252.33737c-.318-4.517-1.036-9.679-3.533-13.547-4.298-6.661-8.805,1.617-11.078,6.981a142.88749,142.88749,0,0,0-6.239-27.192.842.842,0,0,0-1.214-.489c-3.346,1.6-4.118,5.917-5.312,9.074q-3.147,8.32-6.3,16.641c-.49,1.3-.95,2.554-1.331,3.793q-1.181-4.311-2.5-8.585c-.667-2.163-1.414-3.928-3.4-5.152-3.734-2.3-3.3,5.825-3.417,6.978-.365,3.7-.941,7.418-1.274,11.11a27.676,27.676,0,0,0-1.322-10.326c-.3-.993-2.618-1.013-1.093,1.978-6.528,12.564-8.898,17.139-15.428,29.708l-.125.037c-.746,0-1.493,0-2.237-.006a.819.819,0,0,0,0,1.638l39.41.052c5.7.008,11.851.677,17.5-.083,4.279-.576,6.415-2.969,7.71-6.917,1.6-4.895,1.539-10.635,1.184-15.693"/></g><g id="Gruppe_296" data-name="Gruppe 296"><path id="Pfad_185" data-name="Pfad 185" class="cls-2" d="M1006.2355,287.63037c.318-4.516,1.036-9.679,3.533-13.547,4.3-6.661,8.8,1.618,11.075,6.98a142.90031,142.90031,0,0,1,6.239-27.191.845.845,0,0,1,1.214-.491c3.346,1.6,4.118,5.919,5.312,9.076q3.147,8.32,6.3,16.641c.49,1.3.95,2.554,1.331,3.793q1.181-4.311,2.5-8.585c.667-2.163,1.414-3.928,3.4-5.153,3.734-2.3,3.3,5.826,3.417,6.979.365,3.7.941,7.415,1.274,11.11a27.70009,27.70009,0,0,1,1.325-10.326c.3-.993,2.618-1.013,1.094,1.978,6.527,12.567,8.9,17.138,15.427,29.708l.125.037c.746,0,1.493-.006,2.237-.006a.819.819,0,1,1,0,1.638l-39.407.052c-5.7.008-11.853.677-17.5-.083-4.276-.576-6.413-2.969-7.708-6.918-1.608-4.893-1.544-10.636-1.188-15.692"/></g><g id="Gruppe_297" data-name="Gruppe 297"><path id="Pfad_186" data-name="Pfad 186" class="cls-2" d="M954.7045,285.34033c.318-4.516,1.036-9.679,3.533-13.547,4.3-6.661,8.8,1.618,11.075,6.981a142.88638,142.88638,0,0,1,6.239-27.192.845.845,0,0,1,1.214-.491c3.346,1.6,4.118,5.919,5.312,9.076q3.147,8.32,6.3,16.641c.49,1.3.95,2.554,1.331,3.793q1.181-4.311,2.5-8.582c.667-2.165,1.414-3.93,3.4-5.154,3.734-2.3,3.3,5.825,3.417,6.979.365,3.7.941,7.417,1.273,11.109a27.72909,27.72909,0,0,1,1.326-10.327c.3-.993,2.618-1.013,1.093,1.978,6.528,12.57,8.9,17.138,15.428,29.708l.125.037c.746,0,1.493,0,2.237-.006a.82.82,0,0,1,0,1.64q-19.705.023-39.407.05c-5.7.008-11.853.677-17.5-.083-4.276-.575-6.415-2.969-7.708-6.917-1.608-4.894-1.544-10.637-1.188-15.693"/></g><g id="Gruppe_298" data-name="Gruppe 298"><path id="Pfad_187" data-name="Pfad 187" class="cls-2" d="M732.52652,248.3291c-.318-4.516-1.036-9.679-3.533-13.547-4.299-6.661-8.805,1.618-11.078,6.975a142.89879,142.89879,0,0,0-6.239-27.191.845.845,0,0,0-1.214-.491c-3.346,1.6-4.118,5.919-5.312,9.076l-6.293,16.646c-.491,1.3-.952,2.554-1.332,3.793q-1.181-4.311-2.5-8.582c-.667-2.165-1.414-3.93-3.4-5.154-3.734-2.3-3.3,5.825-3.417,6.978-.365,3.7-.941,7.418-1.273,11.11a27.72609,27.72609,0,0,0-1.329-10.327c-.3-.993-2.618-1.013-1.093,1.978-6.528,12.57-8.898,17.139-15.428,29.708l-.125.037c-.746,0-1.493,0-2.237-.006a.82.82,0,0,0,0,1.64q19.705.023,39.407.05c5.7.008,11.853.677,17.5-.083,4.285-.575,6.419-2.969,7.712-6.918,1.6-4.894,1.539-10.637,1.184-15.692"/></g><g id="Gruppe_299" data-name="Gruppe 299"><path id="Pfad_188" data-name="Pfad 188" class="cls-2" d="M793.97049,246.6123c-.318-4.516-1.036-9.679-3.533-13.547-4.298-6.661-8.805,1.618-11.078,6.981a142.88673,142.88673,0,0,0-6.239-27.192.845.845,0,0,0-1.214-.491c-3.346,1.6-4.118,5.919-5.312,9.076l-6.293,16.641c-.491,1.3-.952,2.554-1.331,3.793q-1.183-4.311-2.5-8.582c-.667-2.165-1.414-3.93-3.4-5.154-3.734-2.3-3.3,5.825-3.417,6.978-.365,3.7-.941,7.418-1.273,11.11a27.7,27.7,0,0,0-1.33-10.327c-.3-.993-2.618-1.013-1.093,1.978-6.528,12.57-8.898,17.139-15.428,29.708l-.125.037c-.745,0-1.493,0-2.237-.006a.82.82,0,0,0,0,1.64q19.705.023,39.407.05c5.7.008,11.853.677,17.5-.083,4.285-.575,6.419-2.969,7.712-6.918,1.6-4.894,1.539-10.637,1.184-15.692"/></g><g id="Gruppe_300" data-name="Gruppe 300"><path id="Pfad_189" data-name="Pfad 189" class="cls-3" d="M770.28746,225.97925l-.685,41.747a.554.554,0,0,0,.54692.561l.00108,0a.552.552,0,0,0,.56294-.54084l.00006-.00316.688-41.751a.557.557,0,0,0-1.114-.013h0"/></g><g id="Gruppe_301" data-name="Gruppe 301"><path id="Pfad_190" data-name="Pfad 190" class="cls-3" d="M767.45148,227.00043l.07.09c.071.1.17.249.283.435.4.652.994,1.714,1.479,2.6.243.447.46.85.616,1.143s.252.473.252.473l.393.287.47-.131,3.544-3.152a.5545.5545,0,1,0-.74-.826l-3.545,3.155.37.412.492-.256s-.571-1.085-1.207-2.239c-.32-.575-.653-1.169-.941-1.659-.146-.245-.28-.463-.4-.645l-.159-.242-.161-.193a.5535.5535,0,1,0-.816.748"/></g><g id="Gruppe_302" data-name="Gruppe 302"><path id="Pfad_191" data-name="Pfad 191" class="cls-3" d="M770.54948,247.97218l-8.293-9.858a.55626.55626,0,0,0-.85414.71284l.00014.00016,8.294,9.859a.55619.55619,0,1,0,.853-.714"/></g><g id="Gruppe_303" data-name="Gruppe 303"><path id="Pfad_192" data-name="Pfad 192" class="cls-3" d="M767.79548,244.78305l-5.048-.526-1.169-1.887a.5571.5571,0,0,0-.94954.58289l.00254.00411,1.31,2.115.414.261,5.321.551a.553.553,0,1,0,.11826-1.09966l-.00326-.00034"/></g><g id="Gruppe_304" data-name="Gruppe 304"><path id="Pfad_193" data-name="Pfad 193" class="cls-3" d="M762.1575,244.29317l-2.064,1.1a.55.55,0,0,0-.23141.74259l.00341.00641a.559.559,0,0,0,.753.228l2.063-1.099a.555.555,0,0,0-.49557-.99323l-.02843.01523"/></g><g id="Gruppe_305" data-name="Gruppe 305"><path id="Pfad_194" data-name="Pfad 194" class="cls-3" d="M765.17654,241.87514l1.014-3.783a.552.552,0,0,0-.39036-.676l-.00364-.001a.555.555,0,0,0-.68.391l-1.014,3.784a.55565.55565,0,0,0,1.074.285"/></g><g id="Gruppe_306" data-name="Gruppe 306"><path id="Pfad_195" data-name="Pfad 195" class="cls-3" d="M764.70249,233.88312l5.4,5.975a.558.558,0,0,0,.782.043l5.246-4.665a.555.555,0,1,0-.741-.823l-4.834,4.294-5.027-5.565a.55517.55517,0,0,0-.82692.741l.00092.001"/></g><g id="Gruppe_307" data-name="Gruppe 307"><path id="Pfad_196" data-name="Pfad 196" class="cls-3" d="M772.54245,238.44731l3.646.6a.55584.55584,0,1,0,.18-1.097l-3.646-.596a.553.553,0,0,0-.63736.45318l-.00064.00382a.553.553,0,0,0,.45565.63561l.00235.00039"/></g><g id="Gruppe_308" data-name="Gruppe 308"><path id="Pfad_197" data-name="Pfad 197" class="cls-3" d="M770.90449,251.50323l8.79-5.31a.553.553,0,0,0,.187-.75938l-.001-.00162a.555.555,0,0,0-.76228-.187l-.00172.001-8.791,5.31a.553.553,0,0,0-.18653.75949l.00153.00251a.557.557,0,0,0,.764.186"/></g><g id="Gruppe_309" data-name="Gruppe 309"><path id="Pfad_198" data-name="Pfad 198" class="cls-3" d="M775.35752,248.44125l.184-3.55a.55626.55626,0,0,0-1.11071-.06253l-.00029.00553-.184,3.549a.55626.55626,0,0,0,1.111.058"/></g><g id="Gruppe_310" data-name="Gruppe 310"><path id="Pfad_199" data-name="Pfad 199" class="cls-3" d="M776.60957,247.86128l3.159.68a.55508.55508,0,0,0,.235-1.085l-3.164-.678a.5536.5536,0,1,0-.23786,1.08134l.00786.00166"/></g><g id="Gruppe_311" data-name="Gruppe 311"><path id="Pfad_200" data-name="Pfad 200" class="cls-3" d="M759.07354,251.83244l10.891,5.27.426.026,11.963-4.147a.55426.55426,0,0,0-.367-1.046l-11.742,4.069-10.685-5.168a.555.555,0,0,0-.7424.25475l-.0006.00125a.551.551,0,0,0,.25173.73745l.00527.00255"/></g><g id="Gruppe_312" data-name="Gruppe 312"><path id="Pfad_201" data-name="Pfad 201" class="cls-3" d="M777.41056,254.65127l4.216,1a.555.555,0,1,0,.257-1.074l-4.215-1a.556.556,0,0,0-.66975.41195l-.00025.00105a.553.553,0,0,0,.412.661"/></g><g id="Gruppe_313" data-name="Gruppe 313"><path id="Pfad_202" data-name="Pfad 202" class="cls-3" d="M763.61054,252.68918l-1.683-2.874a.559.559,0,0,0-.761-.2.553.553,0,0,0-.20134.7557l.00134.0023,1.683,2.877a.55639.55639,0,0,0,.9624-.55861l-.0014-.00239"/></g><g id="Gruppe_314" data-name="Gruppe 314"><path id="Pfad_203" data-name="Pfad 203" class="cls-3" d="M1030.43748,260.42112l-.685,41.747a.553.553,0,0,0,.54491.561l.00209,0a.552.552,0,0,0,.56392-.53982l.00008-.00418.688-41.751a.557.557,0,0,0-1.114-.013h0"/></g><g id="Gruppe_315" data-name="Gruppe 315"><path id="Pfad_204" data-name="Pfad 204" class="cls-3" d="M1027.60151,261.44232l.07.09c.071.1.17.249.283.435.4.652.994,1.714,1.479,2.6.243.447.46.85.616,1.143s.252.473.252.473l.393.287.47-.131,3.544-3.152a.5545.5545,0,1,0-.74-.826l-3.545,3.155.37.412.492-.256s-.571-1.085-1.207-2.239c-.319-.575-.653-1.169-.941-1.66-.146-.244-.28-.462-.4-.644l-.159-.242-.161-.193a.5535.5535,0,1,0-.816.748"/></g><g id="Gruppe_316" data-name="Gruppe 316"><path id="Pfad_205" data-name="Pfad 205" class="cls-3" d="M1030.6995,282.41505l-8.293-9.858a.55626.55626,0,0,0-.85413.71284l.00013.00016,8.294,9.859a.55619.55619,0,1,0,.853-.714"/></g><g id="Gruppe_317" data-name="Gruppe 317"><path id="Pfad_206" data-name="Pfad 206" class="cls-3" d="M1027.9455,279.22543l-5.048-.526-1.169-1.887a.55709.55709,0,0,0-.94953.58289l.00253.00411,1.31,2.115.414.261,5.321.551a.553.553,0,0,0,.11827-1.09966l-.00327-.00034"/></g><g id="Gruppe_318" data-name="Gruppe 318"><path id="Pfad_207" data-name="Pfad 207" class="cls-3" d="M1022.30753,278.73506l-2.064,1.1a.55.55,0,0,0-.23142.7426l.00342.0064a.559.559,0,0,0,.753.228l2.063-1.099a.555.555,0,0,0-.49558-.99323l-.02842.01523"/></g><g id="Gruppe_319" data-name="Gruppe 319"><path id="Pfad_208" data-name="Pfad 208" class="cls-3" d="M1025.32754,276.317l1.014-3.783a.552.552,0,0,0-.39036-.676l-.00364-.001a.555.555,0,0,0-.68.391l-1.014,3.784a.55565.55565,0,0,0,1.074.285"/></g><g id="Gruppe_320" data-name="Gruppe 320"><path id="Pfad_209" data-name="Pfad 209" class="cls-3" d="M1024.85251,268.325l5.4,5.975a.558.558,0,0,0,.782.043l5.246-4.665a.555.555,0,1,0-.741-.823l-4.834,4.294-5.027-5.565a.55517.55517,0,0,0-.82691.741l.00091.001"/></g><g id="Gruppe_321" data-name="Gruppe 321"><path id="Pfad_210" data-name="Pfad 210" class="cls-3" d="M1032.69248,272.8892l3.646.6a.55584.55584,0,1,0,.18-1.097l-3.646-.596a.553.553,0,0,0-.63737.45319l-.00063.00381a.553.553,0,0,0,.45564.63562l.00236.00038"/></g><g id="Gruppe_322" data-name="Gruppe 322"><path id="Pfad_211" data-name="Pfad 211" class="cls-3" d="M1031.05451,285.94414l8.79-5.31a.553.553,0,0,0,.187-.75937l-.001-.00163a.555.555,0,0,0-.76227-.187l-.00173.00105-8.791,5.31a.553.553,0,0,0-.18653.75949l.00153.00251a.557.557,0,0,0,.764.186"/></g><g id="Gruppe_323" data-name="Gruppe 323"><path id="Pfad_212" data-name="Pfad 212" class="cls-3" d="M1035.50755,282.88314l.184-3.55a.55626.55626,0,0,0-1.11071-.06252l-.00029.00552-.184,3.549a.55626.55626,0,0,0,1.111.058"/></g><g id="Gruppe_324" data-name="Gruppe 324"><path id="Pfad_213" data-name="Pfad 213" class="cls-3" d="M1036.75947,282.30217l3.159.68a.555.555,0,1,0,.27669-1.075q-.02067-.00533-.04169-.009l-3.164-.678a.55311.55311,0,1,0-.23669,1.08059l.00669.00141"/></g><g id="Gruppe_325" data-name="Gruppe 325"><path id="Pfad_214" data-name="Pfad 214" class="cls-3" d="M1019.22356,286.27531l10.891,5.27.426.026,11.963-4.147a.55426.55426,0,1,0-.367-1.046l-11.744,4.069-10.683-5.168a.554.554,0,0,0-.74132.25353l-.00168.00347a.55.55,0,0,0,.25113.73616l.00587.00284"/></g><g id="Gruppe_326" data-name="Gruppe 326"><path id="Pfad_215" data-name="Pfad 215" class="cls-3" d="M1037.56046,289.09316l4.216,1a.555.555,0,1,0,.257-1.074l-4.215-1a.556.556,0,0,0-.66975.412l-.00025.001a.553.553,0,0,0,.412.661"/></g><g id="Gruppe_327" data-name="Gruppe 327"><path id="Pfad_216" data-name="Pfad 216" class="cls-3" d="M1023.75947,287.13107l-1.683-2.874a.559.559,0,0,0-.761-.2.553.553,0,0,0-.20134.7557l.00134.0023,1.683,2.877a.55638.55638,0,0,0,.96239-.55861l-.00139-.00239"/></g><g id="Gruppe_328" data-name="Gruppe 328"><path id="Pfad_217" data-name="Pfad 217" class="cls-3" d="M346.21946,260.33323l-.685,41.747a.553.553,0,0,0,.54492.561l.00308,0a.552.552,0,0,0,.563-.54084l0-.00316.688-41.751a.557.557,0,1,0-1.114-.013h0"/></g><g id="Gruppe_329" data-name="Gruppe 329"><path id="Pfad_218" data-name="Pfad 218" class="cls-3" d="M343.38349,261.35443l.07.09c.071.1.17.249.283.435.4.652.994,1.714,1.479,2.6.243.447.46.85.616,1.143s.252.473.252.473l.393.287.47-.131,3.544-3.152a.5545.5545,0,1,0-.74-.826l-3.545,3.155.37.412.492-.256s-.571-1.085-1.207-2.239c-.319-.575-.653-1.169-.941-1.659-.146-.245-.28-.463-.4-.645l-.159-.242-.161-.193a.5535.5535,0,1,0-.816.748"/></g><g id="Gruppe_330" data-name="Gruppe 330"><path id="Pfad_219" data-name="Pfad 219" class="cls-3" d="M346.48148,282.32618l-8.293-9.858a.55626.55626,0,0,0-.85413.71284l.00013.00016,8.294,9.859a.55619.55619,0,0,0,.853-.714"/></g><g id="Gruppe_331" data-name="Gruppe 331"><path id="Pfad_220" data-name="Pfad 220" class="cls-3" d="M343.72748,279.138l-5.048-.526-1.169-1.887a.55709.55709,0,0,0-.94953.58289l.00253.00411,1.31,2.115.414.261,5.321.552a.554.554,0,1,0,.115-1.1"/></g><g id="Gruppe_332" data-name="Gruppe 332"><path id="Pfad_221" data-name="Pfad 221" class="cls-3" d="M338.08951,278.64717l-2.064,1.1a.55.55,0,0,0-.23142.7426l.00342.0064a.559.559,0,0,0,.753.228l2.063-1.099a.555.555,0,1,0-.49558-.99323l-.02842.01523"/></g><g id="Gruppe_333" data-name="Gruppe 333"><path id="Pfad_222" data-name="Pfad 222" class="cls-3" d="M341.10952,276.22912l1.014-3.782a.552.552,0,0,0-.39036-.676l-.00364-.001a.556.556,0,0,0-.68.391l-1.014,3.784a.55551.55551,0,0,0,1.074.284"/></g><g id="Gruppe_334" data-name="Gruppe 334"><path id="Pfad_223" data-name="Pfad 223" class="cls-3" d="M340.63449,268.23713l5.4,5.975a.558.558,0,0,0,.782.043l5.246-4.665a.555.555,0,1,0-.741-.823l-4.834,4.294-5.027-5.565a.55517.55517,0,0,0-.82691.741l.00091.001"/></g><g id="Gruppe_335" data-name="Gruppe 335"><path id="Pfad_224" data-name="Pfad 224" class="cls-3" d="M348.47446,272.80131l3.646.6a.55584.55584,0,1,0,.18-1.097l-3.646-.596a.553.553,0,0,0-.63737.45319l-.00063.00381a.553.553,0,0,0,.45564.63562l.00236.00038"/></g><g id="Gruppe_336" data-name="Gruppe 336"><path id="Pfad_225" data-name="Pfad 225" class="cls-3" d="M346.83649,285.85725l8.79-5.31a.553.553,0,0,0,.187-.75938l-.001-.00162a.554.554,0,0,0-.76056-.18809l-.00344.00209-8.791,5.31a.553.553,0,0,0-.18653.75949l.00153.00251a.557.557,0,0,0,.764.186"/></g><g id="Gruppe_337" data-name="Gruppe 337"><path id="Pfad_226" data-name="Pfad 226" class="cls-3" d="M351.28953,282.79623l.184-3.55a.55626.55626,0,0,0-1.11071-.06253l-.00029.00553-.184,3.549a.55626.55626,0,0,0,1.111.058"/></g><g id="Gruppe_338" data-name="Gruppe 338"><path id="Pfad_227" data-name="Pfad 227" class="cls-3" d="M352.54146,282.21528l3.159.68a.55508.55508,0,1,0,.235-1.085l-3.164-.678a.5536.5536,0,1,0-.23786,1.08134l.00786.00166"/></g><g id="Gruppe_339" data-name="Gruppe 339"><path id="Pfad_228" data-name="Pfad 228" class="cls-3" d="M335.00554,286.18742l10.891,5.27.426.026,11.962-4.147a.55409.55409,0,0,0-.366-1.046l-11.742,4.069-10.685-5.168a.554.554,0,0,0-.74131.25353l-.00169.00347a.55.55,0,0,0,.25114.73616l.00586.00284"/></g><g id="Gruppe_340" data-name="Gruppe 340"><path id="Pfad_229" data-name="Pfad 229" class="cls-3" d="M353.34147,289.00527l4.216,1a.555.555,0,1,0,.257-1.074l-4.215-1a.556.556,0,0,0-.66975.412l-.00025.001a.553.553,0,0,0,.412.661"/></g><g id="Gruppe_341" data-name="Gruppe 341"><path id="Pfad_230" data-name="Pfad 230" class="cls-3" d="M339.54255,287.04218l-1.682-2.874a.559.559,0,0,0-.762-.2.551.551,0,0,0-.20267.75242l.00267.00458,1.683,2.878a.55638.55638,0,0,0,.96239-.55861l-.00139-.00239"/></g><g id="Gruppe_342" data-name="Gruppe 342"><path id="Pfad_231" data-name="Pfad 231" class="cls-3" d="M216.32847,269.72534l-.685,41.747a.554.554,0,0,0,.54692.561h.00108a.552.552,0,0,0,.563-.54083l0-.00317.688-41.751a.557.557,0,1,0-1.114-.013h0"/></g><g id="Gruppe_343" data-name="Gruppe 343"><path id="Pfad_232" data-name="Pfad 232" class="cls-3" d="M213.4925,270.746l.07.09c.071.1.17.249.283.435.4.652.994,1.714,1.479,2.6.243.447.46.85.616,1.143s.252.473.252.473l.393.287.47-.131,3.544-3.152a.5545.5545,0,0,0-.74-.826l-3.545,3.155.37.412.492-.256s-.571-1.085-1.207-2.239c-.319-.575-.653-1.169-.941-1.66-.146-.244-.28-.462-.4-.644l-.159-.242-.161-.193a.5535.5535,0,1,0-.816.748"/></g><g id="Gruppe_344" data-name="Gruppe 344"><path id="Pfad_233" data-name="Pfad 233" class="cls-3" d="M216.59049,291.71925l-8.293-9.858a.55626.55626,0,0,0-.85413.71284l.00013.00016,8.294,9.859a.55619.55619,0,1,0,.853-.714"/></g><g id="Gruppe_345" data-name="Gruppe 345"><path id="Pfad_234" data-name="Pfad 234" class="cls-3" d="M213.83649,288.53012l-5.048-.526-1.169-1.887a.55711.55711,0,0,0-.95059.58118l.00359.00582,1.31,2.115.414.261,5.321.552a.554.554,0,1,0,.115-1.1"/></g><g id="Gruppe_346" data-name="Gruppe 346"><path id="Pfad_235" data-name="Pfad 235" class="cls-3" d="M208.19852,288.04024l-2.064,1.1a.55.55,0,0,0-.23142.74259l.00342.00641a.559.559,0,0,0,.753.228l2.063-1.099a.555.555,0,1,0-.49558-.99323l-.02842.01523"/></g><g id="Gruppe_347" data-name="Gruppe 347"><path id="Pfad_236" data-name="Pfad 236" class="cls-3" d="M211.21755,285.62221l1.014-3.783a.551.551,0,0,0-.38842-.67553l-.00558-.00147a.555.555,0,0,0-.68.391l-1.014,3.784a.55565.55565,0,0,0,1.074.285"/></g><g id="Gruppe_348" data-name="Gruppe 348"><path id="Pfad_237" data-name="Pfad 237" class="cls-3" d="M210.7435,277.62922l5.4,5.975a.559.559,0,0,0,.783.043l5.245-4.665a.555.555,0,1,0-.741-.823l-4.834,4.294-5.027-5.565a.55517.55517,0,0,0-.82691.741l.00091.001"/></g><g id="Gruppe_349" data-name="Gruppe 349"><path id="Pfad_238" data-name="Pfad 238" class="cls-3" d="M218.58347,282.1934l3.646.6a.55584.55584,0,1,0,.18-1.097l-3.646-.596a.553.553,0,0,0-.63737.45319l-.00063.00381a.553.553,0,0,0,.45564.63562l.00236.00038"/></g><g id="Gruppe_350" data-name="Gruppe 350"><path id="Pfad_239" data-name="Pfad 239" class="cls-3" d="M216.9455,295.25032l8.79-5.31a.553.553,0,0,0,.187-.75938l-.001-.00162a.554.554,0,0,0-.76056-.18809l-.00344.00209-8.791,5.31a.553.553,0,0,0-.18653.75949l.00153.00251a.557.557,0,0,0,.764.186"/></g><g id="Gruppe_351" data-name="Gruppe 351"><path id="Pfad_240" data-name="Pfad 240" class="cls-3" d="M221.39854,292.18832l.184-3.55a.55626.55626,0,0,0-1.11071-.06253l-.00029.00553-.184,3.549a.55626.55626,0,0,0,1.111.058"/></g><g id="Gruppe_352" data-name="Gruppe 352"><path id="Pfad_241" data-name="Pfad 241" class="cls-3" d="M222.65046,291.60637l3.159.68a.555.555,0,1,0,.27669-1.075q-.02067-.00533-.04169-.009l-3.164-.678a.55311.55311,0,1,0-.23669,1.08059l.00669.00141"/></g><g id="Gruppe_353" data-name="Gruppe 353"><path id="Pfad_242" data-name="Pfad 242" class="cls-3" d="M205.11455,295.579l10.891,5.27.426.026,11.962-4.147a.55409.55409,0,1,0-.366-1.046l-11.744,4.069-10.683-5.168a.554.554,0,0,0-.74131.25354l-.00169.00346a.55.55,0,0,0,.25114.73616l.00586.00284"/></g><g id="Gruppe_355" data-name="Gruppe 355"><path id="Pfad_244" data-name="Pfad 244" class="cls-3" d="M209.65156,296.43525l-1.683-2.874a.557.557,0,0,0-.761-.2.551.551,0,0,0-.20267.75241l.00267.00459,1.683,2.878a.55638.55638,0,0,0,.96239-.55861l-.00139-.00239"/></g><g id="Gruppe_356" data-name="Gruppe 356"><path id="Pfad_245" data-name="Pfad 245" class="cls-3" d="M175.41655,283.10506l-.521,31.773a.422.422,0,0,0,.41591.428h.00009a.421.421,0,0,0,.429-.41287l0-.00113.523-31.773a.424.424,0,0,0-.847-.014"/></g><g id="Gruppe_357" data-name="Gruppe 357"><path id="Pfad_246" data-name="Pfad 246" class="cls-3" d="M173.25846,283.88325l.055.071.216.329c.3.5.755,1.3,1.123,1.982.186.339.351.646.47.871s.19.359.19.359l.3.219.356-.1,2.7-2.4.032-.598-.6-.033-2.7,2.4.283.315.374-.2s-.434-.824-.919-1.7c-.241-.44-.5-.892-.716-1.264-.105-.184-.209-.352-.298-.489l-.125-.184-.119-.149-.598-.024Z"/></g><path id="Pfad_247" data-name="Pfad 247" class="cls-4" d="M131.30851,322.9731h941.531v-110.71h-941.531Z"/><path id="Pfad_248" data-name="Pfad 248" class="cls-3" d="M175.61649,299.84223l-6.309-7.5-.6-.053-.054.595,6.313,7.5.6.052Z"/><g id="Gruppe_362" data-name="Gruppe 362"><path id="Pfad_251" data-name="Pfad 251" class="cls-3" d="M171.5275,295.20406l.767-2.878a.421.421,0,0,0-.298-.51546l-.002-.00054a.425.425,0,0,0-.519.3l-.767,2.876a.422.422,0,0,0,.2999.516l.0001,0a.425.425,0,0,0,.519-.3"/></g><path id="Pfad_252" data-name="Pfad 252" class="cls-4" d="M131.30851,322.9731h941.531v-110.71h-941.531Z"/><path id="Pfad_253" data-name="Pfad 253" class="cls-3" d="M171.16557,289.122l4.106,4.546.6.033,4-3.547.034-.6-.606-.027-3.68,3.265-3.826-4.234-.596-.031Z"/><g id="Gruppe_365" data-name="Gruppe 365"><path id="Pfad_254" data-name="Pfad 254" class="cls-3" d="M177.13348,292.596l2.775.454a.42218.42218,0,0,0,.138-.833l-2.777-.455a.42161.42161,0,1,0-.137.832"/></g><g id="Gruppe_372" data-name="Gruppe 372"><path id="Pfad_261" data-name="Pfad 261" class="cls-3" d="M706.78949,234.61514l1.944,27.464a.556.556,0,0,0,1.109-.079l-1.944-27.464a.556.556,0,0,0-1.109.079"/></g><g id="Gruppe_373" data-name="Gruppe 373"><path id="Pfad_262" data-name="Pfad 262" class="cls-3" d="M708.90557,234.5361l-.111.153-.2.353c-.261.477-.611,1.2-.9,1.812s-.517,1.1-.519,1.105l.5.231.347-.433-2.448-1.953a.55443.55443,0,1,0-.69807.86154l.00307.00246,2.446,1.954.477.107.377-.309.057-.123c.131-.28.463-.993.794-1.666.165-.338.328-.669.469-.927l.18-.328.062-.1.016-.027v-.006h0l-.053-.047.057.046h0l-.057-.046.057.046a.551.551,0,0,0-.06953-.77612l-.00347-.00288a.557.557,0,0,0-.783.073"/></g><g id="Gruppe_374" data-name="Gruppe 374"><path id="Pfad_263" data-name="Pfad 263" class="cls-3" d="M709.06254,249.595l5.108-6.787a.552.552,0,0,0-.10731-.77323l-.00369-.00277a.557.557,0,0,0-.778.112l-5.107,6.787a.551.551,0,0,0,.1057.772l.0053.004a.556.556,0,0,0,.778-.111"/></g><g id="Gruppe_375" data-name="Gruppe 375"><path id="Pfad_264" data-name="Pfad 264" class="cls-3" d="M710.16545,247.75337l3.485-.552.4-.282.79-1.443a.553.553,0,0,0-.22-.75047l-.001-.00053a.556.556,0,0,0-.75493.21988l-.00007.00012-.659,1.2-3.214.515a.55338.55338,0,1,0,.174,1.093"/></g><g id="Gruppe_376" data-name="Gruppe 376"><path id="Pfad_265" data-name="Pfad 265" class="cls-3" d="M712.52046,244.552l-.8-2.452a.555.555,0,0,0-.69941-.35619l-.00059.00019a.554.554,0,0,0-.35681.69751l.00081.00249.8,2.456a.55595.55595,0,0,0,1.0584-.34069l-.0024-.00731"/></g><g id="Gruppe_377" data-name="Gruppe 377"><path id="Pfad_266" data-name="Pfad 266" class="cls-3" d="M710.95457,238.981l-2.994,3.7-3.189-2.543a.55458.55458,0,1,0-.69523.86423l.00223.00177,3.621,2.884a.56.56,0,0,0,.78-.086l3.34-4.127a.551.551,0,0,0-.08147-.775l-.00253-.002a.558.558,0,0,0-.782.083"/></g><g id="Gruppe_378" data-name="Gruppe 378"><path id="Pfad_267" data-name="Pfad 267" class="cls-3" d="M706.47451,241.94132l-2.379.526a.553.553,0,1,0,.238,1.08l2.379-.521a.5554.5554,0,0,0-.238-1.085"/></g><g id="Gruppe_379" data-name="Gruppe 379"><path id="Pfad_268" data-name="Pfad 268" class="cls-3" d="M708.65248,250.569l-5.978-3.188a.559.559,0,0,0-.753.228.552.552,0,0,0,.22515.74748l.00285.00152,5.977,3.193a.559.559,0,0,0,.754-.228.552.552,0,0,0-.21914-.74925l-.00886-.00475"/></g><g id="Gruppe_380" data-name="Gruppe 380"><path id="Pfad_269" data-name="Pfad 269" class="cls-3" d="M706.09349,249.42528l-.246-2.332a.5571.5571,0,0,0-1.10808.11624l.00008.00076.249,2.332a.55559.55559,0,0,0,1.105-.11693v-.00007"/></g><g id="Gruppe_381" data-name="Gruppe 381"><path id="Pfad_270" data-name="Pfad 270" class="cls-3" d="M704.0875,248.293l-2.057.562a.55483.55483,0,1,0,.294,1.07l2.055-.56a.55553.55553,0,1,0-.292-1.072"/></g><g id="Gruppe_382" data-name="Gruppe 382"><path id="Pfad_271" data-name="Pfad 271" class="cls-3" d="M715.5725,250.37236l-6.782,3.745-7.8-2.242a.55413.55413,0,1,0-.31227,1.06335l.00227.00065,8.025,2.306.423-.048,6.982-3.856a.555.555,0,1,0-.538-.969"/></g><g id="Gruppe_383" data-name="Gruppe 383"><path id="Pfad_272" data-name="Pfad 272" class="cls-3" d="M703.78352,252.79844l-2.74.811a.552.552,0,0,0-.37616.684l.00116.004a.556.556,0,0,0,.69.376l2.74-.809a.55578.55578,0,0,0-.315-1.066"/></g><g id="Gruppe_384" data-name="Gruppe 384"><path id="Pfad_273" data-name="Pfad 273" class="cls-3" d="M681.59747,241.48521l1.944,27.465a.556.556,0,0,0,1.109-.079l-1.944-27.464a.553.553,0,0,0-.58725-.51648l-.00675.00048a.553.553,0,0,0-.51541.58819l.00041.00581"/></g><g id="Gruppe_385" data-name="Gruppe 385"><path id="Pfad_274" data-name="Pfad 274" class="cls-3" d="M683.71246,241.40719l-.111.153-.2.353c-.261.477-.611,1.2-.9,1.812s-.517,1.1-.519,1.105l.5.231.347-.433-2.448-1.953a.55443.55443,0,1,0-.69808.86155l.00308.00245,2.446,1.954.477.107.377-.309.057-.123c.131-.28.463-.993.794-1.666.165-.338.328-.669.469-.927l.18-.328.062-.1.016-.027v-.006h0l-.053-.047.057.046h0l-.057-.046.057.046a.551.551,0,0,0-.06953-.77612l-.00347-.00288a.557.557,0,0,0-.783.073"/></g><g id="Gruppe_386" data-name="Gruppe 386"><path id="Pfad_275" data-name="Pfad 275" class="cls-3" d="M683.86955,256.46611l5.108-6.787a.552.552,0,0,0-.10732-.77324l-.00368-.00276a.557.557,0,0,0-.778.112l-5.107,6.787a.551.551,0,0,0,.1057.772l.0053.004a.556.556,0,0,0,.778-.111"/></g><g id="Gruppe_387" data-name="Gruppe 387"><path id="Pfad_276" data-name="Pfad 276" class="cls-3" d="M684.97246,254.62446l3.484-.552.4-.282.79-1.443a.553.553,0,0,0-.22-.75047l-.001-.00053a.556.556,0,0,0-.75493.21988l-.00007.00012-.659,1.2-3.213.515a.55338.55338,0,1,0,.174,1.093"/></g><g id="Gruppe_388" data-name="Gruppe 388"><path id="Pfad_277" data-name="Pfad 277" class="cls-3" d="M687.32747,251.42308l-.8-2.452a.555.555,0,0,0-.69941-.35619l-.00059.00019a.554.554,0,0,0-.35681.69751l.00081.00249.8,2.456a.554.554,0,0,0,.69873.35442l.00127-.00042a.552.552,0,0,0,.35885-.69328l-.00285-.00872"/></g><g id="Gruppe_389" data-name="Gruppe 389"><path id="Pfad_278" data-name="Pfad 278" class="cls-3" d="M685.76145,245.85214l-2.994,3.7-3.189-2.543a.555.555,0,1,0-.69319.86684l.00019.00016,3.621,2.883a.56.56,0,0,0,.78-.086l3.34-4.127a.55.55,0,0,0-.0799-.77371l-.0041-.00329a.558.558,0,0,0-.782.083"/></g><g id="Gruppe_390" data-name="Gruppe 390"><path id="Pfad_279" data-name="Pfad 279" class="cls-3" d="M681.28152,248.81241l-2.379.526a.553.553,0,1,0,.238,1.08l2.379-.521a.5554.5554,0,1,0-.238-1.085"/></g><g id="Gruppe_391" data-name="Gruppe 391"><path id="Pfad_280" data-name="Pfad 280" class="cls-3" d="M683.45949,257.43915l-5.978-3.188a.559.559,0,0,0-.753.228.552.552,0,0,0,.22514.74748l.00286.00152,5.978,3.193a.558.558,0,0,0,.753-.228.552.552,0,0,0-.21914-.74925l-.00886-.00475"/></g><g id="Gruppe_392" data-name="Gruppe 392"><path id="Pfad_281" data-name="Pfad 281" class="cls-3" d="M680.9005,256.29638l-.246-2.332a.5571.5571,0,0,0-1.10808.11623l.00008.00077.249,2.332a.55559.55559,0,0,0,1.105-.11694v-.00006"/></g><g id="Gruppe_393" data-name="Gruppe 393"><path id="Pfad_282" data-name="Pfad 282" class="cls-3" d="M678.89451,255.16411l-2.057.562a.55483.55483,0,1,0,.294,1.07l2.055-.56a.55553.55553,0,0,0-.292-1.072"/></g><g id="Gruppe_394" data-name="Gruppe 394"><path id="Pfad_283" data-name="Pfad 283" class="cls-3" d="M690.37951,257.24346l-6.78,3.745-7.8-2.242a.55412.55412,0,1,0-.31228,1.06334l.00228.00066,8.023,2.306.423-.048,6.982-3.856a.555.555,0,1,0-.538-.969"/></g><g id="Gruppe_395" data-name="Gruppe 395"><path id="Pfad_284" data-name="Pfad 284" class="cls-3" d="M678.59151,259.66807l-2.74.811a.552.552,0,0,0-.37617.684l.00117.004a.553.553,0,0,0,.68557.37631l.00443-.00131,2.74-.808a.55578.55578,0,0,0-.315-1.066"/></g><g id="Gruppe_396" data-name="Gruppe 396"><path id="Pfad_285" data-name="Pfad 285" class="cls-3" d="M536.54456,248.87805l-.915,41.744a.554.554,0,0,0,.5428.565l.0012,0a.556.556,0,0,0,.569-.541l.915-41.744a.55664.55664,0,0,0-1.113-.024"/></g><g id="Gruppe_397" data-name="Gruppe 397"><path id="Pfad_286" data-name="Pfad 286" class="cls-3" d="M539.66556,249.24808l-.164.19c-.103.131-.218.295-.348.489-.452.675-1.083,1.717-1.609,2.595s-.935,1.592-.935,1.593l.481.277.388-.4-3.423-3.286a.557.557,0,0,0-.785.014.551.551,0,0,0,.009.77918l.005.00482,3.42,3.285.464.15.4-.27.1-.182c.237-.406.836-1.432,1.432-2.41.3-.489.594-.966.84-1.343.126-.188.237-.353.326-.479l.126-.154.06-.072a.55.55,0,0,0,.0042-.77781l-.0042-.00419a.557.557,0,0,0-.786,0"/></g><g id="Gruppe_398" data-name="Gruppe 398"><path id="Pfad_287" data-name="Pfad 287" class="cls-3" d="M537.37746,271.61646l8.666-9.538a.553.553,0,0,0-.036-.78123l-.002-.00177a.559.559,0,0,0-.782.04l-8.67,9.538a.553.553,0,0,0,.0371.78118l.0009.00082a.559.559,0,0,0,.786-.038"/></g><g id="Gruppe_399" data-name="Gruppe 399"><path id="Pfad_288" data-name="Pfad 288" class="cls-3" d="M539.49956,268.89528l5.336-.35.427-.244,1.393-2.068a.553.553,0,0,0-.14794-.76794l-.00306-.00206a.557.557,0,0,0-.772.151l-1.242,1.843-5.064.333a.555.555,0,0,0-.52206.5861l.00006.0009a.556.556,0,0,0,.59134.51825l.00366-.00025"/></g><g id="Gruppe_400" data-name="Gruppe 400"><path id="Pfad_289" data-name="Pfad 289" class="cls-3" d="M544.51857,268.47015l2.02,1.178a.55509.55509,0,0,0,.561-.958l-2.02-1.178a.55509.55509,0,1,0-.561.958"/></g><g id="Gruppe_401" data-name="Gruppe 401"><path id="Pfad_290" data-name="Pfad 290" class="cls-3" d="M543.23852,264.73744l-.868-3.817a.555.555,0,0,0-.66347-.41934l-.00153.00034a.552.552,0,0,0-.4213.65721l.0013.00579.869,3.817a.555.555,0,0,0,.66348.41935l.00152-.00035a.552.552,0,0,0,.42014-.65794l-.00114-.00506"/></g><g id="Gruppe_402" data-name="Gruppe 402"><path id="Pfad_291" data-name="Pfad 291" class="cls-3" d="M542.1385,256.24236l-5.235,5.373-4.669-4.479a.55447.55447,0,0,0-.77358.79456l.00358.00344,5.064,4.858a.563.563,0,0,0,.782-.014l5.626-5.763a.55587.55587,0,0,0-.8-.772"/></g><g id="Gruppe_403" data-name="Gruppe 403"><path id="Pfad_292" data-name="Pfad 292" class="cls-3" d="M534.78856,260.177l-3.662.46a.554.554,0,0,0-.483.61687l0,.00013a.556.556,0,0,0,.622.481l3.661-.458a.55431.55431,0,1,0-.138-1.1"/></g><g id="Gruppe_404" data-name="Gruppe 404"><path id="Pfad_293" data-name="Pfad 293" class="cls-3" d="M536.67156,273.46124l-8.58-5.643a.554.554,0,0,0-.76815.1542l-.00185.0028a.551.551,0,0,0,.15266.76413l.00434.00287,8.585,5.644a.558.558,0,0,0,.77-.158.551.551,0,0,0-.15643-.76337l-.00557-.00363"/></g><g id="Gruppe_405" data-name="Gruppe 405"><path id="Pfad_294" data-name="Pfad 294" class="cls-3" d="M532.84253,271.1422l-.047-3.554a.555.555,0,0,0-.56287-.547l-.00113,0a.556.556,0,0,0-.55.561l.047,3.554a.55705.55705,0,0,0,1.114-.014"/></g><g id="Gruppe_406" data-name="Gruppe 406"><path id="Pfad_295" data-name="Pfad 295" class="cls-3" d="M530.30857,269.43536l-3.18.56a.553.553,0,0,0-.45162.63849l.00062.00351a.555.555,0,0,0,.64439.44811l.00061-.00011,3.178-.558a.55438.55438,0,1,0-.192-1.092h0"/></g><g id="Gruppe_407" data-name="Gruppe 407"><path id="Pfad_296" data-name="Pfad 296" class="cls-3" d="M547.42756,274.14921l-10.877,4.759-11.58-4.516a.554.554,0,0,0-.40817,1.03l.00517.002,11.794,4.6.426-.011,11.084-4.851a.554.554,0,1,0-.444-1.013"/></g><g id="Gruppe_408" data-name="Gruppe 408"><path id="Pfad_297" data-name="Pfad 297" class="cls-3" d="M529.22553,276.19322l-4.249.84a.554.554,0,0,0-.43832.6494l.00032.0016a.556.556,0,0,0,.654.435l4.25-.837a.5552.5552,0,1,0-.217-1.089"/></g><g id="Gruppe_409" data-name="Gruppe 409"><path id="Pfad_298" data-name="Pfad 298" class="cls-3" d="M544.24452,276.44334l1.791-2.81a.551.551,0,0,0-.16513-.76153l-.00387-.00247a.556.556,0,0,0-.76778.16966l-.00022.00034-1.793,2.811a.553.553,0,0,0,.17483.76227l.00117.00073a.556.556,0,0,0,.763-.17"/></g><g id="Gruppe_410" data-name="Gruppe 410"><path id="Pfad_299" data-name="Pfad 299" class="cls-3" d="M526.9895,271.61717l1.4.651a.55407.55407,0,1,0,.46979-1.00363l-.00079-.00037-1.398-.651a.55451.55451,0,1,0-.4736,1.0028l.0026.0012"/></g><g id="Gruppe_411" data-name="Gruppe 411"><path id="Pfad_300" data-name="Pfad 300" class="cls-3" d="M527.54455,276.78407l1.007-1.953a.55546.55546,0,0,0-.989-.506l-1.007,1.954a.552.552,0,0,0,.23862.74328l.00338.00172a.556.556,0,0,0,.747-.24"/></g><g id="Gruppe_412" data-name="Gruppe 412"><path id="Pfad_301" data-name="Pfad 301" class="cls-3" d="M723.88656,236.501l-3.918,27.254a.55565.55565,0,0,0,1.09982.1593l.00018-.0013,3.92-27.255a.557.557,0,0,0-.46919-.63273l-.00181-.00027a.558.558,0,0,0-.63.471"/></g><g id="Gruppe_413" data-name="Gruppe 413"><path id="Pfad_302" data-name="Pfad 302" class="cls-3" d="M725.96956,236.86914l-.139.127-.28.301c-.353.414-.848,1.047-1.262,1.582s-.738.971-.738.971l.445.332.432-.35-1.983-2.422a.5549.5549,0,0,0-.86391.69665l.00191.00235,1.977,2.422.445.2.432-.22.084-.111c.187-.243.659-.867,1.13-1.459.234-.295.465-.582.654-.808l.241-.283.083-.082.022-.025h.006l-.042-.058.041.055h0l-.041-.055.041.055a.55435.55435,0,0,0-.686-.871"/></g><g id="Gruppe_414" data-name="Gruppe 414"><path id="Pfad_303" data-name="Pfad 303" class="cls-3" d="M722.93447,251.622l6.431-5.561a.55423.55423,0,1,0-.729-.835l-6.431,5.555a.552.552,0,0,0-.06179.77819l.00679.00781a.558.558,0,0,0,.784.055"/></g><g id="Gruppe_415" data-name="Gruppe 415"><path id="Pfad_304" data-name="Pfad 304" class="cls-3" d="M724.40653,250.05318l3.516.191.457-.191,1.076-1.244a.549.549,0,0,0-.05106-.77472l-.00494-.00428a.56.56,0,0,0-.786.056l-.9,1.038-3.247-.177a.55382.55382,0,1,0-.06257,1.10587l.00257.00013"/></g><g id="Gruppe_416" data-name="Gruppe 416"><path id="Pfad_305" data-name="Pfad 305" class="cls-3" d="M727.62153,250.13432l1.23.929a.55451.55451,0,0,0,.671-.883l-1.229-.929a.556.556,0,0,0-.779.107h0a.553.553,0,0,0,.10555.77491l.00145.00109"/></g><g id="Gruppe_417" data-name="Gruppe 417"><path id="Pfad_306" data-name="Pfad 306" class="cls-3" d="M727.38356,247.41914l-.264-2.567a.555.555,0,0,0-.609-.4951l-.001.0001a.555.555,0,0,0-.50032.60476l.00032.00324.266,2.566a.5579.5579,0,0,0,1.11051-.10776l-.00051-.00524"/></g><g id="Gruppe_418" data-name="Gruppe 418"><path id="Pfad_307" data-name="Pfad 307" class="cls-3" d="M727.03053,241.64414l-3.709,2.984-2.579-3.151a.55529.55529,0,1,0-.863.699l2.932,3.579a.558.558,0,0,0,.779.082l4.139-3.33a.55521.55521,0,0,0-.7-.862"/></g><g id="Gruppe_419" data-name="Gruppe 419"><path id="Pfad_308" data-name="Pfad 308" class="cls-3" d="M722.02456,243.59828l-2.436.01a.555.555,0,0,0-.553.557v.001a.555.555,0,0,0,.558.552h0l2.435-.011a.5545.5545,0,0,0-.004-1.109"/></g><g id="Gruppe_420" data-name="Gruppe 420"><path id="Pfad_309" data-name="Pfad 309" class="cls-3" d="M722.32757,252.487l-5.169-4.371a.561.561,0,0,0-.785.063.553.553,0,0,0,.06124.77966l.00276.00234,5.171,4.371a.559.559,0,0,0,.784-.062.553.553,0,0,0-.06107-.77967l-.00393-.00333"/></g><g id="Gruppe_421" data-name="Gruppe 421"><path id="Pfad_310" data-name="Pfad 310" class="cls-3" d="M720.06754,250.83135l.252-2.331a.553.553,0,0,0-.49081-.60888l-.00119-.00012a.553.553,0,0,0-.61258.48618l-.00042.00382-.252,2.331a.554.554,0,0,0,.49181.60987l.00119.00013a.553.553,0,0,0,.6116-.4874l.0004-.0036"/></g><g id="Gruppe_422" data-name="Gruppe 422"><path id="Pfad_311" data-name="Pfad 311" class="cls-3" d="M718.34657,249.30632l-2.129.116a.553.553,0,0,0-.52525.57942l.00025.00458a.556.556,0,0,0,.585.522l2.13-.114a.555.555,0,0,0-.0343-1.10947l-.0267.00147"/></g><g id="Gruppe_423" data-name="Gruppe 423"><path id="Pfad_312" data-name="Pfad 312" class="cls-3" d="M729.13254,253.75008l-7.421,2.235-7.154-3.834a.555.555,0,0,0-.75177.22558l-.00023.00042a.553.553,0,0,0,.22564.7488l.00036.0002,7.355,3.943.423.042,7.644-2.3a.55425.55425,0,0,0-.321-1.061"/></g><g id="Gruppe_424" data-name="Gruppe 424"><path id="Pfad_313" data-name="Pfad 313" class="cls-3" d="M717.09546,253.64518l-2.848.214a.554.554,0,0,0-.51421.59112l.00021.00288a.555.555,0,0,0,.59545.51137l.00455-.00037,2.845-.214a.55406.55406,0,0,0-.083-1.105"/></g><g id="Gruppe_425" data-name="Gruppe 425"><path id="Pfad_314" data-name="Pfad 314" class="cls-3" d="M727.06856,255.30138l1.4-1.7a.549.549,0,0,0-.07019-.77322l-.00581-.00478a.554.554,0,0,0-.77993.07448l-.00207.00252-1.399,1.698a.551.551,0,0,0,.0722.77588l.0038.00312a.555.555,0,0,0,.781-.076"/></g><g id="Gruppe_426" data-name="Gruppe 426"><path id="Pfad_315" data-name="Pfad 315" class="cls-3" d="M255.23947,279.85212l-3.918,27.254a.55565.55565,0,0,0,1.1.158l3.918-27.255a.556.556,0,0,0-1.1-.157"/></g><g id="Gruppe_427" data-name="Gruppe 427"><path id="Pfad_316" data-name="Pfad 316" class="cls-3" d="M257.32246,280.22021l-.139.127-.28.301c-.353.414-.848,1.047-1.262,1.582s-.738.971-.738.971l.445.332.432-.35-1.983-2.422a.5549.5549,0,0,0-.8639.69666l.0019.00234,1.977,2.422.445.2.432-.22.084-.111c.187-.243.659-.867,1.13-1.459.234-.295.465-.582.654-.808l.241-.283.083-.082.022-.025h.006l-.042-.058.041.055h0l-.041-.055.041.055a.55435.55435,0,1,0-.686-.871"/></g><g id="Gruppe_428" data-name="Gruppe 428"><path id="Pfad_317" data-name="Pfad 317" class="cls-3" d="M254.28847,294.97308l6.431-5.561a.55423.55423,0,1,0-.729-.835l-6.431,5.555a.552.552,0,0,0-.06178.7782l.00678.0078a.558.558,0,0,0,.784.055"/></g><g id="Gruppe_429" data-name="Gruppe 429"><path id="Pfad_318" data-name="Pfad 318" class="cls-3" d="M255.75946,293.40523l3.516.191.457-.191,1.076-1.244a.55.55,0,0,0-.05151-.77611l-.00449-.00389a.561.561,0,0,0-.786.057l-.9,1.038-3.246-.178a.55435.55435,0,1,0-.061,1.107"/></g><g id="Gruppe_430" data-name="Gruppe 430"><path id="Pfad_319" data-name="Pfad 319" class="cls-3" d="M258.97456,293.48637l1.23.929a.55451.55451,0,0,0,.671-.883l-1.229-.929a.556.556,0,0,0-.779.107h0a.553.553,0,0,0,.10555.77491l.00145.00109"/></g><g id="Gruppe_431" data-name="Gruppe 431"><path id="Pfad_320" data-name="Pfad 320" class="cls-3" d="M258.73647,290.77119l-.264-2.567a.555.555,0,0,0-.609-.4951l-.001.0001a.555.555,0,0,0-.50032.60476l.00032.00324.266,2.566a.5579.5579,0,0,0,1.11051-.10776l-.00051-.00524"/></g><g id="Gruppe_432" data-name="Gruppe 432"><path id="Pfad_321" data-name="Pfad 321" class="cls-3" d="M258.38454,284.99521l-3.709,2.984-2.579-3.151a.55529.55529,0,1,0-.863.699l2.932,3.579a.558.558,0,0,0,.779.082l4.139-3.33a.55521.55521,0,1,0-.7-.862"/></g><g id="Gruppe_433" data-name="Gruppe 433"><path id="Pfad_322" data-name="Pfad 322" class="cls-3" d="M253.37747,286.94936l-2.436.01a.555.555,0,0,0-.553.557v.001a.554.554,0,0,0,.556.552h.001l2.436-.011a.5545.5545,0,0,0-.004-1.109"/></g><g id="Gruppe_434" data-name="Gruppe 434"><path id="Pfad_323" data-name="Pfad 323" class="cls-3" d="M253.68047,295.83808l-5.169-4.371a.561.561,0,0,0-.785.063.553.553,0,0,0,.06125.77966l.00275.00234,5.171,4.371a.559.559,0,0,0,.784-.062.553.553,0,0,0-.06107-.77967l-.00393-.00333"/></g><g id="Gruppe_435" data-name="Gruppe 435"><path id="Pfad_324" data-name="Pfad 324" class="cls-3" d="M251.42154,294.1834l.252-2.331a.553.553,0,0,0-.49081-.60888l-.00119-.00012a.553.553,0,0,0-.61258.48618l-.00042.00382-.252,2.331a.554.554,0,0,0,.4917.61l.0003,0a.554.554,0,0,0,.6127-.4883l.0003-.0027"/></g><g id="Gruppe_436" data-name="Gruppe 436"><path id="Pfad_325" data-name="Pfad 325" class="cls-3" d="M249.69947,292.65739l-2.129.116a.553.553,0,0,0-.52524.57943l.00024.00457a.556.556,0,0,0,.585.522l2.13-.114a.555.555,0,1,0-.0343-1.10947l-.0267.00147"/></g><g id="Gruppe_440" data-name="Gruppe 440"><path id="Pfad_329" data-name="Pfad 329" class="cls-3" d="M362.31051,271.97907l-3.918,27.254a.55565.55565,0,0,0,1.1.158l3.918-27.255a.557.557,0,0,0-.46886-.633l-.00014,0a.558.558,0,0,0-.63.471"/></g><g id="Gruppe_441" data-name="Gruppe 441"><path id="Pfad_330" data-name="Pfad 330" class="cls-3" d="M364.39253,272.34717l-.139.127-.28.301c-.353.414-.848,1.047-1.262,1.582s-.738.971-.738.971l.445.332.432-.35-1.983-2.422a.5549.5549,0,0,0-.8639.69665l.0019.00235,1.977,2.422.445.2.432-.22.086-.111c.185-.243.657-.867,1.128-1.459.234-.295.465-.582.654-.808l.241-.283.083-.082.022-.025h.006l-.042-.058.041.055h0l-.041-.055.041.055a.55435.55435,0,0,0-.686-.871"/></g><g id="Gruppe_442" data-name="Gruppe 442"><path id="Pfad_331" data-name="Pfad 331" class="cls-3" d="M361.35854,287.101l6.431-5.561a.55423.55423,0,1,0-.729-.835l-6.431,5.555a.552.552,0,0,0-.06178.7782l.00678.0078a.558.558,0,0,0,.784.055"/></g><g id="Gruppe_443" data-name="Gruppe 443"><path id="Pfad_332" data-name="Pfad 332" class="cls-3" d="M362.82953,285.53219l3.516.191.457-.191,1.076-1.244a.549.549,0,0,0-.05106-.77473l-.00494-.00427a.56.56,0,0,0-.786.056l-.9,1.038-3.246-.177a.55385.55385,0,1,0-.061,1.106"/></g><g id="Gruppe_444" data-name="Gruppe 444"><path id="Pfad_333" data-name="Pfad 333" class="cls-3" d="M366.04548,285.61333l1.23.929a.55451.55451,0,0,0,.671-.883l-1.229-.929a.556.556,0,0,0-.779.107v0a.553.553,0,0,0,.10555.7749l.00145.0011"/></g><g id="Gruppe_445" data-name="Gruppe 445"><path id="Pfad_334" data-name="Pfad 334" class="cls-3" d="M365.80653,282.89815l-.264-2.567a.55789.55789,0,0,0-1.11031.10976l.00031.00324.266,2.566a.5579.5579,0,0,0,1.11051-.10776l-.00051-.00524"/></g><g id="Gruppe_446" data-name="Gruppe 446"><path id="Pfad_335" data-name="Pfad 335" class="cls-3" d="M365.45448,277.12216l-3.709,2.984-2.579-3.151a.55529.55529,0,1,0-.863.699l2.932,3.579a.558.558,0,0,0,.779.082l4.139-3.33a.55521.55521,0,0,0-.7-.862"/></g><g id="Gruppe_447" data-name="Gruppe 447"><path id="Pfad_336" data-name="Pfad 336" class="cls-3" d="M360.44754,279.07729l-2.436.01a.555.555,0,0,0-.553.557v.001a.554.554,0,0,0,.556.552h.002l2.435-.011a.5545.5545,0,0,0-.004-1.109"/></g><g id="Gruppe_448" data-name="Gruppe 448"><path id="Pfad_337" data-name="Pfad 337" class="cls-3" d="M360.75054,287.965l-5.169-4.371a.561.561,0,0,0-.785.063.553.553,0,0,0,.06124.77966l.00276.00234,5.171,4.371a.559.559,0,0,0,.784-.062.553.553,0,0,0-.06107-.77967l-.00393-.00333"/></g><g id="Gruppe_449" data-name="Gruppe 449"><path id="Pfad_338" data-name="Pfad 338" class="cls-3" d="M358.49149,286.31035l.252-2.331a.553.553,0,0,0-.49081-.60887l-.00119-.00013a.553.553,0,0,0-.61258.48618l-.00042.00382-.252,2.331a.553.553,0,0,0,.48982.60966l.00318.00034a.553.553,0,0,0,.6116-.4874l.0004-.0036"/></g><g id="Gruppe_450" data-name="Gruppe 450"><path id="Pfad_339" data-name="Pfad 339" class="cls-3" d="M356.77052,284.78532l-2.129.116a.553.553,0,0,0-.52525.57943l.00025.00457a.556.556,0,0,0,.585.522l2.13-.114a.555.555,0,0,0-.0343-1.10947l-.0267.00147"/></g><g id="Gruppe_451" data-name="Gruppe 451"><path id="Pfad_340" data-name="Pfad 340" class="cls-3" d="M367.55551,289.22908l-7.421,2.235-7.154-3.834a.555.555,0,0,0-.75178.22558l-.00022.00042a.553.553,0,0,0,.22563.7488l.00037.0002,7.355,3.943.423.042,7.644-2.3a.55425.55425,0,0,0-.321-1.061"/></g><g id="Gruppe_452" data-name="Gruppe 452"><path id="Pfad_341" data-name="Pfad 341" class="cls-3" d="M355.51953,289.12419l-2.848.214a.554.554,0,0,0-.5142.59112l.0002.00288a.555.555,0,0,0,.59545.51136l.00455-.00036,2.845-.214a.55406.55406,0,1,0-.083-1.105"/></g><g id="Gruppe_453" data-name="Gruppe 453"><path id="Pfad_342" data-name="Pfad 342" class="cls-3" d="M365.49251,290.78039l1.4-1.7a.549.549,0,0,0-.07019-.77323l-.00581-.00477a.554.554,0,0,0-.77993.07447l-.00207.00253-1.399,1.698a.551.551,0,0,0,.0722.77588l.0038.00312a.556.556,0,0,0,.781-.076"/></g><path id="Pfad_343" data-name="Pfad 343" class="cls-4" d="M131.30851,322.9731h941.531v-110.71h-941.531Z"/><path id="Pfad_345" data-name="Pfad 345" class="cls-4" d="M.30851,432.557h1127v-169.4h-1127Z"/><g id="Gruppe_456" data-name="Gruppe 456"><path id="Pfad_344" data-name="Pfad 344" class="cls-5" d="M.30851,323.01034s524.4-34.2,588.719-46.184c126.887-23.644,234.392-11.292,279.781-2.364,48.078,9.457,141.075,21.278,166.293,26.008s92.207,25.22,92.207,25.22l-2.364,106.394-1124.636.468Z"/></g></g></svg>